<svg width="1600" height="1200" viewBox="0 0 1600 1200" fill="none" xmlns="http://www.w3.org/2000/svg">
<path d="M1318.8 270.2V878.6C1318.8 893 1307.1 904.8 1292.6 904.8H354.5C340.1 904.8 328.3 893.1 328.3 878.6V270.2C328.3 255.8 340 244 354.5 244H1292.6C1307.1 244.1 1318.8 255.8 1318.8 270.2Z" fill="#FEFEFE"/>
<path d="M1292.7 905.3H354.5C339.8 905.3 327.8 893.3 327.8 878.6V270.2C327.8 255.5 339.8 243.5 354.5 243.5H1292.6C1307.3 243.5 1319.3 255.5 1319.3 270.2V878.6C1319.3 893.3 1307.4 905.3 1292.7 905.3ZM354.5 244.6C340.4 244.6 328.8 256.1 328.8 270.3V878.7C328.8 892.8 340.3 904.4 354.5 904.4H1292.6C1306.7 904.4 1318.3 892.9 1318.3 878.7V270.2C1318.3 256.1 1306.8 244.5 1292.6 244.5H354.5V244.6Z" fill="black"/>
<path d="M1318.8 269.2V301H328.4V269.2C328.4 254.8 340.1 243 354.6 243H1292.7C1307.1 243.1 1318.8 254.8 1318.8 269.2Z" fill="#261134"/>
<path d="M494.4 347.1H380.1V388H494.4V347.1Z" fill="#31B8ED"/>
<path d="M494.9 388.6H379.6V346.7H494.9V388.6ZM380.6 387.6H493.9V347.7H380.6V387.6Z" fill="#261134"/>
<path d="M1038 347.1H525.7V388H1038V347.1Z" fill="#FEFEFE"/>
<path d="M1038.5 388.6H525.2V346.7H1038.5V388.6ZM526.2 387.6H1037.5V347.7H526.2V387.6Z" fill="#261134"/>
<path d="M386.4 284C393.304 284 398.9 278.404 398.9 271.5C398.9 264.596 393.304 259 386.4 259C379.497 259 373.9 264.596 373.9 271.5C373.9 278.404 379.497 284 386.4 284Z" fill="#F27A79"/>
<path d="M426.2 284C433.104 284 438.7 278.404 438.7 271.5C438.7 264.596 433.104 259 426.2 259C419.297 259 413.7 264.596 413.7 271.5C413.7 278.404 419.297 284 426.2 284Z" fill="#FAD43B"/>
<path d="M467.1 284C474.004 284 479.6 278.404 479.6 271.5C479.6 264.596 474.004 259 467.1 259C460.197 259 454.6 264.596 454.6 271.5C454.6 278.404 460.197 284 467.1 284Z" fill="#6EBCB2"/>
<path d="M1153.9 347.1H1071.5V388H1153.9V347.1Z" fill="#FEFEFE"/>
<path d="M1154.5 388.6H1071V346.7H1154.4V388.6H1154.5ZM1072 387.6H1153.4V347.7H1072V387.6Z" fill="#261134"/>
<path d="M1261.9 347.1H1179.5V388H1261.9V347.1Z" fill="#1BA096"/>
<path d="M1262.5 388.6H1179V346.7H1262.4V388.6H1262.5ZM1180 387.6H1261.4V347.7H1180V387.6Z" fill="#261134"/>
<path d="M526.5 810.2V842.4C526.5 845.1 528.7 847.3 531.4 847.3H756.2C758.9 847.3 761.1 845.1 761.1 842.4V810.2C761.1 807.5 758.9 805.3 756.2 805.3H531.4C528.7 805.3 526.5 807.5 526.5 810.2Z" fill="#FEFEFE"/>
<path d="M756.1 847.7H531.4C528.4 847.7 526 845.3 526 842.3V810.1C526 807.1 528.4 804.7 531.4 804.7H756.2C759.2 804.7 761.6 807.1 761.6 810.1V842.3C761.5 845.3 759.1 847.7 756.1 847.7ZM531.4 805.8C529 805.8 527 807.8 527 810.2V842.4C527 844.8 529 846.8 531.4 846.8H756.2C758.6 846.8 760.6 844.8 760.6 842.4V810.2C760.6 807.8 758.6 805.8 756.2 805.8H531.4Z" fill="#261134"/>
<path d="M551.1 836.9C556.789 836.9 561.4 832.289 561.4 826.6C561.4 820.911 556.789 816.3 551.1 816.3C545.412 816.3 540.8 820.911 540.8 826.6C540.8 832.289 545.412 836.9 551.1 836.9Z" fill="#FAD338"/>
<path d="M551.1 837.4C545.1 837.4 540.3 832.5 540.3 826.6C540.3 820.7 545.2 815.8 551.1 815.8C557 815.8 561.9 820.7 561.9 826.6C561.9 832.5 557.1 837.4 551.1 837.4ZM551.1 816.7C545.7 816.7 541.3 821.1 541.3 826.5C541.3 831.9 545.7 836.3 551.1 836.3C556.5 836.3 560.9 831.9 560.9 826.5C560.9 821.1 556.5 816.7 551.1 816.7Z" fill="#261134"/>
<path d="M746.7 821.1H569.3V831.4H746.7V821.1Z" fill="#F27B79"/>
<path d="M747.2 831.9H568.8V820.6H747.2V831.9ZM569.8 830.9H746.2V821.6H569.8V830.9Z" fill="#261134"/>
<path d="M802.5 810.2V842.4C802.5 845.1 804.7 847.3 807.4 847.3H1032.2C1034.9 847.3 1037.1 845.1 1037.1 842.4V810.2C1037.1 807.5 1034.9 805.3 1032.2 805.3H807.4C804.7 805.3 802.5 807.5 802.5 810.2Z" fill="#FEFEFE"/>
<path d="M1032.1 847.7H807.4C804.4 847.7 802 845.3 802 842.3V810.1C802 807.1 804.4 804.7 807.4 804.7H1032.2C1035.2 804.7 1037.6 807.1 1037.6 810.1V842.3C1037.5 845.3 1035.1 847.7 1032.1 847.7ZM807.4 805.8C805 805.8 803 807.8 803 810.2V842.4C803 844.8 805 846.8 807.4 846.8H1032.2C1034.6 846.8 1036.6 844.8 1036.6 842.4V810.2C1036.6 807.8 1034.6 805.8 1032.2 805.8H807.4Z" fill="#261134"/>
<path d="M827.1 836.9C832.789 836.9 837.4 832.289 837.4 826.6C837.4 820.911 832.789 816.3 827.1 816.3C821.412 816.3 816.8 820.911 816.8 826.6C816.8 832.289 821.412 836.9 827.1 836.9Z" fill="#FAD338"/>
<path d="M827.1 837.4C821.1 837.4 816.3 832.5 816.3 826.6C816.3 820.7 821.2 815.8 827.1 815.8C833 815.8 837.9 820.7 837.9 826.6C837.9 832.5 833.1 837.4 827.1 837.4ZM827.1 816.7C821.7 816.7 817.3 821.1 817.3 826.5C817.3 831.9 821.7 836.3 827.1 836.3C832.5 836.3 836.9 831.9 836.9 826.5C836.9 821.1 832.5 816.7 827.1 816.7Z" fill="#261134"/>
<path d="M1022.7 821.1H845.3V831.4H1022.7V821.1Z" fill="#F27B79"/>
<path d="M1023.2 831.9H844.8V820.6H1023.2V831.9ZM845.8 830.9H1022.2V821.6H845.8V830.9Z" fill="#261134"/>
<path d="M1036.5 451.3V747.8C1036.5 753.3 1032.1 757.7 1026.6 757.7H812.7C807.2 757.7 802.8 753.3 802.8 747.8V451.3C802.8 445.8 807.2 441.4 812.7 441.4H1026.6C1032.1 441.4 1036.5 445.8 1036.5 451.3Z" fill="#FEFEFE"/>
<path d="M1026.6 758.1H812.7C807 758.1 802.3 753.4 802.3 747.7V451.3C802.3 445.6 807 440.9 812.7 440.9H1026.6C1032.3 440.9 1037 445.6 1037 451.3V747.8C1037 753.5 1032.4 758.1 1026.6 758.1ZM812.7 441.9C807.5 441.9 803.3 446.1 803.3 451.3V747.8C803.3 753 807.5 757.2 812.7 757.2H1026.6C1031.8 757.2 1036 753 1036 747.8V451.3C1036 446.1 1031.8 441.9 1026.6 441.9H812.7Z" fill="#261134"/>
<path d="M1036.5 451.3V633.8H802.8V451.3C802.8 445.8 807.2 441.4 812.7 441.4H1026.6C1032.1 441.4 1036.5 445.8 1036.5 451.3Z" fill="#FEFEFE"/>
<path d="M1037 634.3H802.3V451.3C802.3 445.6 807 440.9 812.7 440.9H1026.6C1032.3 440.9 1037 445.6 1037 451.3V634.3ZM803.3 633.3H1036V451.3C1036 446.1 1031.8 441.9 1026.6 441.9H812.7C807.5 441.9 803.3 446.1 803.3 451.3V633.3Z" fill="#261134"/>
<path d="M1014.7 653H824.2V664.7H1014.7V653Z" fill="#FEFEFE"/>
<path d="M1015.2 665.2H823.7V652.5H1015.2V665.2ZM824.7 664.2H1014.2V653.5H824.7V664.2Z" fill="#261134"/>
<path d="M1014.7 678.3H824.2V690H1014.7V678.3Z" fill="#FEFEFE"/>
<path d="M1015.2 690.6H823.7V677.9H1015.2V690.6ZM824.7 689.6H1014.2V678.9H824.7V689.6Z" fill="#261134"/>
<path d="M926 703.7H824.2V715.4H926V703.7Z" fill="#31B8ED"/>
<path d="M926.5 715.9H823.7V703.2H926.5V715.9ZM824.7 714.9H925.5V704.2H824.7V714.9Z" fill="#261134"/>
<path d="M834.7 726.7L837.5 732.3L843.6 733.2L839.2 737.5L840.2 743.6L834.7 740.7L829.3 743.6L830.3 737.5L825.9 733.2L832 732.3L834.7 726.7Z" fill="#FAD338"/>
<path d="M840.9 744.5L834.8 741.3L828.7 744.5L829.9 737.7L824.9 732.9L831.8 731.9L834.9 725.7L838 731.9L844.9 732.9L839.9 737.7L840.9 744.5ZM834.7 740.1L839.5 742.6L838.6 737.2L842.5 733.4L837.1 732.6L834.7 727.7L832.3 732.6L826.9 733.4L830.8 737.2L829.9 742.6L834.7 740.1Z" fill="#261134"/>
<path d="M863.1 726.7L865.8 732.3L872 733.2L867.5 737.5L868.6 743.6L863.1 740.7L857.6 743.6L858.7 737.5L854.2 733.2L860.4 732.3L863.1 726.7Z" fill="#FAD338"/>
<path d="M869.2 744.5L863.1 741.3L857 744.5L858.2 737.7L853.2 732.9L860.1 731.9L863.2 725.7L866.3 731.9L873.2 732.9L868.2 737.7L869.2 744.5ZM863.1 740.1L867.9 742.6L867 737.2L870.9 733.4L865.5 732.6L863.1 727.7L860.7 732.6L855.3 733.4L859.2 737.2L858.3 742.6L863.1 740.1Z" fill="#261134"/>
<path d="M892.6 726.7L895.3 732.3L901.4 733.2L897 737.5L898.1 743.6L892.6 740.7L887.1 743.6L888.2 737.5L883.7 733.2L889.8 732.3L892.6 726.7Z" fill="#FAD338"/>
<path d="M898.7 744.5L892.6 741.3L886.5 744.5L887.7 737.7L882.7 732.9L889.6 731.9L892.7 725.7L895.8 731.9L902.7 732.9L897.7 737.7L898.7 744.5ZM892.6 740.1L897.4 742.6L896.5 737.2L900.4 733.4L895 732.6L892.6 727.7L890.2 732.6L884.8 733.4L888.7 737.2L887.8 742.6L892.6 740.1Z" fill="#261134"/>
<path d="M922.1 726.7L924.8 732.3L930.9 733.2L926.5 737.5L927.6 743.6L922.1 740.7L916.6 743.6L917.6 737.5L913.2 733.2L919.3 732.3L922.1 726.7Z" fill="#FAD338"/>
<path d="M928.2 744.5L922.1 741.3L916 744.5L917.2 737.7L912.2 732.9L919.1 731.9L922.2 725.7L925.3 731.9L932.2 732.9L927.2 737.7L928.2 744.5ZM914.3 733.5L918.2 737.3L917.3 742.7L922.1 740.2L926.9 742.7L926 737.3L929.9 733.5L924.5 732.7L922.1 727.8L919.7 732.7L914.3 733.5Z" fill="#261134"/>
<path d="M951.2 726.7L953.9 732.3L960 733.2L955.6 737.5L956.6 743.6L951.2 740.7L945.7 743.6L946.7 737.5L942.3 733.2L948.4 732.3L951.2 726.7Z" fill="#FAD338"/>
<path d="M957.3 744.5L951.2 741.3L945.1 744.5L946.3 737.7L941.3 732.9L948.2 731.9L951.3 725.7L954.4 731.9L961.3 732.9L956.3 737.7L957.3 744.5ZM951.2 740.1L956 742.6L955.1 737.2L959 733.4L953.6 732.6L951.2 727.7L948.8 732.6L943.4 733.4L947.3 737.2L946.4 742.6L951.2 740.1Z" fill="#261134"/>
<path d="M896.3 476.8C900.6 478.8 918.3 485.5 942.7 476.7C943.2 476.5 943.7 476.9 943.7 477.4V512.9C943.7 513.3 943.4 513.6 943 513.6H896.2C895.8 513.6 895.5 513.3 895.5 512.9L895.3 477.6C895.3 476.9 895.8 476.6 896.3 476.8Z" fill="#261134"/>
<path d="M943 514H896.2C895.5 514 895 513.5 895 512.8L894.8 477.5C894.8 477.1 895 476.7 895.4 476.5C895.7 476.3 896.2 476.2 896.6 476.4C901.3 478.6 918.6 484.9 942.7 476.2C943.1 476.1 943.5 476.1 943.8 476.3C944.1 476.5 944.3 476.9 944.3 477.3V512.8C944.2 513.5 943.7 514 943 514ZM896 477.2H895.9C895.9 477.2 895.8 477.3 895.8 477.4L896 512.7C896 512.8 896.1 512.9 896.2 512.9H943C943.1 512.9 943.2 512.8 943.2 512.7V477.2C943.2 477.1 943.1 477.1 943.1 477C943.1 477 943 476.9 942.9 477C918.5 485.9 900.9 479.4 896 477.2C896.1 477.2 896 477.2 896 477.2Z" fill="#261134"/>
<path d="M949.4 564.1C949.4 564.1 958.7 574.5 966.6 602H872.4C880.3 574.5 889.6 564.1 889.6 564.1V564L889 559.4L884.4 524.5L875 543.6L846.8 530.7L863.2 498C875.6 471 896.3 476.6 896.3 476.6C899.5 496.8 907.9 502.8 914.3 504.4C915.5 504.7 916.8 504.8 918 504.8H921.2C922.5 504.8 923.7 504.7 924.9 504.4C931.3 502.8 939.7 496.8 942.9 476.6C942.9 476.6 963.6 471 976 498L992.4 530.7L964 543.5L954.6 524.4L950 559.3L949.4 563.8V564.1Z" fill="#F27B79"/>
<path d="M967.2 602.5H871.7L871.9 601.9C879.2 576.5 887.8 565.5 889.1 564L884.1 526.2L875.2 544.2L846 530.9L862.6 497.7C875 470.6 896 476 896.3 476L896.6 476.1L896.7 476.4C899.8 496.3 908 502.3 914.3 503.8C915.4 504.1 916.6 504.2 917.9 504.2H921.1C922.4 504.2 923.6 504.1 924.7 503.8C931 502.3 939.1 496.3 942.3 476.4L942.4 476.1L942.7 476C942.9 475.9 963.9 470.6 976.4 497.7L993 530.9L963.8 544.2L954.9 526.2L949.9 564C951.1 565.5 959.8 576.5 967.1 602L967.2 602.5ZM873.1 601.5H965.9C958.2 574.9 949.1 564.5 949 564.4L948.9 564.2V563.7L954.3 522.7L964.2 542.8L991.5 530.3L975.4 498.1C964.1 473.6 945.8 476.3 943.2 476.9C939.9 497 931.5 503.2 924.9 504.8C923.7 505.1 922.4 505.2 921.1 505.2H917.9C916.5 505.2 915.2 505.1 914.1 504.8C907.6 503.2 899.1 497.1 895.8 476.9C893.2 476.4 874.9 473.6 863.6 498.1L847.5 530.4L874.8 542.9L884.7 522.8L890.1 564.3L889.9 564.5C889.9 564.5 880.8 574.9 873.1 601.5Z" fill="#261134"/>
<path d="M950 559.4L949.4 563.9H909C908.6 566.8 908.1 571.7 907.9 574C907.9 574.4 907.7 574.7 907.4 574.9C907.1 575.1 906.8 575.3 906.4 575.3C905.6 575.3 905 574.7 904.9 573.9C904.8 570.1 905.1 564.5 905.1 564.5C902.7 568.3 901.4 578.8 901 582.5C901 582.9 900.8 583.2 900.5 583.5C900.2 583.7 899.9 583.9 899.5 583.9C898.7 583.9 898.1 583.3 898 582.5C897.1 569.8 900.8 564.1 900.8 564.1H889.5L888.9 559.5H950V559.4Z" fill="#FEFEFE"/>
<path d="M899.6 584.3C898.6 584.3 897.7 583.5 897.6 582.5C896.9 572.3 899.1 566.5 900.1 564.5H889.2L888.5 558.9H950.6L949.9 564.4H909.5C909.1 567.6 908.6 572.5 908.5 574C908.4 574.5 908.2 574.9 907.9 575.3C907.5 575.6 907.1 575.8 906.6 575.8C905.5 575.8 904.7 575 904.6 573.9C904.5 571.7 904.6 569 904.7 567C903 571.7 902 579.9 901.7 582.6C901.6 583.1 901.4 583.5 901.1 583.9C900.5 584.1 900.1 584.3 899.6 584.3ZM890.1 563.4H901.9L901.4 564.2C901.4 564.3 897.8 570 898.6 582.3C898.6 582.8 899.1 583.2 899.6 583.2C899.8 583.2 900.1 583.1 900.3 582.9C900.5 582.7 900.6 582.5 900.6 582.3C901 578.1 902.3 568 904.8 564.1L905.8 562.5L905.7 564.4C905.7 564.5 905.4 569.9 905.5 573.7C905.5 574.2 905.9 574.6 906.5 574.6C906.7 574.6 907 574.5 907.1 574.4C907.3 574.2 907.4 574 907.4 573.8C907.6 572.2 908.1 566.9 908.5 563.7L908.6 563.3H949L949.5 559.8H889.7L890.1 563.4Z" fill="#261134"/>
<path d="M1035.8 465.6C1049.22 465.6 1060.1 454.721 1060.1 441.3C1060.1 427.879 1049.22 417 1035.8 417C1022.38 417 1011.5 427.879 1011.5 441.3C1011.5 454.721 1022.38 465.6 1035.8 465.6Z" fill="#FEFEFE"/>
<path d="M1035.8 466C1022.2 466 1011 454.9 1011 441.2C1011 427.5 1022.1 416.4 1035.8 416.4C1049.5 416.4 1060.6 427.5 1060.6 441.2C1060.6 454.9 1049.4 466 1035.8 466ZM1035.8 417.5C1022.7 417.5 1012 428.2 1012 441.3C1012 454.4 1022.7 465.1 1035.8 465.1C1048.9 465.1 1059.6 454.4 1059.6 441.3C1059.6 428.2 1048.8 417.5 1035.8 417.5Z" fill="#261134"/>
<path d="M1042.7 429.1C1039.4 429.1 1036.6 431.3 1035.7 434.3C1034.8 431.3 1032 429.1 1028.7 429.1C1024.7 429.1 1021.4 432.4 1021.4 436.4C1021.4 437.7 1021.8 438.9 1022.4 440C1022.7 440.5 1023 440.9 1023.4 441.3L1035.4 457.6L1047.8 441.6C1048.3 441.1 1048.7 440.6 1049 440C1049.6 438.9 1050 437.7 1050 436.4C1050 432.4 1046.7 429.1 1042.7 429.1Z" fill="#F27B79"/>
<path d="M1035.4 458.4L1023 441.6C1022.6 441.2 1022.3 440.7 1022 440.2C1021.3 439 1021 437.7 1021 436.3C1021 432 1024.5 428.5 1028.8 428.5C1031.8 428.5 1034.5 430.2 1035.8 432.8C1037.1 430.2 1039.8 428.5 1042.8 428.5C1047.1 428.5 1050.6 432 1050.6 436.3C1050.6 437.6 1050.2 439 1049.6 440.2C1049.2 440.8 1048.8 441.4 1048.3 441.9L1035.4 458.4ZM1028.8 429.6C1025.1 429.6 1022 432.6 1022 436.4C1022 437.6 1022.3 438.7 1022.9 439.8C1023.2 440.2 1023.5 440.6 1023.8 441L1035.4 456.8L1047.4 441.3C1047.9 440.8 1048.3 440.3 1048.6 439.8C1049.2 438.8 1049.5 437.6 1049.5 436.4C1049.5 432.7 1046.5 429.6 1042.7 429.6C1039.7 429.6 1037.1 431.5 1036.2 434.4L1035.7 436L1035.2 434.4C1034.4 431.6 1031.8 429.6 1028.8 429.6Z" fill="#261134"/>
<path d="M760.5 451.3V747.8C760.5 753.3 756.1 757.7 750.6 757.7H536.7C531.2 757.7 526.8 753.3 526.8 747.8V451.3C526.8 445.8 531.2 441.4 536.7 441.4H750.6C756.1 441.4 760.5 445.8 760.5 451.3Z" fill="#FEFEFE"/>
<path d="M750.6 758.1H536.7C531 758.1 526.3 753.4 526.3 747.7V451.3C526.3 445.6 531 440.9 536.7 440.9H750.6C756.3 440.9 761 445.6 761 451.3V747.8C761 753.5 756.4 758.1 750.6 758.1ZM536.7 441.9C531.5 441.9 527.3 446.1 527.3 451.3V747.8C527.3 753 531.5 757.2 536.7 757.2H750.6C755.8 757.2 760 753 760 747.8V451.3C760 446.1 755.8 441.9 750.6 441.9H536.7Z" fill="#261134"/>
<path d="M760.5 451.3V633.8H526.8V451.3C526.8 445.8 531.2 441.4 536.7 441.4H750.6C756.1 441.4 760.5 445.8 760.5 451.3Z" fill="#FEFEFE"/>
<path d="M761 634.3H526.3V451.3C526.3 445.6 531 440.9 536.7 440.9H750.6C756.3 440.9 761 445.6 761 451.3V634.3ZM527.3 633.3H760V451.3C760 446.1 755.8 441.9 750.6 441.9H536.7C531.5 441.9 527.3 446.1 527.3 451.3V633.3Z" fill="#261134"/>
<path d="M738.7 653H548.2V664.7H738.7V653Z" fill="#FEFEFE"/>
<path d="M739.2 665.2H547.7V652.5H739.2V665.2ZM548.7 664.2H738.2V653.5H548.7V664.2Z" fill="#261134"/>
<path d="M738.7 678.3H548.2V690H738.7V678.3Z" fill="#FEFEFE"/>
<path d="M739.2 690.6H547.7V677.9H739.2V690.6ZM548.7 689.6H738.2V678.9H548.7V689.6Z" fill="#261134"/>
<path d="M650 703.7H548.2V715.4H650V703.7Z" fill="#31B8ED"/>
<path d="M650.5 715.9H547.7V703.2H650.5V715.9ZM548.7 714.9H649.5V704.2H548.7V714.9Z" fill="#261134"/>
<path d="M558.7 726.7L561.5 732.3L567.6 733.2L563.2 737.5L564.2 743.6L558.7 740.7L553.3 743.6L554.3 737.5L549.9 733.2L556 732.3L558.7 726.7Z" fill="#FAD338"/>
<path d="M564.9 744.5L558.8 741.3L552.7 744.5L553.9 737.7L548.9 732.9L555.8 731.9L558.9 725.7L562 731.9L568.9 732.9L563.9 737.7L564.9 744.5ZM558.7 740.1L563.5 742.6L562.6 737.2L566.5 733.4L561.1 732.6L558.7 727.7L556.3 732.6L550.9 733.4L554.8 737.2L553.9 742.6L558.7 740.1Z" fill="#261134"/>
<path d="M587.1 726.7L589.8 732.3L596 733.2L591.5 737.5L592.6 743.6L587.1 740.7L581.6 743.6L582.7 737.5L578.2 733.2L584.4 732.3L587.1 726.7Z" fill="#FAD338"/>
<path d="M593.2 744.5L587.1 741.3L581 744.5L582.2 737.7L577.2 732.9L584.1 731.9L587.2 725.7L590.3 731.9L597.2 732.9L592.2 737.7L593.2 744.5ZM587.1 740.1L591.9 742.6L591 737.2L594.9 733.4L589.5 732.6L587.1 727.7L584.7 732.6L579.3 733.4L583.2 737.2L582.3 742.6L587.1 740.1Z" fill="#261134"/>
<path d="M616.6 726.7L619.3 732.3L625.4 733.2L621 737.5L622.1 743.6L616.6 740.7L611.1 743.6L612.2 737.5L607.7 733.2L613.8 732.3L616.6 726.7Z" fill="#FAD338"/>
<path d="M622.7 744.5L616.6 741.3L610.5 744.5L611.7 737.7L606.7 732.9L613.6 731.9L616.7 725.7L619.8 731.9L626.7 732.9L621.7 737.7L622.7 744.5ZM616.6 740.1L621.4 742.6L620.5 737.2L624.4 733.4L619 732.6L616.6 727.7L614.2 732.6L608.8 733.4L612.7 737.2L611.8 742.6L616.6 740.1Z" fill="#261134"/>
<path d="M646.1 726.7L648.8 732.3L654.9 733.2L650.5 737.5L651.6 743.6L646.1 740.7L640.6 743.6L641.6 737.5L637.2 733.2L643.3 732.3L646.1 726.7Z" fill="#FAD338"/>
<path d="M652.2 744.5L646.1 741.3L640 744.5L641.2 737.7L636.2 732.9L643.1 731.9L646.2 725.7L649.3 731.9L656.2 732.9L651.2 737.7L652.2 744.5ZM638.3 733.5L642.2 737.3L641.3 742.7L646.1 740.2L650.9 742.7L650 737.3L653.9 733.5L648.5 732.7L646.1 727.8L643.7 732.7L638.3 733.5Z" fill="#261134"/>
<path d="M675.2 726.7L677.9 732.3L684 733.2L679.6 737.5L680.6 743.6L675.2 740.7L669.7 743.6L670.7 737.5L666.3 733.2L672.4 732.3L675.2 726.7Z" fill="#FAD338"/>
<path d="M681.3 744.5L675.2 741.3L669.1 744.5L670.3 737.7L665.3 732.9L672.2 731.9L675.3 725.7L678.4 731.9L685.3 732.9L680.3 737.7L681.3 744.5ZM675.2 740.1L680 742.6L679.1 737.2L683 733.4L677.6 732.6L675.2 727.7L672.8 732.6L667.4 733.4L671.3 737.2L670.4 742.6L675.2 740.1Z" fill="#261134"/>
<path d="M690.6 477.2H681.4V477H596.3L556 496.7L567.6 529.3L596.1 517.7L632.8 517.3L690.7 517.9L719.2 529.5L730.8 496.9L690.6 477.2Z" fill="#261134"/>
<path d="M719.5 530.1L690.6 518.3L632.7 517.7L596.1 518.1L567.2 529.9L555.3 496.4L596.1 476.5H681.8V476.7H690.6L731.4 496.6L719.5 530.1ZM632.8 516.8L690.9 517.4L719 528.8L730.3 497.1L690.5 477.7H680.9V477.5H596.4L556.6 496.9L567.9 528.6L596 517.2L632.8 516.8Z" fill="#261134"/>
<path d="M690.6 477V603H596.1V477H615.9C617.1 491.1 628.9 502.2 643.4 502.2C657.8 502.2 669.6 491.1 670.9 477H690.6Z" fill="#31B8ED"/>
<path d="M691.1 603.5H595.6V476.5H616.4V477C617.6 490.9 629.4 501.7 643.4 501.7C657.3 501.7 669.2 490.8 670.4 477V476.5H691.2V603.5H691.1ZM596.6 602.5H690.1V477.5H671.3C669.8 491.6 657.7 502.7 643.4 502.7C629.1 502.7 616.9 491.7 615.5 477.5H596.6V602.5Z" fill="#261134"/>
<path d="M677 477C676.2 494.9 661.4 509.2 643.3 509.2C625.2 509.2 610.4 494.9 609.6 477H615.8C617 491.1 628.8 502.2 643.3 502.2C657.7 502.2 669.5 491.1 670.8 477H677Z" fill="white"/>
<path d="M643.4 509.6C625.1 509.6 610.1 495.3 609.2 477V476.5H616.4V477C617.6 490.9 629.4 501.7 643.4 501.7C657.3 501.7 669.2 490.8 670.4 477V476.5H677.6V477C676.7 495.3 661.7 509.6 643.4 509.6ZM610.2 477.5C611.3 495 625.7 508.7 643.3 508.7C660.9 508.7 675.4 495.1 676.4 477.5H671.2C669.7 491.6 657.6 502.7 643.3 502.7C629 502.7 616.8 491.7 615.4 477.5H610.2Z" fill="#261134"/>
<path d="M690.6 557.7H596.1V567.3H690.6V557.7Z" fill="#FEFEFE"/>
<path d="M691.1 567.8H595.6V557.2H691.1V567.8ZM596.6 566.8H690.1V558.2H596.6V566.8Z" fill="#261134"/>
<path d="M690.6 578.3H596.1V587.9H690.6V578.3Z" fill="#FEFEFE"/>
<path d="M691.1 588.4H595.6V577.8H691.1V588.4ZM596.6 587.4H690.1V578.8H596.6V587.4Z" fill="#261134"/>
<path d="M760.8 465.6C774.221 465.6 785.1 454.721 785.1 441.3C785.1 427.879 774.221 417 760.8 417C747.379 417 736.5 427.879 736.5 441.3C736.5 454.721 747.379 465.6 760.8 465.6Z" fill="#FEFEFE"/>
<path d="M760.8 466C747.2 466 736 454.9 736 441.2C736 427.5 747.1 416.4 760.8 416.4C774.5 416.4 785.6 427.5 785.6 441.2C785.6 454.9 774.4 466 760.8 466ZM760.8 417.5C747.7 417.5 737 428.2 737 441.3C737 454.4 747.7 465.1 760.8 465.1C773.9 465.1 784.6 454.4 784.6 441.3C784.6 428.2 773.8 417.5 760.8 417.5Z" fill="#261134"/>
<path d="M767.7 429.1C764.4 429.1 761.6 431.3 760.7 434.3C759.8 431.3 757 429.1 753.7 429.1C749.7 429.1 746.4 432.4 746.4 436.4C746.4 437.7 746.8 438.9 747.4 440C747.7 440.5 748 440.9 748.4 441.3L760.4 457.6L772.8 441.6C773.3 441.1 773.7 440.6 774 440C774.6 438.9 775 437.7 775 436.4C775 432.4 771.7 429.1 767.7 429.1Z" fill="#F27B79"/>
<path d="M760.4 458.4L748 441.6C747.6 441.2 747.3 440.7 747 440.2C746.3 439 746 437.7 746 436.3C746 432 749.5 428.5 753.8 428.5C756.8 428.5 759.5 430.2 760.8 432.8C762.1 430.2 764.8 428.5 767.8 428.5C772.1 428.5 775.6 432 775.6 436.3C775.6 437.6 775.2 439 774.6 440.2C774.2 440.8 773.8 441.4 773.3 441.9L760.4 458.4ZM753.8 429.6C750.1 429.6 747 432.6 747 436.4C747 437.6 747.3 438.7 747.9 439.8C748.2 440.2 748.5 440.6 748.8 441L760.4 456.8L772.4 441.3C772.9 440.8 773.3 440.3 773.6 439.8C774.2 438.8 774.5 437.6 774.5 436.4C774.5 432.7 771.5 429.6 767.7 429.6C764.7 429.6 762.1 431.5 761.2 434.4L760.7 436L760.2 434.4C759.4 431.6 756.8 429.6 753.8 429.6Z" fill="#261134"/>
<path d="M426.7 637C443.434 637 457 623.434 457 606.7C457 589.966 443.434 576.4 426.7 576.4C409.966 576.4 396.4 589.966 396.4 606.7C396.4 623.434 409.966 637 426.7 637Z" fill="#261134"/>
<path d="M422.3 637C439.034 637 452.6 623.434 452.6 606.7C452.6 589.966 439.034 576.4 422.3 576.4C405.566 576.4 392 589.966 392 606.7C392 623.434 405.566 637 422.3 637Z" fill="#FAD338"/>
<path d="M422.3 637.5C405.3 637.5 391.5 623.7 391.5 606.7C391.5 589.7 405.3 575.9 422.3 575.9C439.3 575.9 453.1 589.7 453.1 606.7C453.1 623.7 439.3 637.5 422.3 637.5ZM422.3 576.8C405.9 576.8 392.5 590.2 392.5 606.6C392.5 623 405.9 636.4 422.3 636.4C438.7 636.4 452.1 623 452.1 606.6C452.1 590.2 438.7 576.8 422.3 576.8Z" fill="#261134"/>
<path d="M408.7 605.6C407.5 604.2 406.9 602.4 406.9 600.2C406.9 598 407.5 596.2 408.7 594.8C409.9 593.4 411.4 592.8 413.4 592.8C415.3 592.8 416.9 593.5 418.1 594.8C419.3 596.2 419.9 597.9 419.9 600.2C419.9 602.4 419.3 604.2 418.1 605.6C416.9 607 415.3 607.6 413.4 607.6C411.5 607.7 409.9 607 408.7 605.6ZM415.9 603.8C416.5 603 416.8 601.8 416.8 600.3C416.8 598.8 416.5 597.6 415.9 596.8C415.3 596 414.5 595.6 413.4 595.6C412.4 595.6 411.6 596 411 596.9C410.4 597.7 410.1 598.9 410.1 600.4C410.1 601.9 410.4 603 411 603.9C411.6 604.7 412.4 605.2 413.4 605.2C414.5 605 415.3 604.6 415.9 603.8ZM429.6 593.1H433.4L414.9 620.1H411.1L429.6 593.1ZM426.5 618.4C425.3 617 424.7 615.2 424.7 613C424.7 610.8 425.3 609 426.5 607.6C427.7 606.2 429.2 605.6 431.2 605.6C433.1 605.6 434.7 606.3 435.9 607.6C437.1 609 437.7 610.8 437.7 613C437.7 615.2 437.1 617 435.9 618.4C434.7 619.8 433.1 620.4 431.2 620.4C429.2 620.4 427.7 619.8 426.5 618.4ZM433.6 616.5C434.2 615.7 434.5 614.5 434.5 613C434.5 611.5 434.2 610.4 433.6 609.5C433 608.7 432.2 608.2 431.2 608.2C430.2 608.2 429.4 608.6 428.8 609.4C428.2 610.2 427.9 611.4 427.9 612.9C427.9 614.4 428.2 615.6 428.8 616.4C429.4 617.2 430.2 617.6 431.2 617.6C432.2 617.7 433 617.3 433.6 616.5Z" fill="#261134"/>
<path d="M1053.6 757.4L1046.4 861.1H1117.6V757.4H1053.6Z" fill="#F27B79"/>
<path d="M1118.1 861.6H1045.8L1053 756.9H1118.1V861.6ZM1047 860.6H1117.2V757.9H1054L1047 860.6Z" fill="#261134"/>
<path d="M1114.8 757.4L1109.7 861.1H1138L1132.5 757.4H1114.8Z" fill="#261134"/>
<path d="M1138.6 861.6H1109.2V861.1L1114.4 756.9H1133V757.4L1138.6 861.6ZM1110.2 860.6H1137.5L1132 757.8H1115.3L1110.2 860.6Z" fill="#261134"/>
<path d="M1074.8 787C1072.9 787 1070 786.6 1067.6 784.5C1065.4 782.5 1064.1 779.4 1063.9 775.3C1063.6 770.5 1064.9 757.3 1069.4 754.8C1070.8 754.1 1072 753.9 1073 754.3C1074.7 755 1075.3 757.1 1075.4 757.2L1074.4 757.5C1074.4 757.5 1073.9 755.8 1072.6 755.3C1071.8 755 1070.9 755.1 1069.8 755.7C1066.2 757.7 1064.5 769.5 1064.8 775.2C1065 779 1066.1 781.9 1068.1 783.7C1070.5 785.9 1073.6 786 1075.3 785.9C1088.8 785.2 1091.1 773.8 1091.4 771.5C1091.6 770.3 1091.7 769.3 1091.9 768.2C1093.4 757.4 1094 752.9 1098.8 753.4C1102.4 753.8 1103.7 756.9 1103.8 757.1L1102.9 757.5C1102.9 757.4 1101.8 754.8 1098.7 754.5C1095.1 754.1 1094.5 757.3 1092.9 768.4C1092.8 769.4 1092.6 770.5 1092.4 771.7C1092.1 774.1 1089.6 786.2 1075.3 786.9C1075.3 787 1075.1 787 1074.8 787Z" fill="#261134"/>
<path d="M1039.5 800.3H1093.1L1089.1 861.1H1024L1039.5 800.3Z" fill="#31B8ED"/>
<path d="M1089.5 861.6H1023.3L1039.1 799.8H1093.6L1089.5 861.6ZM1024.6 860.6H1088.6L1092.6 800.8H1039.9L1024.6 860.6Z" fill="#261134"/>
<path d="M1098.9 800.2H1091.2L1076.2 861.1H1097.3L1098.9 800.2Z" fill="#261134"/>
<path d="M1097.8 861.6H1075.6L1090.9 799.7H1099.5L1097.8 861.6ZM1076.8 860.6H1096.8L1098.4 800.7H1091.6L1076.8 860.6Z" fill="#261134"/>
<path d="M1057.3 821.1C1047.9 821.1 1047.6 813.7 1047.5 809.8C1047.5 809.5 1047.5 809.2 1047.5 808.9C1047 799.6 1050 797.8 1051.3 797.5C1055.4 796.5 1056.7 800.3 1056.7 800.3L1055.8 800.6C1055.8 800.5 1054.7 797.6 1051.6 798.4C1050.8 798.6 1048 800 1048.5 808.8C1048.5 809.1 1048.5 809.4 1048.5 809.7C1048.6 813.6 1048.9 820.1 1057.3 820.1H1057.4C1060.2 820.1 1064.2 819.3 1067.2 812.4L1072.4 800.1C1072.5 799.9 1074.3 796.2 1077.6 796.9C1080.4 797.5 1081 800.1 1081.1 800.2L1080.1 800.4C1080.1 800.3 1079.6 798.3 1077.4 797.8C1074.9 797.3 1073.4 800.4 1073.3 800.5L1068.1 812.8C1065.7 818.3 1062.1 821 1057.3 821.1C1057.4 821.1 1057.4 821.1 1057.3 821.1Z" fill="#261134"/>
<path d="M1138 861.8L1123.4 844.2V757.4H1124.4V843.9L1138.8 861.2L1138 861.8Z" fill="white"/>
<path d="M1123.76 843.717L1109.51 860.345L1110.27 860.996L1124.52 844.368L1123.76 843.717Z" fill="white"/>
<path d="M1096.7 861L1088.7 848.1V848L1094.2 800.1L1095.2 800.2L1089.7 847.9L1097.5 860.4L1096.7 861Z" fill="white"/>
<path d="M1088.91 847.632L1076.18 860.36L1076.89 861.067L1089.62 848.339L1088.91 847.632Z" fill="white"/>
<path d="M1176.2 861.6H1031.8V974H1176.2V861.6Z" fill="#261134"/>
<path d="M1139 861.6H1007V974H1139V861.6Z" fill="#FAD338"/>
<path d="M1139.5 974.5H1006.5V861.1H1139.5V974.5ZM1007.5 973.5H1138.5V862.1H1007.5V973.5Z" fill="#261134"/>
<path d="M1052.2 861.6V889.6L1060.4 885L1066.8 889.3L1074.5 885L1081.5 889.6V861.6H1052.2Z" fill="#261134"/>
<path d="M1112 916.6H1081.5V918.6H1112V916.6Z" fill="#261134"/>
<path d="M1112 928.5H1081.5V930.5H1112V928.5Z" fill="#261134"/>
<path d="M1112 940.4H1081.5V942.4H1112V940.4Z" fill="#261134"/>
<path d="M1072.7 914.3H1023.3V945.1H1072.7V914.3Z" fill="#FEFEFE"/>
<path d="M1073.1 945.6H1022.7V913.8H1073.1V945.6ZM1023.8 944.6H1072.2V914.8H1023.8V944.6Z" fill="#261134"/>
<path d="M1234.8 788.1L1221.8 831.1L973.1 843.1L999.2 975.9H1178.7V987H1026.7V990.2H1178.4C1203.7 998.3 1200.7 1022.6 1199.6 1028.4H1003.6V1031.6H1202.2L1202.5 1030.4C1202.6 1030.1 1210 999 1181.9 988.1V974.6L1237.2 791.4H1289.3V788.2H1234.8V788.1ZM989.1 908.2L1017.6 907.9L1020.9 936.7H994.8L989.1 908.2ZM1125.3 936.7H1093V907.3L1126.8 907L1125.3 936.7ZM1130 907L1162.3 906.7L1159.3 936.8H1128.4L1130 907ZM1089.8 907.3V936.7H1057.6L1056.1 907.6L1089.8 907.3ZM1056 904.4L1054.3 871.6L1089.8 871.3V904.2L1056 904.4ZM1093 904.1V871.2L1128.7 870.9L1127 903.8L1093 904.1ZM1093 868.1V840.6L1130.5 838.8L1129 867.8L1093 868.1ZM1089.8 868.1L1054.1 868.4L1052.8 842.4L1089.8 840.6V868.1ZM1051 868.4L1016.4 868.7L1013.6 844.3L1049.7 842.6L1051 868.4ZM1051.1 871.6L1052.8 904.4L1020.4 904.7L1016.7 871.9L1051.1 871.6ZM1017.2 904.8L988.5 905.1L982.1 872.3L1013.5 872L1017.2 904.8ZM1020.8 907.9L1053 907.6L1054.5 936.7H1024.1L1020.8 907.9ZM1054.7 939.9L1056.4 972.7H1028.2L1024.5 939.9H1054.7ZM1057.8 939.9H1089.8V972.7H1059.5L1057.8 939.9ZM1093 939.9H1125.1L1123.4 972.7H1093V939.9ZM1128.3 939.9H1159L1155.7 972.7H1126.5L1128.3 939.9ZM1162.2 939.9H1189L1179.1 972.7H1159L1162.2 939.9ZM1162.6 936.7L1165.6 906.6L1199.2 906.3L1190 936.7H1162.6ZM1200.1 903.2L1165.8 903.5L1169.1 870.6L1210 870.2L1200.1 903.2ZM1162.7 903.5L1130.3 903.8L1132 870.9L1166 870.6L1162.7 903.5ZM1132.1 867.7L1133.6 838.6L1169.2 836.9L1166.2 867.4L1132.1 867.7ZM1010.4 844.5L1013.2 868.8L981.5 869.1L977 846.1L1010.4 844.5ZM995.4 939.9H1021.3L1025 972.7H1001.8L995.4 939.9ZM1211 867L1169.4 867.4L1172.4 836.7L1220.8 834.4L1211 867Z" fill="#261134"/>
<path d="M1033.1 1032C1024.1 1032 1016.8 1039.3 1016.8 1048.3C1016.8 1057.3 1024.1 1064.6 1033.1 1064.6C1042.1 1064.6 1049.4 1057.3 1049.4 1048.3C1049.4 1039.3 1042.1 1032 1033.1 1032ZM1033.1 1059C1027.2 1059 1022.4 1054.2 1022.4 1048.3C1022.4 1042.4 1027.2 1037.6 1033.1 1037.6C1039 1037.6 1043.8 1042.4 1043.8 1048.3C1043.8 1054.2 1039 1059 1033.1 1059Z" fill="#261134"/>
<path d="M1178.3 1032.4C1169.3 1032.4 1162 1039.7 1162 1048.7C1162 1057.7 1169.3 1065 1178.3 1065C1187.3 1065 1194.6 1057.7 1194.6 1048.7C1194.6 1039.7 1187.3 1032.4 1178.3 1032.4ZM1178.3 1059.4C1172.4 1059.4 1167.6 1054.6 1167.6 1048.7C1167.6 1042.8 1172.4 1038 1178.3 1038C1184.2 1038 1189 1042.8 1189 1048.7C1189 1054.6 1184.2 1059.4 1178.3 1059.4Z" fill="#261134"/>
<path d="M1543 337.2V455.7C1543 460.5 1539.1 464.4 1534.3 464.4H1355.7C1350.9 464.4 1347 460.5 1347 455.7V337.2C1347 332.4 1350.9 328.5 1355.7 328.5H1534.3C1539.1 328.5 1543 332.4 1543 337.2Z" fill="#FEFEFE"/>
<path d="M1534.3 464.9H1355.7C1350.6 464.9 1346.5 460.8 1346.5 455.7V337.2C1346.5 332.1 1350.6 328 1355.7 328H1534.3C1539.4 328 1543.5 332.1 1543.5 337.2V455.7C1543.5 460.8 1539.4 464.9 1534.3 464.9ZM1355.7 329C1351.2 329 1347.5 332.7 1347.5 337.2V455.7C1347.5 460.2 1351.2 463.9 1355.7 463.9H1534.3C1538.8 463.9 1542.5 460.2 1542.5 455.7V337.2C1542.5 332.7 1538.8 329 1534.3 329H1355.7Z" fill="#261134"/>
<path d="M1543 351.9H1347V374.8H1543V351.9Z" fill="#FAD338"/>
<path d="M1543.5 375.3H1346.5V351.4H1543.5V375.3ZM1347.5 374.3H1542.5V352.4H1347.5V374.3Z" fill="#261134"/>
<path d="M1543 370.4H1347V396.7H1543V370.4Z" fill="#261134"/>
<path d="M1357.8 383.3C1357.8 385.5 1359.6 387.3 1361.8 387.3H1401.3C1403.5 387.3 1405.3 385.5 1405.3 383.3C1405.3 381.1 1403.5 379.3 1401.3 379.3H1361.8C1359.6 379.3 1357.8 381.1 1357.8 383.3Z" fill="#FEFEFE"/>
<path d="M1401.3 387.7H1361.8C1359.3 387.7 1357.3 385.7 1357.3 383.2C1357.3 380.7 1359.3 378.7 1361.8 378.7H1401.3C1403.8 378.7 1405.8 380.7 1405.8 383.2C1405.8 385.7 1403.7 387.7 1401.3 387.7ZM1361.8 379.8C1359.9 379.8 1358.3 381.3 1358.3 383.3C1358.3 385.2 1359.8 386.8 1361.8 386.8H1401.3C1403.2 386.8 1404.8 385.3 1404.8 383.3C1404.8 381.4 1403.3 379.8 1401.3 379.8H1361.8Z" fill="black"/>
<path d="M1421.6 383.3C1421.6 385.5 1423.4 387.3 1425.6 387.3H1465.1C1467.3 387.3 1469.1 385.5 1469.1 383.3C1469.1 381.1 1467.3 379.3 1465.1 379.3H1425.6C1423.3 379.3 1421.6 381.1 1421.6 383.3Z" fill="#FEFEFE"/>
<path d="M1465 387.7H1425.5C1423 387.7 1421 385.7 1421 383.2C1421 380.7 1423 378.7 1425.5 378.7H1465C1467.5 378.7 1469.5 380.7 1469.5 383.2C1469.5 385.7 1467.5 387.7 1465 387.7ZM1425.5 379.8C1423.6 379.8 1422 381.3 1422 383.3C1422 385.2 1423.5 386.8 1425.5 386.8H1465C1466.9 386.8 1468.5 385.3 1468.5 383.3C1468.5 381.4 1467 379.8 1465 379.8H1425.5Z" fill="black"/>
<path d="M1489.3 388.9C1491.51 388.9 1493.3 387.109 1493.3 384.9C1493.3 382.691 1491.51 380.9 1489.3 380.9C1487.09 380.9 1485.3 382.691 1485.3 384.9C1485.3 387.109 1487.09 388.9 1489.3 388.9Z" fill="#FEFEFE"/>
<path d="M1489.3 389.3C1486.8 389.3 1484.8 387.3 1484.8 384.8C1484.8 382.3 1486.8 380.3 1489.3 380.3C1491.8 380.3 1493.8 382.3 1493.8 384.8C1493.8 387.3 1491.7 389.3 1489.3 389.3ZM1489.3 381.4C1487.4 381.4 1485.8 382.9 1485.8 384.9C1485.8 386.9 1487.3 388.4 1489.3 388.4C1491.2 388.4 1492.8 386.9 1492.8 384.9C1492.8 382.9 1491.2 381.4 1489.3 381.4Z" fill="black"/>
<path d="M1501.9 388.9C1504.11 388.9 1505.9 387.109 1505.9 384.9C1505.9 382.691 1504.11 380.9 1501.9 380.9C1499.69 380.9 1497.9 382.691 1497.9 384.9C1497.9 387.109 1499.69 388.9 1501.9 388.9Z" fill="#FEFEFE"/>
<path d="M1501.9 389.3C1499.4 389.3 1497.4 387.3 1497.4 384.8C1497.4 382.3 1499.4 380.3 1501.9 380.3C1504.4 380.3 1506.4 382.3 1506.4 384.8C1506.4 387.3 1504.4 389.3 1501.9 389.3ZM1501.9 381.4C1500 381.4 1498.4 382.9 1498.4 384.9C1498.4 386.9 1499.9 388.4 1501.9 388.4C1503.9 388.4 1505.4 386.9 1505.4 384.9C1505.4 382.9 1503.8 381.4 1501.9 381.4Z" fill="black"/>
<path d="M1514.5 388.9C1516.71 388.9 1518.5 387.109 1518.5 384.9C1518.5 382.691 1516.71 380.9 1514.5 380.9C1512.29 380.9 1510.5 382.691 1510.5 384.9C1510.5 387.109 1512.29 388.9 1514.5 388.9Z" fill="#FEFEFE"/>
<path d="M1514.5 389.3C1512 389.3 1510 387.3 1510 384.8C1510 382.3 1512 380.3 1514.5 380.3C1517 380.3 1519 382.3 1519 384.8C1519 387.3 1517 389.3 1514.5 389.3ZM1514.5 381.4C1512.6 381.4 1511 382.9 1511 384.9C1511 386.9 1512.5 388.4 1514.5 388.4C1516.5 388.4 1518 386.9 1518 384.9C1518 382.9 1516.5 381.4 1514.5 381.4Z" fill="black"/>
<path d="M1527.2 388.9C1529.41 388.9 1531.2 387.109 1531.2 384.9C1531.2 382.691 1529.41 380.9 1527.2 380.9C1524.99 380.9 1523.2 382.691 1523.2 384.9C1523.2 387.109 1524.99 388.9 1527.2 388.9Z" fill="#FEFEFE"/>
<path d="M1527.2 389.3C1524.7 389.3 1522.7 387.3 1522.7 384.8C1522.7 382.3 1524.7 380.3 1527.2 380.3C1529.7 380.3 1531.7 382.3 1531.7 384.8C1531.7 387.3 1529.6 389.3 1527.2 389.3ZM1527.2 381.4C1525.3 381.4 1523.7 382.9 1523.7 384.9C1523.7 386.9 1525.2 388.4 1527.2 388.4C1529.2 388.4 1530.7 386.9 1530.7 384.9C1530.7 382.9 1529.1 381.4 1527.2 381.4Z" fill="black"/>
<path d="M1484.5 444.7C1493.67 444.7 1501.1 437.268 1501.1 428.1C1501.1 418.932 1493.67 411.5 1484.5 411.5C1475.33 411.5 1467.9 418.932 1467.9 428.1C1467.9 437.268 1475.33 444.7 1484.5 444.7Z" fill="#FAD338"/>
<path d="M1484.5 445.2C1475.1 445.2 1467.4 437.5 1467.4 428.1C1467.4 418.7 1475.1 411 1484.5 411C1493.9 411 1501.6 418.7 1501.6 428.1C1501.6 437.5 1493.9 445.2 1484.5 445.2ZM1484.5 412C1475.6 412 1468.4 419.2 1468.4 428.1C1468.4 437 1475.6 444.2 1484.5 444.2C1493.4 444.2 1500.6 437 1500.6 428.1C1500.6 419.2 1493.4 412 1484.5 412Z" fill="#261134"/>
<path d="M1503.5 444.7C1512.67 444.7 1520.1 437.268 1520.1 428.1C1520.1 418.932 1512.67 411.5 1503.5 411.5C1494.33 411.5 1486.9 418.932 1486.9 428.1C1486.9 437.268 1494.33 444.7 1503.5 444.7Z" fill="#CDCBCC"/>
<path d="M1503.5 445.2C1494.1 445.2 1486.4 437.5 1486.4 428.1C1486.4 418.7 1494.1 411 1503.5 411C1512.9 411 1520.6 418.7 1520.6 428.1C1520.6 437.5 1512.9 445.2 1503.5 445.2ZM1503.5 412C1494.6 412 1487.4 419.2 1487.4 428.1C1487.4 437 1494.6 444.2 1503.5 444.2C1512.4 444.2 1519.6 437 1519.6 428.1C1519.6 419.2 1512.4 412 1503.5 412Z" fill="#261134"/>
<path d="M1375.7 415.4C1375.7 417.6 1377.5 419.4 1379.7 419.4H1442.9C1445.1 419.4 1446.9 417.6 1446.9 415.4C1446.9 413.2 1445.1 411.4 1442.9 411.4H1379.7C1377.5 411.5 1375.7 413.2 1375.7 415.4Z" fill="#FEFEFE"/>
<path d="M1442.9 419.9H1379.7C1377.2 419.9 1375.2 417.9 1375.2 415.4C1375.2 412.9 1377.2 410.9 1379.7 410.9H1442.9C1445.4 410.9 1447.4 412.9 1447.4 415.4C1447.4 417.9 1445.3 419.9 1442.9 419.9ZM1379.7 412C1377.8 412 1376.2 413.5 1376.2 415.5C1376.2 417.5 1377.7 419 1379.7 419H1442.9C1444.8 419 1446.4 417.5 1446.4 415.5C1446.4 413.5 1444.9 412 1442.9 412H1379.7Z" fill="black"/>
<path d="M1375.7 428.1C1375.7 430.3 1377.5 432.1 1379.7 432.1H1442.9C1445.1 432.1 1446.9 430.3 1446.9 428.1C1446.9 425.9 1445.1 424.1 1442.9 424.1H1379.7C1377.5 424.1 1375.7 425.9 1375.7 428.1Z" fill="#FEFEFE"/>
<path d="M1442.9 432.5H1379.7C1377.2 432.5 1375.2 430.5 1375.2 428C1375.2 425.5 1377.2 423.5 1379.7 423.5H1442.9C1445.4 423.5 1447.4 425.5 1447.4 428C1447.4 430.5 1445.3 432.5 1442.9 432.5ZM1379.7 424.6C1377.8 424.6 1376.2 426.1 1376.2 428.1C1376.2 430.1 1377.7 431.6 1379.7 431.6H1442.9C1444.8 431.6 1446.4 430.1 1446.4 428.1C1446.4 426.1 1444.9 424.6 1442.9 424.6H1379.7Z" fill="black"/>
<path d="M1375.7 440.7C1375.7 442.9 1377.5 444.7 1379.7 444.7H1442.9C1445.1 444.7 1446.9 442.9 1446.9 440.7C1446.9 438.5 1445.1 436.7 1442.9 436.7H1379.7C1377.5 436.8 1375.7 438.5 1375.7 440.7Z" fill="#FEFEFE"/>
<path d="M1442.9 445.2H1379.7C1377.2 445.2 1375.2 443.2 1375.2 440.7C1375.2 438.2 1377.2 436.2 1379.7 436.2H1442.9C1445.4 436.2 1447.4 438.2 1447.4 440.7C1447.4 443.2 1445.3 445.2 1442.9 445.2ZM1379.7 437.3C1377.8 437.3 1376.2 438.8 1376.2 440.8C1376.2 442.7 1377.7 444.3 1379.7 444.3H1442.9C1444.8 444.3 1446.4 442.8 1446.4 440.8C1446.4 438.9 1444.9 437.3 1442.9 437.3H1379.7Z" fill="black"/>
<path d="M305 429H77.8V519H305V429Z" fill="#FEFEFE"/>
<path d="M305.5 519.5H77.3V428.5H305.5V519.5ZM78.3 518.5H304.5V429.5H78.3V518.5Z" fill="#261134"/>
<path d="M108.5 474C117.337 474 124.5 466.837 124.5 458C124.5 449.163 117.337 442 108.5 442C99.6634 442 92.5 449.163 92.5 458C92.5 466.837 99.6634 474 108.5 474Z" fill="#FAD338"/>
<path d="M108.5 474.5C99.4 474.5 92 467.1 92 458C92 448.9 99.4 441.5 108.5 441.5C117.6 441.5 125 448.9 125 458C125 467.1 117.6 474.5 108.5 474.5ZM108.5 442.4C99.9 442.4 93 449.4 93 457.9C93 466.4 100 473.4 108.5 473.4C117.1 473.4 124 466.4 124 457.9C124 449.4 117.1 442.4 108.5 442.4Z" fill="#261134"/>
<path d="M145 449.4L147.8 455L154.1 455.9L149.6 460.3L150.6 466.5L145 463.6L139.5 466.5L140.5 460.3L136 455.9L142.3 455L145 449.4Z" fill="#FAD338"/>
<path d="M151.3 467.4L145.1 464.1L138.9 467.4L140.1 460.5L135.1 455.6L142.1 454.6L145.2 448.3L148.3 454.6L155.3 455.6L150.3 460.5L151.3 467.4ZM145 463L149.9 465.6L149 460.1L153 456.2L147.5 455.4L145 450.4L142.5 455.4L137 456.2L141 460.1L140.1 465.6L145 463Z" fill="#261134"/>
<path d="M172.7 449.4L175.5 455L181.7 455.9L177.2 460.3L178.2 466.5L172.7 463.6L167.1 466.5L168.2 460.3L163.7 455.9L169.9 455L172.7 449.4Z" fill="#FAD338"/>
<path d="M178.9 467.4L172.7 464.1L166.5 467.4L167.7 460.5L162.7 455.6L169.7 454.6L172.8 448.3L175.9 454.6L182.9 455.6L177.9 460.5L178.9 467.4ZM172.7 463L177.6 465.6L176.7 460.1L180.7 456.2L175.2 455.4L172.7 450.4L170.2 455.4L164.7 456.2L168.7 460.1L167.8 465.6L172.7 463Z" fill="#261134"/>
<path d="M200.3 449.4L203.1 455L209.3 455.9L204.8 460.3L205.9 466.5L200.3 463.6L194.7 466.5L195.8 460.3L191.3 455.9L197.5 455L200.3 449.4Z" fill="#FAD338"/>
<path d="M206.5 467.4L200.3 464.1L194.1 467.4L195.3 460.5L190.3 455.6L197.3 454.6L200.4 448.3L203.5 454.6L210.5 455.6L205.5 460.5L206.5 467.4ZM200.3 463L205.2 465.6L204.3 460.1L208.3 456.2L202.8 455.4L200.3 450.4L197.8 455.4L192.3 456.2L196.3 460.1L195.4 465.6L200.3 463Z" fill="#261134"/>
<path d="M227 449.4L229.8 455L236 455.9L231.5 460.3L232.6 466.5L227 463.6L221.5 466.5L222.5 460.3L218 455.9L224.2 455L227 449.4Z" fill="#FAD338"/>
<path d="M233.3 467.4L227.1 464.1L220.9 467.4L222.1 460.5L217.1 455.6L224.1 454.6L227.2 448.3L230.3 454.6L237.3 455.6L232.3 460.5L233.3 467.4ZM227 463L231.9 465.6L231 460.1L235 456.2L229.5 455.4L227 450.4L224.5 455.4L219 456.2L223 460.1L222.1 465.6L227 463Z" fill="#261134"/>
<path d="M253.8 449.4L256.5 455L262.8 455.9L258.3 460.3L259.3 466.5L253.8 463.6L248.2 466.5L249.3 460.3L244.8 455.9L251 455L253.8 449.4Z" fill="#FAD338"/>
<path d="M260 467.4L253.8 464.1L247.6 467.4L248.8 460.5L243.8 455.6L250.8 454.6L253.9 448.3L257 454.6L264 455.6L259 460.5L260 467.4ZM253.8 463L258.7 465.6L257.8 460.1L261.8 456.2L256.3 455.4L253.8 450.4L251.3 455.4L245.8 456.2L249.8 460.1L248.9 465.6L253.8 463Z" fill="#261134"/>
<path d="M289.8 500.3H92V507.4H289.8V500.3Z" fill="#31B8ED"/>
<path d="M290.4 507.9H91.5V499.8H290.3V507.9H290.4ZM92.5 506.9H289.3V500.8H92.5V506.9Z" fill="#261134"/>
<path d="M190.5 483.8H92.5V490.9H190.5V483.8Z" fill="#31B8ED"/>
<path d="M191 491.4H92V483.3H191V491.4ZM93 490.4H190V484.3H93V490.4Z" fill="#261134"/>
<path d="M252 856H128V1065H252V856Z" fill="#21223E"/>
<path d="M475.9 856.5H188.3V1064.5H475.9V856.5Z" fill="#FEFEFE"/>
<path d="M476.4 1065H187.8V856H476.4V1065ZM188.8 1064H475.4V857H188.8V1064Z" fill="black"/>
<path d="M447.5 964.2C433.6 965.9 421.3 957 410.8 949.1C398.8 940.2 387.4 930.3 377 919.6C366.3 908.7 356.5 896.9 347.7 884.4C341.3 875.3 335.5 865.8 329.4 856.5H333C333.1 856.6 333.2 856.8 333.3 856.9C341.7 869.8 349.8 882.8 359.4 895C368.8 906.9 379.1 918 390.3 928.3C401.5 938.6 413.7 949.1 427.1 956.4C434.2 960.3 442.4 962.8 450.5 960.7C458.8 958.5 463.7 951.8 464.3 943.4C465.5 928.5 458.4 911.6 451.8 898.6C444.4 883.9 434.2 871 426.3 856.6H429.7C438.1 871.4 448.7 884.9 455.9 900.3C464.2 918.1 479.6 960.3 447.5 964.2Z" fill="#31B8ED"/>
<path d="M279.1 944.5C267 941.7 255.9 931.1 247.4 922.7C237.8 913.1 229 902.7 218.6 893.9C215.8 891.6 212.8 888.8 209.5 887.3C202.5 884 202.4 893.4 202.6 897.7C203 905.6 205.6 913.2 208.3 920.6C210.9 927.5 213.8 934.4 215.7 941.5C217 946.3 219.1 953 216.6 957.8C210.7 969.1 195.2 954.7 189.8 950.1C189.3 949.7 188.8 949.3 188.4 948.9V944.9C190.6 946.8 192.8 948.7 195 950.5C198.1 953 201.2 955.7 204.8 957.4C207.1 958.5 210.9 959.6 213.1 957.5C215.1 955.6 214.7 952.2 214.4 949.8C212.5 935.3 204.6 922.3 201.1 908.2C199.6 902.1 195.7 881.8 207.4 883.5C212.8 884.3 217.8 889.3 221.8 892.7C226.8 897 231.3 901.7 235.9 906.4C245.4 916.4 254.7 927 266.2 934.7C272.5 938.9 282.2 945.5 288.9 938.9C295.7 932.2 292.6 921.3 290.2 913.3C285.7 898.4 278.8 884.5 272.4 870.3C270.3 865.7 268.3 861 266.4 856.3H269.6C272.9 864.5 276.7 872.4 280.4 880.4C286.6 893.8 293.5 908 295.7 922.7C297.1 933.1 292 947.5 279.1 944.5Z" fill="#31B8ED"/>
<path d="M279.4 1064.5H275.7C274.7 1063 273.7 1061.5 272.7 1060.1C268.9 1054.5 265.7 1048.6 261.9 1043.1C259.8 1040 257.2 1036.5 253.6 1035.2C249.5 1033.7 246.4 1036.1 242.6 1037.5C230 1042.3 216.3 1037.9 204.7 1032.3C199.1 1029.6 193.6 1026.7 188.3 1023.5V1020.2C196.3 1025 204.5 1029.3 213 1032.6C219.8 1035.2 227.1 1037.1 234.4 1036.3C240.5 1035.7 246 1030.8 252.1 1031.6C257.1 1032.2 260.9 1036.4 263.6 1040.3C267.3 1045.5 270.4 1051.2 273.9 1056.6C275.7 1059.2 277.5 1061.9 279.4 1064.5Z" fill="#31B8ED"/>
<path d="M475.9 1058.9V1061.9C455.3 1057.6 435.6 1048.9 418.8 1036.1C404.2 1025 393.6 1011.2 382.9 996.5C377.1 988.6 371 980.5 362.9 974.8C359.3 972.2 351.4 966.5 347.6 970.7C343.2 975.4 345.8 985.1 347.4 990.5C350.6 1002 354 1013.2 355.6 1025.1C356.6 1032.3 359.2 1043.8 353.8 1049.9C348.2 1056.2 336.9 1053.2 330.3 1050.5C321.3 1046.8 313.7 1040.3 306.7 1033.7C299 1026.3 292 1018.2 285.9 1009.5C279.7 1000.7 275.2 991 269 982.2C265.8 977.7 257.6 966.9 252.5 975.5C249.8 980.1 251.1 985.4 251.7 990.3C252.5 997.6 250.6 1004.9 242.8 1007.2C235.4 1009.4 227.4 1006.5 220.7 1003.7C211.2 999.7 202 994.8 193.3 989.1C191.6 988 190 986.9 188.4 985.7V982C194 986.1 199.9 989.8 206 993.2C215.1 998.2 226.1 1004.7 236.8 1004.8C244.1 1004.9 249 1001 248.9 993.3C248.9 988.7 247.3 984.2 248 979.6C248.9 973.3 253.5 967.1 260.5 969.7C268 972.4 273.1 982.6 276.8 988.9C287.8 1007.8 300.3 1025.6 317.7 1039.2C322.6 1043.1 328.1 1046.6 334.1 1048.5C339.1 1050.2 346.7 1051.9 350.9 1047.9C355.2 1043.9 353.8 1036.1 353.2 1030.8C352.6 1024.6 351.6 1018.5 350.3 1012.5C348.1 1002 343.2 991.7 342.4 981C342 975.5 343.4 965 351 965.6C358.6 966.2 366.5 973 371.6 978.1C377.8 984.2 382.9 991.3 387.9 998.3C399.1 1013.9 411.2 1027.6 427.3 1038.3C442.2 1048.4 458.7 1055.3 475.9 1058.9Z" fill="#31B8ED"/>
<path d="M475.9 885.8V890.3C467.2 879.2 457.9 868.5 450.6 856.5H454C460.3 866.8 468.2 876.2 475.9 885.8Z" fill="#31B8ED"/>
<path d="M258.1 885.8C255.7 888.7 252 888.8 248.8 887.5C243.2 885.3 238.5 880.1 233.9 876.4C227.9 871.6 221.7 866.9 215.3 862.5C212.3 860.4 209.4 858.4 206.4 856.4H211.7C220.5 862.3 229.1 868.7 237.4 875.4C240.7 878.1 251.7 890 256.2 883.3C259 879.1 254.4 871 253 867.1C251.7 863.5 250.3 860 249 856.4H252.5C254.7 862.2 256.8 868 258.7 873.9C259.9 877.7 260.8 882.5 258.1 885.8Z" fill="#31B8ED"/>
<path d="M401.8 1064.5H398.2C397.5 1063.4 396.8 1062.3 396.1 1061.2C394.2 1058.3 392.2 1055.4 389.9 1052.7C386.5 1048.8 379.5 1043.9 378.1 1052.4C377.6 1055.4 378.8 1058.6 379.2 1061.6C379.3 1062.6 379.5 1063.5 379.5 1064.5H376.5C376.5 1064.1 376.4 1063.8 376.4 1063.4C375.8 1058.2 373.3 1052.1 376.7 1047.4C384.6 1036.6 396.5 1056.4 400 1061.9C400.6 1062.7 401.2 1063.6 401.8 1064.5Z" fill="#31B8ED"/>
<path d="M279.5 1051.5L282.2 1064.5H239.5L329.2 856.5H360.5L279.5 1051.5Z" fill="#261134"/>
<path d="M475.9 1004.6C473.3 1008.2 470.2 1011.2 466.4 1013.4C462 1016 457 1017.3 451.4 1017.3C439.6 1017.3 425.1 1011.6 408.2 1000.2L409.9 997.7C433.9 1013.8 452.4 1018.2 465 1010.8C469.7 1008 473.3 1003.8 476 998.8V1004.6H475.9Z" fill="#31B8ED"/>
<path d="M607.2 926.5L616.7 1065H521.7V926.5H607.2Z" fill="#F27B79"/>
<path d="M617.3 1065.5H521.2V926H607.7V926.5L617.3 1065.5ZM522.2 1064.5H616.2L606.8 927H522.2V1064.5Z" fill="#261134"/>
<path d="M525.4 926.5L532.3 1065H494.4L501.9 926.5H525.4Z" fill="#261134"/>
<path d="M532.8 1065.5H493.9L501.4 926H525.9V926.5L532.8 1065.5ZM495 1064.5H531.8L524.9 927H502.3L495 1064.5Z" fill="#261134"/>
<path d="M578.8 965.9C578.5 965.9 578.1 965.9 577.9 965.9C559 964.9 555.8 948.9 555.3 945.7C555.1 944.2 554.9 942.7 554.7 941.3C552.7 927.3 552 922 546.8 922.6C542.7 923 541.2 926.6 541.1 926.8L540.2 926.4C540.3 926.2 542 922.1 546.7 921.6C552.9 921 553.7 926.9 555.7 941.2C555.9 942.6 556.1 944 556.3 945.6C556.7 948.7 559.9 964 578 965C580.2 965.1 584.5 964.9 587.7 962C590.4 959.6 591.9 955.7 592.2 950.6C592.5 944.1 590.7 927.2 585.5 924.4C584 923.6 582.7 923.4 581.6 923.8C579.8 924.5 579.1 926.8 579.1 926.9L578.1 926.6C578.1 926.5 578.9 923.8 581.1 922.9C582.5 922.3 584.1 922.5 585.8 923.5C591.6 926.7 593.3 944.4 593 950.6C592.7 956 591.1 960.1 588.2 962.7C585.2 965.3 581.3 965.9 578.8 965.9Z" fill="#261134"/>
<path d="M626 983.8H554.4L559.8 1065H646.7L626 983.8Z" fill="#31B8ED"/>
<path d="M647.3 1065.5H559.3L553.8 983.3H626.3L626.4 983.7L647.3 1065.5ZM560.3 1064.5H646L625.5 984.3H555L560.3 1064.5Z" fill="#261134"/>
<path d="M546.7 983.6H556.9L577 1065H548.8L546.7 983.6Z" fill="#261134"/>
<path d="M577.6 1065.5H548.3V1065L546.1 983.1H557.3L577.6 1065.5ZM549.3 1064.5H576.3L556.5 984.1H547.1L549.3 1064.5Z" fill="#261134"/>
<path d="M602.2 1011.4H602.1C595.8 1011.4 591.1 1007.8 587.9 1000.5L581 984.1C581 984.1 578.9 979.7 575.4 980.5C572.3 981.2 571.7 984 571.7 984L570.7 983.8C570.7 983.7 571.5 980.3 575.2 979.5C579.4 978.6 581.8 983.5 581.9 983.7L588.8 1000.1C592.9 1009.3 598.3 1010.4 602.1 1010.4H602.2C613.6 1010.4 614 1001.6 614.2 996.4C614.2 996 614.2 995.6 614.3 995.2C614.9 983.3 611.2 981.5 610.1 981.2C605.7 980.1 604.3 984.1 604.2 984.2L603.3 983.9C603.3 983.8 605 978.9 610.4 980.2C612.1 980.6 616.1 983 615.4 995.3C615.4 995.7 615.4 996.1 615.4 996.5C614.9 1001.6 614.6 1011.4 602.2 1011.4Z" fill="#261134"/>
<path d="M494.4 1065.8L493.6 1065.2L512.9 1042V926.5H513.9V1042.4L494.4 1065.8Z" fill="white"/>
<path d="M513.487 1041.93L512.728 1042.58L531.796 1064.83L532.556 1064.18L513.487 1041.93Z" fill="white"/>
<path d="M549.5 1064.7L548.6 1064.2L559.1 1047.4L551.7 983.7L552.7 983.6L560.2 1047.6L549.5 1064.7Z" fill="white"/>
<path d="M559.985 1047.16L559.278 1047.87L576.249 1064.84L576.956 1064.13L559.985 1047.16Z" fill="white"/>
<path d="M818 928H642V1065H818V928Z" fill="#261134"/>
<path d="M848.2 928H687.3V1065H848.2V928Z" fill="#FAD338"/>
<path d="M848.7 1065.5H686.8V927.5H848.7V1065.5ZM687.8 1064.5H847.7V928.5H687.8V1064.5Z" fill="#261134"/>
<path d="M793.1 928V962.2L783.1 956.6L775.3 961.8L766 956.6L757.5 962.2V928H793.1Z" fill="#261134"/>
<path d="M757.5 995.3H720.4V997.3H757.5V995.3Z" fill="#261134"/>
<path d="M757.5 1009.8H720.4V1011.8H757.5V1009.8Z" fill="#261134"/>
<path d="M757.5 1024.3H720.4V1026.3H757.5V1024.3Z" fill="#261134"/>
<path d="M828.4 992.2H768.3V1029.7H828.4V992.2Z" fill="#FEFEFE"/>
<path d="M828.9 1030.2H767.8V991.7H828.9V1030.2ZM768.8 1029.2H827.9V992.7H768.8V1029.2Z" fill="#261134"/>
<path d="M1450.3 615.5C1475.54 615.5 1496 595.039 1496 569.8C1496 544.561 1475.54 524.1 1450.3 524.1C1425.06 524.1 1404.6 544.561 1404.6 569.8C1404.6 595.039 1425.06 615.5 1450.3 615.5Z" fill="#261134"/>
<path d="M1443.7 615.4C1468.94 615.4 1489.4 594.939 1489.4 569.7C1489.4 544.461 1468.94 524 1443.7 524C1418.46 524 1398 544.461 1398 569.7C1398 594.939 1418.46 615.4 1443.7 615.4Z" fill="#FAD338"/>
<path d="M1443.7 615.9C1418.2 615.9 1397.5 595.2 1397.5 569.7C1397.5 544.2 1418.2 523.5 1443.7 523.5C1469.2 523.5 1489.9 544.2 1489.9 569.7C1489.9 595.2 1469.2 615.9 1443.7 615.9ZM1443.7 524.5C1418.8 524.5 1398.5 544.8 1398.5 569.7C1398.5 594.6 1418.8 614.9 1443.7 614.9C1468.6 614.9 1488.9 594.6 1488.9 569.7C1488.9 544.8 1468.6 524.5 1443.7 524.5Z" fill="#261134"/>
<path d="M1454.8 585.5C1452.6 587.5 1449.5 588.8 1445.4 589.2V595.3H1441V589.3C1438.3 589.1 1435.8 588.6 1433.4 587.8C1431 587 1429.1 586 1427.7 584.8L1430.1 579.3C1431.4 580.4 1433.1 581.3 1435 582C1436.9 582.7 1438.9 583.2 1441 583.4V572.6C1438.4 572 1436.3 571.3 1434.6 570.6C1432.9 569.9 1431.4 568.8 1430.3 567.3C1429.1 565.9 1428.6 564 1428.6 561.6C1428.6 558.7 1429.7 556.2 1431.8 554.1C1433.9 552 1437 550.8 1441.1 550.4V544.3H1445.5V550.3C1447.5 550.4 1449.5 550.8 1451.4 551.3C1453.3 551.9 1455 552.6 1456.5 553.6L1454.3 559.1C1451.6 557.5 1448.6 556.5 1445.5 556.2V567.2C1448.1 567.8 1450.3 568.5 1452 569.2C1453.7 569.9 1455.2 571 1456.3 572.4C1457.5 573.8 1458.1 575.7 1458.1 578.1C1458 581 1456.9 583.4 1454.8 585.5ZM1436.9 564.1C1437.8 564.8 1439.2 565.4 1441 565.9V556.2C1439.2 556.5 1437.8 557.1 1436.9 557.9C1436 558.8 1435.5 559.8 1435.5 561.1C1435.5 562.5 1436 563.4 1436.9 564.1ZM1449.7 581.6C1450.6 580.8 1451.1 579.7 1451.1 578.5C1451.1 577.3 1450.6 576.3 1449.6 575.5C1448.6 574.8 1447.2 574.1 1445.4 573.6V583.2C1447.3 583 1448.8 582.4 1449.7 581.6Z" fill="#261134"/>
<path d="M426.7 549C443.434 549 457 535.434 457 518.7C457 501.966 443.434 488.4 426.7 488.4C409.966 488.4 396.4 501.966 396.4 518.7C396.4 535.434 409.966 549 426.7 549Z" fill="#261134"/>
<path d="M422.3 548.9C439.034 548.9 452.6 535.334 452.6 518.6C452.6 501.866 439.034 488.3 422.3 488.3C405.566 488.3 392 501.866 392 518.6C392 535.334 405.566 548.9 422.3 548.9Z" fill="#FAD338"/>
<path d="M422.3 549.4C405.3 549.4 391.5 535.6 391.5 518.6C391.5 501.6 405.3 487.8 422.3 487.8C439.3 487.8 453.1 501.6 453.1 518.6C453.1 535.6 439.3 549.4 422.3 549.4ZM422.3 488.8C405.9 488.8 392.5 502.2 392.5 518.6C392.5 535 405.9 548.4 422.3 548.4C438.7 548.4 452.1 535 452.1 518.6C452.1 502.1 438.7 488.8 422.3 488.8Z" fill="#261134"/>
<path d="M429.6 529.1C428.2 530.5 426.1 531.3 423.4 531.6V535.6H420.4V531.6C418.6 531.5 416.9 531.2 415.4 530.6C413.8 530.1 412.6 529.4 411.6 528.6L413.2 525C414.1 525.7 415.2 526.3 416.4 526.8C417.7 527.3 419 527.6 420.4 527.7V520.5C418.7 520.1 417.3 519.6 416.1 519.1C415 518.6 414 517.9 413.2 516.9C412.4 516 412 514.7 412 513.1C412 511.2 412.7 509.5 414.1 508.1C415.5 506.7 417.6 505.9 420.3 505.7V501.6H423.3V505.6C424.6 505.7 426 505.9 427.2 506.3C428.5 506.7 429.6 507.2 430.6 507.8L429.1 511.4C427.3 510.3 425.3 509.7 423.3 509.5V516.8C425 517.2 426.5 517.7 427.6 518.1C428.7 518.6 429.7 519.3 430.5 520.2C431.3 521.1 431.7 522.4 431.7 524C431.8 526.1 431.1 527.7 429.6 529.1ZM417.8 514.9C418.4 515.4 419.3 515.8 420.5 516.1V509.7C419.3 509.9 418.4 510.3 417.8 510.9C417.2 511.5 416.9 512.2 416.9 513C416.8 513.8 417.2 514.4 417.8 514.9ZM426.3 526.5C426.9 525.9 427.2 525.3 427.2 524.4C427.2 523.6 426.9 522.9 426.2 522.4C425.6 521.9 424.6 521.5 423.4 521.2V527.6C424.7 527.4 425.6 527.1 426.3 526.5Z" fill="#261134"/>
<path d="M250.4 274H150.9C146.1 274 142.3 277.9 142.3 282.6V355.2C142.3 360 146.2 363.8 150.9 363.8H181.5L200.7 391L219.9 363.8H250.5C255.3 363.8 259.1 359.9 259.1 355.2V282.6C259 277.9 255.1 274 250.4 274Z" fill="#FEFEFE"/>
<path d="M200.6 391.9L181.2 364.4H150.9C145.9 364.4 141.8 360.3 141.8 355.3V282.7C141.8 277.7 145.9 273.6 150.9 273.6H250.4C255.4 273.6 259.5 277.7 259.5 282.7V355.3C259.5 360.3 255.4 364.4 250.4 364.4H220.1L200.6 391.9ZM150.9 274.5C146.4 274.5 142.8 278.1 142.8 282.6V355.2C142.8 359.7 146.4 363.3 150.9 363.3H181.7L200.6 390.1L219.5 363.3H250.3C254.8 363.3 258.4 359.7 258.4 355.2V282.6C258.4 278.1 254.8 274.5 250.3 274.5H150.9Z" fill="#261134"/>
<path d="M200.6 287V300.1L184.2 324.7V344.4L188.3 347.6C190.5 349.3 193.2 350.2 196 350.2H223.5C225.9 350.2 228.1 348.9 229.1 346.7C229.8 345.3 230 343.4 229 341C229 341 236.5 340.3 233.5 331.5C233.5 331.5 239.9 327.3 234.1 320.6C234.1 320.6 238.7 316 235.4 311.9C234.2 310.4 232.3 309.5 230.3 309.5H211.9C211.9 309.6 218 284.5 200.6 287Z" fill="#FAD338"/>
<path d="M223.5 350.7H196C193.1 350.7 190.3 349.7 188 347.9L183.7 344.5V324.4L183.8 324.3L200.1 299.9V286.5L200.5 286.4C204.7 285.8 207.9 286.7 210.1 289.1C215.1 294.6 213.1 306.1 212.5 308.9H230.3C232.5 308.9 234.5 309.8 235.8 311.5C238.8 315.2 235.8 319.3 234.8 320.5C236.6 322.7 237.3 324.8 237 326.9C236.6 329.4 234.9 331.1 234.1 331.6C235 334.5 234.9 336.9 233.8 338.6C232.6 340.4 230.7 341 229.7 341.3C230.4 343.3 230.4 345.2 229.6 346.8C228.5 349.2 226.1 350.7 223.5 350.7ZM184.7 344.1L188.6 347.2C190.7 348.8 193.3 349.7 195.9 349.7H223.4C225.6 349.7 227.7 348.4 228.6 346.5C229.4 344.9 229.3 343.1 228.5 341.2L228.2 340.6L228.9 340.5C228.9 340.5 231.6 340.2 232.9 338.2C233.9 336.6 233.9 334.5 233 331.7L232.9 331.3L233.2 331.1C233.2 331.1 235.6 329.5 235.9 326.8C236.2 324.9 235.4 322.9 233.6 320.9L233.3 320.5L233.6 320.2C233.8 320 237.8 315.9 234.8 312.2C233.7 310.8 231.9 310 230.1 310H211.1L211.2 309.4C211.2 309.3 214.4 295.6 209.2 289.8C207.3 287.7 204.5 286.9 200.9 287.3V300.1L200.8 300.2L184.5 324.6V344.1H184.7Z" fill="#261134"/>
<path d="M167.6 316.6H184.2C185.8 316.6 187.1 317.9 187.1 319.5V347.3C187.1 348.9 185.8 350.2 184.2 350.2H167.6C166 350.2 164.7 348.9 164.7 347.3V319.5C164.7 317.9 166 316.6 167.6 316.6Z" fill="#31B8ED"/>
<path d="M184.2 350.7H167.6C165.7 350.7 164.2 349.2 164.2 347.3V319.5C164.2 317.6 165.7 316.1 167.6 316.1H184.2C186.1 316.1 187.6 317.6 187.6 319.5V347.3C187.6 349.1 186.1 350.7 184.2 350.7ZM167.6 317.1C166.3 317.1 165.2 318.2 165.2 319.5V347.3C165.2 348.6 166.3 349.7 167.6 349.7H184.2C185.5 349.7 186.6 348.6 186.6 347.3V319.5C186.6 318.2 185.5 317.1 184.2 317.1H167.6Z" fill="#261134"/>
<path d="M313 594C313 594 311 609 306 612L301 594H313Z" fill="#261134"/>
<path d="M319.9 1064.5H275.6L260.8 1053.4L270.6 1036.2L276.2 1026.2L282.1 1015.6L295.2 992L326 1009.2L308.6 1031L303.5 1037.4L296.5 1046.1C312.4 1049.6 319.9 1064.5 319.9 1064.5Z" fill="#F27B79"/>
<path d="M320.7 1065H275.4L260.1 1053.6L270.2 1036L295.1 991.3L326.8 1009.1L297.4 1045.9C312.8 1049.8 320.3 1064.3 320.3 1064.4L320.7 1065ZM275.8 1064H319C317.2 1061 309.8 1049.6 296.4 1046.5L295.6 1046.3L325.3 1009.2L295.5 992.5L271.1 1036.4L261.5 1053.3L275.8 1064Z" fill="#261134"/>
<path d="M452.5 1064.4H394.7L393.2 1043.5L391.7 1021.3H422.2L423.8 1038.1L424.2 1042.3C424.1 1042.2 450 1057 452.5 1064.4Z" fill="#F27B79"/>
<path d="M453.1 1064.9H394.1L391 1020.8H422.5L424.5 1041.9C427.2 1043.5 450.4 1057 452.8 1064.2L453.1 1064.9ZM395.1 1063.9H451.7C448.1 1056.6 424.1 1042.8 423.9 1042.7L423.7 1042.6L421.7 1021.9H392.2L395.1 1063.9Z" fill="#261134"/>
<path d="M423.7 1038.1L393.2 1043.5L391.6 1021.3H422.1L423.7 1038.1Z" fill="#261134"/>
<path d="M326 1009.1L308.6 1030.9L303.5 1037.3L276.3 1026.2L282.2 1015.5L295.3 991.9L326 1009.1Z" fill="#261134"/>
<path d="M282 640.5C281.6 640.3 281.1 640.1 280.7 639.9L277.7 669.4L240.9 663.8L255.3 617.6C253.4 614.8 249.1 610.9 250.6 604.4C250.6 604.4 251.6 598.4 256.6 598.4C257.7 598.4 258.9 598.9 260 599.8L264.5 583.8L306.6 593.3C306.6 593.3 311.4 653.7 282 640.5Z" fill="#FAD338"/>
<path d="M278.1 670L240.2 664.3L254.7 617.8C254.4 617.4 254.1 617 253.8 616.6C251.7 613.8 248.8 610.1 250 604.4C250 604.4 251.1 598.1 256.4 598.1C257.4 598.1 258.4 598.5 259.5 599.1L264 583.3L306.9 592.9V593.3C307 594.9 309.8 631.4 296.5 640.8C292.5 643.6 287.6 643.7 281.7 641C281.5 640.9 281.2 640.8 281 640.7L278.1 670ZM241.5 663.4L277.2 668.8L280.3 639.1L280.9 639.4C281.3 639.6 281.8 639.8 282.2 640C287.7 642.5 292.4 642.4 296 639.8C308.2 631.2 306.3 597.5 306 593.6L264.7 584.3L260.1 600.5L259.5 600.1C258.4 599.3 257.3 598.8 256.4 598.8C251.9 598.8 250.9 604.3 250.9 604.3C249.7 609.6 252.5 613.1 254.5 615.7C254.9 616.2 255.3 616.7 255.6 617.1L255.7 617.3L255.6 617.5L241.5 663.4Z" fill="#261134"/>
<path d="M371 805.2L274.7 1020.5L320.7 1032.5L408.3 864.3L371 805.2Z" fill="#1BA096"/>
<path d="M320.9 1033.1L274 1020.8L274.2 1020.3L370.9 804.1L408.9 864.2L320.9 1033.1ZM275.4 1020.2L320.4 1032L407.7 864.4L371 806.3L275.4 1020.2Z" fill="#261134"/>
<path d="M427 1032.8H375.2L356.5 852.8C356.5 852.8 269.5 863.4 234.2 851.5C218.3 846.2 214.6 830 215.4 813.5C216.4 792.4 224.9 770.9 224.9 770.9L304.7 779.2L349 782.5L407 786.8C413.1 787.3 418 792.2 418.2 798.4L427 1032.8Z" fill="#1BA096"/>
<path d="M427.5 1033.4H374.7V1033L356 853.4C348.8 854.2 267.6 863.4 234 852.1C220.3 847.5 213.8 834.5 214.9 813.6C215.9 792.7 224.3 771.1 224.4 770.8L224.5 770.4L304.7 778.7L406.9 786.2C413.3 786.7 418.3 791.9 418.5 798.3L427.5 1033.4ZM375.6 1032.4H426.5L417.6 798.4C417.4 792.5 412.8 787.7 406.9 787.3L304.7 779.8L225.2 771.5C224.1 774.4 216.9 794.3 215.9 813.6C214.9 834.1 221.1 846.7 234.3 851.1C269.1 862.8 355.5 852.4 356.4 852.3L356.9 852.2L357 852.7L375.6 1032.4Z" fill="#261134"/>
<path d="M348.9 782.5L215.4 813.6C216.4 792.5 224.9 771 224.9 771L304.7 779.3L348.9 782.5Z" fill="#21223E"/>
<path d="M302.3 751.1L330.6 748.5C332.4 748.1 334.3 748.3 336.1 748.8L349.1 753.8C351.6 754.6 353.3 756.8 353.6 759.4L355.7 778C356 781.4 353.5 784.3 350 784.3C350 785.5 349.1 786.4 347.9 786.4H345C344.2 786.4 343.5 785.9 343.1 785.2L342.6 784.3H340.4C337.9 784.3 335.7 782.8 334.7 780.6L331.1 772.8L306.4 773.9L302.3 751.1Z" fill="#FAD338"/>
<path d="M347.9 787H345C344 787 343.1 786.4 342.7 785.5L342.4 784.8H340.5C337.8 784.8 335.4 783.2 334.4 780.8L330.9 773.3L306.1 774.5L301.8 750.7L330.7 748.1C332.6 747.7 334.5 747.8 336.4 748.5L349.4 753.5C352 754.4 353.9 756.7 354.2 759.5L356.3 778.1C356.5 779.9 355.9 781.6 354.8 782.9C353.7 784.1 352.3 784.8 350.6 784.9C350.2 786.1 349.2 787 347.9 787ZM331.5 772.4L335.3 780.5C336.2 782.6 338.2 783.9 340.5 783.9H343L343.6 785.1C343.9 785.6 344.4 786 345 786H347.9C348.8 786 349.5 785.3 349.5 784.4V783.9H350C351.5 783.9 352.9 783.3 353.9 782.2C354.9 781.1 355.3 779.7 355.2 778.2L353.1 759.6C352.9 757.2 351.2 755.2 349 754.4L336 749.4C334.3 748.8 332.5 748.7 330.8 749.1L303 751.6L307 773.5L331.5 772.4Z" fill="#261134"/>
<path d="M213.5 728.5H174L189.3 682.5C192.1 674.2 198.5 667.7 206.7 664.7L243.4 651.7C243.4 651.7 270.5 674.4 279.7 651.7C279.9 651.2 295.1 657.2 306 661.3C312 663.6 316.3 668.9 317.3 675.2L334.5 784.4L214.4 805.1L213.5 728.5Z" fill="#31B8ED"/>
<path d="M214 805.8L213 729H173.3L188.8 682.4C191.6 673.9 198.1 667.3 206.5 664.3L243.4 651.2L243.6 651.4C243.7 651.5 258.5 663.7 269.5 661C273.8 659.9 277 656.8 279.1 651.6C279.4 650.9 279.4 650.8 297.3 657.6C300.3 658.7 303.3 659.9 306.1 660.9C312.3 663.2 316.7 668.7 317.7 675.2L334.9 784.9L214 805.8ZM174.7 728H214L214.9 804.6L333.9 784.1L316.8 675.4C315.8 669.3 311.6 664.1 305.8 661.9C303 660.9 300 659.7 297 658.6C289.8 655.8 281.7 652.7 280 652.3C277.8 657.6 274.4 660.8 269.9 662C259 664.7 245.3 654 243.3 652.4L206.9 665.3C198.8 668.2 192.5 674.5 189.8 682.7L174.7 728Z" fill="#261134"/>
<path d="M323.7 782.3C320.5 783.6 316.8 783.4 316.8 783.4C315.8 783.4 312.2 780.5 311.5 778L310.4 774C309.9 772.2 308.2 771 306.3 771.3L189 788C185.3 788.6 181.6 788.8 177.9 788.3C164.8 786.6 161.6 779 161.1 773.3C160.8 770.5 161.3 767.7 162.2 765L171.4 736.8L173 732L174.1 728.7H213.6L212.1 733.4L211.7 734.6L206.4 751.3H273.8L301.7 742.9C303.8 742.3 306 742.2 308.1 742.8L318.4 745.8C323.4 747.2 327 751.6 327.4 756.8L328.9 774.5C329.3 778.5 327.7 780.7 323.7 782.3Z" fill="#FAD338"/>
<path d="M182.3 789C180.8 789 179.3 788.9 177.8 788.7C164.5 787 161.1 779.4 160.6 773.2C160.4 770.4 160.7 767.6 161.7 764.7L173.6 728H214.1L206.9 750.7H273.5L301.3 742.3C303.5 741.7 305.8 741.6 308 742.2L318.4 745.2C323.5 746.7 327.3 751.3 327.7 756.6L329.2 774.3C329.7 778.6 328.2 781.1 323.8 782.8C320.5 784.1 316.8 783.9 316.7 783.9C315.3 783.9 311.7 780.7 311 778.1L309.9 774.1C309.5 772.5 308 771.6 306.4 771.8L189 788.5C186.8 788.8 184.5 789 182.3 789ZM174.4 729L162.7 765.1C161.8 767.9 161.4 770.6 161.6 773.2C162.1 779 165.3 786.2 177.9 787.8C181.4 788.2 185 788.1 188.8 787.5L306.2 770.8C308.3 770.5 310.3 771.8 310.8 773.9L311.9 777.9C312.6 780.3 316 782.9 316.7 782.9C316.8 782.9 320.4 783 323.5 781.8C327.4 780.3 328.7 778.2 328.2 774.4L326.7 756.7C326.3 751.8 322.8 747.5 318.1 746.2L307.8 743.2C305.8 742.7 303.7 742.7 301.7 743.3L273.6 751.7H205.5L212.7 729H174.4Z" fill="#261134"/>
<path d="M319.2 575.2C317.3 574.8 312.5 575.2 309.6 577.6C309.8 577.3 310 577 310.1 576.6C314.4 563.7 296.2 573.3 286.7 575.2C284.7 575.6 280.4 576.2 280.4 576.2C251.6 569.7 254.5 599 254.5 599C262.1 598 264.3 608.2 264.3 608.2C272 604.5 274.4 599.3 274.7 597.1C282.2 600.5 301.3 607 317.1 595.5C327.8 587.7 324 576.2 319.2 575.2Z" fill="#261134"/>
<path d="M395.3 777.2H284.4V787.6H395.3V777.2Z" fill="#261134"/>
<path d="M316.991 767.296L316.025 767.554L320.019 782.53L320.985 782.272L316.991 767.296Z" fill="#261134"/>
<path d="M324.016 764.464L323.033 764.648L326.038 780.67L327.02 780.485L324.016 764.464Z" fill="#261134"/>
<path d="M340.015 771.352L339.041 771.577L342.032 784.536L343.006 784.312L340.015 771.352Z" fill="#261134"/>
<path d="M389.1 782.4L418.1 699.5H424.3L395.3 782.4H389.1Z" fill="#261134"/>
<path d="M347.973 768.43L346.98 768.554L348.977 784.53L349.969 784.406L347.973 768.43Z" fill="#261134"/>
<path d="M220.013 707.389L213.018 728.353L213.967 728.67L220.962 707.706L220.013 707.389Z" fill="#261134"/>
<path d="M213.5 728.5L212 733.2L211.6 734.4L172.9 731.8L174 728.5H213.5Z" fill="#261134"/>
<path d="M1246.4 1021.3V1064.4H1188.6C1191.1 1057 1216.9 1042.2 1216.9 1042.2V1021.3H1246.4Z" fill="#F27B79"/>
<path d="M1246.9 1064.9H1187.9L1188.1 1064.2C1190.5 1057 1213.5 1043.6 1216.4 1041.9V1020.8H1246.9V1064.9ZM1189.4 1063.9H1246V1021.8H1217.5V1042.5L1217.2 1042.6C1216.9 1042.8 1193 1056.6 1189.4 1063.9Z" fill="black"/>
<path d="M1415 1053.3L1400.2 1064.4H1356C1356 1064.4 1363.5 1049.5 1379.4 1045.9L1367.3 1030.8L1349.9 1009L1380.7 991.8L1393.8 1015.4L1405.3 1036.1L1415 1053.3Z" fill="#F27B79"/>
<path d="M1400.4 1064.9H1355.1L1355.5 1064.2C1355.6 1064.1 1363.1 1049.5 1378.4 1045.7L1349 1008.9L1380.7 991.1L1405.6 1035.8L1415.7 1053.4L1400.4 1064.9ZM1356.8 1063.9H1400.1L1414.4 1053.2L1404.8 1036.4L1380.4 992.5L1350.6 1009.2L1380.3 1046.3L1379.5 1046.5C1366 1049.4 1358.6 1060.9 1356.8 1063.9Z" fill="black"/>
<path d="M1246.4 1021.3V1037L1216.9 1041.2V1021.3H1246.4Z" fill="#261134"/>
<path d="M1393.7 1015.4L1367.3 1030.8L1349.8 1009L1380.6 991.8L1393.7 1015.4Z" fill="#261134"/>
<path d="M1391.7 1007.8L1344.9 1021.3L1273.5 877.3L1271.3 847.8L1263.9 748.2L1260 718.5H1326.4V867.5L1391.7 1007.8Z" fill="#CDCBCC"/>
<path d="M1344.6 1021.9L1273 877.4L1263.4 748.3L1259.4 718.1H1326.9V867.5L1392.3 1008.2L1344.6 1021.9ZM1274 877.2L1345.1 1020.7L1390.9 1007.4L1325.9 867.5V719H1260.5L1264.4 748.1L1274 877.2Z" fill="#261134"/>
<path d="M1252.6 580.7L1253.8 554.9C1253.8 554.9 1223.7 560.5 1242 510.2C1243.9 505 1247.6 500.6 1252.3 497.8L1257.5 494.7L1280.9 499.6L1285.8 585.7L1252.6 580.7Z" fill="#FAD338"/>
<path d="M1286.4 586.2L1252.1 581.1L1253.3 555.4C1251.2 555.6 1244.3 556 1239.7 550.6C1233.7 543.5 1234.3 529.8 1241.6 509.9C1243.5 504.6 1247.2 500.1 1252.1 497.2L1257.5 494L1281.4 499V499.4L1286.4 586.2ZM1253.1 580.3L1285.3 585.1L1280.4 499.9L1257.6 495.1L1252.6 498.1C1247.9 500.9 1244.3 505.2 1242.5 510.3C1235.5 529.6 1234.8 543.3 1240.5 550C1245.5 555.9 1253.7 554.4 1253.8 554.4L1254.4 554.3L1253.1 580.3Z" fill="#261134"/>
<path d="M1104.9 598L1097.5 627.5L1082.1 620.2L1048.2 604.1C1044.5 605.3 1037.1 602.9 1032.2 600.4C1027.5 598.1 1031 593 1031 593C1028.5 589.3 1032.2 585.6 1032.2 585.6C1031 580.7 1034.7 578.2 1034.7 578.2L1019.5 570.6C1017.8 569.8 1016.8 567.9 1017.2 566.1V566C1017.8 563.7 1020.4 562.5 1022.6 563.3L1054.3 574.6L1070.3 585.7L1091.8 593.4L1104.9 598Z" fill="#FAD338"/>
<path d="M1097.9 628.2L1048.3 604.6C1044 605.9 1036.1 602.8 1032.1 600.8C1030.7 600.1 1029.8 599.1 1029.5 597.9C1029 595.9 1030 593.8 1030.5 593C1028.5 589.6 1031 586.3 1031.8 585.5C1031 581.8 1032.9 579.4 1033.9 578.4L1019.3 571.1C1017.4 570.1 1016.3 568 1016.8 566V565.9C1017.1 564.7 1017.9 563.7 1019 563.1C1020.2 562.5 1021.6 562.4 1022.9 562.8L1054.7 574.2L1070.6 585.2L1105.4 597.6L1097.9 628.2ZM1048.3 603.6L1097.2 626.8L1104.3 598.3L1070.2 586.1L1054.3 575.1L1022.6 563.8C1021.6 563.4 1020.5 563.5 1019.5 564C1018.6 564.5 1018 565.2 1017.8 566.1C1017.4 567.7 1018.3 569.4 1019.8 570.2L1035.8 578.2L1035.1 578.7C1035 578.8 1031.7 581 1032.8 585.5L1032.9 585.8L1032.7 586C1032.6 586.1 1029.3 589.5 1031.5 592.8L1031.7 593.1L1031.5 593.4C1031.5 593.4 1029.9 595.7 1030.5 597.8C1030.8 598.8 1031.4 599.5 1032.6 600.1C1037.7 602.7 1044.8 604.9 1048.2 603.8L1048.3 603.6Z" fill="#261134"/>
<path d="M1104.9 598L1097.5 627.5L1082.2 620.2L1092 593.3L1104.9 598Z" fill="#261134"/>
<path d="M1297.5 718.5L1293.5 746.4L1271.3 847.8L1268.6 868.7L1253.2 1031.8H1211.4L1209.4 869.5L1220.6 751.9L1223.5 721.2L1297.5 718.5Z" fill="#CDCBCC"/>
<path d="M1253.7 1032.3H1210.9V1031.8L1208.9 869.6L1223.1 720.8L1298.1 718L1294 746.5L1271.8 847.9L1269.1 868.8L1253.7 1032.3ZM1211.9 1031.3H1252.8L1268.1 868.7L1270.8 847.7L1293 746.3L1296.9 719L1224 721.7L1209.9 869.6L1211.9 1031.3Z" fill="#261134"/>
<path d="M1405.9 796.8C1405.4 801.2 1401.9 799.5 1401.9 799.5L1402.9 807C1401.4 812.6 1397.8 809.8 1397.8 809.8C1396.3 815.4 1391.5 811.7 1391.5 811.7C1388.8 816.4 1384.8 810.4 1384.8 810.4L1378.9 798.1L1374.6 781.2C1375.5 788.7 1370.3 790.5 1370.3 790.5L1366.4 776.8L1373.4 762.8L1372.3 754.3L1370.5 740.2L1394.3 738.3C1395 740.5 1396.6 745.8 1398.1 751.2C1400.1 758.4 1402.1 765.7 1402.1 765.7L1401.9 781L1405.9 796.8Z" fill="#FAD338"/>
<path d="M1389 814C1386.6 814 1384.4 810.8 1384.3 810.6L1378.3 798.2L1374.9 784.8C1374.1 789.5 1370.4 790.8 1370.3 790.8L1369.8 791L1365.7 776.6L1372.7 762.6L1369.8 739.7L1394.5 737.7L1394.6 738.1C1395.2 740 1396.5 744.2 1398.4 751C1400.4 758.2 1402.4 765.5 1402.4 765.5V765.6L1402.2 780.9L1406.4 796.8V796.9C1406.2 798.5 1405.6 799.5 1404.7 800.1C1403.9 800.5 1403.1 800.5 1402.5 800.3L1403.4 807.1V807.2C1402.9 809.3 1402 810.5 1400.7 811C1399.7 811.3 1398.7 811 1398.1 810.7C1397.6 812.1 1396.8 813 1395.8 813.4C1394.2 813.9 1392.5 813.1 1391.7 812.6C1390.9 813.5 1390.1 814 1389 814C1389.1 814 1389 814 1389 814ZM1375 781L1379.3 797.9L1385.2 810.1C1385.7 810.9 1387.5 813 1389.1 812.9C1389.8 812.9 1390.5 812.4 1391 811.4L1391.3 810.9L1391.8 811.3C1391.8 811.3 1393.8 812.8 1395.4 812.3C1396.3 812 1396.9 811.1 1397.3 809.7L1397.5 809L1398.1 809.5C1398.1 809.5 1399.3 810.4 1400.4 810C1401.3 809.7 1402 808.7 1402.4 807L1401.3 798.7L1402.1 799.1C1402.1 799.1 1403.3 799.7 1404.2 799.2C1404.8 798.9 1405.2 798.1 1405.4 796.9L1401.2 781.1L1401.4 765.8C1401.2 765 1399.3 758.2 1397.4 751.4C1395.6 745.1 1394.4 741 1393.7 738.9L1370.9 740.7L1373.7 762.9L1366.7 776.8L1370.4 789.8C1371.6 789.2 1374.6 787 1373.9 781.3L1375 781Z" fill="#261134"/>
<path d="M1398 751.2L1372.2 754.3L1370.4 740.2L1394.2 738.3C1394.9 740.5 1396.4 745.8 1398 751.2Z" fill="#261134"/>
<path d="M1326.4 715V742.9L1284.5 746.4L1263.9 748.2L1220.6 751.9L1223.5 721.2L1326.4 715Z" fill="#261134"/>
<path d="M1098.8 593L1090.2 636.1L1162.3 661.2C1170.5 664.1 1179.5 663.9 1187.6 660.6L1224.3 645.9L1216.9 732H1332.6L1321.5 638.5L1337.5 668L1362.8 747.2H1398.5L1376.4 650.8L1340.5 594.9C1335.1 586.5 1326.7 580.6 1317 578.3L1295.6 573.2H1254C1245.8 573.2 1237.7 575.4 1230.6 579.5L1173.8 612.6L1098.8 593Z" fill="#1BA096"/>
<path d="M1399.2 747.9H1362.5L1362.4 747.6L1337.1 668.4L1322.4 641.2L1333.2 732.7H1216.4V732.2L1223.7 646.9L1187.8 661.3C1179.6 664.6 1170.5 664.8 1162.1 661.9L1089.6 636.7L1098.4 592.7L1173.8 612.5L1230.4 579.5C1237.6 575.3 1245.8 573.1 1254.1 573.1H1295.8L1317.2 578.2C1327.1 580.6 1335.5 586.5 1341 595.1L1377 651L1399.2 747.9ZM1363.2 746.9H1397.9L1376 651.2L1340.1 595.4C1334.8 587.1 1326.5 581.3 1316.9 579L1295.6 573.9H1254.1C1246 573.9 1238 576.1 1230.9 580.2L1173.9 613.4L1099.1 593.8L1090.7 635.9L1162.4 660.8C1170.5 663.6 1179.4 663.4 1187.4 660.2L1224.8 645.2L1217.4 731.6H1332L1320.7 636L1337.9 667.8L1363.2 746.9Z" fill="#261134"/>
<path d="M1249 497.4C1249 497.4 1246 506 1253.9 523.9C1253.9 523.9 1270.6 518.5 1262.3 538.2C1262.3 538.2 1268 554.2 1284 557.9C1284 557.9 1297.5 551.7 1302.5 533.3C1303.2 530.6 1304.2 523.9 1304.2 523.9C1304.2 523.9 1319 541.4 1340 531.4C1344.3 529.4 1348.7 522.7 1349.7 515.2C1351.3 504 1346.5 486 1325.9 486C1317.2 486 1305.3 492.5 1300.8 507.8C1300.7 507.8 1282.2 480.2 1249 497.4Z" fill="#261134"/>
<path d="M1391 811.9L1384.6 796.4L1381.9 783L1382.8 782.8L1385.6 796.1L1391.9 811.6L1391 811.9Z" fill="black"/>
<path d="M1397.3 810L1391 794.5L1388.2 781.6L1389.2 781.4L1391.9 794.2L1398.2 809.7L1397.3 810Z" fill="black"/>
<path d="M1398.2 778.794L1381.25 783.118L1381.49 784.087L1398.45 779.763L1398.2 778.794Z" fill="black"/>
<path d="M1401.7 801.6L1398.2 791.4L1396 779.8L1396.9 779.6L1399.2 791.1L1402.6 801.3L1401.7 801.6Z" fill="black"/>
<path d="M1531 1064.5H71V1066.5H1531V1064.5Z" fill="#261134"/>
</svg>
