<svg width="1600" height="1200" viewBox="0 0 1600 1200" fill="none" xmlns="http://www.w3.org/2000/svg">
<path d="M559.3 1065.8H865.4C888.2 1065.8 906.7 1047.3 906.7 1024.5V321.6C906.7 298.8 888.2 280.3 865.4 280.3H559.3C536.5 280.3 518 298.8 518 321.6V1024.5C518 1047.3 536.5 1065.8 559.3 1065.8Z" fill="#FEFEFE"/>
<path d="M865.4 1066.3H559.3C536.2 1066.3 517.5 1047.5 517.5 1024.5V321.6C517.5 298.5 536.3 279.8 559.3 279.8H865.4C888.5 279.8 907.2 298.6 907.2 321.6V1024.5C907.3 1047.5 888.5 1066.3 865.4 1066.3ZM559.3 280.8C536.8 280.8 518.5 299.1 518.5 321.6V1024.5C518.5 1047 536.8 1065.3 559.3 1065.3H865.4C887.9 1065.3 906.2 1047 906.2 1024.5V321.6C906.2 299.1 887.9 280.8 865.4 280.8H559.3Z" fill="#261134"/>
<path d="M565.8 1053.6H859C879 1053.6 895.3 1037.4 895.3 1017.3V328.7C895.3 308.7 879.1 292.4 859 292.4H565.8C545.8 292.4 529.5 308.6 529.5 328.7V1017.3C529.5 1037.3 545.7 1053.6 565.8 1053.6Z" fill="#261134"/>
<path d="M850.9 306.6H807.3C806.6 320.4 795.2 331.3 781.3 331.3H641.7C627.8 331.3 616.4 320.4 615.7 306.6H572C555.7 306.6 542.6 319.8 542.6 336V1011.7C542.6 1028 555.8 1041.1 572 1041.1H850.9C867.2 1041.1 880.3 1027.9 880.3 1011.7V336.1C880.4 319.8 867.2 306.6 850.9 306.6Z" fill="white"/>
<path d="M728.3 309.5H676.3V316.5H728.3V309.5Z" fill="white"/>
<path d="M741.8 318.5C744.838 318.5 747.3 316.038 747.3 313C747.3 309.962 744.838 307.5 741.8 307.5C738.762 307.5 736.3 309.962 736.3 313C736.3 316.038 738.762 318.5 741.8 318.5Z" fill="white"/>
<path d="M799.9 400.9C797 400.9 794.5 402.8 793.7 405.5C792.9 402.9 790.4 400.9 787.5 400.9C783.9 400.9 781.1 403.8 781.1 407.3C781.1 408.5 781.4 409.6 782 410.5C782.2 410.9 782.5 411.3 782.9 411.7L793.5 426.1L804.4 411.9C804.8 411.5 805.2 411 805.5 410.5C806 409.6 806.4 408.5 806.4 407.3C806.4 403.8 803.5 400.9 799.9 400.9Z" fill="#F27B79"/>
<path d="M793.5 427L782.5 412.1C782.2 411.8 781.9 411.3 781.6 410.9C781 409.8 780.7 408.7 780.7 407.4C780.7 403.6 783.8 400.5 787.6 400.5C790.2 400.5 792.6 402 793.8 404.2C795 401.9 797.3 400.5 800 400.5C803.8 400.5 806.9 403.6 806.9 407.4C806.9 408.6 806.6 409.8 806 410.9C805.7 411.5 805.3 412 804.8 412.4L793.5 427ZM787.6 401.4C784.3 401.4 781.7 404.1 781.7 407.3C781.7 408.3 782 409.4 782.5 410.3C782.7 410.7 783 411 783.3 411.4L793.6 425.3L804.1 411.7C804.5 411.3 804.9 410.8 805.1 410.4C805.6 409.5 805.9 408.5 805.9 407.4C805.9 404.1 803.2 401.5 800 401.5C797.4 401.5 795.1 403.2 794.3 405.7L793.8 407.3L793.3 405.7C792.5 403.1 790.2 401.4 787.6 401.4Z" fill="#261134"/>
<path d="M844 459.3H577.3V772.2H844V459.3Z" fill="#FEFEFE"/>
<path d="M844.5 772.7H576.8V458.8H844.5V772.7ZM577.8 771.7H843.5V459.8H577.8V771.7Z" fill="#261134"/>
<path d="M837.2 797.5C834.3 797.5 831.8 799.4 831 802.1C830.2 799.5 827.7 797.5 824.8 797.5C821.2 797.5 818.4 800.4 818.4 803.9C818.4 805.1 818.7 806.2 819.3 807.1C819.5 807.5 819.8 807.9 820.2 808.3L830.8 822.7L841.7 808.5C842.1 808.1 842.5 807.6 842.8 807.1C843.3 806.2 843.7 805.1 843.7 803.9C843.7 800.3 840.8 797.5 837.2 797.5Z" fill="#F27B79"/>
<path d="M830.8 823.5L819.8 808.6C819.5 808.3 819.2 807.8 818.9 807.4C818.3 806.3 818 805.2 818 803.9C818 800.1 821.1 797 824.9 797C827.5 797 829.9 798.5 831.1 800.7C832.3 798.4 834.6 797 837.3 797C841.1 797 844.2 800.1 844.2 803.9C844.2 805.1 843.9 806.3 843.3 807.4C843 808 842.6 808.5 842.1 808.9L830.8 823.5ZM824.9 798C821.6 798 819 800.7 819 803.9C819 804.9 819.3 806 819.8 806.9C820 807.3 820.3 807.6 820.6 808L830.9 821.9L841.4 808.3C841.8 807.9 842.2 807.4 842.4 807C842.9 806.1 843.2 805.1 843.2 804C843.2 800.7 840.5 798.1 837.3 798.1C834.7 798.1 832.4 799.8 831.6 802.3L831.1 803.9L830.6 802.3C829.8 799.7 827.5 798 824.9 798Z" fill="#261134"/>
<path d="M681.7 489.6C685.5 491.3 708.4 500.3 735.6 489.8C735.9 489.7 736.2 489.9 736.2 490.2L736 531.6L681 531.3L681.2 489.9C681.2 489.7 681.5 489.5 681.7 489.6Z" fill="#261134"/>
<path d="M736.4 532.1L680.4 531.8L680.6 489.9C680.6 489.6 680.8 489.3 681 489.1C681.3 488.9 681.6 488.9 681.9 489C686.1 490.9 708.6 499.6 735.4 489.2C735.7 489.1 736 489.1 736.3 489.3C736.5 489.5 736.7 489.8 736.7 490.1L736.4 532.1ZM681.5 530.9L735.5 531.2L735.7 490.4C708.8 500.7 686.2 492.1 681.7 490.1L681.5 530.9Z" fill="#261134"/>
<path d="M743.4 593C743.4 593 776.8 630.8 775.9 748.1L639 747.4C639.3 630.1 673.1 592.6 673.1 592.6V592.5L672.4 587.1L667.2 545.9L656 568.3L622.8 553L642.3 514.6C657.1 482.9 681.4 489.6 681.4 489.6C685 513.4 694.9 520.6 702.4 522.5C703.8 522.9 705.3 523 706.8 523H710.6C712.1 523 713.6 522.9 715 522.5C722.5 520.7 732.4 513.6 736.3 489.9C736.3 489.9 760.7 483.5 775.1 515.3L794.2 553.9L760.8 568.9L749.8 546.4L744.2 587.5L743.5 592.7L743.4 593Z" fill="#F27B79"/>
<path d="M776.4 748.7L638.5 748V747.5C638.7 686.8 647.9 647.9 655.7 625.9C663.5 603.8 671.4 593.9 672.6 592.5L666.9 547.6L656.2 569L622.1 553.2L641.8 514.3C656.6 482.6 681.2 488.9 681.5 489L681.8 489.1V489.4C685.4 512.9 695 520 702.4 521.8C703.7 522.1 705.1 522.3 706.7 522.3H710.5C712.1 522.3 713.5 522.2 714.8 521.8C722.2 520 731.9 513 735.8 489.6L735.9 489.3L736.2 489.2C736.4 489.1 761.2 483 775.6 514.9L794.9 554L760.6 569.4L750.1 547.9L744 592.7C745.2 594.1 753 604.1 760.5 626.3C768 648.3 776.9 687.4 776.4 748V748.7ZM639.5 746.9L775.4 747.6C776.2 632.2 743.4 593.7 743.1 593.3L742.9 593.1L743.7 587.3L749.5 544.5L761 568.1L793.4 553.5L774.6 515.3C761.4 486.1 739.5 489.5 736.7 490C732.7 513.7 722.7 520.9 715 522.7C713.6 523 712.1 523.2 710.5 523.2H706.7C705.1 523.2 703.6 523 702.2 522.7C694.5 520.8 684.6 513.5 680.9 489.8C678 489.2 656.2 485.6 642.7 514.6L623.5 552.6L655.8 567.5L667.5 544L673.6 592.6L673.4 592.8C673.1 593.3 639.9 631.6 639.5 746.9Z" fill="#261134"/>
<path d="M744.2 587.5L743.5 592.7L695.9 592.5C695.5 596 694.8 601.6 694.5 604.4C694.5 604.8 694.2 605.2 693.9 605.5C693.6 605.8 693.2 605.9 692.7 605.9C691.8 605.9 691 605.1 691 604.2C690.9 599.7 691.3 593.2 691.3 593.2C688.4 597.7 686.9 610 686.4 614.4C686.4 614.8 686.1 615.2 685.8 615.5C685.5 615.8 685.1 615.9 684.6 615.9C683.7 615.9 682.9 615.2 682.9 614.3C682 599.4 686.4 592.6 686.4 592.6L673.1 592.5L672.4 587.1L744.2 587.5Z" fill="#FEFEFE"/>
<path d="M684.7 616.4C683.5 616.4 682.5 615.5 682.5 614.3C681.7 602 684.5 595.2 685.6 593.1L672.7 593L671.9 586.6L744.8 587L743.9 593.2L696.3 593C695.8 596.8 695.2 602.6 695 604.4C694.9 604.9 694.7 605.5 694.3 605.8C693.9 606.2 693.3 606.4 692.8 606.4C691.6 606.4 690.6 605.4 690.6 604.2C690.5 601.4 690.7 597.9 690.8 595.5C688.6 601 687.4 611.1 687 614.4C686.9 615 686.7 615.5 686.3 615.8C685.8 616.2 685.2 616.4 684.7 616.4ZM673.5 592L687.3 592.1L686.8 592.9C686.8 593 682.5 599.8 683.4 614.3C683.4 615 684 615.5 684.6 615.5C684.9 615.5 685.2 615.4 685.4 615.2C685.6 615 685.8 614.7 685.8 614.4C686.3 609.5 687.9 597.5 690.8 593L691.8 591.4L691.7 593.3C691.7 593.4 691.3 599.8 691.4 604.3C691.4 605 692 605.5 692.6 605.5C692.9 605.5 693.2 605.4 693.4 605.2C693.6 605 693.8 604.7 693.8 604.4C694 602.6 694.7 596.2 695.2 592.5L695.3 592.1L742.9 592.3L743.5 588L672.8 587.6L673.5 592Z" fill="#261134"/>
<path d="M764.3 424.6L758.5 416.8C760.3 415 761.4 412.6 761.4 409.9C761.4 404.6 757.1 400.2 751.7 400.2C746.4 400.2 742 404.5 742 409.9C742 415.2 746.3 419.6 751.7 419.6C753.3 419.6 754.9 419.2 756.2 418.5L762 426.3L764.3 424.6ZM744.9 409.9C744.9 406.1 748 403 751.8 403C755.6 403 758.7 406.1 758.7 409.9C758.7 413.7 755.6 416.8 751.8 416.8C748 416.8 744.9 413.7 744.9 409.9Z" fill="#FEFEFE"/>
<path d="M762 427L756.2 419.1C754.8 419.7 753.3 420.1 751.8 420.1C746.2 420.1 741.6 415.5 741.6 409.9C741.6 404.3 746.2 399.7 751.8 399.7C757.4 399.7 762 404.3 762 409.9C762 412.5 761 415 759.2 416.9L765 424.8L762 427ZM756.4 417.8L762.1 425.6L763.5 424.6L757.8 416.9L758.1 416.6C759.9 414.9 760.9 412.5 760.9 410C760.9 404.9 756.8 400.8 751.7 400.8C746.6 400.8 742.5 404.9 742.5 410C742.5 415.1 746.6 419.2 751.7 419.2C753.2 419.2 754.6 418.8 756 418.1L756.4 417.8ZM751.8 417.3C747.7 417.3 744.4 414 744.4 409.9C744.4 405.8 747.7 402.5 751.8 402.5C755.9 402.5 759.2 405.8 759.2 409.9C759.2 414 755.9 417.3 751.8 417.3ZM751.8 403.5C748.3 403.5 745.4 406.4 745.4 409.9C745.4 413.4 748.3 416.3 751.8 416.3C755.3 416.3 758.2 413.4 758.2 409.9C758.2 406.4 755.3 403.5 751.8 403.5Z" fill="#261134"/>
<path d="M841.9 408.2H838.8C838.7 403.7 836.5 400.3 833.6 400.3C830.7 400.3 828.5 403.8 828.4 408.2H826L823.9 426.2H843.9L841.9 408.2ZM833.6 402.3C835 402.3 836.6 404.7 836.7 408.2H830.5C830.6 404.7 832.2 402.3 833.6 402.3Z" fill="#FEFEFE"/>
<path d="M844.6 426.6H823.4L825.6 407.6H828C828.3 403 830.6 399.7 833.6 399.7C836.6 399.7 839 403.1 839.3 407.6H842.4L844.6 426.6ZM824.5 425.6H843.4L841.4 408.6H838.2V408.1C838.1 403.9 836 400.6 833.5 400.6C831 400.6 828.9 403.9 828.8 408.1V408.6H826.3L824.5 425.6ZM837.3 408.7H830.1V408.2C830.2 404.7 831.8 401.8 833.7 401.8C835.6 401.8 837.2 404.7 837.3 408.2V408.7ZM831.1 407.7H836.2C836 404.7 834.6 402.8 833.6 402.8C832.6 402.8 831.3 404.7 831.1 407.7Z" fill="#261134"/>
<path d="M605.6 402H577.3V406H605.6V402Z" fill="#FEFEFE"/>
<path d="M606.2 406.5H576.9V401.5H606.2V406.5ZM577.8 405.5H605.1V402.5H577.8V405.5Z" fill="#261134"/>
<path d="M605.6 412.4H577.3V416.4H605.6V412.4Z" fill="#FEFEFE"/>
<path d="M606.2 416.9H576.9V411.9H606.2V416.9ZM577.8 415.9H605.1V412.9H577.8V415.9Z" fill="#261134"/>
<path d="M605.6 422.8H577.3V426.8H605.6V422.8Z" fill="#FEFEFE"/>
<path d="M606.2 427.3H576.9V422.3H606.2V427.3ZM577.8 426.3H605.1V423.3H577.8V426.3Z" fill="#261134"/>
<path d="M742.8 800.9H577V807.9H742.8V800.9Z" fill="#FEFEFE"/>
<path d="M743.3 808.4H576.5V800.4H743.3V808.4ZM577.5 807.4H742.3V801.4H577.5V807.4Z" fill="black"/>
<path d="M663.7 817H577.3V824H663.7V817Z" fill="#FEFEFE"/>
<path d="M664.2 824.5H576.8V816.5H664.2V824.5ZM577.8 823.5H663.2V817.5H577.8V823.5Z" fill="black"/>
<path d="M663.7 834.1H577.3V841.1H663.7V834.1Z" fill="#FEFEFE"/>
<path d="M664.2 841.6H576.8V833.6H664.2V841.6ZM577.8 840.6H663.2V834.6H577.8V840.6Z" fill="black"/>
<path d="M813.3 876.2H599.1V922.5H813.3V876.2Z" fill="#261134"/>
<path d="M638.7 905.3H630.3L628.7 909.2H623L631.8 889.3H637.3L646.1 909.2H640.2L638.7 905.3ZM637 901.1L634.4 894.7L631.8 901.1H637Z" fill="white"/>
<path d="M647.7 889.3H657.1C659.3 889.3 661.2 889.7 662.9 890.5C664.6 891.3 665.9 892.5 666.8 894C667.7 895.5 668.2 897.2 668.2 899.3C668.2 901.3 667.7 903.1 666.8 904.6C665.9 906.1 664.6 907.3 662.9 908.1C661.2 908.9 659.3 909.3 657.1 909.3H647.7V889.3ZM656.9 904.7C658.6 904.7 660 904.2 661 903.3C662 902.4 662.5 901 662.5 899.3C662.5 897.6 662 896.3 661 895.3C660 894.3 658.6 893.9 656.9 893.9H653.3V904.8H656.9V904.7Z" fill="white"/>
<path d="M671.1 889.3H680.5C682.7 889.3 684.6 889.7 686.3 890.5C688 891.3 689.3 892.5 690.2 894C691.1 895.5 691.6 897.2 691.6 899.3C691.6 901.3 691.1 903.1 690.2 904.6C689.3 906.1 688 907.3 686.3 908.1C684.6 908.9 682.7 909.3 680.5 909.3H671.1V889.3ZM680.3 904.7C682 904.7 683.4 904.2 684.4 903.3C685.4 902.4 685.9 901 685.9 899.3C685.9 897.6 685.4 896.3 684.4 895.3C683.4 894.3 682 893.9 680.3 893.9H676.7V904.8H680.3V904.7Z" fill="white"/>
<path d="M707.2 908.2C705.5 907.3 704.2 906.1 703.3 904.5C702.4 902.9 701.9 901.1 701.9 899.2C701.9 897.3 702.4 895.4 703.3 893.9C704.2 892.3 705.5 891.1 707.2 890.2C708.9 889.3 710.7 888.9 712.8 888.9C714.6 888.9 716.3 889.2 717.7 889.9C719.2 890.5 720.4 891.5 721.3 892.7L717.7 895.9C716.4 894.3 714.8 893.6 713 893.6C711.9 893.6 711 893.8 710.1 894.3C709.3 894.8 708.6 895.4 708.1 896.3C707.6 897.2 707.4 898.2 707.4 899.3C707.4 900.4 707.6 901.4 708.1 902.3C708.6 903.2 709.2 903.8 710.1 904.3C710.9 904.8 711.9 905 713 905C714.8 905 716.4 904.2 717.7 902.7L721.3 905.9C720.3 907.1 719.1 908 717.7 908.7C716.2 909.3 714.6 909.7 712.8 909.7C710.7 909.5 708.8 909.1 707.2 908.2Z" fill="white"/>
<path d="M736.8 905.3H728.4L726.8 909.2H721.1L729.9 889.3H735.4L744.2 909.2H738.3L736.8 905.3ZM735.2 901.1L732.6 894.7L730 901.1H735.2Z" fill="white"/>
<path d="M754.5 903.9H751.4V909.2H745.8V889.3H754.9C756.7 889.3 758.3 889.6 759.6 890.2C760.9 890.8 761.9 891.6 762.7 892.8C763.4 893.9 763.8 895.2 763.8 896.7C763.8 898.1 763.5 899.4 762.8 900.5C762.1 901.6 761.2 902.4 759.9 903L764.2 909.2H758.2L754.5 903.9ZM757.2 894.5C756.6 894 755.7 893.7 754.6 893.7H751.5V899.5H754.6C755.8 899.5 756.6 899.2 757.2 898.7C757.8 898.2 758.1 897.5 758.1 896.6C758.1 895.7 757.8 895 757.2 894.5Z" fill="white"/>
<path d="M766.8 889.3H776.2C778.4 889.3 780.3 889.7 782 890.5C783.7 891.3 785 892.5 785.9 894C786.8 895.5 787.3 897.2 787.3 899.3C787.3 901.3 786.8 903.1 785.9 904.6C785 906.1 783.7 907.3 782 908.1C780.3 908.9 778.4 909.3 776.2 909.3H766.8V889.3ZM776 904.7C777.7 904.7 779.1 904.2 780.1 903.3C781.1 902.4 781.6 901 781.6 899.3C781.6 897.6 781.1 896.3 780.1 895.3C779.1 894.3 777.7 893.9 776 893.9H772.4V904.8H776V904.7Z" fill="white"/>
<path d="M477.4 767.3L486.4 898H396.6V767.3H477.4Z" fill="#F27B79"/>
<path d="M486.9 898.5H396.1V766.8H477.8V767.3L486.9 898.5ZM397.1 897.5H485.8L476.9 767.8H397.1V897.5Z" fill="black"/>
<path d="M400.2 767.2L406.7 898H370.9L378 767.2H400.2Z" fill="#261134"/>
<path d="M407.2 898.5H370.4L377.5 766.7H400.6V767.2L407.2 898.5ZM371.4 897.5H406.1L399.6 767.7H378.3L371.4 897.5Z" fill="#261134"/>
<path d="M450.6 804.4C450.3 804.4 450 804.4 449.7 804.4C431.8 803.4 428.8 788.3 428.3 785.3C428.1 783.8 427.9 782.5 427.7 781.2C425.8 768 425.1 763 420.3 763.5C416.4 763.9 415 767.4 415 767.4L414.1 767C414.2 766.8 415.8 762.9 420.3 762.5C426.1 761.9 426.9 767.5 428.8 781C429 782.3 429.2 783.7 429.4 785.1C429.8 788 432.8 802.4 449.8 803.3C451.9 803.4 455.9 803.2 458.9 800.4C461.5 798.1 462.9 794.5 463.1 789.6C463.4 783.4 461.7 767.6 456.8 764.9C455.4 764.1 454.2 764 453.2 764.4C451.5 765.1 450.9 767.2 450.9 767.3L449.9 767C449.9 766.9 450.7 764.4 452.8 763.5C454.1 763 455.6 763.1 457.3 764.1C462.8 767.1 464.4 783.9 464.1 789.8C463.8 794.9 462.3 798.8 459.5 801.3C456.6 803.9 453 804.4 450.6 804.4Z" fill="#261134"/>
<path d="M495.1 821.4H427.6L432.7 898H514.7L495.1 821.4Z" fill="#31B8ED"/>
<path d="M515.3 898.5H432.2L427 820.9H495.5L495.6 821.3L515.3 898.5ZM433.1 897.5H514L494.7 821.9H428.1L433.1 897.5Z" fill="#261134"/>
<path d="M420.3 821.2H429.9L448.9 898H422.3L420.3 821.2Z" fill="#261134"/>
<path d="M449.5 898.5H421.8V898L419.8 820.7H430.4L449.5 898.5ZM422.8 897.5H448.3L429.6 821.7H420.8L422.8 897.5Z" fill="#261134"/>
<path d="M472.6 847.4H472.5C466.5 847.4 462.1 844 459.1 837.1L452.6 821.6C452.6 821.6 450.6 817.5 447.4 818.2C444.5 818.8 443.9 821.5 443.9 821.5L442.9 821.3C442.9 821.2 443.7 818 447.2 817.2C451.2 816.3 453.5 821 453.6 821.2L460.1 836.7C463.9 845.4 469.1 846.4 472.6 846.4H472.7C483.5 846.4 483.8 838.1 484 833.2C484 832.8 484 832.4 484 832.1C484.6 820.9 481.1 819.2 480 818.9C475.8 817.9 474.5 821.6 474.5 821.7L473.6 821.4C473.6 821.4 475.2 816.6 480.3 817.9C481.9 818.3 485.7 820.5 485 832.1C485 832.4 485 832.8 485 833.2C484.7 838.2 484.4 847.4 472.6 847.4Z" fill="#261134"/>
<path d="M370.9 898.8L370.1 898.2L388.3 876.3V767.3H389.3V876.7L370.9 898.8Z" fill="white"/>
<path d="M388.996 876.217L388.236 876.868L406.263 897.9L407.023 897.25L388.996 876.217Z" fill="white"/>
<path d="M422.9 897.8L422.1 897.2L432 881.4L425 821.2L426 821.1L433 881.6L422.9 897.8Z" fill="white"/>
<path d="M432.843 881.164L432.136 881.872L448.116 897.852L448.824 897.145L432.843 881.164Z" fill="white"/>
<path d="M518.3 897.6H302V1066H518.3V897.6Z" fill="#261134"/>
<path d="M555.5 897.6H357.7V1066H555.5V897.6Z" fill="#FAD338"/>
<path d="M556 1066.5H357.2V897.1H556V1066.5ZM358.2 1065.5H555V898.1H358.2V1065.5Z" fill="#261134"/>
<path d="M487.8 897.6V939.6L475.5 932.7L465.9 939.1L454.5 932.7L444 939.6V897.6H487.8Z" fill="#261134"/>
<path d="M443.9 980.6H398.3V982.6H443.9V980.6Z" fill="#261134"/>
<path d="M443.9 998.4H398.3V1000.4H443.9V998.4Z" fill="#261134"/>
<path d="M443.9 1016.2H398.3V1018.2H443.9V1016.2Z" fill="#261134"/>
<path d="M531.1 976.5H457.2V1022.6H531.1V976.5Z" fill="#FEFEFE"/>
<path d="M531.6 1023.1H456.7V976H531.6V1023.1ZM457.7 1022.1H530.6V977H457.7V1022.1Z" fill="#261134"/>
<path d="M368.3 594.6C401.603 594.6 428.6 567.603 428.6 534.3C428.6 500.997 401.603 474 368.3 474C334.997 474 308 500.997 308 534.3C308 567.603 334.997 594.6 368.3 594.6Z" fill="#FEFEFE"/>
<path d="M368.3 595C334.8 595 307.5 567.7 307.5 534.2C307.5 500.7 334.8 473.4 368.3 473.4C401.8 473.4 429.1 500.7 429.1 534.2C429.1 567.7 401.7 595 368.3 595ZM368.3 474.5C335.4 474.5 308.5 501.3 308.5 534.3C308.5 567.3 335.3 594.1 368.3 594.1C401.3 594.1 428.1 567.3 428.1 534.3C428.1 501.3 401.2 474.5 368.3 474.5Z" fill="#261134"/>
<path d="M357.9 563.5L327.9 534.4C325.8 532.4 325.7 529 327.8 526.9C329.8 524.8 333.2 524.7 335.3 526.8L357.9 548.7L401.2 507C403.3 505 406.7 505 408.7 507.1C410.7 509.2 410.7 512.6 408.6 514.6L357.9 563.5Z" fill="#1BA096"/>
<path d="M357.9 564.2L327.6 534.8C326.5 533.7 325.9 532.3 325.8 530.7C325.7 529.1 326.4 527.7 327.4 526.6C329.6 524.3 333.3 524.2 335.6 526.5L357.9 548.1L400.8 506.7C403.1 504.5 406.8 504.5 409 506.9C411.2 509.2 411.2 512.9 408.8 515.1L357.9 564.2ZM331.6 525.8C330.3 525.8 329.1 526.3 328.1 527.3C327.2 528.2 326.7 529.4 326.7 530.7C326.7 532 327.2 533.2 328.2 534.1L357.8 562.8L408.2 514.3C410.1 512.5 410.2 509.4 408.3 507.5C406.4 505.6 403.4 505.5 401.5 507.4L357.9 549.4L334.9 527.2C334 526.2 332.8 525.8 331.6 525.8Z" fill="#261134"/>
<path d="M1041.2 398.5C1069.26 398.5 1092 375.756 1092 347.7C1092 319.644 1069.26 296.9 1041.2 296.9C1013.14 296.9 990.4 319.644 990.4 347.7C990.4 375.756 1013.14 398.5 1041.2 398.5Z" fill="#261134"/>
<path d="M1033.8 398.3C1061.86 398.3 1084.6 375.556 1084.6 347.5C1084.6 319.444 1061.86 296.7 1033.8 296.7C1005.74 296.7 983 319.444 983 347.5C983 375.556 1005.74 398.3 1033.8 398.3Z" fill="#FAD338"/>
<path d="M1033.8 398.9C1005.5 398.9 982.5 375.9 982.5 347.6C982.5 319.3 1005.5 296.3 1033.8 296.3C1062.1 296.3 1085.1 319.3 1085.1 347.6C1085.1 375.9 1062.1 398.9 1033.8 398.9ZM1033.8 297.2C1006.1 297.2 983.5 319.8 983.5 347.5C983.5 375.2 1006.1 397.8 1033.8 397.8C1061.5 397.8 1084.1 375.2 1084.1 347.5C1084.1 319.8 1061.6 297.2 1033.8 297.2Z" fill="#261134"/>
<path d="M1046.2 365.1C1043.8 367.4 1040.3 368.7 1035.8 369.2V376H1030.9V369.3C1027.9 369.1 1025.1 368.6 1022.5 367.7C1019.8 366.8 1017.7 365.7 1016.2 364.3L1018.9 358.2C1020.4 359.4 1022.2 360.4 1024.3 361.2C1026.4 362 1028.6 362.5 1030.9 362.7V350.6C1028 349.9 1025.7 349.2 1023.8 348.3C1021.9 347.5 1020.3 346.3 1019 344.7C1017.7 343.1 1017.1 341 1017.1 338.4C1017.1 335.1 1018.3 332.4 1020.7 330.1C1023.1 327.8 1026.5 326.4 1031 326V319.2H1035.9V325.9C1038.2 326 1040.4 326.4 1042.5 327C1044.7 327.6 1046.5 328.5 1048.1 329.5L1045.6 335.6C1042.5 333.8 1039.3 332.7 1035.8 332.3V344.5C1038.7 345.2 1041.1 345.9 1043 346.7C1044.9 347.5 1046.5 348.7 1047.8 350.3C1049.1 351.9 1049.8 354 1049.8 356.6C1049.7 360.1 1048.6 362.8 1046.2 365.1ZM1026.3 341.4C1027.3 342.2 1028.9 342.9 1030.8 343.5V332.8C1028.7 333.1 1027.2 333.8 1026.2 334.7C1025.2 335.7 1024.7 336.9 1024.7 338.3C1024.7 339.5 1025.2 340.6 1026.3 341.4ZM1040.5 360.8C1041.5 359.9 1042 358.7 1042 357.4C1042 356 1041.5 354.9 1040.4 354.1C1039.3 353.3 1037.8 352.6 1035.8 352V362.7C1037.9 362.3 1039.5 361.7 1040.5 360.8Z" fill="#261134"/>
<path d="M1161.1 515.4L1161.5 507.5C1161.5 507.5 1160.9 507.5 1159.9 507.5H1159.8C1153.5 507.2 1132.2 503.3 1142.5 465.5C1142.5 465.5 1146.5 441.5 1170.5 445.5C1177.7 446.4 1184.1 449.8 1188.7 454.8C1193.3 459.8 1196.2 466.4 1196.5 473.7L1199.5 547.5L1159.5 549.5L1161.1 515.4Z" fill="#FAD338"/>
<path d="M1159 550L1161 508C1160.7 508 1160.4 508 1160 508H1159.9H1159.8C1156.6 507.8 1148.7 506.7 1143.7 499.7C1138.4 492.3 1137.8 480.8 1142 465.4C1142 465.2 1146.4 441 1170.6 445C1177.7 445.8 1184.2 449.2 1189.1 454.4C1193.9 459.6 1196.8 466.5 1197.1 473.6L1200.1 547.9L1159 550ZM1161.6 515.4L1160 549L1199 547.1L1196 473.8C1195.7 466.9 1193 460.3 1188.3 455.2C1183.6 450.1 1177.3 446.9 1170.4 446.1C1160.6 444.5 1153.1 447.3 1147.9 454.4C1144 459.7 1143 465.6 1143 465.7C1138.9 480.9 1139.4 492.1 1144.5 499.2C1149.2 505.8 1156.8 506.9 1159.8 507.1H1159.9C1160.8 507.2 1161.4 507.1 1161.4 507.1H1162L1161.6 515.4Z" fill="#261134"/>
<path d="M1187.5 1065.5H1120.5C1132.5 1051.5 1154.5 1042.5 1154.5 1042.5L1148.5 1015.5H1181.5L1184 1036.3L1187.5 1065.5Z" fill="#F27B79"/>
<path d="M1188.1 1066H1119.4L1120.1 1065.2C1131.2 1052.3 1150.9 1043.5 1153.9 1042.2L1147.9 1015H1182L1188.1 1066ZM1121.6 1065H1186.9L1181 1016H1149.1L1155.1 1042.8L1154.7 1043C1154.5 1043.1 1133.5 1051.7 1121.6 1065Z" fill="#261134"/>
<path d="M1301.5 1052.5L1279.6 1065.5H1233.5C1245.5 1051.5 1267.5 1042.5 1267.5 1042.5L1264.9 1036.9L1255.5 1016.5L1286.5 1005.5L1292.6 1024.7L1301.5 1052.5Z" fill="#F27B79"/>
<path d="M1279.7 1066H1232.4L1233.1 1065.2C1244.1 1052.4 1263.5 1043.7 1266.8 1042.3L1254.8 1016.3L1286.8 1004.9L1302.1 1052.8L1279.7 1066ZM1234.6 1065H1279.4L1300.9 1052.3L1286.2 1006.2L1256.2 1016.8L1268.2 1042.8L1267.7 1043C1267.5 1043.1 1246.5 1051.7 1234.6 1065Z" fill="#261134"/>
<path d="M1184 1036.3L1154 1040.3L1148.5 1015.5H1181.5L1184 1036.3Z" fill="#261134"/>
<path d="M1292.6 1024.7L1264.9 1036.9L1255.5 1016.5L1286.5 1005.5L1292.6 1024.7Z" fill="#261134"/>
<path d="M1180.2 871.3L1179.1 880.6L1190.5 1033.3H1134.3L1121.5 852.5L1121.4 837.9L1120.5 692.5L1200.5 686.5L1196.6 722.4L1184.6 831L1180.2 871.3Z" fill="#CDCBCC"/>
<path d="M1191 1033.8H1133.8L1121 852.5L1120 692L1201.1 685.9L1179.7 880.6L1191 1033.8ZM1134.7 1032.8H1189.9L1178.6 880.7L1199.9 687.1L1121 693L1122 852.5L1134.7 1032.8Z" fill="#261134"/>
<path d="M1298.9 1016.1L1249.6 1031.6L1180.2 871.3L1169.5 847.5L1167.7 832.8L1154.5 722.5L1196.6 722.4L1231.6 722.3L1234.1 825.6L1234.5 842.5L1298.9 1016.1Z" fill="#CDCBCC"/>
<path d="M1249.4 1032.2L1179.7 871.5L1169 847.6L1153.9 722L1232 721.8V722.3L1234.9 842.4L1299.4 1016.4L1249.4 1032.2ZM1170 847.4L1180.6 871.1L1249.9 1031L1298.2 1015.8L1234 842.6L1233.6 825.6L1231.1 722.8L1155.1 723L1170 847.4Z" fill="#261134"/>
<path d="M1234.1 825.6L1184.6 831L1167.7 832.8L1121.4 837.9L1120.5 692.5L1200.5 686.5L1196.6 722.4L1231.6 722.3L1234.1 825.6Z" fill="#261134"/>
<path d="M1296 578.5V803.5C1296 812.6 1288.6 820 1279.5 820H940.5C931.4 820 924 812.6 924 803.5V578.5C924 569.4 931.4 562 940.5 562H1279.5C1288.6 562 1296 569.4 1296 578.5Z" fill="#31B8ED"/>
<path d="M1279.5 820.5H940.5C931.1 820.5 923.5 812.9 923.5 803.5V578.5C923.5 569.1 931.1 561.5 940.5 561.5H1279.5C1288.9 561.5 1296.5 569.1 1296.5 578.5V803.5C1296.5 812.9 1288.9 820.5 1279.5 820.5ZM940.5 562.5C931.7 562.5 924.5 569.7 924.5 578.5V803.5C924.5 812.3 931.7 819.5 940.5 819.5H1279.5C1288.3 819.5 1295.5 812.3 1295.5 803.5V578.5C1295.5 569.7 1288.3 562.5 1279.5 562.5H940.5Z" fill="#261134"/>
<path d="M1296 606.5H924V650H1296V606.5Z" fill="#CDCBCC"/>
<path d="M1296.5 650.5H923.5V606H1296.5V650.5ZM924.5 649.5H1295.5V607H924.5V649.5Z" fill="#261134"/>
<path d="M1296 641.5H924V691.5H1296V641.5Z" fill="#261134"/>
<path d="M944.5 666C944.5 670.1 947.9 673.5 952 673.5H1027C1031.1 673.5 1034.5 670.1 1034.5 666C1034.5 661.9 1031.1 658.5 1027 658.5H952C947.9 658.5 944.5 661.9 944.5 666Z" fill="#FEFEFE"/>
<path d="M1027 674H952C947.6 674 944 670.4 944 666C944 661.6 947.6 658 952 658H1027C1031.4 658 1035 661.6 1035 666C1035 670.4 1031.4 674 1027 674ZM952 659C948.1 659 945 662.1 945 666C945 669.9 948.1 673 952 673H1027C1030.9 673 1034 669.9 1034 666C1034 662.1 1030.9 659 1027 659H952Z" fill="#261134"/>
<path d="M1065.5 666C1065.5 670.1 1068.9 673.5 1073 673.5H1148C1152.1 673.5 1155.5 670.1 1155.5 666C1155.5 661.9 1152.1 658.5 1148 658.5H1073C1068.9 658.5 1065.5 661.9 1065.5 666Z" fill="#FEFEFE"/>
<path d="M1148 674H1073C1068.6 674 1065 670.4 1065 666C1065 661.6 1068.6 658 1073 658H1148C1152.4 658 1156 661.6 1156 666C1156 670.4 1152.4 674 1148 674ZM1073 659C1069.1 659 1066 662.1 1066 666C1066 669.9 1069.1 673 1073 673H1148C1151.9 673 1155 669.9 1155 666C1155 662.1 1151.9 659 1148 659H1073Z" fill="#261134"/>
<path d="M1194 676.5C1198.14 676.5 1201.5 673.142 1201.5 669C1201.5 664.858 1198.14 661.5 1194 661.5C1189.86 661.5 1186.5 664.858 1186.5 669C1186.5 673.142 1189.86 676.5 1194 676.5Z" fill="#FEFEFE"/>
<path d="M1194 677C1189.6 677 1186 673.4 1186 669C1186 664.6 1189.6 661 1194 661C1198.4 661 1202 664.6 1202 669C1202 673.4 1198.4 677 1194 677ZM1194 662C1190.1 662 1187 665.1 1187 669C1187 672.9 1190.1 676 1194 676C1197.9 676 1201 672.9 1201 669C1201 665.1 1197.9 662 1194 662Z" fill="black"/>
<path d="M1218 676.5C1222.14 676.5 1225.5 673.142 1225.5 669C1225.5 664.858 1222.14 661.5 1218 661.5C1213.86 661.5 1210.5 664.858 1210.5 669C1210.5 673.142 1213.86 676.5 1218 676.5Z" fill="#FEFEFE"/>
<path d="M1218 677C1213.6 677 1210 673.4 1210 669C1210 664.6 1213.6 661 1218 661C1222.4 661 1226 664.6 1226 669C1226 673.4 1222.4 677 1218 677ZM1218 662C1214.1 662 1211 665.1 1211 669C1211 672.9 1214.1 676 1218 676C1221.9 676 1225 672.9 1225 669C1225 665.1 1221.9 662 1218 662Z" fill="#261134"/>
<path d="M1242 676.5C1246.14 676.5 1249.5 673.142 1249.5 669C1249.5 664.858 1246.14 661.5 1242 661.5C1237.86 661.5 1234.5 664.858 1234.5 669C1234.5 673.142 1237.86 676.5 1242 676.5Z" fill="#FEFEFE"/>
<path d="M1242 677C1237.6 677 1234 673.4 1234 669C1234 664.6 1237.6 661 1242 661C1246.4 661 1250 664.6 1250 669C1250 673.4 1246.4 677 1242 677ZM1242 662C1238.1 662 1235 665.1 1235 669C1235 672.9 1238.1 676 1242 676C1245.9 676 1249 672.9 1249 669C1249 665.1 1245.9 662 1242 662Z" fill="#261134"/>
<path d="M1266 676.5C1270.14 676.5 1273.5 673.142 1273.5 669C1273.5 664.858 1270.14 661.5 1266 661.5C1261.86 661.5 1258.5 664.858 1258.5 669C1258.5 673.142 1261.86 676.5 1266 676.5Z" fill="#FEFEFE"/>
<path d="M1266 677C1261.6 677 1258 673.4 1258 669C1258 664.6 1261.6 661 1266 661C1270.4 661 1274 664.6 1274 669C1274 673.4 1270.4 677 1266 677ZM1266 662C1262.1 662 1259 665.1 1259 669C1259 672.9 1262.1 676 1266 676C1269.9 676 1273 672.9 1273 669C1273 665.1 1269.9 662 1266 662Z" fill="#261134"/>
<path d="M1185 782.5C1202.4 782.5 1216.5 768.397 1216.5 751C1216.5 733.603 1202.4 719.5 1185 719.5C1167.6 719.5 1153.5 733.603 1153.5 751C1153.5 768.397 1167.6 782.5 1185 782.5Z" fill="#FEFEFE"/>
<path d="M1185 783C1167.4 783 1153 768.6 1153 751C1153 733.4 1167.4 719 1185 719C1202.6 719 1217 733.4 1217 751C1217 768.6 1202.6 783 1185 783ZM1185 720C1167.9 720 1154 733.9 1154 751C1154 768.1 1167.9 782 1185 782C1202.1 782 1216 768.1 1216 751C1216 733.9 1202.1 720 1185 720Z" fill="#261134"/>
<path d="M1221 782.5C1238.4 782.5 1252.5 768.397 1252.5 751C1252.5 733.603 1238.4 719.5 1221 719.5C1203.6 719.5 1189.5 733.603 1189.5 751C1189.5 768.397 1203.6 782.5 1221 782.5Z" fill="#CDCBCC"/>
<path d="M1221 783C1203.4 783 1189 768.6 1189 751C1189 733.4 1203.4 719 1221 719C1238.6 719 1253 733.4 1253 751C1253 768.6 1238.6 783 1221 783ZM1221 720C1203.9 720 1190 733.9 1190 751C1190 768.1 1203.9 782 1221 782C1238.1 782 1252 768.1 1252 751C1252 733.9 1238.1 720 1221 720Z" fill="#261134"/>
<path d="M978.5 727C978.5 731.1 981.9 734.5 986 734.5H1106C1110.1 734.5 1113.5 731.1 1113.5 727C1113.5 722.9 1110.1 719.5 1106 719.5H986C981.9 719.5 978.5 722.9 978.5 727Z" fill="#FEFEFE"/>
<path d="M1106 735H986C981.6 735 978 731.4 978 727C978 722.6 981.6 719 986 719H1106C1110.4 719 1114 722.6 1114 727C1114 731.4 1110.4 735 1106 735ZM986 720C982.1 720 979 723.1 979 727C979 730.9 982.1 734 986 734H1106C1109.9 734 1113 730.9 1113 727C1113 723.1 1109.9 720 1106 720H986Z" fill="#261134"/>
<path d="M978.5 751C978.5 755.1 981.9 758.5 986 758.5H1106C1110.1 758.5 1113.5 755.1 1113.5 751C1113.5 746.9 1110.1 743.5 1106 743.5H986C981.9 743.5 978.5 746.9 978.5 751Z" fill="#FEFEFE"/>
<path d="M1106 759H986C981.6 759 978 755.4 978 751C978 746.6 981.6 743 986 743H1106C1110.4 743 1114 746.6 1114 751C1114 755.4 1110.4 759 1106 759ZM986 744C982.1 744 979 747.1 979 751C979 754.9 982.1 758 986 758H1106C1109.9 758 1113 754.9 1113 751C1113 747.1 1109.9 744 1106 744H986Z" fill="#261134"/>
<path d="M978.5 775C978.5 779.1 981.9 782.5 986 782.5H1106C1110.1 782.5 1113.5 779.1 1113.5 775C1113.5 770.9 1110.1 767.5 1106 767.5H986C981.9 767.5 978.5 770.9 978.5 775Z" fill="#FEFEFE"/>
<path d="M1106 783H986C981.6 783 978 779.4 978 775C978 770.6 981.6 767 986 767H1106C1110.4 767 1114 770.6 1114 775C1114 779.4 1110.4 783 1106 783ZM986 768C982.1 768 979 771.1 979 775C979 778.9 982.1 782 986 782H1106C1109.9 782 1113 778.9 1113 775C1113 771.1 1109.9 768 1106 768H986Z" fill="#261134"/>
<path d="M1123 597L1120 619.2L1104 611.2L1093.6 606L1086.4 605.1C1084.8 604.9 1083.2 604.4 1081.8 603.6L1073.1 598.8L1058.6 591.1C1056.6 590 1055.8 587.6 1056.8 585.6L1057.4 584.4L1056.1 583.5C1054.8 582.6 1054.4 581 1055 579.6L1056.2 577.2L1055.7 576.9C1054.5 576.1 1053.8 574.7 1053.8 573.3C1053.8 572.6 1053.9 572 1054.2 571.4C1055.3 569.3 1057.8 568.4 1059.9 569.5L1060.9 570L1061.9 567.5C1062.7 565.6 1064.9 564.8 1066.7 565.7L1092.1 578.4L1088 574.3C1086.2 572.5 1085.5 569.9 1086.3 567.5C1086.9 565.7 1088 564.6 1088 564.6L1104.8 575.4L1110.8 586.2L1113.4 588.6L1123 597Z" fill="#FAD338"/>
<path d="M1120.4 620L1093.4 606.5L1086.3 605.6C1084.6 605.4 1083 604.9 1081.5 604.1L1072.8 599.3L1058.3 591.6C1056.1 590.4 1055.2 587.7 1056.3 585.5L1056.7 584.7L1055.7 584C1054.2 583 1053.7 581 1054.5 579.4L1055.5 577.4L1055.4 577.3C1054.1 576.4 1053.3 574.9 1053.3 573.3C1053.3 572.6 1053.5 571.8 1053.8 571.2C1054.4 570.1 1055.4 569.2 1056.6 568.8C1057.8 568.4 1059.1 568.5 1060.2 569.1L1060.7 569.3L1061.5 567.3C1061.9 566.3 1062.7 565.5 1063.8 565.1C1064.8 564.7 1066 564.8 1067 565.3L1089.7 576.6L1087.7 574.6C1085.7 572.6 1085 569.9 1085.8 567.3C1086.4 565.4 1087.6 564.2 1087.6 564.2L1087.9 563.9L1105.2 575L1111.2 585.8L1123.3 596.7L1120.4 620ZM1058.3 569.6C1057.9 569.6 1057.5 569.7 1057.1 569.8C1056.1 570.1 1055.4 570.8 1054.9 571.7C1054.6 572.2 1054.5 572.8 1054.5 573.4C1054.5 574.7 1055.1 575.8 1056.2 576.5L1057 577.1L1055.6 579.9C1055 581.1 1055.4 582.5 1056.5 583.2L1058.2 584.3L1057.4 585.9C1056.5 587.7 1057.2 589.8 1058.9 590.7L1073.4 598.4L1082.1 603.2C1083.5 604 1084.9 604.4 1086.5 604.6L1093.8 605.5L1119.6 618.4L1122.5 597.1L1110.6 586.3L1104.7 575.6L1088.4 565.1C1088.1 565.5 1087.5 566.4 1087.1 567.5C1086.4 569.7 1087 572.1 1088.7 573.7L1095 580L1066.8 565.9C1066 565.5 1065.2 565.5 1064.4 565.8C1063.6 566.1 1063 566.7 1062.7 567.5L1061.5 570.5L1060 569.8C1059.4 569.7 1058.9 569.6 1058.3 569.6Z" fill="#261134"/>
<path d="M1123 597L1120 619.3L1104 611.3L1113.6 588.6L1123 597Z" fill="#261134"/>
<path d="M1061.32 569.513L1060.83 570.384L1080.01 581.169L1080.5 580.297L1061.32 569.513Z" fill="#261134"/>
<path d="M1056.52 576.807L1056.07 577.701L1072.88 586.108L1073.33 585.214L1056.52 576.807Z" fill="#261134"/>
<path d="M1057.69 583.987L1057.25 584.881L1069.23 590.874L1069.68 589.979L1057.69 583.987Z" fill="#261134"/>
<path d="M1212.5 562.5L1189 635L1117 590L1109 628L1188.4 686.5C1197 692.8 1209.2 690.5 1214.8 681.4C1232.3 653.2 1263.7 595.4 1253.5 559.5C1253.5 559.5 1245.5 536.5 1199.5 529.5C1199.5 529.5 1179.5 548.5 1159.5 529.5C1159.5 529.5 1125.5 533.5 1108.5 562.5H1212.5Z" fill="#1BA096"/>
<path d="M1199.3 690.6C1195.3 690.6 1191.4 689.3 1188.1 686.9L1108.4 628.2L1116.6 589.2L1188.7 634.2L1211.8 563H1107.6L1108 562.2C1124.9 533.3 1159 529 1159.4 529H1159.6L1159.8 529.2C1179.2 547.6 1198.3 530 1199.1 529.2L1199.3 529H1199.5C1245.3 536 1253.8 559.1 1253.9 559.3C1264.1 595 1234 651.3 1215.2 681.6C1212.4 686.1 1207.9 689.2 1202.8 690.2C1201.7 690.5 1200.5 690.6 1199.3 690.6ZM1109.6 627.8L1188.8 686.1C1192.8 689.1 1197.8 690.2 1202.7 689.2C1207.6 688.3 1211.9 685.3 1214.5 681.1C1233.2 650.9 1263.2 594.8 1253.1 559.6C1253 559.4 1244.7 536.9 1199.7 530C1198.3 531.2 1189.8 538.4 1178.7 538.4C1172.7 538.4 1166 536.3 1159.3 530C1156.3 530.4 1125.4 535.4 1109.3 562H1213.1L1189.2 635.8L1117.3 590.8L1109.6 627.8Z" fill="#261134"/>
<path d="M1222 422C1214 422 1203 428 1198.8 442.2C1198.8 442.2 1198.7 443.6 1198.6 445.8C1196 443 1192.9 441.1 1190 440C1155 427 1143.5 456.5 1143.5 456.5C1143.5 456.5 1147.3 460.4 1154.5 464.1C1162 468 1177 469 1177 469C1181 464 1186.9 465.9 1188 468C1192 476 1184.5 482.5 1184.5 482.5C1184.5 482.5 1185.1 485.9 1188.3 490C1192 495 1197.6 497 1197.6 497C1205.6 488.5 1206.1 470 1206.1 470C1206.3 466.3 1206.1 462.9 1205.5 460C1211.1 464.1 1222.9 470.5 1235.1 464C1239 462 1243.1 456 1244.1 449C1245.5 438.7 1241 422 1222 422Z" fill="#261134"/>
<path d="M1453 1065H169V1067H1453V1065Z" fill="#261134"/>
</svg>
