<svg width="1600" height="1200" viewBox="0 0 1600 1200" fill="none" xmlns="http://www.w3.org/2000/svg">
<path d="M946.7 825.5C991.214 825.5 1027.3 789.414 1027.3 744.9C1027.3 700.386 991.214 664.3 946.7 664.3C902.186 664.3 866.1 700.386 866.1 744.9C866.1 789.414 902.186 825.5 946.7 825.5Z" fill="#261134"/>
<path d="M935 825.2C979.514 825.2 1015.6 789.114 1015.6 744.6C1015.6 700.086 979.514 664 935 664C890.486 664 854.4 700.086 854.4 744.6C854.4 789.114 890.486 825.2 935 825.2Z" fill="#FAD338"/>
<path d="M935 825.8C890.3 825.8 853.9 789.4 853.9 744.7C853.9 700 890.3 663.6 935 663.6C979.7 663.6 1016.1 700 1016.1 744.7C1016.1 789.4 979.7 825.8 935 825.8ZM935 664.5C890.8 664.5 854.9 700.5 854.9 744.6C854.9 788.7 890.9 824.7 935 824.7C979.1 824.7 1015.1 788.7 1015.1 744.6C1015.1 700.5 979.2 664.5 935 664.5Z" fill="#261134"/>
<path d="M898.9 742C895.7 738.4 894.2 733.6 894.2 727.7C894.2 721.8 895.8 717 898.9 713.4C902.1 709.8 906.2 708 911.3 708C916.4 708 920.6 709.8 923.8 713.4C927 717 928.6 721.8 928.6 727.7C928.6 733.7 927 738.4 923.8 742C920.6 745.6 916.4 747.4 911.3 747.4C906.2 747.4 902.1 745.6 898.9 742ZM917.9 736.9C919.4 734.7 920.2 731.6 920.2 727.6C920.2 723.6 919.4 720.5 917.9 718.3C916.4 716.1 914.2 715 911.4 715C908.7 715 906.6 716.1 905 718.3C903.4 720.5 902.6 723.6 902.6 727.5C902.6 731.4 903.4 734.5 905 736.7C906.6 738.9 908.8 740 911.4 740C914.1 740.2 916.3 739.1 917.9 736.9ZM954.5 708.7H964.6L915.5 780.7H905.4L954.5 708.7ZM946.1 775.9C942.9 772.3 941.4 767.5 941.4 761.6C941.4 755.7 943 750.9 946.1 747.3C949.3 743.7 953.4 741.9 958.5 741.9C963.6 741.9 967.8 743.7 971 747.3C974.2 750.9 975.8 755.7 975.8 761.6C975.8 767.5 974.2 772.3 971 775.9C967.8 779.5 963.6 781.3 958.5 781.3C953.4 781.3 949.2 779.5 946.1 775.9ZM965 770.8C966.6 768.6 967.4 765.5 967.4 761.6C967.4 757.7 966.6 754.6 965 752.4C963.4 750.2 961.3 749.1 958.5 749.1C955.8 749.1 953.6 750.2 952 752.4C950.4 754.6 949.6 757.7 949.6 761.7C949.6 765.7 950.4 768.8 952 771C953.6 773.2 955.7 774.3 958.5 774.3C961.3 774.1 963.4 773 965 770.8Z" fill="#261134"/>
<path d="M871.4 961.5C938.005 961.5 992 907.506 992 840.9C992 774.294 938.005 720.3 871.4 720.3C804.794 720.3 750.8 774.294 750.8 840.9C750.8 907.506 804.794 961.5 871.4 961.5Z" fill="#261134"/>
<path d="M853.9 961.2C920.505 961.2 974.5 907.206 974.5 840.6C974.5 773.994 920.505 720 853.9 720C787.294 720 733.3 773.994 733.3 840.6C733.3 907.206 787.294 961.2 853.9 961.2Z" fill="#FAD338"/>
<path d="M853.9 961.7C787.1 961.7 732.8 907.4 732.8 840.6C732.8 773.8 787.1 719.5 853.9 719.5C920.7 719.5 975 773.8 975 840.6C975 907.4 920.7 961.7 853.9 961.7ZM853.9 720.5C787.7 720.5 733.8 774.4 733.8 840.6C733.8 906.8 787.7 960.7 853.9 960.7C920.1 960.7 974 906.8 974 840.6C974 774.4 920.1 720.5 853.9 720.5Z" fill="#261134"/>
<path d="M800 836.6C795.3 831.2 792.9 824 792.9 815.2C792.9 806.4 795.3 799.3 800 793.8C804.7 788.4 810.9 785.7 818.6 785.7C826.3 785.7 832.5 788.4 837.3 793.8C842.1 799.2 844.4 806.3 844.4 815.2C844.4 824.1 842 831.3 837.3 836.6C832.5 842 826.3 844.7 818.6 844.7C810.9 844.7 804.7 842 800 836.6ZM828.3 829.1C830.6 825.8 831.8 821.2 831.8 815.3C831.8 809.4 830.6 804.7 828.3 801.5C826 798.2 822.7 796.6 818.5 796.6C814.5 796.6 811.3 798.3 808.9 801.6C806.5 804.9 805.3 809.5 805.3 815.4C805.3 821.3 806.5 825.8 808.9 829.2C811.3 832.5 814.5 834.2 818.5 834.2C822.8 834 826 832.3 828.3 829.1ZM883.1 786.8H898.2L824.7 894.4H809.6L883.1 786.8ZM870.5 887.3C865.8 881.9 863.4 874.7 863.4 865.9C863.4 857.1 865.8 850 870.5 844.5C875.2 839.1 881.4 836.4 889.1 836.4C896.8 836.4 903 839.1 907.8 844.5C912.6 849.9 914.9 857.1 914.9 865.9C914.9 874.7 912.5 881.8 907.8 887.3C903 892.7 896.8 895.4 889.1 895.4C881.4 895.5 875.2 892.8 870.5 887.3ZM898.8 879.7C901.2 876.4 902.3 871.8 902.3 865.9C902.3 860 901.1 855.5 898.8 852.1C896.4 848.8 893.2 847.1 889.1 847.1C885 847.1 881.8 848.7 879.4 852C877 855.3 875.9 859.9 875.9 865.8C875.9 871.7 877.1 876.4 879.4 879.6C881.8 882.9 885 884.5 889.1 884.5C893.2 884.7 896.5 883 898.8 879.7Z" fill="#261134"/>
<path d="M758.4 817.5C787.063 817.5 810.3 794.264 810.3 765.6C810.3 736.936 787.063 713.7 758.4 713.7C729.736 713.7 706.5 736.936 706.5 765.6C706.5 794.264 729.736 817.5 758.4 817.5Z" fill="#261134"/>
<path d="M750.9 817.4C779.563 817.4 802.8 794.164 802.8 765.5C802.8 736.836 779.563 713.6 750.9 713.6C722.236 713.6 699 736.836 699 765.5C699 794.164 722.236 817.4 750.9 817.4Z" fill="#FAD338"/>
<path d="M750.9 817.9C722 817.9 698.5 794.4 698.5 765.5C698.5 736.6 722 713.1 750.9 713.1C779.8 713.1 803.3 736.6 803.3 765.5C803.3 794.4 779.8 817.9 750.9 817.9ZM750.9 714.1C722.6 714.1 699.5 737.2 699.5 765.5C699.5 793.8 722.6 816.9 750.9 816.9C779.2 816.9 802.3 793.8 802.3 765.5C802.3 737.1 779.2 714.1 750.9 714.1Z" fill="#261134"/>
<path d="M727.7 763.7C725.7 761.4 724.7 758.3 724.7 754.5C724.7 750.7 725.7 747.6 727.7 745.3C729.7 743 732.4 741.8 735.7 741.8C739 741.8 741.7 743 743.7 745.3C745.8 747.6 746.8 750.7 746.8 754.5C746.8 758.3 745.8 761.4 743.7 763.7C741.6 766 739 767.2 735.7 767.2C732.4 767.2 729.7 766.1 727.7 763.7ZM739.9 760.5C740.9 759.1 741.4 757.1 741.4 754.5C741.4 751.9 740.9 750 739.9 748.5C738.9 747.1 737.5 746.4 735.7 746.4C734 746.4 732.6 747.1 731.6 748.6C730.6 750 730 752 730 754.5C730 757 730.5 759 731.6 760.4C732.6 761.8 734 762.6 735.7 762.6C737.5 762.6 738.9 761.9 739.9 760.5ZM763.5 742.3H770L738.4 788.6H731.9L763.5 742.3ZM758 785.6C756 783.3 755 780.2 755 776.4C755 772.6 756 769.5 758 767.2C760 764.9 762.7 763.7 766 763.7C769.3 763.7 772 764.9 774 767.2C776.1 769.5 777.1 772.6 777.1 776.4C777.1 780.2 776.1 783.3 774 785.6C771.9 787.9 769.3 789.1 766 789.1C762.7 789.1 760.1 787.9 758 785.6ZM770.2 782.3C771.2 780.9 771.7 778.9 771.7 776.4C771.7 773.9 771.2 771.9 770.2 770.5C769.2 769.1 767.8 768.3 766 768.3C764.2 768.3 762.8 769 761.8 770.4C760.8 771.8 760.3 773.8 760.3 776.4C760.3 779 760.8 780.9 761.8 782.4C762.8 783.8 764.2 784.5 766 784.5C767.8 784.5 769.2 783.7 770.2 782.3Z" fill="#261134"/>
<path d="M879 280H624V381H879V280Z" fill="#FEFEFE"/>
<path d="M879.5 381.5H623.5V279.5H879.5V381.5ZM624.5 380.5H878.5V280.5H624.5V380.5Z" fill="#261134"/>
<path d="M658.5 330.5C668.441 330.5 676.5 322.441 676.5 312.5C676.5 302.559 668.441 294.5 658.5 294.5C648.559 294.5 640.5 302.559 640.5 312.5C640.5 322.441 648.559 330.5 658.5 330.5Z" fill="#FAD338"/>
<path d="M658.5 331C648.3 331 640 322.7 640 312.5C640 302.3 648.3 294 658.5 294C668.7 294 677 302.3 677 312.5C677 322.7 668.7 331 658.5 331ZM658.5 295C648.9 295 641 302.9 641 312.5C641 322.1 648.9 330 658.5 330C668.1 330 676 322.1 676 312.5C676 302.9 668.1 295 658.5 295Z" fill="#261134"/>
<path d="M699.5 302.9L702.6 309.2L709.6 310.2L704.6 315.1L705.7 322.1L699.5 318.8L693.3 322.1L694.4 315.1L689.4 310.2L696.4 309.2L699.5 302.9Z" fill="#FAD338"/>
<path d="M706.4 323L699.5 319.4L692.6 323L693.9 315.3L688.3 309.8L696 308.7L699.5 301.7L703 308.7L710.7 309.8L705.1 315.3L706.4 323ZM699.5 318.3L705.1 321.2L704 315L708.5 310.6L702.3 309.7L699.5 304L696.7 309.7L690.5 310.6L695 315L693.9 321.2L699.5 318.3Z" fill="#261134"/>
<path d="M730.5 302.9L733.6 309.2L740.6 310.2L735.6 315.1L736.7 322.1L730.5 318.8L724.3 322.1L725.4 315.1L720.4 310.2L727.4 309.2L730.5 302.9Z" fill="#FAD338"/>
<path d="M737.4 323L730.5 319.4L723.6 323L724.9 315.3L719.3 309.8L727 308.7L730.5 301.7L734 308.7L741.7 309.8L736.1 315.3L737.4 323ZM730.5 318.3L736.1 321.2L735 315L739.5 310.6L733.3 309.7L730.5 304L727.7 309.7L721.5 310.6L726 315L724.9 321.2L730.5 318.3Z" fill="#261134"/>
<path d="M761.5 302.9L764.6 309.2L771.6 310.2L766.6 315.1L767.7 322.1L761.5 318.8L755.3 322.1L756.4 315.1L751.4 310.2L758.4 309.2L761.5 302.9Z" fill="#FAD338"/>
<path d="M768.4 323L761.5 319.4L754.6 323L755.9 315.3L750.3 309.8L758 308.7L761.5 301.7L765 308.7L772.7 309.8L767.1 315.3L768.4 323ZM761.5 318.3L767.1 321.2L766 315L770.5 310.6L764.3 309.7L761.5 304L758.7 309.7L752.5 310.6L757 315L755.9 321.2L761.5 318.3Z" fill="#261134"/>
<path d="M791.5 302.9L794.6 309.2L801.6 310.2L796.6 315.1L797.7 322.1L791.5 318.8L785.3 322.1L786.4 315.1L781.4 310.2L788.4 309.2L791.5 302.9Z" fill="#FAD338"/>
<path d="M798.4 323L791.5 319.4L784.6 323L785.9 315.3L780.3 309.8L788 308.7L791.5 301.7L795 308.7L802.7 309.8L797.1 315.3L798.4 323ZM791.5 318.3L797.1 321.2L796 315L800.5 310.6L794.3 309.7L791.5 304L788.7 309.7L782.5 310.6L787 315L785.9 321.2L791.5 318.3Z" fill="#261134"/>
<path d="M821.5 302.9L824.6 309.2L831.6 310.2L826.6 315.1L827.7 322.1L821.5 318.8L815.3 322.1L816.4 315.1L811.4 310.2L818.4 309.2L821.5 302.9Z" fill="#FAD338"/>
<path d="M828.4 323L821.5 319.4L814.6 323L815.9 315.3L810.3 309.8L818 308.7L821.5 301.7L825 308.7L832.7 309.8L827.1 315.3L828.4 323ZM821.5 318.3L827.1 321.2L826 315L830.5 310.6L824.3 309.7L821.5 304L818.7 309.7L812.5 310.6L817 315L815.9 321.2L821.5 318.3Z" fill="#261134"/>
<path d="M862 360H640V368H862V360Z" fill="#31B8ED"/>
<path d="M862.5 368.5H639.5V359.5H862.5V368.5ZM640.5 367.5H861.5V360.5H640.5V367.5Z" fill="#261134"/>
<path d="M750.5 341.5H640.5V349.5H750.5V341.5Z" fill="#31B8ED"/>
<path d="M751 350H640V341H751V350ZM641 349H750V342H641V349Z" fill="#261134"/>
<path d="M437.5 310.5L359.5 317.5L362.5 397.5L403.6 392.8L425.5 415.5L422.7 390.6L441.5 388.5L437.5 310.5Z" fill="#FEFEFE"/>
<path d="M426.2 416.9L403.4 393.3L362 398L359 317L438 309.9L442.1 388.9L423.4 391L426.2 416.9ZM403.8 392.3L424.9 414.1L422.2 390.2L441 388.1L437.1 311.1L360.1 318L363.1 397L403.8 392.3Z" fill="#261134"/>
<path d="M408.4 331.2C403.2 331.6 399.2 335.4 398.1 340.2C396.3 335.6 391.7 332.6 386.5 333C380.2 333.5 375.5 339 376 345.4C376.2 347.5 376.9 349.4 378 351C378.5 351.7 379.1 352.4 379.7 352.9L400.6 377L418 350.3C418.7 349.5 419.3 348.6 419.7 347.6C420.5 345.8 420.9 343.9 420.8 341.8C420.2 335.4 414.7 330.7 408.4 331.2Z" fill="#F27B79"/>
<path d="M400.6 377.7L379.3 353.1C378.7 352.5 378.1 351.8 377.6 351.1C376.4 349.4 375.7 347.4 375.5 345.3C375.2 342.1 376.2 339 378.3 336.6C380.4 334.2 383.3 332.7 386.5 332.4C391.3 332 395.8 334.5 398 338.7C399.5 334.2 403.5 331 408.4 330.7C411.6 330.4 414.7 331.4 417.1 333.5C419.5 335.6 421 338.5 421.3 341.7C421.5 343.8 421.1 345.9 420.2 347.8C419.7 348.8 419.1 349.7 418.4 350.6L400.6 377.7ZM387.4 333.4C387.1 333.4 386.8 333.4 386.5 333.4C383.6 333.6 380.9 335 379 337.2C377.1 339.4 376.2 342.3 376.4 345.2C376.6 347.1 377.2 348.9 378.3 350.5C378.8 351.2 379.3 351.8 379.9 352.4L400.4 376L417.5 349.8C418.2 349 418.8 348.1 419.2 347.2C420 345.5 420.4 343.5 420.2 341.6C420 338.7 418.6 336 416.4 334.1C414.2 332.2 411.3 331.3 408.4 331.5C403.5 331.9 399.6 335.3 398.6 340.1L398.2 341.7L397.6 340.2C395.9 336.1 391.9 333.4 387.4 333.4Z" fill="#261134"/>
<path d="M935 409L1156.2 413.9L1160.5 598.3L949.8 634L935 409Z" fill="#31B8ED"/>
<path d="M949.4 634.6V634L934.5 408.5L1156.7 413.5V414L1161.1 598.8L949.4 634.6ZM935.5 409.5L950.2 633.4L1160 597.9L1155.6 414.4L935.5 409.5Z" fill="#261134"/>
<path d="M983.1 444.2C987.1 443.4 994.1 442.7 1001 442.7C1009.5 442.7 1015.6 443.8 1020.5 447.2C1024.7 450 1027.4 454.7 1027.4 460.5C1027.4 466.9 1023.6 472.9 1016.1 475.7V476.1C1024 478.1 1029.9 484.4 1029.9 493.4C1029.9 498.9 1027.6 504.2 1023.5 507.9C1018.7 512.2 1010.8 514.5 998.3 514.5C991.6 514.5 986.5 514 983.2 513.6V444.2H983.1ZM996.6 472H1001.6C1009.3 472 1013.9 467.9 1013.9 462.1C1013.9 455.1 1008.7 452.8 1002.6 452.8C999.7 452.8 997.8 453 996.6 453.3V472ZM996.6 481.9V503.9C998 504.2 999.6 504.3 1002 504.3C1009.3 504.3 1015.6 501 1015.6 493C1015.6 484.8 1008.6 481.9 1001.6 481.9H996.6Z" fill="white"/>
<path d="M1040.4 513.8V443.2H1054V513.8H1040.4Z" fill="white"/>
<path d="M1118.8 474.5V511.1C1114.7 512.7 1106.7 514.6 1098.7 514.6C1088 514.6 1079.8 511.8 1073.8 506C1067.7 500 1064.3 490.4 1064.3 479.2C1064.3 455.3 1080.2 442.6 1100.5 442.6C1107.7 442.6 1113.6 443.9 1117 445.5L1114.2 456.7C1111 455.2 1106.9 454.1 1100.7 454.1C1088.1 454.1 1078.6 461.8 1078.6 478.9C1078.6 495.2 1087.3 503.5 1099 503.5C1102.3 503.5 1104.8 503 1106 502.5V485.2H1095.8V474.5H1118.8Z" fill="white"/>
<path d="M977.1 569.2C979.9 570.9 984.3 572.2 988.6 572.2C994.3 572.2 997.2 569.5 997.2 565.6C997.2 561.8 994.6 559.5 988.8 557C980.8 553.5 975.8 548.6 975.8 541.6C975.8 532.9 982.6 526.2 994.1 526.2C999.1 526.2 1003 527.4 1005.5 528.6L1003.4 537C1001.5 536 998.3 534.7 993.9 534.7C988.5 534.7 986.1 537.6 986.1 540.6C986.1 544.4 988.7 546.1 995.2 549.1C1003.7 552.9 1007.5 557.8 1007.5 564.8C1007.5 574.1 1000.5 580.8 988.1 580.8C982.8 580.8 977.5 579.3 975 577.8L977.1 569.2Z" fill="white"/>
<path d="M1039.4 526.8L1054.3 580H1043.6L1039.8 566H1025.6L1021.9 580H1011.5L1026.6 526.8H1039.4ZM1027 558.2H1038.3L1035.1 546.1C1034.3 542.8 1033.4 538.5 1032.7 535.2H1032.5C1031.8 538.5 1030.9 542.9 1030.1 546L1027 558.2Z" fill="white"/>
<path d="M1090.5 571.4V580H1061.2V526.8H1071.4V571.3H1090.5V571.4Z" fill="white"/>
<path d="M1127.1 571.5V580.1H1097.4V526.9H1126V535.5H1107.6V548.4H1125V556.8H1107.6V571.6H1127.1V571.5Z" fill="white"/>
<path d="M1159.3 453.6C1181.83 453.6 1200.1 435.333 1200.1 412.8C1200.1 390.267 1181.83 372 1159.3 372C1136.77 372 1118.5 390.267 1118.5 412.8C1118.5 435.333 1136.77 453.6 1159.3 453.6Z" fill="#FAD338"/>
<path d="M1159.3 454C1136.6 454 1118 435.5 1118 412.7C1118 389.9 1136.5 371.4 1159.3 371.4C1182.1 371.4 1200.6 389.9 1200.6 412.7C1200.6 435.5 1182 454 1159.3 454ZM1159.3 372.5C1137.1 372.5 1119 390.6 1119 412.8C1119 435 1137.1 453.1 1159.3 453.1C1181.5 453.1 1199.6 435 1199.6 412.8C1199.6 390.6 1181.4 372.5 1159.3 372.5Z" fill="#261134"/>
<path d="M1126.8 416V413.1H1134.5V416H1126.8Z" fill="#261134"/>
<path d="M1139 401.9H1149.1V405.3H1141.9L1141.3 409.4C1141.7 409.3 1142 409.3 1142.5 409.3C1146.2 409.3 1149.7 411.4 1149.7 415.9C1149.7 420 1146.6 423.3 1141.6 423.3C1139.5 423.3 1137.6 422.8 1136.6 422.2L1137.4 419.1C1138.2 419.5 1139.8 420.1 1141.4 420.1C1143.6 420.1 1145.5 418.7 1145.5 416.3C1145.5 413.8 1143.6 412.3 1140 412.3C1139 412.3 1138.3 412.4 1137.6 412.4L1139 401.9Z" fill="#261134"/>
<path d="M1152.4 412.6C1152.4 406.2 1154.8 401.6 1159.5 401.6C1164.5 401.6 1166.4 406.5 1166.4 412.4C1166.4 419.4 1163.8 423.4 1159.3 423.4C1154.5 423.4 1152.4 418.5 1152.4 412.6ZM1159.5 420.1C1161.4 420.1 1162.4 417.4 1162.4 412.5C1162.4 407.7 1161.5 404.9 1159.6 404.9C1157.8 404.9 1156.7 407.5 1156.7 412.5C1156.5 417.5 1157.6 420.1 1159.5 420.1Z" fill="#261134"/>
<path d="M1178.3 408.2C1178.3 412.5 1175.9 414.7 1173.2 414.7C1170.3 414.7 1168.2 412.2 1168.2 408.4C1168.2 404.7 1170.2 401.9 1173.3 401.9C1176.7 402 1178.3 404.8 1178.3 408.2ZM1171.3 408.5C1171.3 410.8 1172 412.4 1173.3 412.4C1174.7 412.4 1175.3 410.8 1175.3 408.3C1175.3 406 1174.8 404.2 1173.3 404.2C1171.6 404.3 1171.3 406.9 1171.3 408.5ZM1187.1 402L1175.4 423.5H1173.1L1184.8 402H1187.1ZM1191.8 416.8C1191.8 421.2 1189.4 423.4 1186.8 423.4C1183.9 423.4 1181.8 420.9 1181.8 417.1C1181.8 413.4 1183.8 410.7 1186.9 410.7C1190.3 410.6 1191.8 413.4 1191.8 416.8ZM1184.8 417C1184.8 419.4 1185.5 421.1 1186.8 421.1C1188.2 421.1 1188.8 419.4 1188.8 417C1188.8 414.7 1188.3 412.9 1186.8 412.9C1185.3 412.9 1184.8 415 1184.8 417Z" fill="#261134"/>
<path d="M1278.4 767.3L1287.4 898H1197.6V767.3H1278.4Z" fill="#F27B79"/>
<path d="M1287.9 898.5H1197.1V766.8H1278.8V767.3L1287.9 898.5ZM1198.1 897.5H1286.8L1277.9 767.8H1198.1V897.5Z" fill="#261134"/>
<path d="M1201.2 767.2L1207.7 898H1171.9L1179 767.2H1201.2Z" fill="#261134"/>
<path d="M1208.2 898.5H1171.4L1178.5 766.7H1201.6V767.2L1208.2 898.5ZM1172.4 897.5H1207.1L1200.6 767.7H1179.3L1172.4 897.5Z" fill="#261134"/>
<path d="M1251.6 804.4C1251.3 804.4 1251 804.4 1250.7 804.4C1232.8 803.4 1229.8 788.3 1229.3 785.3C1229.1 783.9 1228.9 782.5 1228.7 781.2C1226.8 768 1226.1 763 1221.3 763.5C1217.4 763.9 1216 767.4 1216 767.4L1215.1 767C1215.2 766.8 1216.8 762.9 1221.3 762.5C1227.1 761.9 1227.9 767.5 1229.8 781C1230 782.3 1230.2 783.7 1230.4 785.1C1230.8 788 1233.8 802.4 1250.8 803.3C1252.9 803.4 1256.9 803.2 1259.9 800.4C1262.5 798.1 1263.9 794.5 1264.1 789.6C1264.4 783.4 1262.7 767.6 1257.8 764.9C1256.4 764.1 1255.2 764 1254.2 764.4C1252.5 765.1 1251.9 767.2 1251.9 767.3L1250.9 767C1250.9 766.9 1251.7 764.4 1253.8 763.5C1255.1 763 1256.6 763.1 1258.3 764.1C1263.8 767.1 1265.4 783.9 1265.1 789.8C1264.8 794.9 1263.3 798.8 1260.5 801.3C1257.6 803.9 1254 804.4 1251.6 804.4Z" fill="#261134"/>
<path d="M1296.1 821.4H1228.6L1233.7 898H1315.7L1296.1 821.4Z" fill="#31B8ED"/>
<path d="M1316.3 898.5H1233.2L1228 820.9H1296.5L1296.6 821.3L1316.3 898.5ZM1234.1 897.5H1315L1295.7 821.9H1229.1L1234.1 897.5Z" fill="#261134"/>
<path d="M1221.3 821.2H1230.9L1249.9 898H1223.3L1221.3 821.2Z" fill="#261134"/>
<path d="M1250.5 898.5H1222.8L1220.7 820.7H1231.3L1250.5 898.5ZM1223.8 897.5H1249.3L1230.6 821.7H1221.8L1223.8 897.5Z" fill="#261134"/>
<path d="M1273.6 847.4H1273.5C1267.5 847.4 1263.1 844 1260.1 837.1L1253.6 821.6C1253.6 821.6 1251.6 817.5 1248.4 818.2C1245.5 818.8 1244.9 821.5 1244.9 821.5L1243.9 821.3C1243.9 821.2 1244.7 818 1248.2 817.2C1252.2 816.3 1254.5 821 1254.6 821.2L1261.1 836.7C1264.9 845.4 1270.1 846.4 1273.6 846.4H1273.7C1284.5 846.4 1284.8 838.1 1285 833.2C1285 832.8 1285 832.4 1285 832.1C1285.6 820.9 1282.1 819.2 1281 818.9C1276.8 817.9 1275.5 821.6 1275.5 821.7L1274.6 821.4C1274.6 821.4 1276.2 816.6 1281.3 817.9C1282.9 818.3 1286.7 820.5 1286 832.1C1286 832.4 1286 832.8 1286 833.2C1285.7 838.2 1285.4 847.4 1273.6 847.4Z" fill="#261134"/>
<path d="M1171.9 898.8L1171.1 898.2L1189.3 876.3V767.3H1190.3V876.7L1190.2 876.8L1171.9 898.8Z" fill="white"/>
<path d="M1190.1 876.196L1189.34 876.846L1207.37 897.879L1208.13 897.228L1190.1 876.196Z" fill="white"/>
<path d="M1223.9 897.8L1223.1 897.2L1233 881.4L1226 821.2L1227 821.1L1234 881.6L1223.9 897.8Z" fill="white"/>
<path d="M1233.83 881.181L1233.12 881.888L1249.1 897.869L1249.81 897.162L1233.83 881.181Z" fill="white"/>
<path d="M1319.3 897.6H1103V1066H1319.3V897.6Z" fill="#261134"/>
<path d="M1356.5 897.6H1158.7V1066H1356.5V897.6Z" fill="#FAD338"/>
<path d="M1357 1066.5H1158.2V897.1H1357V1066.5ZM1159.2 1065.5H1356V898.1H1159.2V1065.5Z" fill="#261134"/>
<path d="M1288.8 897.6V939.6L1276.5 932.7L1266.9 939.1L1255.5 932.7L1245 939.6V897.6H1288.8Z" fill="#261134"/>
<path d="M1244.9 980.6H1199.3V982.6H1244.9V980.6Z" fill="#261134"/>
<path d="M1244.9 998.4H1199.3V1000.4H1244.9V998.4Z" fill="#261134"/>
<path d="M1244.9 1016.2H1199.3V1018.2H1244.9V1016.2Z" fill="#261134"/>
<path d="M1332.1 976.5H1258.2V1022.6H1332.1V976.5Z" fill="#FEFEFE"/>
<path d="M1332.6 1023.1H1257.7V976H1332.6V1023.1ZM1258.7 1022.1H1331.6V977H1258.7V1022.1Z" fill="#261134"/>
<path d="M1025.6 744.8L1010.5 794.9L721.1 808.8L751.4 963.3H960.3V976.3H783.5V980H960C989.4 989.5 986 1017.7 984.7 1024.4H756.6V1028.1H987.6L988 1026.7C988.1 1026.3 996.7 990.1 964 977.5V961.8L1028.3 748.6H1088.9V744.9H1025.6V744.8ZM739.7 884.6L772.8 884.3L776.6 917.8H746.2L739.7 884.6ZM898.1 917.8H860.6V883.6L900 883.2L898.1 917.8ZM903.7 883.1L941.3 882.8L937.8 917.8H901.9L903.7 883.1ZM856.9 883.5V917.7H819.5L817.7 883.8L856.9 883.5ZM817.6 880.2L815.6 842L856.9 841.6V879.8L817.6 880.2ZM860.6 879.8V841.6L902.2 841.2L900.2 879.5L860.6 879.8ZM860.6 837.9V805.9L904.2 803.8L902.4 837.6L860.6 837.9ZM856.9 837.9L815.4 838.3L813.8 808.1L856.9 806V837.9ZM811.7 838.3L771.4 838.7L768.2 810.3L810.2 808.3L811.7 838.3ZM811.9 842L813.9 880.2L776.2 880.5L771.9 842.3L811.9 842ZM772.5 880.6L739.1 880.9L731.6 842.7L768.2 842.4L772.5 880.6ZM776.6 884.3L814.1 884L815.8 917.8H780.4L776.6 884.3ZM816 921.5L818 959.6H785.2L780.9 921.5H816ZM819.7 921.5H856.9V959.6H821.6L819.7 921.5ZM860.6 921.5H897.9L895.9 959.6H860.6V921.5ZM901.7 921.5H937.5L933.7 959.6H899.7L901.7 921.5ZM941.2 921.5H972.4L960.9 959.6H937.5L941.2 921.5ZM941.5 917.8L945 882.8L984.1 882.5L973.4 917.9H941.5V917.8ZM985.2 878.7L945.3 879.1L949.1 840.8L996.7 840.4L985.2 878.7ZM941.6 879.1L903.9 879.4L905.9 841.1L945.4 840.7L941.6 879.1ZM906.1 837.5L907.9 803.6L949.3 801.6L945.8 837.1L906.1 837.5ZM764.5 810.4L767.7 838.7L730.8 839L725.6 812.3L764.5 810.4ZM747 921.5H777.1L781.4 959.6H754.4L747 921.5ZM997.9 836.6L949.5 837L953 801.3L1009.3 798.6L997.9 836.6Z" fill="#261134"/>
<path d="M790.9 1028.6C780.4 1028.6 771.9 1037.1 771.9 1047.6C771.9 1058.1 780.4 1066.6 790.9 1066.6C801.4 1066.6 809.9 1058.1 809.9 1047.6C809.9 1037.1 801.4 1028.6 790.9 1028.6ZM790.9 1060.1C784 1060.1 778.4 1054.5 778.4 1047.6C778.4 1040.7 784 1035.1 790.9 1035.1C797.8 1035.1 803.4 1040.7 803.4 1047.6C803.4 1054.5 797.8 1060.1 790.9 1060.1Z" fill="#261134"/>
<path d="M959.9 1029C949.4 1029 940.9 1037.5 940.9 1048C940.9 1058.5 949.4 1067 959.9 1067C970.4 1067 978.9 1058.5 978.9 1048C978.9 1037.5 970.3 1029 959.9 1029ZM959.9 1060.5C953 1060.5 947.4 1054.9 947.4 1048C947.4 1041.1 953 1035.5 959.9 1035.5C966.8 1035.5 972.4 1041.1 972.4 1048C972.4 1054.9 966.7 1060.5 959.9 1060.5Z" fill="#261134"/>
<path d="M1124 740H1071V753H1124V740Z" fill="#261134"/>
<path d="M599 493.9C599 493.9 581.7 465.8 579.5 451.5L584.1 419.3C584.1 419.3 583.1 388.8 543.4 398.6C543.4 398.6 542.8 384.2 533 381.4C533 381.4 538.2 389.2 536.9 397.2C536.9 397.2 528.1 380 514.2 390.2C514.2 390.2 503.3 397.1 507 408.1C507 408.1 507.6 420.9 525.2 420.1C525.2 420.1 525.9 436.1 488.5 460.2C488.5 460.2 457.2 477.6 461.9 511.1C466.6 544.5 497.9 564 497.9 564L608.2 557.5L599 493.9Z" fill="#261134"/>
<path d="M538.5 510.1L539.9 454.3C539.9 454.3 531.3 450 532.8 440.3C532.8 440.3 534.4 432.5 542.3 438L541.7 424.6C541.7 424.6 569 433 583.6 417C583.6 417 602.2 469.1 574.3 470.1L582 514L538.5 510.1Z" fill="#FAD338"/>
<path d="M582.7 514.4L538 510.5L539.4 454.5C537.9 453.6 531 449 532.3 440.1C532.3 439.9 533 436.8 535.6 435.7C537.3 435 539.4 435.4 541.8 436.8L541.2 423.6L541.9 423.8C542.2 423.9 569.1 431.9 583.3 416.3L583.9 415.7L584.2 416.5C584.7 417.9 596 450.1 586.6 464.1C584 467.9 580.2 469.9 575.1 470.3L582.7 514.4ZM539 509.6L581.4 513.3L573.7 469.5H574.3C579.3 469.3 583.1 467.4 585.6 463.7C594 451.3 585.1 422.9 583.4 417.8C569.9 431.7 546.5 426.3 542.2 425.2L542.8 438.9L542 438.3C539.5 436.6 537.5 436.1 536 436.7C533.9 437.5 533.3 440.3 533.3 440.3C531.9 449.5 540 453.7 540.1 453.8L540.4 453.9L539 509.6Z" fill="#261134"/>
<path d="M750.753 499.644L749.829 500.027L770.172 549.075L771.096 548.692L750.753 499.644Z" fill="#261134"/>
<path d="M745.84 494.487L744.84 494.518L746.58 550.79L747.58 550.759L745.84 494.487Z" fill="#261134"/>
<path d="M756.6 496.9L759.6 503.2C759.6 503.2 747.5 505.7 740.5 491.3C740.5 491.3 734.8 497.3 727.8 496.5C727.7 496.5 727.6 496.5 727.5 496.5L717.5 508L705.3 487.3L709.1 482.8L717.8 472.3C720.6 468.9 724.7 467 729 466.9L755 466.4C758.3 466.3 761.1 468.5 761.9 471.7L766.5 490.1L756.6 496.9Z" fill="#FAD338"/>
<path d="M717.5 508.8L704.7 487.2L717.4 471.9C720.3 468.4 724.5 466.4 729 466.3L755 465.8C755.1 465.8 755.1 465.8 755.2 465.8C758.7 465.8 761.6 468.1 762.5 471.5L767.2 490.2L757.3 497.2L760.4 503.7L759.8 503.8C759.7 503.8 747.6 506.2 740.5 492.3C738.9 493.8 733.9 497.8 727.9 497.2C727.9 497.2 727.9 497.2 727.8 497.2L717.5 508.8ZM705.9 487.2L717.6 507L727.3 495.8H727.7C727.8 495.8 727.8 495.8 727.9 495.8C734.6 496.5 740.2 490.8 740.2 490.7L740.7 490.2L741 490.8C746.8 502.8 756.3 502.8 758.9 502.5L756 496.4L766 489.3L761.5 471.3C760.8 468.3 758.1 466.3 755.1 466.4L729.1 466.9C724.9 467 720.9 468.9 718.2 472.2L705.9 487.2Z" fill="#261134"/>
<path d="M757.5 499.8L745.4 477L738 475.2L738.2 474.2L746 476.1L758.3 499.3L757.5 499.8Z" fill="#261134"/>
<path d="M812.6 619.7L792.5 647.2L783.7 640.4L769.1 552.5L782.2 550L812.6 619.7Z" fill="#261134"/>
<path d="M752 489.6L751.6 488.7L756.5 486.3L751.5 476L752.4 475.6L757.9 486.8L752 489.6Z" fill="#261134"/>
<path d="M780.7 530.7L797.6 540.4L788.5 553.7L771.5 553L768.1 536.8L780.7 530.7Z" fill="#261134"/>
<path d="M773.5 536.5L757.4 537.6L743.7 555.3L755.7 561.7L784.6 555.5L773.5 536.5Z" fill="#261134"/>
<path d="M772.8 552.1L744 555.1V652.6L792.8 647.5L772.8 552.1Z" fill="#31B8ED"/>
<path d="M743.5 653.2V652.6L743.4 554.6L773.1 551.5L773.2 551.9L793.3 647.9L743.5 653.2ZM744.5 555.5L744.6 652L792.2 647.1L772.4 552.6L744.5 555.5Z" fill="#261134"/>
<path d="M781.6 534.8L792.5 522.9L814.8 523.2L812.4 536.6L789.5 555.4L781.6 534.8Z" fill="#261134"/>
<path d="M822.4 617.2L856.4 618.6L856.6 607.4L796.8 541.3L786.7 550.1L822.4 617.2Z" fill="#261134"/>
<path d="M794.2 544L814.5 523.3L890.8 584L856.5 619L794.2 544Z" fill="#1BA096"/>
<path d="M856.5 619.7L793.5 543.9L814.4 522.5L891.5 583.8L856.5 619.7ZM794.9 544L856.6 618.2L890.1 584L814.6 523.9L794.9 544Z" fill="#261134"/>
<path d="M797.6 540.4L771.5 553L804.6 644.7L848.8 623.4L797.6 540.4Z" fill="#F27B79"/>
<path d="M804.3 645.4L804.1 644.9L770.8 552.8L797.7 539.8L797.9 540.2L849.4 623.7L804.3 645.4ZM772.1 553.2L804.9 644L848 623.2L797.4 541L772.1 553.2Z" fill="#261134"/>
<path d="M757.391 486.028L756.774 486.814L803.201 523.223L803.818 522.436L757.391 486.028Z" fill="#261134"/>
<path d="M756.837 496.612L756.103 497.291L795.558 539.936L796.292 539.257L756.837 496.612Z" fill="#261134"/>
<path d="M357.995 562.513L356.996 562.57L359.997 615.585L360.996 615.528L357.995 562.513Z" fill="#261134"/>
<path d="M359.942 555.49L359.028 555.897L381.92 607.333L382.833 606.926L359.942 555.49Z" fill="#261134"/>
<path d="M392.5 531.5L390.5 555.5L376.9 549.7L376.5 549.5C370.5 553.5 362.5 550.5 362.5 550.5C362.5 566.5 350.5 569.5 350.5 569.5V562.5L338.5 560.5L334.6 542C333.9 538.8 335.6 535.6 338.5 534.2L362.2 523.4C366.2 521.6 370.7 521.6 374.7 523.4L383.7 527.5L392.5 531.5Z" fill="#FAD338"/>
<path d="M350 570.1V562.9L338.1 560.9L334.2 542C333.5 538.6 335.2 535.1 338.4 533.7L362.1 522.9C366.2 521 370.9 521 375 522.9L393.1 531.2L391 556.2L376.6 550C371.4 553.3 365.1 551.8 363 551.1C362.7 566.7 350.8 569.9 350.6 569.9L350 570.1ZM338.9 560.1L351 562.1V568.8C353.4 567.9 362 564 362 550.5V549.8L362.7 550.1C362.8 550.1 370.5 553 376.2 549.2L376.4 549.1L377.1 549.4L390 554.9L391.9 531.9L374.5 523.9C370.7 522.1 366.3 522.1 362.4 523.9L338.7 534.7C335.9 536 334.4 538.9 335 541.9L338.9 560.1Z" fill="#261134"/>
<path d="M351 565.5H350L351 539.3L357.2 534.1L357.8 534.9L352 539.7L351 565.5Z" fill="#261134"/>
<path d="M566 1066H511L487 1054L496.6 1015.1L501 997L539 1007L532.6 1031.8L531 1038C531 1038 561.5 1051.5 566 1066Z" fill="#F27B79"/>
<path d="M566.7 1066.5H510.9L486.4 1054.3L486.5 1053.9L500.6 996.4L539.6 1006.7L531.6 1037.8C535.3 1039.5 562.2 1052.1 566.5 1065.9L566.7 1066.5ZM511.1 1065.5H565.3C560.2 1051.6 531.1 1038.6 530.8 1038.5L530.4 1038.3L538.4 1007.4L501.4 997.7L487.6 1053.8L511.1 1065.5Z" fill="#261134"/>
<path d="M539 1007L532.6 1031.8L496.6 1015.1L501 997L539 1007Z" fill="#261134"/>
<path d="M299 731.1L289.7 766.6L265 753L261.2 750.9C252.8 764.8 224.5 771.5 224.5 771.5L251.8 709L282.6 723.5L299 731.1Z" fill="#F27B79"/>
<path d="M223.6 772.2L251.5 708.3L299.6 730.9L299.5 731.3L290.1 767.4L261.3 751.6C252.6 765.3 225.7 771.7 224.5 772L223.6 772.2ZM252 709.6L225.3 770.7C230.3 769.4 253.3 762.7 260.7 750.6L260.9 750.2L289.4 765.8L298.4 731.3L252 709.6Z" fill="#261134"/>
<path d="M299 731.1L289.8 766.6L265 753L282.6 723.4L299 731.1Z" fill="#261134"/>
<path d="M353.5 697.5L383.5 714.5L388.5 703.5L363.4 618L350.5 621.5L353.5 697.5Z" fill="#261134"/>
<path d="M392.5 531.5L390.5 555.5L376.9 549.7L383.7 527.5L392.5 531.5Z" fill="#261134"/>
<path d="M622.5 664.5L617.8 727.2L611.5 816.5L548.5 1026.5L493.2 1007.4L535.2 802.4L537.3 751.3L539.3 707.3L541.5 658.5L603.7 663.1L622.5 664.5Z" fill="#CDCBCC"/>
<path d="M548.8 1027.1L492.6 1007.7L534.7 802.3L536.8 751.3L541 658L623 664.1L618.3 727.3L612 816.7V816.8L548.8 1027.1ZM493.8 1007.1L548.2 1025.9L611 816.5L617.3 727.2L622 665L542 659.1L537.8 751.4L535.7 802.5L493.8 1007.1Z" fill="#261134"/>
<path d="M727.9 496.5C727.8 496.5 727.7 496.5 727.6 496.5L717.6 508L705.4 487.3L709.2 482.8L727.9 496.5Z" fill="#261134"/>
<path d="M615.5 647.5L603.7 663.1L576 713.1L471.1 843.5C460.8 856.4 442.9 860.4 428 853.3L263.4 774.5L288.4 723.5L426.4 775.5L484.6 675.6L521.4 612.5L615.5 647.5Z" fill="#CDCBCC"/>
<path d="M443.5 857.4C438.2 857.4 432.9 856.2 427.9 853.8L262.9 774.8L288.3 722.9L288.7 723.1L426.3 775L521.3 612L521.7 612.1L616.3 647.3L604.1 663.4L576.4 713.3L471.5 843.8C464.5 852.6 454.1 857.4 443.5 857.4ZM264.2 774.3L428.3 852.9C443.1 860 460.5 856 470.8 843.3L575.7 712.9L603.3 663L614.7 647.9L521.7 613.3L426.7 776.3L288.7 724.3L264.2 774.3Z" fill="#261134"/>
<path d="M622.5 664.5L617.8 727.2C604.8 727.5 586.6 725.5 563 717.1C555.6 714.5 547.7 711.3 539.2 707.3C523 699.7 504.8 689.4 484.6 675.6L521.4 612.5L615.4 647.5L603.6 663.1L622.5 664.5Z" fill="#261134"/>
<path d="M351.5 554H345V541.5H346V553H351.5V554Z" fill="#261134"/>
<path d="M578 486C578 486 573 509 538 486C538 486 520 491.4 505.1 497.1C498.4 499.7 492.4 503.7 487.6 509L450.4 549.5L386.4 527.5L379.4 567.5L446.9 600.4C455.7 604.7 466.2 603.2 473.5 596.7L508.4 565.5L486.4 665.5C486.4 665.5 531.4 691.5 569.4 699.5C608.1 707.6 632.4 696.5 632.4 696.5C632.4 696.5 623.4 571.5 625.4 563.5L661.7 577.9C668.6 580.6 676.5 578.5 681.1 572.6L730.4 508.6L705.4 482.6L665.4 527.6L615.2 497.8C612.7 496.3 610 495.2 607.3 494.4L578 486Z" fill="#1BA096"/>
<path d="M597.1 703C589 703 579.7 702.2 569.4 700C531.8 692.1 486.7 666.2 486.3 665.9L486 665.7L486.1 665.3L507.8 566.8L474 597C466.5 603.7 455.9 605.2 446.9 600.8L379.1 567.7L379.2 567.3L386.3 526.7L450.5 548.8L487.4 508.5C492.3 503.2 498.4 499 505.1 496.5C519.9 490.8 537.8 485.5 538 485.4L538.2 485.3L538.4 485.4C551.9 494.3 562.8 497.4 570 494.5C576.2 492 577.6 485.8 577.6 485.8L577.7 485.3L607.5 493.8C610.3 494.6 613 495.8 615.6 497.3L665.5 526.9L705.6 481.8L731.3 508.5L681.7 572.9C677 578.9 668.8 581.2 661.7 578.4L626 564.3C624.5 576.2 633 695.3 633.1 696.6V696.9L632.8 697C632.5 697 619.3 703 597.1 703ZM487.1 665.2C491.2 667.5 533.8 691.4 569.6 699C605.4 706.5 629 697.4 632 696.2C631.4 687.4 623.1 571.2 625 563.4L625.1 562.8L661.9 577.4C668.6 580 676.3 577.9 680.7 572.2L729.8 508.5L705.5 483.2L665.6 528.1L615 498.1C612.5 496.6 609.9 495.5 607.2 494.7L578.4 486.5C577.9 488.1 576 493.1 570.3 495.4C562.7 498.5 551.8 495.5 537.9 486.4C535.8 487 519.1 492.1 505.3 497.4C498.7 499.9 492.8 504 488 509.2L450.6 550L386.8 528.1L380 567.2L447.1 599.9C455.7 604.1 466 602.7 473.1 596.3L509.2 564L487.1 665.2Z" fill="#261134"/>
<path d="M343.5 603.5L332.5 619.5L346.5 627.5L361.5 619.5L357.5 603.5H343.5Z" fill="#261134"/>
<path d="M352.5 605.5L367.5 599.5L387.5 609.5L379.5 620.5L350.7 627.5L352.5 605.5Z" fill="#261134"/>
<path d="M359.9 619.3L387.2 609.5L429.5 697.3L383.4 713.9L359.9 619.3Z" fill="#31B8ED"/>
<path d="M383.1 714.6L359.3 619L387.4 608.9L387.6 609.3L430.2 697.6L383.1 714.6ZM360.5 619.6L383.8 713.3L428.8 697L386.9 610.1L360.5 619.6Z" fill="#261134"/>
<path d="M344.5 607.5L329.5 601.5L309.5 611.5L317.5 622.5L346.3 629.5L344.5 607.5Z" fill="#261134"/>
<path d="M343.5 699.5L313.5 716.5L308.5 705.5L333.6 620L346.5 623.5L343.5 699.5Z" fill="#261134"/>
<path d="M337.1 621.3L309.8 611.5L267.5 699.3L313.6 715.9L337.1 621.3Z" fill="#1BA096"/>
<path d="M313.9 716.6L266.8 699.6L267 699.1L309.5 610.8L337.6 620.9L337.5 621.3L313.9 716.6ZM268.2 699L313.2 715.3L336.5 621.6L310.1 612.1L268.2 699Z" fill="#261134"/>
<path d="M332.5 619.5H361.5L371.5 716.5H322.5L332.5 619.5Z" fill="#F27B79"/>
<path d="M372.1 717H322L322.1 716.4L332.1 619H362V619.4L372.1 717ZM323.1 716H371L361.1 620H333L323.1 716Z" fill="#261134"/>
<path d="M345.128 553.357L319.156 606.333L320.054 606.773L346.026 553.797L345.128 553.357Z" fill="#261134"/>
<path d="M350.025 562.3L333.019 617.855L333.975 618.148L350.981 562.592L350.025 562.3Z" fill="#261134"/>
<path d="M1408 1066H206V1068H1408V1066Z" fill="#261134"/>
</svg>
