<svg width="1601" height="1200" viewBox="0 0 1601 1200" fill="none" xmlns="http://www.w3.org/2000/svg">
<path d="M1346.6 681.7H1185.9V806.8H1346.6V681.7Z" fill="#261134"/>
<path d="M1374.3 681.7H1227.3V806.8H1374.3V681.7Z" fill="#FAD338"/>
<path d="M1374.7 807.3H1226.7V681.2H1374.7V807.3ZM1227.8 806.3H1373.8V682.2H1227.8V806.3Z" fill="#261134"/>
<path d="M1323.9 681.7V712.9L1314.7 707.8L1307.6 712.6L1299.1 707.8L1291.3 712.9V681.7H1323.9Z" fill="#261134"/>
<path d="M1291.3 743.1H1257.4V745.1H1291.3V743.1Z" fill="#261134"/>
<path d="M1291.3 756.3H1257.4V758.3H1291.3V756.3Z" fill="#261134"/>
<path d="M1291.3 769.5H1257.4V771.5H1291.3V769.5Z" fill="#261134"/>
<path d="M1356.1 740.4H1301.2V774.7H1356.1V740.4Z" fill="#FEFEFE"/>
<path d="M1356.6 775.1H1300.7V739.8H1356.6V775.1ZM1301.7 774.1H1355.6V740.8H1301.7V774.1Z" fill="#261134"/>
<path d="M1190.3 829.7H1233.2C1235.2 829.7 1237.2 830.6 1238.4 832.2L1260.1 859.5C1263.6 863.9 1260.5 870.3 1254.9 870.3H1190.3V829.7Z" fill="#F27B79"/>
<path d="M1254.9 870.8H1189.8V829.2H1233.2C1235.4 829.2 1237.5 830.2 1238.8 831.9L1260.5 859.2C1262.2 861.4 1262.6 864.3 1261.3 866.8C1260.2 869.2 1257.7 870.8 1254.9 870.8ZM1190.8 869.8H1254.9C1257.3 869.8 1259.4 868.5 1260.5 866.3C1261.5 864.1 1261.3 861.6 1259.8 859.8L1238.1 832.5C1236.9 831 1235.2 830.2 1233.3 830.2H1190.9V869.8H1190.8Z" fill="#261134"/>
<path d="M753.2 658.1C753.2 661.8 756.2 664.7 759.8 664.7H781.4C785.1 664.7 788 661.7 788 658.1C788 654.4 785 651.5 781.4 651.5H759.8C756.2 651.4 753.2 654.4 753.2 658.1Z" fill="#261134"/>
<path d="M834.7 665.9H808.1V703.6H834.7V665.9Z" fill="#261134"/>
<path d="M766.2 945.5V725.1C766.2 706.4 781.4 691.2 800.1 691.2H898.1C916.8 691.2 932 706.4 932 725.1V928.1C932 945.3 945.9 959.2 963.1 959.2H990.6C1007.8 959.2 1021.7 945.3 1021.7 928.1V839.4C1021.7 839.4 1021 812.6 1004.5 808.7H1173.9C1173.9 808.7 1244.3 866.1 1259.1 958.6V968.8H766.2V945.5Z" fill="#FAD338"/>
<path d="M1259.6 969.3H765.7V725.1C765.7 706.1 781.1 690.7 800.1 690.7H898.1C917.1 690.7 932.5 706.1 932.5 725.1V928.1C932.5 945 946.2 958.7 963.1 958.7H990.6C1007.5 958.7 1021.2 945 1021.2 928.1V839.4C1021.2 839.1 1020.4 813 1004.3 809.2L1000.1 808.2H1174L1174.1 808.3C1174.3 808.4 1192 823 1211.2 848.6C1229 872.3 1251.8 910.6 1259.4 958.5L1259.6 969.3ZM766.7 968.3H1258.6V958.6C1251 911 1228.3 872.8 1210.6 849.3C1192.3 824.9 1175.4 810.6 1173.7 809.2H1007.5C1021.4 815.3 1022.1 838.3 1022.2 839.4V928.1C1022.2 945.5 1008 959.7 990.6 959.7H963.1C945.7 959.7 931.5 945.5 931.5 928.1V725.1C931.5 706.7 916.5 691.7 898.1 691.7H800.1C781.7 691.7 766.7 706.7 766.7 725.1V968.3Z" fill="#261134"/>
<path d="M833 691.1H821V912.7H833V691.1Z" fill="#261134"/>
<path d="M1392.7 803.3H1163.9V814.7H1392.7V803.3Z" fill="#261134"/>
<path d="M1135.6 969.4H976.6V1002.1H1135.6V969.4Z" fill="#261134"/>
<path d="M1192.9 1066.5C1232.89 1066.5 1265.3 1029.65 1265.3 984.2C1265.3 938.747 1232.89 901.9 1192.9 901.9C1152.91 901.9 1120.5 938.747 1120.5 984.2C1120.5 1029.65 1152.91 1066.5 1192.9 1066.5Z" fill="#261134"/>
<path d="M1205.1 1034.1C1231.11 1034.1 1252.2 1010.1 1252.2 980.5C1252.2 950.898 1231.11 926.9 1205.1 926.9C1179.09 926.9 1158 950.898 1158 980.5C1158 1010.1 1179.09 1034.1 1205.1 1034.1Z" fill="#FEFEFE"/>
<path d="M1205.1 1034.6C1178.8 1034.6 1157.5 1010.3 1157.5 980.5C1157.5 950.7 1178.9 926.4 1205.1 926.4C1231.3 926.4 1252.7 950.7 1252.7 980.5C1252.7 1010.3 1231.4 1034.6 1205.1 1034.6ZM1205.1 927.4C1179.4 927.4 1158.5 951.2 1158.5 980.5C1158.5 1009.8 1179.4 1033.6 1205.1 1033.6C1230.8 1033.6 1251.7 1009.8 1251.7 980.5C1251.7 951.2 1230.8 927.4 1205.1 927.4Z" fill="#261134"/>
<path d="M1180.2 980.8C1180.2 992.7 1185.8 1003.3 1203.7 1003.3C1214.2 1003.3 1218.1 992.7 1218.1 980.8C1218.1 968.9 1214.1 959.2 1203.7 959.2C1185.8 959.2 1180.2 968.8 1180.2 980.8Z" fill="#261134"/>
<path d="M1204.9 1002.4C1215.39 1002.4 1223.9 992.729 1223.9 980.8C1223.9 968.871 1215.39 959.2 1204.9 959.2C1194.41 959.2 1185.9 968.871 1185.9 980.8C1185.9 992.729 1194.41 1002.4 1204.9 1002.4Z" fill="#FEFEFE"/>
<path d="M1204.9 1002.8C1194.2 1002.8 1185.4 992.9 1185.4 980.7C1185.4 968.5 1194.1 958.6 1204.9 958.6C1215.7 958.6 1224.4 968.5 1224.4 980.7C1224.4 992.9 1215.6 1002.8 1204.9 1002.8ZM1204.9 959.7C1194.7 959.7 1186.4 969.2 1186.4 980.8C1186.4 992.4 1194.7 1001.9 1204.9 1001.9C1215.1 1001.9 1223.4 992.4 1223.4 980.8C1223.4 969.2 1215.1 959.7 1204.9 959.7Z" fill="#261134"/>
<path d="M785 1066.5C824.985 1066.5 857.4 1029.65 857.4 984.2C857.4 938.747 824.985 901.9 785 901.9C745.015 901.9 712.6 938.747 712.6 984.2C712.6 1029.65 745.015 1066.5 785 1066.5Z" fill="#261134"/>
<path d="M797.2 1034.1C823.213 1034.1 844.3 1010.1 844.3 980.5C844.3 950.898 823.213 926.9 797.2 926.9C771.188 926.9 750.1 950.898 750.1 980.5C750.1 1010.1 771.188 1034.1 797.2 1034.1Z" fill="#FEFEFE"/>
<path d="M797.2 1034.6C770.9 1034.6 749.6 1010.3 749.6 980.5C749.6 950.7 771 926.4 797.2 926.4C823.4 926.4 844.8 950.7 844.8 980.5C844.8 1010.3 823.5 1034.6 797.2 1034.6ZM797.2 927.4C771.5 927.4 750.6 951.2 750.6 980.5C750.6 1009.8 771.5 1033.6 797.2 1033.6C822.9 1033.6 843.8 1009.8 843.8 980.5C843.8 951.2 822.9 927.4 797.2 927.4Z" fill="#261134"/>
<path d="M772.3 980.8C772.3 992.7 777.9 1002.4 795.8 1002.4C806.3 1002.4 810.2 992.7 810.2 980.8C810.2 968.9 806.2 959.2 795.8 959.2C777.9 959.2 772.3 968.8 772.3 980.8Z" fill="#261134"/>
<path d="M797 1002.4C807.493 1002.4 816 992.729 816 980.8C816 968.871 807.493 959.2 797 959.2C786.507 959.2 778 968.871 778 980.8C778 992.729 786.507 1002.4 797 1002.4Z" fill="#FEFEFE"/>
<path d="M797 1002.8C786.3 1002.8 777.5 992.9 777.5 980.7C777.5 968.5 786.2 958.6 797 958.6C807.8 958.6 816.5 968.5 816.5 980.7C816.5 992.9 807.7 1002.8 797 1002.8ZM797 959.7C786.8 959.7 778.5 969.2 778.5 980.8C778.5 992.4 786.8 1001.9 797 1001.9C807.2 1001.9 815.5 992.4 815.5 980.8C815.5 969.2 807.1 959.7 797 959.7Z" fill="#261134"/>
<path d="M1326 958.9H1316.8C1315.6 949.4 1307.5 942.1 1297.7 942.1H1093.3V980.7H1297.7C1307 980.7 1314.8 974.1 1316.6 965.3H1326V958.9Z" fill="#261134"/>
<path d="M1289.7 968.8C1289.7 968.8 1302.4 867 1183.5 839.3C1140.6 829.3 1042.1 822.8 1064.2 968.8H1289.7Z" fill="#FAD338"/>
<path d="M1290.2 969.3H1063.9L1063.8 968.9C1055.6 914.6 1063.3 876 1086.7 854.4C1115.3 827.9 1159.8 833.3 1183.7 838.9C1210.9 845.2 1233.4 856 1250.7 870.9C1264.5 882.8 1275 897.4 1281.8 914.3C1293.4 943 1290.4 968.6 1290.3 968.9L1290.2 969.3ZM1064.7 968.3H1289.3C1289.6 964.8 1291.5 941 1280.8 914.6C1270.2 888.4 1244.7 854.1 1183.5 839.8C1159.8 834.3 1115.7 828.9 1087.4 855.1C1064.2 876.5 1056.6 914.6 1064.7 968.3Z" fill="#261134"/>
<path d="M1015.7 814.7H1164.8C1180.3 814.7 1192.9 802.1 1192.9 786.6C1192.9 770.2 1178.9 757.3 1162.6 758.6L1014 770.4C1002.5 771.3 993.6 780.9 993.6 792.5C993.6 804.7 1003.5 814.7 1015.7 814.7Z" fill="#261134"/>
<path d="M862.9 957.5H692.5C692.5 957.5 695.3 932.4 712.2 909.6C749.2 860.1 826.1 866.9 853.3 922.3C858.2 932.1 861.6 943.7 862.9 957.5Z" fill="#FAD338"/>
<path d="M863.5 958H692L692.1 957.4C692.1 957.1 695.1 931.9 711.9 909.3C729.4 885.8 757.4 873.4 786.8 876.1C816 878.8 841 896 853.9 922.1C859 932.6 862.3 944.4 863.5 957.4V958ZM693.1 957H862.3C861.1 944.4 857.9 932.8 852.9 922.6C840.2 896.8 815.5 879.8 786.6 877.2C757.6 874.5 729.9 886.8 712.6 910C697.4 930.5 693.7 953.2 693.1 957Z" fill="#261134"/>
<path d="M1290.9 975.4H852.6V962.2H692.7V950.2H852.9C859.4 950.2 864.6 955.5 864.6 961.9V963.4H1290.9V975.4Z" fill="#261134"/>
<path d="M983.4 1040.1H954.1V1028.1H979.3L1035.7 985.1L1042.9 994.6L983.4 1040.1Z" fill="#261134"/>
<path d="M835.6 678.4H799.1C796.9 678.4 794.7 678.1 792.7 677.6C781.1 674.7 772.5 664.2 772.5 651.7C772.5 644.3 775.5 637.7 780.3 632.9C783.7 629.5 787.9 627.1 792.7 625.9C794.8 625.4 796.9 625.1 799.2 625.1H804.5C822.8 625.1 840.3 634.2 849.8 649.9C850.3 650.7 850.8 651.6 851.3 652.5C857.4 664.3 848.9 678.4 835.6 678.4Z" fill="#FAD338"/>
<path d="M835.6 678.9H799.1C796.9 678.9 794.7 678.6 792.5 678.1C780.4 675.1 771.9 664.3 771.9 651.7C771.9 644.4 774.7 637.6 779.9 632.5C783.4 629 787.8 626.5 792.5 625.3C794.7 624.8 796.9 624.5 799.1 624.5H804.4C823.2 624.5 840.7 634.1 850.1 649.6C850.6 650.5 851.1 651.3 851.6 652.2C854.6 657.8 854.5 664.5 851.2 670C847.8 675.6 842 678.9 835.6 678.9ZM799.1 625.6C797 625.6 794.8 625.9 792.8 626.4C788.2 627.5 784 629.9 780.6 633.3C775.7 638.2 772.9 644.8 772.9 651.8C772.9 663.9 781.1 674.3 792.7 677.2C794.8 677.7 796.9 678 799 678H835.5C841.6 678 847.1 674.9 850.2 669.6C853.3 664.4 853.5 658.1 850.6 652.8C850.1 651.9 849.6 651.1 849.1 650.2C839.9 635 822.7 625.6 804.3 625.6H799.1Z" fill="#261134"/>
<path d="M811 651.8C811 662.4 806.4 671.9 799.1 678.5H799C784.3 678.5 772.3 666.6 772.3 651.8C772.3 644.4 775.3 637.8 780.1 633C784.9 628.2 791.6 625.2 798.9 625.2H799C806.5 631.7 811 641.2 811 651.8Z" fill="#261134"/>
<path d="M803.7 651.8C803.7 662 799.5 671.1 792.7 677.7C781.1 674.8 772.5 664.3 772.5 651.8C772.5 644.4 775.5 637.8 780.3 633C783.7 629.6 787.9 627.2 792.7 626C799.5 632.4 803.7 641.6 803.7 651.8Z" fill="#FEFEFE"/>
<path d="M792.8 678.2L792.5 678.1C780.4 675.1 771.9 664.3 771.9 651.7C771.9 644.4 774.7 637.6 779.9 632.5C783.4 629 787.8 626.5 792.5 625.3L792.8 625.2L793 625.4C800.2 632.3 804.2 641.6 804.2 651.6C804.2 661.6 800.2 670.9 793 677.8L792.8 678.2ZM792.5 626.5C788 627.7 783.9 630 780.6 633.3C775.7 638.2 772.9 644.8 772.9 651.8C772.9 663.8 780.9 674.1 792.5 677.1C799.4 670.4 803.2 661.4 803.2 651.8C803.2 642.1 799.4 633.2 792.5 626.5Z" fill="#261134"/>
<path d="M871.5 654.1H851.8V662.2H871.5V654.1Z" fill="#FAD338"/>
<path d="M871.9 662.8H851.2V653.7H871.9V662.8ZM852.3 661.8H871V654.7H852.3V661.8Z" fill="#261134"/>
<path d="M844.4 651.4H852.3C856 651.4 858.9 654.4 858.9 658C858.9 661.7 855.9 664.6 852.3 664.6H844.4C840.7 664.6 837.8 661.6 837.8 658C837.8 654.4 840.7 651.4 844.4 651.4Z" fill="#261134"/>
<path d="M867.7 658.1C867.7 661.8 870.7 664.7 874.3 664.7H895.9C899.6 664.7 902.5 661.7 902.5 658.1C902.5 654.4 899.5 651.5 895.9 651.5H874.3C870.7 651.4 867.7 654.4 867.7 658.1Z" fill="#261134"/>
<path d="M1224.6 943.2H1127V948.8H1224.6V943.2Z" fill="white"/>
<path d="M1225.1 949.3H1126.5V942.7H1225.1V949.3ZM1127.5 948.3H1224.1V943.7H1127.5V948.3Z" fill="black"/>
<path d="M1224.6 928.4H1127V934H1224.6V928.4Z" fill="white"/>
<path d="M1225.1 934.5H1126.5V927.9H1225.1V934.5ZM1127.5 933.5H1224.1V928.9H1127.5V933.5Z" fill="black"/>
<path d="M1224.6 913.7H1127V919.3H1224.6V913.7Z" fill="white"/>
<path d="M1225.1 919.8H1126.5V913.2H1225.1V919.8ZM1127.5 918.8H1224.1V914.2H1127.5V918.8Z" fill="black"/>
<path d="M1076 1040H871V1042H1076V1040Z" fill="#261134"/>
<path d="M431.5 342.2C462.207 342.2 487.1 317.307 487.1 286.6C487.1 255.893 462.207 231 431.5 231C400.793 231 375.9 255.893 375.9 286.6C375.9 317.307 400.793 342.2 431.5 342.2Z" fill="#FEFEFE"/>
<path d="M431.5 342.8C400.5 342.8 375.4 317.6 375.4 286.7C375.4 255.7 400.6 230.6 431.5 230.6C462.4 230.6 487.6 255.8 487.6 286.7C487.6 317.6 462.4 342.8 431.5 342.8ZM431.5 231.5C401.1 231.5 376.4 256.2 376.4 286.6C376.4 317 401.1 341.7 431.5 341.7C461.9 341.7 486.6 317 486.6 286.6C486.6 256.2 461.9 231.5 431.5 231.5Z" fill="#261134"/>
<path d="M421.9 313.6L394.2 286.8C392.2 284.9 392.2 281.8 394.1 279.8C396 277.8 399.1 277.8 401.1 279.7L422 299.9L462 261.4C464 259.5 467.1 259.6 469 261.5C470.9 263.5 470.8 266.6 468.9 268.5L421.9 313.6Z" fill="#1BA096"/>
<path d="M421.9 314.3L393.9 287.1C392.9 286.1 392.3 284.7 392.3 283.3C392.3 281.9 392.8 280.5 393.8 279.4C395.9 277.3 399.3 277.2 401.5 279.3L422 299.2L461.6 261C462.6 260 464 259.4 465.5 259.5C466.9 259.5 468.3 260.1 469.3 261.2C471.4 263.4 471.3 266.8 469.2 268.9L421.9 314.3ZM397.6 278.8C396.4 278.8 395.3 279.2 394.4 280.1C393.6 280.9 393.1 282.1 393.2 283.2C393.2 284.4 393.7 285.5 394.5 286.3L421.8 312.8L468.3 268C469.1 267.2 469.6 266.1 469.7 264.9C469.7 263.7 469.3 262.6 468.5 261.8C467.7 261 466.6 260.5 465.4 260.4C464.2 260.4 463.1 260.8 462.3 261.6L422 300.4L400.8 279.8C399.9 279.2 398.7 278.8 397.6 278.8Z" fill="#261134"/>
<path d="M1229.4 267.9H932.6V628.9H1229.4V267.9Z" fill="#CDCBCC"/>
<path d="M1229.9 629.5H932.1V267.5H1229.9V629.5ZM933.1 628.5H1228.9V268.5H933.1V628.5Z" fill="#261134"/>
<path d="M1170.8 419.7V300.1H1229.5V293.5H1170.8V268H1164.2V293.5H1090V268H1083.4V300.1H1164.2V413.1H1090V355.3L1004.1 268.1H994.8L1078.7 353.4H1023.8L940.3 268.1H932.7V269.8L1014.6 353.4H932.7V360H1021.1L1021.9 360.8V519.6C1005.5 520.9 992.2 533.4 989.7 549.4H932.8V556H989.3C989.9 573.9 1003.8 588.5 1021.4 590.2V629H1028V590C1045.6 588.4 1059.5 573.8 1060.1 555.8H1087.5L1158.3 628.9H1167.6L1164.1 625.3L1229.7 559.7V550.3L1159.5 620.5L1131.9 592L1185.4 537.2V477.2H1229.7V470.6H1090.2V419.7H1170.8ZM1024.6 583.6C1008.7 583.6 995.8 570.7 995.8 554.8C995.8 538.9 1008.7 526 1024.6 526C1040.5 526 1053.4 538.9 1053.4 554.8C1053.4 570.7 1040.4 583.6 1024.6 583.6ZM1083.3 549.2H1059.6C1057.1 533.5 1044.4 521.2 1028.5 519.5V359.9H1083.3V549.2ZM1178.5 477.2V534.5L1127 587.2L1089.9 548.9V477.1H1178.5V477.2Z" fill="white"/>
<path d="M1154.7 491.1C1172.43 491.1 1186.8 476.728 1186.8 459C1186.8 441.272 1172.43 426.9 1154.7 426.9C1136.97 426.9 1122.6 441.272 1122.6 459C1122.6 476.728 1136.97 491.1 1154.7 491.1Z" fill="#261134"/>
<path d="M1191.7 384.1C1191.7 364.5 1175.8 348.7 1156.3 348.7C1136.7 348.7 1120.9 364.6 1120.9 384.1C1120.9 389 1121.9 393.6 1123.7 397.9C1124.2 399.2 1124.9 400.5 1125.6 401.7L1156 462.9L1186.8 402.3C1187.6 400.9 1188.4 399.5 1189 397.9C1190.7 393.6 1191.7 389 1191.7 384.1ZM1156.7 399.1C1148.9 399.1 1142.6 392.8 1142.6 385C1142.6 377.2 1148.9 370.9 1156.7 370.9C1164.5 370.9 1170.8 377.2 1170.8 385C1170.8 392.8 1164.5 399.1 1156.7 399.1Z" fill="#F27B79"/>
<path d="M1156 464L1125.1 401.9C1124.4 400.6 1123.7 399.4 1123.2 398.1C1121.3 393.7 1120.4 389 1120.4 384.1C1120.4 364.3 1136.5 348.2 1156.3 348.2C1176.1 348.2 1192.2 364.3 1192.2 384.1C1192.2 388.9 1191.3 393.6 1189.4 398C1188.8 399.5 1188 401 1187.2 402.4L1156 464ZM1156.3 349.2C1137 349.2 1121.4 364.9 1121.4 384.1C1121.4 388.8 1122.3 393.4 1124.1 397.7C1124.6 398.9 1125.2 400.2 1125.9 401.4L1155.9 461.7L1186.2 402C1187.1 400.6 1187.8 399.1 1188.4 397.7C1190.2 393.4 1191.1 388.8 1191.1 384.1C1191.2 364.9 1175.6 349.2 1156.3 349.2ZM1156.7 399.6C1148.7 399.6 1142.1 393.1 1142.1 385C1142.1 376.9 1148.6 370.4 1156.7 370.4C1164.8 370.4 1171.3 376.9 1171.3 385C1171.3 393.1 1164.7 399.6 1156.7 399.6ZM1156.7 371.4C1149.2 371.4 1143.1 377.5 1143.1 385C1143.1 392.5 1149.2 398.6 1156.7 398.6C1164.2 398.6 1170.3 392.5 1170.3 385C1170.3 377.5 1164.2 371.4 1156.7 371.4Z" fill="#261134"/>
<path d="M621.1 1066.7H548.2C548.2 1066.7 552.8 1051 585.1 1038.1L585 1034.5L584.7 1015H619.2L619.8 1032.2L621.1 1066.7Z" fill="#F27B79"/>
<path d="M621.7 1067.2H547.6L547.8 1066.6C548 1066 552.8 1050.6 584.7 1037.8L584.4 1014.6H619.9L621.7 1067.2ZM548.9 1066.2H620.6L618.8 1015.5H585.3L585.6 1038.4L585.3 1038.5C557.3 1049.8 550.2 1063.2 548.9 1066.2Z" fill="#261134"/>
<path d="M716.1 1066.7H643.2C643.2 1066.7 647.8 1051 680.1 1038.1L679.8 1035.7L677 1015H711.5L713.1 1033L716.1 1066.7Z" fill="#F27B79"/>
<path d="M716.7 1067.2H642.5L642.7 1066.6C642.9 1066 647.7 1050.6 679.6 1037.8L676.5 1014.5H712L716.7 1067.2ZM643.9 1066.2H715.6L711.1 1015.5H677.6L680.7 1038.4L680.3 1038.5C652.2 1049.8 645.2 1063.2 643.9 1066.2Z" fill="#261134"/>
<path d="M285.5 1066.7H212.6L217.3 1030.2L219.2 1015H253.7L249.6 1033.7L248.6 1042.1C282.5 1052.5 285.5 1066.7 285.5 1066.7Z" fill="#F27B79"/>
<path d="M286.1 1067.2H212L218.7 1014.5H254.3L250 1033.8L249.1 1041.7C282.5 1052 285.9 1066 286 1066.6L286.1 1067.2ZM213.1 1066.2H284.8C283.7 1063.4 277.6 1051.5 248.4 1042.6L248 1042.5L249 1033.7L253 1015.6H219.6L213.1 1066.2Z" fill="#261134"/>
<path d="M369.5 1066.7H296.6L298.4 1030.8L299.2 1015H333.7L332.8 1034.2L332.6 1041C364.9 1054 369.5 1066.7 369.5 1066.7Z" fill="#F27B79"/>
<path d="M370.2 1067.2H296L298.7 1014.5H334.2L333.2 1034.3L333 1040.8C364.9 1053.6 369.7 1066.1 369.9 1066.6L370.2 1067.2ZM297.1 1066.2H368.7C367.2 1063.4 359.8 1052.5 332.4 1041.5L332.1 1041.4L332.3 1034.2L333.2 1015.5H299.7L297.1 1066.2Z" fill="#261134"/>
<path d="M563.8 350.3L614.5 338.9L620 358.2C621.4 357.2 622.8 356.6 624.1 356.6C630.1 356.6 631.3 363.8 631.3 363.8C633 371.6 627.9 376.4 625.6 379.8L643 435.5L599.9 442.2L596.2 406.6C559.1 425.3 563.8 350.3 563.8 350.3Z" fill="#FAD338"/>
<path d="M599.4 442.6L595.7 407.2C588.4 410.7 582.1 410.9 577.1 407.6C560.5 396.6 563.1 352.1 563.2 350.2V349.8L614.8 338.2L620.2 357.2C621.5 356.3 622.8 355.9 624 355.9C630.3 355.9 631.7 363.4 631.7 363.5C633.2 370.3 629.7 374.8 627.2 378.1C626.8 378.6 626.4 379.1 626.1 379.6L643.6 435.6L599.4 442.6ZM596.6 405.7L600.3 441.5L642.3 434.9L625 379.6L625.1 379.4C625.5 378.9 625.9 378.3 626.4 377.7C628.8 374.5 632.1 370.2 630.7 363.9C630.6 363.6 629.5 357.1 624 357.1C622.8 357.1 621.5 357.6 620.2 358.6L619.6 359L614 339.5L564.1 350.7C563.9 355.1 562.2 396.7 577.6 406.8C582.4 410 588.6 409.7 595.8 406.1L596.6 405.7Z" fill="#261134"/>
<path d="M548.6 328.5C550.9 328 556.7 328.5 560.2 331.4C560 331 559.8 330.6 559.6 330.2C554.4 314.6 576.3 326.2 587.9 328.5C590.3 329 595.6 329.7 595.6 329.7C630.3 321.8 626.8 357.2 626.8 357.2C617.7 355.9 615 368.3 615 368.3C605.7 363.9 602.8 357.6 602.5 354.9C593.5 359 570.4 366.8 551.3 353C538.2 343.5 542.8 329.6 548.6 328.5Z" fill="#261134"/>
<path d="M347.2 476.8C347.2 476.8 333.1 450.5 331.9 437.4L337.8 408.6C337.8 408.6 338.5 381 302.2 387.7C302.2 387.7 302.4 374.7 293.8 371.6C293.8 371.6 298 378.9 296.5 386.1C296.5 386.1 289.5 370.1 276.3 378.5C276.3 378.5 266.1 384.1 268.8 394.3C268.8 394.3 268.6 405.9 284.5 406.1C284.5 406.1 284.3 420.6 249.2 440.3C249.2 440.3 220 454.3 222.4 484.8C224.8 515.3 252 534.5 252 534.5L352 534.6L347.2 476.8Z" fill="#261134"/>
<path d="M291.7 488L296 437.7C296 437.7 288.5 433.3 290.4 424.7C290.4 424.7 292.2 417.8 299.1 423.1L299.3 410.9C299.3 410.9 323.5 420 337.6 406.3C337.6 406.3 347.8 453.9 326.3 453.8L330.9 493.8L291.7 488Z" fill="#FAD338"/>
<path d="M331.4 494.4L291.1 488.5L295.4 438C294 437.1 288.1 432.6 289.8 424.6C289.8 424.5 290.6 421.6 293 420.8C294.6 420.3 296.4 420.7 298.5 422.1L298.7 410.2L299.4 410.4C299.6 410.5 323.4 419.2 337.2 405.9L337.8 405.3L338 406.2C338.3 407.5 344.8 438.5 335.4 450C333.2 452.7 330.3 454.1 326.8 454.2L331.4 494.4ZM292.2 487.6L330.2 493.2L325.6 453.3H326.2C329.7 453.3 332.5 452 334.6 449.4C342.8 439.3 338.1 412.5 337.1 407.3C324.2 418.9 303.6 412.9 299.6 411.6L299.4 424.1L298.6 423.5C296.5 421.9 294.7 421.3 293.3 421.8C291.4 422.4 290.7 424.9 290.7 424.9C288.9 433.1 295.8 437.2 296.1 437.4L296.4 437.6V437.9L292.2 487.6Z" fill="#261134"/>
<path d="M619.9 1032.3L585.1 1034.5L584.8 1015H619.3L619.9 1032.3Z" fill="#261134"/>
<path d="M713.1 1033L679.8 1035.7L677 1015H711.5L713.1 1033Z" fill="#261134"/>
<path d="M663.4 612.6L662 620.2L653.5 667.1L631.5 787.7L630.2 827.5L623.5 1026.9H565.3L558.8 788.9L568 656.2L571.1 612.6H663.4Z" fill="#CDCBCC"/>
<path d="M624 1027.4H564.8V1026.9L558.3 788.9L570.6 612.1H664L632 787.8L624 1027.4ZM565.8 1026.4H623.1L631.1 787.7L662.9 613.1H571.7L559.3 789L565.8 1026.4Z" fill="#261134"/>
<path d="M253.7 1015L249.5 1033.7L217.2 1030.2L219.2 1015H253.7Z" fill="#261134"/>
<path d="M333.7 1015L332.8 1034.3L298.4 1030.8L299.2 1015H333.7Z" fill="#261134"/>
<path d="M722.6 1027.9H663.8L630.2 827.5L622.7 782.6L609.9 666.8L604.8 620.2H700.3L699.9 657L698.5 778.4L722.6 1027.9Z" fill="#CDCBCC"/>
<path d="M723.1 1028.4H663.3L663.2 1028L622.1 782.7L604.1 619.7H700.7L698.9 778.4L723.1 1028.4ZM664.2 1027.4H722L698 778.5L699.8 620.7H605.3L623.2 782.5L664.2 1027.4Z" fill="#261134"/>
<path d="M361.5 758.4L346.1 1026.9H292.9L294.7 856.7L295.8 759.6L288.1 669.6L285.1 633.7L329.7 633L354.9 632.5L357 672.8L361.5 758.4Z" fill="#1BA096"/>
<path d="M346.5 1027.4H292.4V1026.9L295.3 759.6L284.5 633.2L355.3 632L362 758.4L346.5 1027.4ZM293.4 1026.4H345.6L361 758.4L354.4 633L285.6 634.2L296.3 759.6L293.4 1026.4Z" fill="#261134"/>
<path d="M700.3 620.2L699.9 657C683.3 662.5 667.7 665.7 653.5 667.1C637.2 668.8 622.5 668.3 609.9 666.7C591 664.4 576.6 659.6 568.1 656.1L571.1 612.5H663.4L662 620.1H700.3V620.2Z" fill="#261134"/>
<path d="M330.3 628.8L329.7 633L324 674.5L308.9 783.9L294.7 856.7L261.9 1025.3L213.2 1026.3L235.6 778.6L241.8 649.2L242.9 626.4L330.3 628.8Z" fill="#1BA096"/>
<path d="M212.6 1026.8V1026.2L235 778.5L242.4 625.8L330.8 628.2L309.4 784L262.3 1025.8L212.6 1026.8ZM243.4 626.9L236.1 778.6L213.7 1025.7L261.5 1024.7L308.4 783.7L329.7 629.2L243.4 626.9Z" fill="#261134"/>
<path d="M350.7 484L389.5 534.5L443.7 545.1V584.1L380.2 578.1C375.8 577.7 371.7 576.1 368.1 573.6L342.7 555.6L350.7 484Z" fill="#31B8ED"/>
<path d="M444.2 584.7L380.1 578.6C375.7 578.2 371.4 576.6 367.7 574L342 555.8L350.2 482.7L389.7 534L444.1 544.7V584.7H444.2ZM343.1 555.4L368.3 573.3C371.8 575.8 375.9 577.3 380.2 577.7L443.2 583.7V545.6L389.2 535L389.1 534.9L351 485.4L343.1 555.4Z" fill="#261134"/>
<path d="M597.4 429.4C597.4 429.4 604.9 447.1 638.6 412.2L696.4 433.5C704.6 437.1 710.4 444.6 711.9 453.4L721 504.8H689.4L704 642.2C704 642.2 661.4 653.5 628.8 654.2C575 655.4 563.1 645.8 563.1 645.8L565.5 597L565.9 486C565.3 470.2 571.9 458.3 581.3 445.5L597.4 429.4Z" fill="#1BA096"/>
<path d="M619.8 654.8C574.1 654.8 563.3 646.5 562.9 646.2L562.7 646L565.1 596.9L565.5 485.9C564.9 470.4 571.3 458.3 581 445.1L597.6 428.5L597.9 429.2C598 429.3 599.4 432.4 603.6 433.2C609.1 434.2 619.5 431.3 638.3 411.8L638.5 411.6L638.8 411.7L696.6 433C705 436.7 710.9 444.3 712.4 453.3L721.6 505.3H690L704.6 642.6L704.2 642.7C703.8 642.8 661.2 654 628.9 654.8C625.8 654.8 622.7 654.8 619.8 654.8ZM563.7 645.5C565.5 646.7 579.6 654.8 628.9 653.7C659.3 653 699 642.9 703.5 641.8L688.9 504.2H720.4L711.4 453.4C709.9 444.7 704.3 437.4 696.2 433.9L638.7 412.8C619.7 432.4 608.9 435.3 603.3 434.2C599.7 433.5 597.9 431.3 597.2 430.2L581.6 445.7C571.8 459.1 565.8 470.6 566.4 485.9L566 596.9L563.7 645.5Z" fill="#261134"/>
<path d="M562.9 481H403.4V605.2H562.9V481Z" fill="#261134"/>
<path d="M590.4 481H444.5V605.2H590.4V481Z" fill="#FEFEFE"/>
<path d="M590.9 605.7H444V480.5H590.9V605.7ZM445 604.7H589.9V481.5H445V604.7Z" fill="#261134"/>
<path d="M540.4 481V512L531.3 507L524.3 511.7L515.9 507L508.1 512V481H540.4Z" fill="#261134"/>
<path d="M508.2 542H474.5V544H508.2V542Z" fill="#261134"/>
<path d="M508.2 555.1H474.5V557.1H508.2V555.1Z" fill="#261134"/>
<path d="M508.2 568.2H474.5V570.2H508.2V568.2Z" fill="#261134"/>
<path d="M572.4 539.3H517.9V573.3H572.4V539.3Z" fill="#FEFEFE"/>
<path d="M572.9 573.8H517.4V538.8H572.9V573.8ZM518.4 572.8H571.9V539.8H518.4V572.8Z" fill="#261134"/>
<path d="M357 672.8C348.6 674 337.1 675 324 674.5C313 674.1 300.8 672.7 288.2 669.6C272.9 665.8 257 659.4 241.9 649.2L243 626.4L330.3 628.8L329.7 633L354.9 632.6L357 672.8Z" fill="#261134"/>
<path d="M444.2 609.3C443.3 610.8 442.1 612 440.7 613C439.3 614 437.7 614.7 436 615L428.1 616.8C423 617.9 417.8 618.5 412.6 618.5H405.7C403.7 618.5 401.7 618 400 617L392.6 612.9L384.8 612L355.8 608.5V586.2L380.2 590L391.5 591.8L416 585C416 585 420.3 593.9 406.9 598.4L419.9 604.8H441.7C444 604.6 445.5 607.3 444.2 609.3Z" fill="#FAD338"/>
<path d="M412.5 618.9H405.6C403.5 618.9 401.4 618.4 399.6 617.3L392.3 613.3L355.2 608.8V585.5L391.4 591.2L416.2 584.3L416.4 584.7C416.5 584.8 418 588 416.4 591.6C415.2 594.5 412.4 596.8 408.1 598.4L419.9 604.2H441.6C442.9 604.2 444.1 604.9 444.7 606C445.3 607.1 445.3 608.5 444.6 609.6C443.6 611.1 442.4 612.4 441 613.4C439.5 614.4 437.9 615.1 436.2 615.5L428.3 617.3C423 618.4 417.8 618.9 412.5 618.9ZM356.2 608L392.7 612.4L400.1 616.5C401.8 617.4 403.7 617.9 405.6 617.9H412.5C417.7 617.9 422.9 617.3 427.9 616.2L435.8 614.4C437.4 614 438.9 613.4 440.3 612.4C441.6 611.5 442.8 610.3 443.7 608.9C444.2 608.1 444.2 607.1 443.8 606.3C443.4 605.5 442.5 605 441.6 605H419.7L405.5 598L406.7 597.6C411.3 596.1 414.3 593.8 415.5 591C416.6 588.5 416 586.2 415.6 585.3L391.4 592L356.2 586.5V608Z" fill="#261134"/>
<path d="M542.2 404.6H443.3V481.6H542.2V404.6Z" fill="#261134"/>
<path d="M559.2 404.6H468.8V481.6H559.2V404.6Z" fill="#FAD338"/>
<path d="M559.7 482.1H468.3V404.1H559.7V482.1ZM469.3 481.1H558.7V405.1H469.3V481.1Z" fill="#261134"/>
<path d="M528.3 404.6V423.8L522.6 420.7L518.2 423.6L513 420.7L508.2 423.8V404.6H528.3Z" fill="#261134"/>
<path d="M508.3 442H487.4V444H508.3V442Z" fill="#261134"/>
<path d="M508.3 450.1H487.4V452.1H508.3V450.1Z" fill="#261134"/>
<path d="M508.3 458.3H487.4V460.3H508.3V458.3Z" fill="#261134"/>
<path d="M548.1 440.7H514.3V461.8H548.1V440.7Z" fill="#FEFEFE"/>
<path d="M548.6 462.3H513.8V440.2H548.6V462.3ZM514.8 461.3H547.6V441.2H514.8V461.3Z" fill="#261134"/>
<path d="M384.7 611.9L355.7 608.4V586.1L380.1 589.9L384.7 611.9Z" fill="#261134"/>
<path d="M375.9 587.7L357.6 584.2L354.6 494.4C354.4 488.7 351.8 483.3 347.4 479.6L328.7 464C328.7 464 325.1 486.9 290.2 464L257.9 475.6C248.8 478.9 241.9 486.6 239.7 496L219.3 595.1C217.4 604.3 224.2 613 233.6 613.3L243.3 613.6L238.6 645.2C238.6 645.2 271.9 659.5 306.1 661.6C345.5 664.1 358.4 654.7 357.9 653.4L355.9 619.8L375.9 620.6V587.7Z" fill="#31B8ED"/>
<path d="M318.9 662.7C315 662.7 310.7 662.6 306.1 662.3C272.2 660.2 238.8 646 238.4 645.8L238 645.6L238.1 645.2L242.7 614.2L233.5 613.9C228.9 613.7 224.6 611.6 221.7 607.9C218.8 604.3 217.7 599.6 218.7 595.1L239.1 496C241.4 486.3 248.3 478.6 257.7 475.2L290.2 463.5L290.4 463.6C303.9 472.5 314.6 475.6 321.4 472.6C327.1 470.1 328.1 464 328.1 464L328.2 463.1L347.5 479.3C352 483.1 354.7 488.6 354.9 494.5L357.9 583.9L376.2 587.4V621.4L356.2 620.6L358.2 653.6C358.3 653.9 358.2 654.1 358 654.4C356.8 656.3 346.3 662.7 318.9 662.7ZM239.2 645C242.9 646.5 274.3 659.2 306.2 661.2C343.9 663.6 356.8 655 357.4 653.6V653.5L355.4 619.3L375.5 620.1V588L357.2 584.5L354.2 494.3C354 488.7 351.4 483.5 347.2 479.9L329.2 464.8C328.7 466.7 327 471.2 322.1 473.3C314.9 476.5 304.3 473.5 290.3 464.4L258.2 475.9C249.2 479.1 242.5 486.6 240.3 496L219.9 595.1C219 599.3 220.1 603.7 222.7 607.1C225.4 610.5 229.4 612.5 233.7 612.7L244 613L239.2 645Z" fill="#261134"/>
<path d="M243.383 613.035L243.326 614.034L356.744 620.545L356.802 619.546L243.383 613.035Z" fill="#261134"/>
<path d="M358 584.7L271.7 566.9L279.5 523.9L280.5 524.1L272.8 566.1L358.2 583.8L358 584.7Z" fill="#261134"/>
<path d="M725.7 568C726.6 578.1 720.3 587.5 710.6 590.5L608.4 622.3L598.7 625.7C595 627 591 627.4 587.1 626.9L567.5 624.5C566.3 624.3 565 624 563.9 623.6L541 615.2C538.1 614.1 535.5 612.1 533.8 609.5L533.5 609C532.3 607.2 533.6 604.8 535.8 604.8H572.6C561.9 598 562.7 592 562.7 592L585.3 595.1L601.8 597.1L679.7 559.1L670.7 514.2L668.9 505.1H720.7L721.2 510.4L725.7 568Z" fill="#FAD338"/>
<path d="M590.2 627.6C589.1 627.6 588 627.5 587 627.4L567.4 625C566.1 624.8 564.8 624.5 563.7 624.1L540.8 615.7C537.7 614.6 535.2 612.6 533.4 609.8L533.1 609.3C532.4 608.3 532.4 607 533 606C533.6 604.9 534.6 604.3 535.9 604.3H571C561.6 597.8 562.2 592.2 562.3 591.9L562.4 591.4L585.5 594.5L601.9 596.4L679.3 558.7L668.4 504.4H721.2L726.6 567.9C727.5 578.3 721.1 587.8 711.1 590.9L608.9 622.7L599.2 626.1C596.1 627.1 593.1 627.6 590.2 627.6ZM535.6 605.3C534.8 605.3 534 605.7 533.6 606.5C533.2 607.2 533.2 608.1 533.7 608.8L534 609.3C535.7 611.8 538.1 613.7 540.9 614.8L563.8 623.2C564.9 623.6 566.1 623.9 567.3 624.1L586.9 626.5C590.7 627 594.7 626.6 598.3 625.3L608 621.9L710.2 590.1C719.7 587.1 725.8 578.1 725 568.1L719.7 505.5H669L679.8 559.3L679.5 559.5L601.5 597.5L584.8 595.5L562.8 592.5C562.9 594 564 598.9 572.5 604.3L573.9 605.2H535.6V605.3Z" fill="#261134"/>
<path d="M664.121 483.424L663.149 483.657L668.681 506.703L669.653 506.47L664.121 483.424Z" fill="#261134"/>
<path d="M720.8 510.2L670.5 514.1L668.6 504.9H720.4L720.8 510.2Z" fill="#261134"/>
<path d="M1424 1066H147V1068H1424V1066Z" fill="#261134"/>
</svg>
