<svg width="1600" height="1200" viewBox="0 0 1600 1200" fill="none" xmlns="http://www.w3.org/2000/svg">
<path d="M1249.45 620.226L1178.66 769.501L1370.49 860.471L1441.28 711.196L1249.45 620.226Z" fill="#261134"/>
<path d="M1298.84 643.62L1228.05 792.895L1403.44 876.067L1474.22 726.792L1298.84 643.62Z" fill="#FEFEFE"/>
<path d="M1403.6 876.7L1403.1 876.5L1227.3 793.1L1227.5 792.6L1298.5 642.8L1299 643L1474.8 726.4L1474.6 726.9L1403.6 876.7ZM1228.6 792.6L1403.1 875.3L1473.5 726.9L1299 644.2L1228.6 792.6Z" fill="#261134"/>
<path d="M1414.1 698.2L1396.4 735.5L1388.4 724.2L1377.2 725.8L1369.8 715.4L1357.6 717L1375.2 679.8L1414.1 698.2Z" fill="#261134"/>
<path d="M1299.92 734.049L1299.07 735.856L1339.55 755.048L1340.4 753.241L1299.92 734.049Z" fill="#261134"/>
<path d="M1292.58 750.005L1291.72 751.813L1332.2 771.009L1333.06 769.202L1292.58 750.005Z" fill="#261134"/>
<path d="M1284.89 765.602L1284.03 767.409L1324.51 786.602L1325.37 784.795L1284.89 765.602Z" fill="#261134"/>
<path d="M1353.9 755.486L1334.53 796.329L1400.05 827.395L1419.41 786.553L1353.9 755.486Z" fill="#FEFEFE"/>
<path d="M1400.2 828L1399.7 827.8L1333.7 796.5L1353.5 754.7L1354 754.9L1420 786.2L1400.2 828ZM1335.1 796L1399.7 826.7L1418.6 786.7L1354 756L1335.1 796Z" fill="#261134"/>
<path d="M337.3 623.9L401.1 755.4C403.7 760.7 401.5 767.1 396.1 769.7L198 865.8C192.7 868.4 186.3 866.2 183.7 860.8L119.9 729.3C117.3 724 119.5 717.6 124.9 715L323 618.9C328.3 616.3 334.7 618.6 337.3 623.9Z" fill="#FEFEFE"/>
<path d="M193.3 867.4C189.1 867.4 185.1 865.1 183.2 861.1L119.4 729.6C118.1 726.9 117.9 723.9 118.9 721C119.9 718.1 121.9 715.9 124.6 714.6L322.7 618.5C325.4 617.2 328.4 617 331.3 618C334.1 619 336.4 621 337.7 623.7L401.5 755.2C404.2 760.8 401.9 767.5 396.3 770.2L198.2 866.3C196.7 867.1 195 867.4 193.3 867.4ZM327.6 618.3C326.1 618.3 324.6 618.6 323.1 619.3L125 715.4C122.5 716.6 120.7 718.7 119.8 721.2C118.9 723.8 119.1 726.6 120.3 729L184.1 860.5C186.6 865.6 192.7 867.7 197.8 865.2L395.9 769.1C401 766.6 403.1 760.5 400.6 755.4L336.8 623.9C335.6 621.4 333.5 619.6 331 618.7C329.9 618.5 328.8 618.3 327.6 618.3Z" fill="#261134"/>
<path d="M345.234 640.282L127.776 745.784L140.129 771.245L357.587 665.743L345.234 640.282Z" fill="#CDCBCC"/>
<path d="M139.9 771.8L127.1 745.5L127.5 745.3L345.4 639.6L358.2 665.9L357.8 666.1L139.9 771.8ZM128.5 746L140.4 770.5L356.9 665.4L345 640.9L128.5 746Z" fill="#261134"/>
<path d="M355.097 660.719L137.639 766.221L151.825 795.462L369.283 689.96L355.097 660.719Z" fill="#261134"/>
<path d="M156.7 774.7C157.9 777.1 160.8 778.1 163.2 777L207 755.7C209.4 754.5 210.4 751.6 209.3 749.2C208.1 746.8 205.2 745.8 202.8 746.9L159 768.2C156.5 769.4 155.5 772.3 156.7 774.7Z" fill="#FEFEFE"/>
<path d="M161.1 777.9C159.1 777.9 157.2 776.8 156.3 774.9C155 772.2 156.1 769 158.8 767.7L202.6 746.4C205.3 745.1 208.5 746.2 209.8 748.9C211.1 751.6 210 754.8 207.3 756.1L163.5 777.4C162.6 777.8 161.8 777.9 161.1 777.9ZM204.9 746.9C204.2 746.9 203.6 747 203 747.3L159.2 768.6C157 769.7 156.1 772.3 157.2 774.4C158.3 776.6 160.9 777.5 163 776.4L206.8 755.1C209 754 209.9 751.4 208.8 749.3C208.3 748.3 207.4 747.5 206.3 747.1C205.8 747 205.4 746.9 204.9 746.9Z" fill="#261134"/>
<path d="M227.4 740.4C228.6 742.8 231.5 743.8 233.9 742.7L277.7 721.4C280.1 720.2 281.1 717.3 280 714.9C278.8 712.5 275.9 711.5 273.5 712.6L229.7 733.9C227.2 735.1 226.2 738 227.4 740.4Z" fill="#FEFEFE"/>
<path d="M231.8 743.6C229.8 743.6 227.9 742.5 227 740.6C225.7 737.9 226.8 734.7 229.5 733.4L273.3 712.1C276 710.8 279.2 711.9 280.5 714.6C281.1 715.9 281.2 717.3 280.7 718.7C280.2 720.1 279.3 721.1 278 721.8L234.2 743.1C233.4 743.5 232.6 743.6 231.8 743.6ZM227.8 740.2C228.9 742.4 231.5 743.3 233.6 742.2L277.4 720.9C278.5 720.4 279.2 719.5 279.6 718.4C280 717.3 279.9 716.1 279.4 715.1C278.3 712.9 275.7 712 273.6 713.1L229.8 734.4C227.7 735.4 226.8 738 227.8 740.2Z" fill="#261134"/>
<path d="M305.361 710.172C307.796 708.991 308.812 706.06 307.631 703.625C306.45 701.19 303.518 700.174 301.084 701.355C298.649 702.537 297.633 705.468 298.814 707.903C299.995 710.337 302.926 711.354 305.361 710.172Z" fill="#FEFEFE"/>
<path d="M303.3 711.1C301.3 711.1 299.4 710 298.5 708.1C297.2 705.4 298.3 702.2 301 700.9C303.7 699.6 306.9 700.7 308.2 703.4C309.5 706.1 308.4 709.3 305.7 710.6C304.9 710.9 304.1 711.1 303.3 711.1ZM303.3 701.3C302.6 701.3 302 701.4 301.4 701.7C299.2 702.8 298.3 705.4 299.4 707.5C300.5 709.7 303.1 710.6 305.2 709.5C307.4 708.4 308.3 705.8 307.2 703.7C306.7 702.6 305.8 701.9 304.7 701.5C304.3 701.4 303.8 701.3 303.3 701.3Z" fill="#261134"/>
<path d="M319.457 703.34C321.892 702.159 322.908 699.228 321.727 696.793C320.545 694.358 317.614 693.342 315.179 694.523C312.745 695.704 311.728 698.636 312.91 701.071C314.091 703.505 317.022 704.521 319.457 703.34Z" fill="#FEFEFE"/>
<path d="M317.4 704.3C315.4 704.3 313.5 703.2 312.6 701.3C311.3 698.6 312.4 695.4 315.1 694.1C316.4 693.5 317.8 693.4 319.2 693.9C320.6 694.4 321.6 695.3 322.3 696.6C323.6 699.3 322.5 702.5 319.8 703.8C319 704.1 318.2 704.3 317.4 704.3ZM317.4 694.5C316.7 694.5 316.1 694.6 315.5 694.9C313.3 696 312.4 698.6 313.5 700.7C314 701.7 314.9 702.5 316 702.9C317.1 703.3 318.3 703.2 319.3 702.7C321.5 701.6 322.4 699 321.3 696.9C320.8 695.9 319.9 695.1 318.8 694.7C318.3 694.6 317.8 694.5 317.4 694.5Z" fill="#261134"/>
<path d="M333.463 696.552C335.898 695.37 336.914 692.439 335.733 690.004C334.551 687.569 331.62 686.553 329.185 687.734C326.75 688.916 325.734 691.847 326.915 694.282C328.097 696.717 331.028 697.733 333.463 696.552Z" fill="#FEFEFE"/>
<path d="M331.4 697.5C330.8 697.5 330.2 697.4 329.6 697.2C328.2 696.7 327.2 695.8 326.5 694.5C325.2 691.8 326.3 688.6 329 687.3C331.7 686 334.9 687.1 336.2 689.8C336.8 691.1 336.9 692.5 336.4 693.9C335.9 695.3 335 696.3 333.7 697C333 697.3 332.2 697.5 331.4 697.5ZM331.4 687.7C330.8 687.7 330.1 687.8 329.5 688.1C327.3 689.2 326.4 691.8 327.5 693.9C328 695 328.9 695.7 330 696.1C331.1 696.5 332.3 696.4 333.3 695.9C334.4 695.4 335.1 694.5 335.5 693.4C335.9 692.3 335.8 691.1 335.3 690.1C334.6 688.6 333 687.7 331.4 687.7Z" fill="#261134"/>
<path d="M347.468 689.763C349.903 688.582 350.919 685.65 349.738 683.216C348.557 680.781 345.626 679.765 343.191 680.946C340.756 682.127 339.74 685.059 340.921 687.493C342.102 689.928 345.034 690.944 347.468 689.763Z" fill="#FEFEFE"/>
<path d="M345.4 690.7C343.4 690.7 341.5 689.6 340.6 687.7C339.3 685 340.4 681.8 343.1 680.5C345.8 679.2 349 680.3 350.3 683C351.6 685.7 350.5 688.9 347.8 690.2C347 690.5 346.2 690.7 345.4 690.7ZM345.4 680.9C344.7 680.9 344.1 681 343.5 681.3C341.3 682.4 340.4 685 341.5 687.1C342.6 689.3 345.2 690.2 347.3 689.1C349.5 688 350.4 685.4 349.3 683.3C348.8 682.2 347.9 681.5 346.8 681.1C346.4 681 345.9 680.9 345.4 680.9Z" fill="#261134"/>
<path d="M330.178 774.704C340.365 769.762 344.616 757.498 339.674 747.312C334.732 737.126 322.468 732.874 312.282 737.816C302.096 742.758 297.844 755.022 302.786 765.208C307.728 775.395 319.992 779.646 330.178 774.704Z" fill="#FEFEFE"/>
<path d="M321.3 777.2C319 777.2 316.7 776.8 314.4 776C309.1 774.2 304.8 770.4 302.4 765.3C300 760.3 299.6 754.6 301.5 749.3C303.3 744 307.1 739.7 312.2 737.3C322.6 732.3 335.2 736.6 340.2 747C342.6 752 343 757.7 341.1 763C339.3 768.3 335.5 772.6 330.4 775C327.6 776.4 324.5 777.2 321.3 777.2ZM321.3 736.2C318.4 736.2 315.4 736.8 312.6 738.2C307.8 740.5 304.2 744.6 302.5 749.6C300.8 754.6 301.1 760.1 303.4 764.9C305.7 769.7 309.8 773.3 314.8 775C319.8 776.7 325.3 776.4 330.1 774.1C334.9 771.8 338.5 767.7 340.2 762.7C341.9 757.7 341.6 752.2 339.3 747.4C335.8 740.4 328.7 736.2 321.3 736.2Z" fill="#261134"/>
<path d="M351.277 764.478C361.463 759.536 365.715 747.272 360.773 737.086C355.831 726.899 343.567 722.648 333.381 727.59C323.194 732.532 318.943 744.796 323.885 754.982C328.827 765.168 341.091 769.42 351.277 764.478Z" fill="#CDCBCC"/>
<path d="M342.4 766.9C340.1 766.9 337.8 766.5 335.5 765.7C330.2 763.9 325.9 760.1 323.5 755C321.1 750 320.7 744.3 322.6 739C324.4 733.7 328.2 729.5 333.3 727C343.7 722 356.3 726.3 361.3 736.7C363.7 741.7 364.1 747.4 362.2 752.7C360.4 758 356.6 762.3 351.5 764.7C348.6 766.2 345.5 766.9 342.4 766.9ZM342.3 726C339.4 726 336.4 726.6 333.6 728C328.8 730.3 325.2 734.4 323.5 739.4C321.8 744.4 322.1 749.9 324.4 754.7C326.7 759.5 330.8 763.1 335.8 764.8C340.8 766.5 346.3 766.2 351.1 763.9C355.9 761.6 359.5 757.5 361.2 752.5C362.9 747.5 362.6 742 360.3 737.2C356.9 730.2 349.8 726 342.3 726Z" fill="#261134"/>
<path d="M193.8 800.7C195 803.1 197.9 804.1 200.3 803L270.4 769C272.8 767.8 273.8 764.9 272.7 762.5C271.5 760.1 268.6 759.1 266.2 760.2L196.1 794.2C193.7 795.4 192.7 798.3 193.8 800.7Z" fill="#FEFEFE"/>
<path d="M198.2 804C197.6 804 197 803.9 196.4 803.7C195 803.2 194 802.3 193.3 801C192 798.3 193.1 795.1 195.8 793.8L265.9 759.8C268.6 758.5 271.8 759.6 273.1 762.3C273.7 763.6 273.8 765 273.3 766.4C272.8 767.8 271.9 768.8 270.6 769.5L200.5 803.5C199.8 803.8 199 804 198.2 804ZM268.4 760.2C267.7 760.2 267.1 760.3 266.5 760.6L196.4 794.6C194.2 795.7 193.3 798.3 194.4 800.4C194.9 801.4 195.8 802.2 196.9 802.6C198 803 199.2 802.9 200.2 802.4L270.3 768.4C271.4 767.9 272.1 767 272.5 765.9C272.9 764.8 272.8 763.6 272.3 762.6C271.8 761.5 270.9 760.8 269.8 760.4C269.3 760.3 268.8 760.2 268.4 760.2Z" fill="#261134"/>
<path d="M200.6 814.7C201.8 817.1 204.7 818.1 207.1 817L277.2 783C279.6 781.8 280.6 778.9 279.5 776.5C278.3 774.1 275.4 773.1 273 774.2L202.9 808.2C200.5 809.4 199.5 812.3 200.6 814.7Z" fill="#FEFEFE"/>
<path d="M205 818C203 818 201.1 816.9 200.2 815C199.6 813.7 199.5 812.3 200 810.9C200.5 809.5 201.4 808.5 202.7 807.8L272.8 773.8C275.5 772.5 278.7 773.6 280 776.3C281.3 779 280.2 782.2 277.5 783.5L207.4 817.5C206.6 817.8 205.8 818 205 818ZM201.1 814.5C202.2 816.7 204.8 817.6 206.9 816.5L277 782.5C279.2 781.4 280.1 778.8 279 776.7C277.9 774.5 275.3 773.6 273.2 774.7L203.1 808.7C202 809.2 201.3 810.1 200.9 811.2C200.5 812.3 200.6 813.5 201.1 814.5Z" fill="#261134"/>
<path d="M207.5 828.8C208.7 831.2 211.6 832.2 214 831.1L284.1 797.1C286.5 795.9 287.5 793 286.4 790.6C285.2 788.2 282.3 787.2 279.9 788.3L209.8 822.3C207.3 823.4 206.3 826.3 207.5 828.8Z" fill="#FEFEFE"/>
<path d="M211.8 832C209.8 832 207.9 830.9 207 829C206.4 827.7 206.3 826.3 206.8 824.9C207.3 823.5 208.2 822.5 209.5 821.8L279.6 787.8C280.9 787.2 282.3 787.1 283.7 787.6C285.1 788.1 286.1 789 286.8 790.3C287.4 791.6 287.5 793 287 794.4C286.5 795.8 285.6 796.8 284.3 797.5L214.2 831.5C213.4 831.8 212.6 832 211.8 832ZM282 788.2C281.3 788.2 280.7 788.3 280.1 788.6L210 822.6C207.8 823.7 206.9 826.3 208 828.4C209.1 830.6 211.7 831.5 213.8 830.4L283.9 796.4C286.1 795.3 287 792.7 285.9 790.6C285.4 789.5 284.5 788.8 283.4 788.4C282.9 788.3 282.4 788.2 282 788.2Z" fill="#261134"/>
<path d="M838.6 247.3C838.6 247.3 836.6 246.4 833.1 245.4L833.7 243.5C837.4 244.6 839.4 245.5 839.5 245.5L838.6 247.3Z" fill="#261134"/>
<path d="M462.7 446.9L462.4 444.9C466.5 444.4 470.5 443.8 474.3 443.2L474.6 445.2C470.8 445.8 466.8 446.4 462.7 446.9ZM486.5 443.1L486.1 441.1C490.1 440.3 494.1 439.5 497.8 438.5L498.3 440.4C494.5 441.4 490.6 442.3 486.5 443.1ZM510 437.4L509.4 435.5C513.3 434.3 517.1 433.1 520.8 431.7L521.5 433.6C517.8 435 513.9 436.2 510 437.4ZM532.7 429L531.9 427.2C535.5 425.6 539.1 423.8 542.6 421.8L543.6 423.6C540 425.5 536.3 427.4 532.7 429ZM553.8 417.3L552.7 415.6C555.9 413.5 559.1 411.3 562.5 408.7L563.7 410.3C560.3 412.9 557 415.2 553.8 417.3ZM573.1 402.8L571.8 401.3C574.9 398.5 577.7 395.7 580.1 392.8L581.6 394.1C579.2 397 576.3 399.9 573.1 402.8ZM624.4 401.5C623.3 401.5 622.1 401.5 620.9 401.4L621 399.4C625.1 399.6 629 399.4 632.9 399L633.1 401C630.3 401.4 627.4 401.5 624.4 401.5ZM608.8 400.2C604.9 399.6 600.9 398.8 596.9 397.7L597.4 395.8C601.4 396.8 605.3 397.7 609.1 398.3L608.8 400.2ZM645.1 398.9L644.6 397C648.5 396 652.2 394.6 655.7 393L656.5 394.8C652.9 396.4 649 397.8 645.1 398.9ZM585.4 394.2C583.2 393.4 581 392.6 578.7 391.7C577.1 391.1 575.6 390.4 574.1 389.6L575 387.8C576.4 388.5 577.9 389.2 579.4 389.8C581.6 390.7 583.8 391.5 586 392.3L585.4 394.2ZM667.1 388.6L665.9 387C669.1 384.7 672.1 382.1 674.9 379.3L676.3 380.7C673.5 383.6 670.4 386.2 667.1 388.6ZM588.7 384.1L587 383.1C589 379.5 590.5 375.9 591.4 372.2L593.3 372.7C592.3 376.6 590.7 380.4 588.7 384.1ZM564.1 382.6C561.8 380.5 559.6 378.1 557.8 375.6C557.2 374.8 556.7 374 556.2 373.2L557.9 372.2C558.4 373 558.9 373.8 559.4 374.5C561.2 376.9 563.2 379.2 565.4 381.2L564.1 382.6ZM684 371.2L682.3 370.1C684.5 366.8 686.5 363.3 688 359.7L689.8 360.5C688.3 364.2 686.3 367.8 684 371.2ZM551.4 361.9C550.6 358.8 550.2 355.8 550.2 352.8C550.2 351.7 550.3 350.6 550.4 349.6L552.4 349.8C552.3 350.8 552.2 351.8 552.2 352.8C552.2 355.6 552.6 358.5 553.3 361.4L551.4 361.9ZM592.6 360.6C592.4 356.7 591.7 352.9 590.4 349.1L592.3 348.4C593.7 352.3 594.4 356.4 594.6 360.5L592.6 360.6ZM694.2 349.2L692.3 348.5C693.8 344.7 695.3 340.9 696.9 337.4L698.7 338.2C697.3 341.7 695.7 345.4 694.2 349.2ZM556 338.9L554.3 337.8C556.2 334.8 560.1 331.9 564.4 330.4L565.1 332.3C561.2 333.7 557.7 336.3 556 338.9ZM585.1 338.7C583.8 336.9 582.7 335.7 582.1 335.2C580.3 333.7 578.3 332.5 576.2 331.9L576.8 330C579.2 330.7 581.4 332 583.4 333.7C584.3 334.4 585.5 335.9 586.7 337.5L585.1 338.7ZM703.8 327.2L702 326.3C703.8 322.6 705.6 319 707.5 315.5L709.3 316.4C707.4 320 705.6 323.6 703.8 327.2ZM715.2 306.2L713.5 305.2C715.6 301.7 717.8 298.3 720.1 295.1L721.7 296.2C719.5 299.3 717.3 302.7 715.2 306.2ZM728.8 286.5L727.2 285.3C729.8 282.1 732.4 279 735.1 276.1L736.6 277.5C734 280.3 731.4 283.3 728.8 286.5ZM745.1 269L743.8 267.5C746.8 264.7 750 262.2 753.2 259.8L754.4 261.4C751.2 263.8 748.1 266.3 745.1 269ZM764.2 254.9L763.2 253.2C766.7 251.1 770.4 249.3 774 247.7L774.8 249.5C771.3 251.1 767.7 252.9 764.2 254.9ZM786.1 245.6L785.6 243.7C789.5 242.6 793.5 241.8 797.5 241.2L797.8 243.2C793.8 243.7 789.9 244.5 786.1 245.6ZM821.4 243C817.6 242.5 813.8 242.2 809.9 242.2H809.5V240.2H809.9C813.8 240.2 817.8 240.5 821.6 241L821.4 243Z" fill="#261134"/>
<path d="M444.5 449L444.3 447C446.3 446.8 448.3 446.6 450.3 446.4L450.5 448.4C448.5 448.6 446.5 448.8 444.5 449Z" fill="#261134"/>
<path d="M761 275.8V228.8L905.2 183.5L761 275.8Z" fill="#261134"/>
<path d="M760.5 276.7V228.4L760.9 228.3L908.7 181.9L760.5 276.7ZM761.5 229.1V274.8L901.8 185L761.5 229.1Z" fill="#261134"/>
<path d="M731.4 202.5L761.9 229.1L901.1 184.6L731.4 202.5Z" fill="#FEFEFE"/>
<path d="M761.8 229.7L761.6 229.5L730.3 202.1L905.9 183.5L761.8 229.7ZM732.6 202.9L762 228.6L896.3 185.6L732.6 202.9Z" fill="#261134"/>
<path d="M771.7 244.8L760.9 275.9L822.1 236.6L810.7 226.9L771.7 244.8Z" fill="#FEFEFE"/>
<path d="M760 277.1L771.3 244.4L810.8 226.2L822.9 236.6L760 277.1ZM772.1 245.2L761.8 274.7L821.2 236.5L810.6 227.4L772.1 245.2Z" fill="#261134"/>
<path d="M815.8 299.5L771.7 244.8L904.1 184.6L815.8 299.5Z" fill="#FEFEFE"/>
<path d="M815.8 300.3L815.4 299.8L770.9 244.6L771.5 244.3L905.7 183.3L815.8 300.3ZM772.5 245L815.8 298.7L902.5 185.9L772.5 245Z" fill="#261134"/>
<path d="M1086 266.4C1086 249.6 1072.3 235.9 1055.5 235.9C1038.7 235.9 1025 249.6 1025 266.4C1025 270.6 1025.8 274.6 1027.4 278.2C1027.9 279.3 1028.4 280.4 1029 281.4L1055.2 334.1L1081.7 281.9C1082.4 280.7 1083.1 279.4 1083.6 278.1C1085.2 274.6 1086 270.6 1086 266.4ZM1055.8 279.3C1049.1 279.3 1043.7 273.9 1043.7 267.2C1043.7 260.5 1049.1 255.1 1055.8 255.1C1062.5 255.1 1067.9 260.5 1067.9 267.2C1067.9 273.9 1062.5 279.3 1055.8 279.3Z" fill="#F27B79"/>
<path d="M1055.2 335.4L1028.6 281.8C1028 280.7 1027.4 279.6 1027 278.5C1025.4 274.7 1024.6 270.6 1024.6 266.5C1024.6 249.4 1038.5 235.5 1055.6 235.5C1072.7 235.5 1086.6 249.4 1086.6 266.5C1086.6 270.7 1085.8 274.7 1084.2 278.5C1083.7 279.8 1083 281.1 1082.3 282.3L1055.2 335.4ZM1055.5 236.4C1039 236.4 1025.5 249.9 1025.5 266.4C1025.5 270.4 1026.3 274.4 1027.8 278.1C1028.2 279.2 1028.8 280.2 1029.4 281.3L1055.2 333.2L1081.3 281.9C1082 280.7 1082.7 279.4 1083.2 278.2C1084.8 274.5 1085.5 270.6 1085.5 266.5C1085.5 249.9 1072 236.4 1055.5 236.4ZM1055.8 279.8C1048.8 279.8 1043.2 274.1 1043.2 267.2C1043.2 260.3 1048.9 254.6 1055.8 254.6C1062.7 254.6 1068.4 260.3 1068.4 267.2C1068.4 274.1 1062.8 279.8 1055.8 279.8ZM1055.8 255.5C1049.4 255.5 1044.2 260.7 1044.2 267.1C1044.2 273.5 1049.4 278.7 1055.8 278.7C1062.2 278.7 1067.4 273.5 1067.4 267.1C1067.4 260.7 1062.2 255.5 1055.8 255.5Z" fill="#261134"/>
<path d="M448.7 977.1H1151.2C1159.1 977.1 1165.5 970.7 1165.5 962.8V523C1165.5 515.1 1159.1 508.7 1151.2 508.7H448.7C440.8 508.7 434.4 515.1 434.4 523V962.8C434.4 970.7 440.8 977.1 448.7 977.1Z" fill="#261134"/>
<path d="M1113.8 522.5H452.5V953.9H1113.8V522.5Z" fill="#31B8ED"/>
<path d="M1114.3 954.4H452V522H1114.3V954.4ZM453 953.4H1113.3V523H453V953.4Z" fill="#261134"/>
<path d="M1142.4 728.2C1151.4 728.2 1158.7 720.902 1158.7 711.9C1158.7 702.898 1151.4 695.6 1142.4 695.6C1133.4 695.6 1126.1 702.898 1126.1 711.9C1126.1 720.902 1133.4 728.2 1142.4 728.2Z" fill="#FEFEFE"/>
<path d="M1142.4 728.6C1133.2 728.6 1125.6 721.1 1125.6 711.8C1125.6 702.6 1133.1 695 1142.4 695C1151.7 695 1159.2 702.5 1159.2 711.8C1159.2 721.1 1151.6 728.6 1142.4 728.6ZM1142.4 696.1C1133.7 696.1 1126.6 703.2 1126.6 711.9C1126.6 720.6 1133.7 727.7 1142.4 727.7C1151.1 727.7 1158.2 720.6 1158.2 711.9C1158.2 703.2 1151.1 696.1 1142.4 696.1Z" fill="black"/>
<path d="M404.9 530.6C404.8 561.7 379.5 586.9 348.4 586.9C317.3 586.9 292 561.7 291.9 530.6H404.9Z" fill="#CDCBCC"/>
<path d="M348.4 587.4C317.1 587.4 291.5 561.9 291.4 530.6V530.1H405.5V530.6C405.3 561.9 379.7 587.4 348.4 587.4ZM292.3 531.1C292.7 561.6 317.7 586.4 348.3 586.4C378.9 586.4 403.9 561.6 404.3 531.1H292.3Z" fill="#261134"/>
<path d="M518 530.6C517.9 561.7 492.6 586.9 461.5 586.9C430.4 586.9 405.1 561.7 405 530.6H518Z" fill="#CDCBCC"/>
<path d="M461.4 587.4C430.1 587.4 404.5 561.9 404.4 530.6V530.1H518.5V530.6C518.3 561.9 492.8 587.4 461.4 587.4ZM405.4 531.1C405.8 561.6 430.8 586.4 461.4 586.4C492 586.4 517 561.6 517.4 531.1H405.4Z" fill="#261134"/>
<path d="M631 530.6C630.9 561.7 605.6 586.9 574.5 586.9C543.4 586.9 518.1 561.7 518 530.6H631Z" fill="#CDCBCC"/>
<path d="M574.5 587.4C543.2 587.4 517.6 561.9 517.5 530.6V530.1H631.6V530.6C631.4 561.9 605.8 587.4 574.5 587.4ZM518.5 531.1C518.9 561.6 543.9 586.4 574.5 586.4C605.1 586.4 630.1 561.6 630.5 531.1H518.5Z" fill="#261134"/>
<path d="M744.1 530.6C744 561.7 718.7 586.9 687.6 586.9C656.5 586.9 631.2 561.7 631.1 530.6H744.1Z" fill="#CDCBCC"/>
<path d="M687.6 587.4C656.3 587.4 630.7 561.9 630.6 530.6V530.1H744.7V530.6C744.5 561.9 718.9 587.4 687.6 587.4ZM631.6 531.1C632 561.6 657 586.4 687.6 586.4C718.2 586.4 743.2 561.6 743.6 531.1H631.6Z" fill="#261134"/>
<path d="M857.2 530.6C857.1 561.7 831.8 586.9 800.7 586.9C769.6 586.9 744.3 561.7 744.2 530.6H857.2Z" fill="#CDCBCC"/>
<path d="M800.7 587.4C769.4 587.4 743.8 561.9 743.7 530.6V530.1H857.8V530.6C857.6 561.9 832 587.4 800.7 587.4ZM744.6 531.1C745 561.6 770 586.4 800.6 586.4C831.2 586.4 856.2 561.6 856.6 531.1H744.6Z" fill="#261134"/>
<path d="M292.1 530.8L442.2 444.7H517.7L405.1 530.8H292.1Z" fill="#FEFEFE"/>
<path d="M405.3 531.3H290.2L442.1 444.2H519.2L405.3 531.3ZM293.9 530.3H404.9L516.2 445.2H442.3L293.9 530.3Z" fill="#261134"/>
<path d="M600.1 444.7L517.7 530.3H404.7L517.7 444.7H600.1Z" fill="#F27B79"/>
<path d="M518 530.8H403.2L517.6 444.2H601.3L518 530.8ZM406.2 529.8H517.6L599 445.2H517.9L406.2 529.8Z" fill="#261134"/>
<path d="M630.8 530.3L682.1 444.7H600.1L517.7 530.3H630.8Z" fill="#FEFEFE"/>
<path d="M631.1 530.8H516.6L600 444.2H683L631.1 530.8ZM518.9 529.8H630.5L681.2 445.2H600.3L518.9 529.8Z" fill="#261134"/>
<path d="M744.1 530.6L759.7 444.5H681.4L631 530.6H744.1Z" fill="#F27B79"/>
<path d="M744.5 531.1H630.2L681.1 444H760.3L744.5 531.1ZM631.9 530.1H743.7L759.1 445H681.7L631.9 530.1Z" fill="#261134"/>
<path d="M1196.4 530.6C1196.5 561.7 1221.8 586.9 1252.9 586.9C1284 586.9 1309.3 561.7 1309.4 530.6H1196.4Z" fill="#CDCBCC"/>
<path d="M1253 587.4C1221.7 587.4 1196.1 561.9 1196 530.6V530.1H1310V530.6C1309.9 561.9 1284.3 587.4 1253 587.4ZM1196.9 531.1C1197.3 561.6 1222.3 586.4 1252.9 586.4C1283.5 586.4 1308.5 561.6 1308.9 531.1H1196.9Z" fill="#261134"/>
<path d="M1083.3 530.6C1083.4 561.7 1108.7 586.9 1139.8 586.9C1170.9 586.9 1196.2 561.7 1196.3 530.6H1083.3Z" fill="#CDCBCC"/>
<path d="M1139.9 587.4C1108.6 587.4 1083 561.9 1082.9 530.6V530.1H1197V530.6C1196.8 561.9 1171.2 587.4 1139.9 587.4ZM1083.9 531.1C1084.3 561.6 1109.3 586.4 1139.9 586.4C1170.5 586.4 1195.5 561.6 1195.9 531.1H1083.9Z" fill="#261134"/>
<path d="M970.3 530.6C970.4 561.7 995.7 586.9 1026.8 586.9C1057.9 586.9 1083.2 561.7 1083.3 530.6H970.3Z" fill="#CDCBCC"/>
<path d="M1026.8 587.4C995.5 587.4 969.9 561.9 969.8 530.6V530.1H1083.9V530.6C1083.7 561.9 1058.1 587.4 1026.8 587.4ZM970.8 531.1C971.2 561.6 996.2 586.4 1026.8 586.4C1057.4 586.4 1082.4 561.6 1082.8 531.1H970.8Z" fill="#261134"/>
<path d="M857.2 530.6C857.3 561.7 882.6 586.9 913.7 586.9C944.8 586.9 970.1 561.7 970.2 530.6H857.2Z" fill="#CDCBCC"/>
<path d="M913.7 587.4C882.4 587.4 856.8 561.9 856.7 530.6V530.1H970.8V530.6C970.6 561.9 945.1 587.4 913.7 587.4ZM857.7 531.1C858.1 561.6 883.1 586.4 913.7 586.4C944.3 586.4 969.3 561.6 969.7 531.1H857.7Z" fill="#261134"/>
<path d="M1309.3 530.8L1159.1 444.7H1083.6L1196.2 530.8H1309.3Z" fill="#FEFEFE"/>
<path d="M1311.1 531.3H1196L1195.9 531.2L1082.1 444.2H1159.2L1159.3 444.3L1311.1 531.3ZM1196.4 530.3H1307.4L1159 445.2H1085.1L1196.4 530.3Z" fill="#261134"/>
<path d="M1001.2 444.7L1083.6 530.3H1196.7L1083.6 444.7H1001.2Z" fill="#F27B79"/>
<path d="M1198.1 530.8H1083.3L999.9 444.2H1083.6L1083.7 444.3L1198.1 530.8ZM1083.8 529.8H1195.2L1083.4 445.2H1002.3L1083.8 529.8Z" fill="#261134"/>
<path d="M970.5 530.3L919.2 444.7H1001.2L1083.6 530.3H970.5Z" fill="#FEFEFE"/>
<path d="M1084.8 530.8H970.2L970.1 530.6L918.4 444.2H1001.4L1084.8 530.8ZM970.8 529.8H1082.4L1001 445.2H920.1L970.8 529.8Z" fill="#261134"/>
<path d="M857.2 530.6L840.7 444.5H919.5L970.3 530.6H857.2Z" fill="#F27B79"/>
<path d="M971.1 531.1H856.8L840.1 444H919.7L919.8 444.2L971.1 531.1ZM857.6 530.1H969.4L919.2 445H841.3L857.6 530.1Z" fill="#261134"/>
<path d="M857.2 530.6L840.7 444.5H759.7L744.1 530.6H857.2Z" fill="#FEFEFE"/>
<path d="M857.8 531.1H743.5L759.2 444H841.1L857.8 531.1ZM744.7 530.1H856.6L840.3 445H760.1L744.7 530.1Z" fill="#261134"/>
<path d="M1053.1 652.1H904.8V815H1053.1V652.1Z" fill="#FEFEFE"/>
<path d="M1053.6 815.5H904.3V651.6H1053.6V815.5ZM905.3 814.5H1052.6V652.6H905.3V814.5Z" fill="#261134"/>
<path d="M962.2 693.5C965.1 694.8 977.1 699.4 993.7 693.4C994 693.3 994.4 693.5 994.4 693.9V717.9C994.4 718.2 994.2 718.4 993.9 718.4H962.2C961.9 718.4 961.7 718.2 961.7 717.9L961.6 694C961.5 693.6 961.9 693.4 962.2 693.5Z" fill="#261134"/>
<path d="M993.9 718.9H962.2C961.7 718.9 961.2 718.5 961.2 717.9L961 694C961 693.7 961.2 693.3 961.5 693.2C961.8 693 962.1 693 962.4 693.1C965.6 694.6 977.3 698.8 993.5 693C993.8 692.9 994.1 692.9 994.4 693.1C994.7 693.3 994.8 693.6 994.8 693.9V717.9C994.9 718.5 994.4 718.9 993.9 718.9ZM962 694L962.1 717.9H993.8V693.9C977.3 699.9 965.3 695.5 962 694ZM962.2 693.5L962 694L962.2 693.5Z" fill="#261134"/>
<path d="M998.2 752.7C998.2 752.7 1004.5 759.8 1009.9 778.4H946C951.4 759.8 957.7 752.7 957.7 752.7V752.6L957.3 749.5L954.2 725.8L947.8 738.7L928.7 730L939.8 707.8C948.2 689.5 962.2 693.3 962.2 693.3C964.4 707 970 711.1 974.4 712.1C975.2 712.3 976.1 712.4 976.9 712.4H979.1C980 712.4 980.8 712.3 981.6 712.1C985.9 711 991.6 706.9 993.8 693.3C993.8 693.3 1007.8 689.5 1016.2 707.8L1027.3 730L1008.2 738.7L1001.8 725.8L998.7 749.5L998.3 752.5L998.2 752.7Z" fill="#31B8ED"/>
<path d="M1010.5 778.9H945.4L945.6 778.3C950.5 761.1 956.2 753.8 957.2 752.6L953.9 727.6L948 739.5L927.9 730.4L939.2 707.8C947.7 689.3 962 693 962.2 693L962.5 693.1L962.6 693.4C964.7 706.8 970.2 710.8 974.4 711.8C975.1 712 975.9 712.1 976.8 712.1H979C979.9 712.1 980.7 712 981.4 711.8C985.6 710.8 991.1 706.7 993.2 693.4L993.3 693.1L993.6 693C993.7 693 1008.1 689.3 1016.6 707.8L1027.9 730.4L1007.8 739.5L1001.9 727.6L998.6 752.6C999.6 753.8 1005.3 761.1 1010.2 778.3L1010.5 778.9ZM946.7 777.9H1009.2C1004 760.1 997.9 753.1 997.8 753L997.7 752.8V752.4L1001.4 724.1L1008.3 738.1L1026.5 729.8L1015.6 708.1C1008.1 691.7 996.2 693.3 994.1 693.8C991.9 707.4 986.1 711.6 981.6 712.7C980.8 712.9 979.9 713 979 713H976.8C975.8 713 975 712.9 974.2 712.7C969.7 711.6 963.9 707.4 961.7 693.8C959.6 693.4 947.7 691.7 940.2 708.1L929.3 729.8L947.5 738.1L954.4 724.1L958.2 752.7L958.1 753C958 753.1 951.9 760.1 946.7 777.9Z" fill="#261134"/>
<path d="M998.6 749.5L998.2 752.5H970.8C970.6 754.5 970.2 757.8 970.1 759.3C970.1 759.6 970 759.8 969.8 759.9C969.6 760.1 969.4 760.2 969.1 760.2C968.6 760.2 968.1 759.8 968.1 759.2C968 756.6 968.2 752.9 968.2 752.9C966.6 755.5 965.7 762.6 965.4 765.1C965.4 765.4 965.3 765.6 965.1 765.7C964.9 765.9 964.7 766 964.4 766C963.9 766 963.4 765.6 963.4 765.1C962.8 756.5 965.3 752.6 965.3 752.6H957.6L957.2 749.5H998.6Z" fill="white"/>
<path d="M964.4 766.5C963.6 766.5 962.9 765.9 962.9 765.1C962.5 758.5 963.8 754.6 964.5 753.1H957.2L956.7 749H999.1L998.6 753H971.2C970.9 755.1 970.6 758.1 970.5 759.4C970.5 759.8 970.3 760.1 970 760.4C969.7 760.6 969.4 760.8 969 760.8C968.2 760.8 967.5 760.2 967.5 759.3C967.5 758.2 967.5 756.9 967.5 755.7C966.5 758.9 966 763.5 965.8 765.2C965.8 765.6 965.6 765.9 965.3 766.2C965.2 766.4 964.8 766.5 964.4 766.5ZM958.1 752.1H966.2L965.7 752.9C965.7 752.9 963.3 756.8 963.9 765.1C963.9 765.5 964.5 765.7 964.7 765.4C964.8 765.3 964.9 765.2 964.9 765.1C965.2 762.3 966.1 755.3 967.7 752.7L968.7 751.1L968.6 753C968.6 753 968.4 756.7 968.5 759.3C968.5 759.6 968.7 759.8 969 759.8C969.2 759.8 969.3 759.7 969.3 759.7C969.4 759.6 969.4 759.5 969.5 759.4C969.6 758 970 754.6 970.3 752.6L970.4 752.2H997.8L998.1 750.2H957.9L958.1 752.1Z" fill="#261134"/>
<path d="M857.6 601.2H709.3V844.3H857.6V601.2Z" fill="#FEFEFE"/>
<path d="M858.2 844.8H708.8V600.7H858.1V844.8H858.2ZM709.8 843.8H857.1V601.7H709.8V843.8Z" fill="#261134"/>
<path d="M837.9 865.2H709.3V871.2H837.9V865.2Z" fill="#FEFEFE"/>
<path d="M838.5 871.7H708.8V864.7H838.4V871.7H838.5ZM709.8 870.7H837.4V865.7H709.8V870.7Z" fill="#261134"/>
<path d="M837.9 878.9H709.3V884.9H837.9V878.9Z" fill="#FEFEFE"/>
<path d="M838.5 885.4H708.8V878.4H838.4V885.4H838.5ZM709.8 884.4H837.4V879.4H709.8V884.4Z" fill="#261134"/>
<path d="M765.6 628.4C768 629.5 782.5 635.1 799.7 628.4C799.9 628.3 800.1 628.5 800.1 628.6V654.8H765.3V628.6C765.2 628.5 765.4 628.4 765.6 628.4Z" fill="#261134"/>
<path d="M800.5 655.4H764.7V628.7C764.7 628.4 764.8 628.2 765 628.1C765.2 628 765.5 627.9 765.7 628C768.4 629.2 782.5 634.6 799.4 628C799.6 627.9 799.9 627.9 800.1 628.1C800.3 628.2 800.4 628.5 800.4 628.7V655.4H800.5ZM765.7 654.4H799.5V629C783 635.3 769.1 630.4 765.7 629V654.4Z" fill="#261134"/>
<path d="M805 693.7C805 693.7 826.3 717.5 826.1 791.8H739.4C739.2 717.5 760.5 693.7 760.5 693.7V693.6L760.1 690.2L756.7 664.1L749.7 678.3L728.6 668.7L740.8 644.3C750 624.2 765.5 628.3 765.5 628.3C767.9 643.3 774.1 647.9 778.9 649C779.8 649.2 780.7 649.3 781.7 649.3H784.1C785 649.3 786 649.2 786.9 649C791.7 647.8 797.9 643.3 800.3 628.3C800.3 628.3 815.7 624.1 825 644.3L837.2 668.7L816.1 678.3L809.1 664.1L805.7 690.2L805.3 693.5L805 693.7Z" fill="#F27B79"/>
<path d="M826.5 792.3H738.8V791.8C738.6 721.5 757.9 695.9 759.8 693.5L756.2 665.8L749.7 679L727.7 669L740.1 644.1C749.4 623.8 765.2 627.8 765.3 627.9L765.6 628L765.7 628.3C768 643 774.1 647.5 778.7 648.6C779.5 648.8 780.4 648.9 781.4 648.9H783.8C784.7 648.9 785.6 648.8 786.5 648.6C791.2 647.5 797.2 643 799.5 628.3L799.6 628L799.9 627.9C800.1 627.9 815.8 623.9 825.2 644.2L837.6 669L815.6 679L809.1 665.8L805.5 693.5C807.4 695.9 826.7 721.4 826.5 791.8V792.3ZM739.9 791.3H825.6C825.7 718.5 804.9 694.2 804.7 694L804.5 693.8L805 690.1L808.6 662.4L816.1 677.7L836.3 668.5L824.3 644.6C816 626.6 802.7 628.4 800.5 628.8C798 643.8 791.7 648.4 786.8 649.6C785.9 649.8 784.9 649.9 783.9 649.9H781.5C780.5 649.9 779.5 649.8 778.6 649.6C773.7 648.4 767.3 643.8 764.9 628.8C762.7 628.3 749.5 626.4 741.1 644.6L729.1 668.5L749.3 677.7L756.8 662.4L760.9 693.7L760.8 694C760.6 694.2 739.8 718.5 739.9 791.3Z" fill="#261134"/>
<path d="M805.4 690.2L805 693.5H774.9C774.6 695.7 774.3 699.3 774.1 701C774.1 701.3 773.9 701.5 773.7 701.7C773.5 701.9 773.2 702 773 702C772.4 702 771.9 701.5 771.9 700.9C771.8 698 772 693.9 772 693.9C770.2 696.8 769.2 704.5 769 707.3C769 707.6 768.8 707.8 768.6 708C768.4 708.2 768.1 708.3 767.9 708.3C767.3 708.3 766.8 707.9 766.8 707.3C766.2 697.9 768.9 693.5 768.9 693.5H760.5L760.1 690.1H805.4V690.2Z" fill="#FEFEFE"/>
<path d="M767.9 708.9C767.1 708.9 766.4 708.2 766.3 707.4C765.8 700 767.3 695.8 768.1 694.1H760.1L759.5 689.7H806L805.4 694H775.3C775 696.3 774.7 699.7 774.5 701.1C774.5 701.5 774.3 701.9 774 702.1C773.7 702.4 773.3 702.5 772.9 702.5C772 702.5 771.3 701.8 771.3 700.9C771.3 699.6 771.3 697.9 771.3 696.6C770.2 700.2 769.6 705.5 769.4 707.4C769.4 707.8 769.2 708.2 768.9 708.4C768.6 708.7 768.3 708.9 767.9 708.9ZM760.9 693.1H769.8L769.3 693.9C769.3 693.9 766.6 698.2 767.3 707.4C767.3 707.9 768 708.1 768.3 707.8C768.4 707.7 768.5 707.6 768.5 707.4C768.8 704.3 769.8 696.7 771.6 693.8L772.6 692.2L772.5 694.1C772.5 694.1 772.3 698.2 772.4 701C772.4 701.5 773 701.7 773.4 701.4C773.5 701.3 773.6 701.2 773.6 701C773.8 699.5 774.1 695.7 774.4 693.5L774.5 693.1H804.6L804.9 690.8H760.6L760.9 693.1Z" fill="#261134"/>
<path d="M789 802.7H740V807.4H789V802.7Z" fill="#31B8ED"/>
<path d="M789.5 807.9H739.5V802.2H789.5V807.9ZM740.5 806.9H788.5V803.2H740.5V806.9Z" fill="#261134"/>
<path d="M828 812.7H740V817.4H828V812.7Z" fill="#31B8ED"/>
<path d="M828.5 817.9H739.5V812.2H828.5V817.9ZM740.5 816.9H827.5V813.2H740.5V816.9Z" fill="#261134"/>
<path d="M745.4 824.9L747.2 828.5L751.2 829.1L748.3 832L749 836L745.4 834.1L741.8 836L742.5 832L739.5 829.1L743.6 828.5L745.4 824.9Z" fill="#FAD338"/>
<path d="M741.1 836.9L741.9 832.1L738.4 828.7L743.2 828L745.3 823.7L747.4 828L752.2 828.7L748.7 832.1L749.5 836.9L745.2 834.7L741.1 836.9ZM745.4 833.5L748.3 835L747.7 831.7L750.1 829.4L746.8 828.9L745.3 825.9L743.8 828.9L740.5 829.4L742.9 831.7L742.3 835L745.4 833.5Z" fill="#261134"/>
<path d="M764.1 824.9L765.9 828.5L769.9 829.1L767 832L767.7 836L764.1 834.1L760.5 836L761.2 832L758.2 829.1L762.3 828.5L764.1 824.9Z" fill="#FAD338"/>
<path d="M768.4 836.9L764.1 834.7L759.8 836.9L760.6 832.1L757.1 828.7L761.9 828L764 823.7L766.1 828L770.9 828.7L767.4 832.1L768.4 836.9ZM764.1 833.5L767 835L766.4 831.7L768.8 829.4L765.5 828.9L764 825.9L762.5 828.9L759.2 829.4L761.6 831.7L761 835L764.1 833.5Z" fill="#261134"/>
<path d="M783.5 824.9L785.3 828.5L789.4 829.1L786.5 832L787.1 836L783.5 834.1L779.9 836L780.6 832L777.7 829.1L781.7 828.5L783.5 824.9Z" fill="#FAD338"/>
<path d="M779.3 836.9L780.1 832.1L776.6 828.7L781.4 828L783.5 823.7L785.6 828L790.4 828.7L786.9 832.1L787.7 836.9L783.4 834.7L779.3 836.9ZM783.5 833.5L786.4 835L785.8 831.7L788.2 829.4L784.9 828.9L783.4 825.9L781.9 828.9L778.6 829.4L781 831.7L780.4 835L783.5 833.5Z" fill="#261134"/>
<path d="M803 824.9L804.8 828.5L808.8 829.1L805.9 832L806.6 836L803 834.1L799.4 836L800.1 832L797.1 829.1L801.2 828.5L803 824.9Z" fill="#FAD338"/>
<path d="M807.3 836.9L803 834.7L798.7 836.9L799.5 832.1L796 828.7L800.8 828L802.9 823.7L805 828L809.8 828.7L806.3 832.1L807.3 836.9ZM803 833.5L805.9 835L805.3 831.7L807.7 829.4L804.4 828.9L802.9 825.9L801.4 828.9L798.1 829.4L800.5 831.7L799.9 835L803 833.5Z" fill="#261134"/>
<path d="M822.2 824.9L824 828.5L828 829.1L825.1 832L825.8 836L822.2 834.1L818.6 836L819.3 832L816.3 829.1L820.4 828.5L822.2 824.9Z" fill="#FAD338"/>
<path d="M826.5 836.9L822.2 834.7L817.9 836.9L818.7 832.1L815.2 828.7L820 828L822.1 823.7L824.2 828L829 828.7L825.5 832.1L826.5 836.9ZM822.2 833.5L825.1 835L824.5 831.7L826.9 829.4L823.6 828.9L822.1 825.9L820.6 828.9L817.3 829.4L819.7 831.7L819.1 835L822.2 833.5Z" fill="#261134"/>
<path d="M661.9 652H513.6V814.9H661.9V652Z" fill="#FEFEFE"/>
<path d="M662.4 815.4H513.1V651.5H662.4V815.4ZM514.1 814.4H661.4V652.5H514.1V814.4Z" fill="#261134"/>
<path d="M618.8 694.7H612.5V694.6H554.8L527.6 707.9L535.4 730L554.7 722.2L579.6 721.9L618.9 722.3L638.2 730.2L646 708.1L618.8 694.7Z" fill="#261134"/>
<path d="M638.5 730.8L618.8 722.8L579.6 722.4L554.8 722.7L535.1 730.7L526.9 707.7L554.7 694.1H613V694.2H618.8L646.6 707.8L638.5 730.8ZM579.6 721.4L619 721.8L637.9 729.5L645.4 708.3L618.6 695.2H612V695.1H555L528.2 708.2L535.7 729.4L554.7 721.7L579.6 721.4Z" fill="#261134"/>
<path d="M618.8 694.6V780H554.7V694.6H568.1C568.9 704.2 576.9 711.7 586.7 711.7C596.5 711.7 604.5 704.2 605.3 694.6H618.8Z" fill="#31B8ED"/>
<path d="M619.3 780.5H554.2V694.1H568.6V694.6C569.4 703.9 577.4 711.2 586.7 711.2C596 711.2 604 703.9 604.8 694.6V694.1H619.2V780.5H619.3ZM555.2 779.5H618.3V695.1H605.8C604.7 704.7 596.4 712.2 586.7 712.2C577 712.2 568.7 704.7 567.6 695.1H555.1V779.5H555.2Z" fill="#261134"/>
<path d="M609.6 694.6C609.1 706.7 599.1 716.4 586.8 716.4C574.5 716.4 564.5 706.7 564 694.6H568.2C569 704.2 577 711.7 586.8 711.7C596.6 711.7 604.6 704.2 605.4 694.6H609.6Z" fill="white"/>
<path d="M586.8 716.9C574.3 716.9 564.1 707.1 563.5 694.6V694.1H568.7V694.6C569.5 703.9 577.5 711.2 586.8 711.2C596.1 711.2 604.1 703.9 604.9 694.6V694.1H610.1V694.6C609.5 707.1 599.3 716.9 586.8 716.9ZM564.5 695.1C565.3 706.8 575 715.9 586.8 715.9C598.6 715.9 608.3 706.8 609.1 695.1H605.9C604.8 704.7 596.5 712.2 586.8 712.2C577.1 712.2 568.8 704.7 567.7 695.1H564.5Z" fill="#261134"/>
<path d="M618.8 749.3H554.7V755.8H618.8V749.3Z" fill="white"/>
<path d="M619.3 756.3H554.2V748.8H619.3V756.3ZM555.2 755.3H618.3V749.8H555.2V755.3Z" fill="#261134"/>
<path d="M618.8 763.2H554.7V769.7H618.8V763.2Z" fill="white"/>
<path d="M619.3 770.3H554.2V762.8H619.3V770.3ZM555.2 769.3H618.3V763.8H555.2V769.3Z" fill="#261134"/>
<path d="M858 906.2H709V938.7H858V906.2Z" fill="#F27B79"/>
<path d="M858.5 939.2H708.5V905.7H858.5V939.2ZM709.5 938.2H857.5V906.7H709.5V938.2Z" fill="#261134"/>
<path d="M770.8 923.8C771.4 924.6 771.7 925.6 771.7 926.9C771.7 928.6 771.1 929.9 769.8 930.8C768.5 931.7 766.6 932.2 764.2 932.2H754.6V912.9H763.7C766 912.9 767.7 913.3 769 914.2C770.3 915.1 770.9 916.3 770.9 917.9C770.9 918.9 770.7 919.7 770.2 920.4C769.8 921.1 769.1 921.7 768.4 922.1C769.4 922.4 770.2 923 770.8 923.8ZM758.2 915.6V920.9H763.3C764.6 920.9 765.5 920.7 766.2 920.2C766.9 919.7 767.2 919.1 767.2 918.2C767.2 917.3 766.9 916.6 766.2 916.2C765.5 915.7 764.6 915.5 763.3 915.5H758.2V915.6ZM768.2 926.5C768.2 924.6 766.8 923.7 764 923.7H758.2V929.3H764C766.8 929.3 768.2 928.3 768.2 926.5Z" fill="#FEFEFE"/>
<path d="M777.7 930.1C776.2 928.6 775.5 926.4 775.5 923.6V912.7H779.1V923.5C779.1 927.3 780.7 929.2 784 929.2C787.3 929.2 788.9 927.3 788.9 923.5V912.7H792.4V923.6C792.4 926.4 791.7 928.6 790.2 930.1C788.7 931.6 786.6 932.4 784 932.4C781.3 932.4 779.2 931.6 777.7 930.1Z" fill="#FEFEFE"/>
<path d="M805.5 925.3V932.1H801.9V925.3L794.3 912.7H798.1L803.8 922.1L809.5 912.7H813L805.5 925.3Z" fill="#FEFEFE"/>
<path d="M434.4 856.9C434.4 856.9 452.9 851 462.6 813C462.6 813 464.4 756.2 508.8 762.2C508.8 762.2 515.2 954.9 471.7 985.1L484.1 1056.1C484.1 1056.1 416.3 1074.9 370.1 1049.2C370.1 1049.2 349 890.8 362.3 829.5C362.3 829.5 371.5 806.7 434.4 761.8V856.9Z" fill="#FAD338"/>
<path d="M431 1063.2C411 1063.2 388.6 1060.1 369.8 1049.7L369.6 1049.6V1049.3C369.4 1047.7 348.7 890.1 361.8 829.4C361.9 829.1 371.8 805.8 434.1 761.4L434.9 760.8V856.2C438.2 854.7 453.6 846.2 462.1 813C462.2 811.5 463.6 783.2 480.1 769.2C487.7 762.7 497.4 760.2 508.9 761.8L509.3 761.9V762.3C509.3 762.8 510.9 811.1 507.1 862.5C502 931.3 490.3 972.7 472.3 985.5L484.7 1056.6L484.3 1056.7C483.8 1056.7 460 1063.2 431 1063.2ZM370.6 1048.9C414.2 1072.9 477.7 1057.3 483.6 1055.7L471.3 984.9L471.6 984.7C513.4 955.7 508.8 772.8 508.5 762.6C497.5 761.2 488.2 763.7 480.9 769.8C464.4 783.8 463.2 812.7 463.2 813V813.1C453.6 850.9 435.5 857.1 434.7 857.3L434 857.5V762.7C372.7 806.6 363 829.4 362.9 829.6C349.9 889 369.6 1041.8 370.6 1048.9Z" fill="#261134"/>
<path d="M922.2 867.4C922.2 867.4 881.9 800.1 832 822.1C832 822.1 892 905.4 898.8 923.7C905.7 942 925.4 983.7 978.9 1017.5L1005 1096.7C1005 1096.7 1110.8 1132 1154.7 1083L1121.3 992.4C1121.3 992.4 1114.9 819.4 1090.2 805.6C1065.5 791.9 1057.2 811.1 1057.2 811.1C1057.2 811.1 1050.3 763.9 1010.5 788.2C1010.5 788.2 998.1 751.1 952.8 777.2L896.4 649.5C890.1 633.8 873.1 625.5 857.1 629.8C854 630.6 851.2 632.6 849.5 635.3C847.4 638.7 845.7 644.2 848.4 651.9L922.2 867.4Z" fill="#FAD338"/>
<path d="M1080.8 1109.5C1074.8 1109.5 1068.9 1109.2 1063.4 1108.7C1031.8 1106 1005.2 1097.3 1004.9 1097.2L1004.7 1097.1L978.6 1017.8C927.3 985.3 906.4 945 898.4 923.8C891.6 905.8 832.2 823.1 831.6 822.3L831.2 821.8L831.8 821.6C852.4 812.5 874.6 817.5 896.1 836.1C907.9 846.3 916.5 858 920.4 863.7L848 652.2C845.2 644.1 847.1 638.5 849.2 635.1C850.9 632.3 853.8 630.2 857.1 629.3C873.5 624.9 890.7 633.5 897 649.3L953.2 776.4C968.8 767.5 982.2 765.1 993.1 769.3C1004.9 773.8 1009.9 784.8 1010.9 787.4C1022.4 780.5 1032.3 778.9 1040.4 782.7C1052.4 788.3 1056.6 804.6 1057.6 809.5C1058.9 807.3 1062 803.1 1067.8 801.1C1074.2 798.9 1081.9 800.2 1090.6 805.1C1115.2 818.8 1121.7 984.1 1122 992.2L1155.5 1083.1L1155.3 1083.3C1136.6 1104 1106.9 1109.5 1080.8 1109.5ZM1005.5 1096.3C1008.2 1097.2 1033.6 1105.2 1063.5 1107.7C1092.4 1110.1 1131.6 1107.8 1154.2 1082.9L1120.9 992.5V992.4C1120.8 990.7 1114.2 819.5 1090 806C1081.5 801.3 1074.1 800 1068 802.1C1060.7 804.6 1057.8 811.2 1057.7 811.3L1057 812.9L1056.7 811.2C1056.7 811 1053.5 790.1 1039.8 783.7C1032 780 1022.2 781.7 1010.8 788.7L1010.3 789L1010.1 788.4C1010.1 788.3 1005.6 775.2 992.6 770.3C981.9 766.2 968.6 768.7 953.1 777.7L952.6 778L952.4 777.5L896 649.7C889.9 634.3 873.2 626 857.3 630.3C854.2 631.1 851.6 633 850 635.6C848.1 638.7 846.3 644.1 848.9 651.8L924.2 871.7L921.8 867.6C921.7 867.4 911.6 850.7 895.5 836.8C880.8 824.2 858.1 811.4 832.8 822.2C837.8 829.2 892.8 906 899.3 923.4C907.2 944.5 928.1 984.7 979.2 1017L979.4 1017.1L979.5 1017.3L1005.5 1096.3Z" fill="#261134"/>
</svg>
