<svg width="1600" height="1200" viewBox="0 0 1600 1200" fill="none" xmlns="http://www.w3.org/2000/svg">
<path d="M504.1 988.2C481.7 958.2 463.4 925.4 449.7 890.7C432.2 846.5 422.3 799.9 420.4 752.1C420.2 746.3 420 740.3 420 734.5H421C421 740.3 421.1 746.2 421.4 752.1C423.3 799.8 433.2 846.3 450.6 890.4C464.3 925 482.6 957.7 504.9 987.6L504.1 988.2Z" fill="#261134"/>
<path d="M1172.5 466.6C1133.6 419 1083.9 379.8 1028.8 353.1L1029.2 352.2C1084.4 378.9 1134.2 418.3 1173.2 465.9L1172.5 466.6Z" fill="#261134"/>
<path d="M582.3 401.9L581.7 401.1C618.4 372.2 659.2 349.6 703 334.1C748.4 318.1 796 309.9 844.5 309.9C896.7 309.9 947.7 319.3 996.1 337.8L995.7 338.7C947.5 320.3 896.6 310.9 844.5 310.9C748.3 311 657.6 342.4 582.3 401.9Z" fill="#261134"/>
<path d="M480.2 523.5L479.3 523C498.9 488.9 523.2 457.7 551.5 430.2L552.2 430.9C524.1 458.3 499.8 489.4 480.2 523.5Z" fill="#261134"/>
<path d="M280.4 860H554.8L610.9 1050.2H336.5L280.4 860Z" fill="#FEFEFE"/>
<path d="M611.6 1050.7H336.2L336.1 1050.3L279.8 859.5H555.2L555.3 859.9L611.6 1050.7ZM336.9 1049.7H610.2L554.4 860.5H281.1L336.9 1049.7Z" fill="#261134"/>
<path d="M718.4 1050.4H438.1V1066.4H718.4V1050.4Z" fill="#261134"/>
<path d="M718.9 1066.9H437.6V1049.9H718.9V1066.9ZM438.6 1065.9H717.9V1050.9H438.6V1065.9Z" fill="#261134"/>
<path d="M445.7 1050.4H335V1066.4H445.7V1050.4Z" fill="#FEFEFE"/>
<path d="M446.2 1066.9H334.5V1049.9H446.2V1066.9ZM335.5 1065.9H445.2V1050.9H335.5V1065.9Z" fill="#261134"/>
<path d="M303.8 877.2H540.7L585.9 1031.5H349L303.8 877.2Z" fill="#31B8ED"/>
<path d="M586.6 1032H348.6L348.5 1031.6L303.1 876.6H541.1L541.2 877L586.6 1032ZM349.4 1031H585.3L540.4 877.7H304.5L349.4 1031Z" fill="#261134"/>
<path d="M384.5 923.5H482.5L493.5 963.5H395.5L384.5 923.5Z" fill="#FEFEFE"/>
<path d="M494.2 964H395.2L383.9 923H482.9L494.2 964ZM395.9 963H492.9L482.2 924H385.2L395.9 963Z" fill="#261134"/>
<path d="M432.9 956.4L414.8 942.6L417.2 939.4L433.1 951.6L468 930.3L470 933.7L432.9 956.4Z" fill="#261134"/>
<path d="M574.3 925.9L571.7 968C576.3 968 580.3 965 581.6 960.7L592.1 927.2L574.3 925.9Z" fill="#FAD338"/>
<path d="M571.8 968.4H571.3L573.9 925.3L592.9 926.7L582.2 960.8C580.8 965.4 576.6 968.4 571.8 968.4ZM574.8 926.4L572.3 967.4C576.4 967.2 580 964.4 581.2 960.5L591.5 927.6L574.8 926.4Z" fill="#261134"/>
<path d="M561.6 929.7L550.1 969.2C557.1 969.2 563.6 965.3 566.8 959L581.9 929.7H561.6Z" fill="#FAD338"/>
<path d="M550.1 969.7H549.4L561.2 929.2H582.8L567.3 959.3C564 965.7 557.4 969.7 550.1 969.7ZM562 930.2L550.8 968.7C557.4 968.5 563.4 964.7 566.4 958.8L581.2 930.2H562Z" fill="#261134"/>
<path d="M659.8 952.6L640.8 949.2H640.7L617.1 966.1L576.6 975.1C573.2 961.6 602.5 951.5 602.5 951.5L608.1 941.4L592.3 929L533.9 938.5C532.8 938.7 531.8 938.8 530.7 938.8C523.5 938.8 516.8 934.9 513.2 928.4L612.6 894.2L649.6 906L658.7 908.9L659.8 952.6Z" fill="#FAD338"/>
<path d="M576.2 975.6L576.1 975.1C572.8 961.7 599.4 951.9 602.1 951L607.4 941.4L592.2 929.4L534 938.8C532.9 939 531.8 939.1 530.7 939.1C523.2 939.1 516.4 935 512.8 928.5L512.5 928L612.6 893.6H612.8L659.2 908.3L660.3 953.1L640.8 949.7L617.3 966.5H617.2L576.2 975.6ZM592.4 928.4L608.7 941.2L602.8 951.9L602.6 952C602.3 952.1 574.5 961.9 576.9 974.5L616.8 965.6L640.5 948.7L640.8 948.8L659.2 952L658.1 909.1L612.5 894.6L513.9 928.5C517.4 934.4 523.7 938.1 530.6 938.1C531.6 938.1 532.7 938 533.7 937.8L592.4 928.4Z" fill="#261134"/>
<path d="M1268.7 692.9L1248.4 709.1C1248.4 709.1 1237.2 721.3 1227.1 725.3L1211.9 760.9L1202.8 782.2L1165.2 763.9L1177.4 733.4L1180.4 725.9C1180.4 725.9 1169.3 709.1 1185.5 691.8L1189.6 685.7L1193.7 669.5L1186.6 649.8C1185.1 645.6 1188.2 641.2 1192.7 641.2L1207.9 666.5L1203.7 633.9C1203.1 628.8 1206.8 624.3 1211.9 623.9L1221 667.5L1224.2 630.6C1224.7 624.5 1229.6 619.8 1235.7 619.4L1234.2 667.5L1242 648.9C1244.6 642.7 1250.8 638.8 1257.5 639.1L1236.2 696.9C1236.2 696.9 1256.5 681.7 1268.7 692.9Z" fill="#FAD338"/>
<path d="M1203 782.8L1164.6 764.1L1179.8 726C1178.6 723.9 1169.8 707.8 1185.1 691.5L1189.1 685.5L1193.1 669.5L1186.1 649.9C1185.3 647.7 1185.6 645.4 1187 643.6C1188.3 641.7 1190.4 640.7 1192.7 640.7H1193L1207.1 664.2L1203.2 634C1202.9 631.4 1203.6 628.9 1205.3 626.9C1207 624.9 1209.3 623.7 1211.9 623.5H1212.3L1220.8 664.2L1223.7 630.7C1224.2 624.4 1229.4 619.4 1235.7 619.1H1236.2L1234.8 665L1241.6 648.9C1244.3 642.6 1250.7 638.5 1257.6 638.8H1258.3L1237.3 695.8C1242 692.7 1258.6 683 1269.1 692.7L1269.5 693.1L1248.8 709.7C1248.4 710.1 1237.6 721.8 1227.6 725.9L1203 782.8ZM1165.8 763.6L1202.5 781.4L1226.7 724.9L1226.9 724.8C1236.8 720.8 1247.9 708.8 1248 708.7L1267.9 692.8C1256.1 682.8 1236.7 697.1 1236.5 697.3L1235.1 698.3L1256.8 639.6C1250.6 639.6 1244.9 643.4 1242.5 649.1L1233.6 670.2L1235.2 620C1229.7 620.6 1225.2 625.1 1224.7 630.7L1221.2 671L1211.5 624.6C1209.3 624.9 1207.4 625.9 1206 627.6C1204.5 629.4 1203.9 631.7 1204.2 634L1208.7 668.9L1192.4 641.8C1190.6 641.9 1188.9 642.8 1187.8 644.3C1186.7 645.9 1186.4 647.9 1187.1 649.7L1194.2 669.6L1190 686.1L1185.9 692.2C1170.1 709.1 1180.7 725.6 1180.8 725.8L1180.9 726L1177.8 733.7L1165.8 763.6Z" fill="#261134"/>
<path d="M659.8 952.6L640.8 949.2L649.6 905.8L658.7 908.7L659.8 952.6Z" fill="#261134"/>
<path d="M1211.8 760.9L1202.7 782.1L1165.2 763.9L1177.3 733.4L1211.8 760.9Z" fill="#261134"/>
<path d="M1026.6 751.4C1026.6 751.4 996.4 702.4 992.5 677.4L1000.6 621.2C1000.6 621.2 998.8 568 929.7 585.1C929.7 585.1 928.6 560 911.6 555.2C911.6 555.2 920.6 568.8 918.4 582.9C918.4 582.9 903.1 552.8 878.7 570.7C878.7 570.7 859.7 582.7 866.1 602C866.1 602 867.1 624.3 897.8 623C897.8 623 899 650.9 833.8 693C833.8 693 779.2 723.4 787.4 781.8C795.6 840.2 850.2 874.1 850.2 874.1L1042.6 862.7L1026.6 751.4Z" fill="#261134"/>
<path d="M919 783.5L920.4 682.1C920.4 682.1 905.4 674.6 908 657.7C908 657.7 910.7 644.2 924.6 653.6L926.6 630.2C926.6 630.2 974.2 644.8 999.8 616.9C999.8 616.9 1032.2 707.8 983.6 709.6L997.1 786.1L919 783.5Z" fill="#FAD338"/>
<path d="M997.6 786.6H997L918.5 784L919.9 682.5C917.8 681.3 905.1 673.5 907.6 657.7C907.6 657.5 908.8 652.1 913.1 650.4C916.1 649.2 919.9 650 924.2 652.8L926.1 629.6L926.7 629.8C927.2 629.9 974.3 644 999.4 616.6L1000 616L1000.3 616.8C1001.1 619.2 1020.9 675.3 1004.5 699.5C1000 706.1 993.2 709.7 984.2 710.1L997.6 786.6ZM919.5 783L996.4 785.5L982.9 709H983.5C992.4 708.7 999.2 705.2 1003.5 698.8C1018.6 676.6 1001.8 624.8 999.5 617.8C975.4 643.2 932.5 632.4 927 630.8L925 654.5L924.3 654C919.9 651 916.2 650.1 913.4 651.2C909.6 652.8 908.5 657.7 908.5 657.8C906 674.1 920.4 681.6 920.6 681.7L920.9 681.8V682.1L919.5 783Z" fill="#261134"/>
<path d="M1224.7 792L1166 941.2C1145.6 978.2 1107.3 962.9 1107.3 962.9C1089.4 957.8 1066.5 894 1066.5 894L1057.6 1066.1L811.6 1066.3L821.9 1028.5L822.3 1025.9L806 1020.2L647.4 967.4L654.4 904L787.8 925.1L829.7 799.5C837.1 777.3 854 759.6 875.8 751.1L917.4 735.4C963.9 784.5 988.7 725.6 988.7 725.6L1061 741.5C1081.3 746 1098.4 759.6 1107.3 778.4L1127.6 821.3L1172.2 737.1L1224.7 792Z" fill="#1BA096"/>
<path d="M811 1066.8L821.5 1028.4L821.8 1026.3L805.9 1020.8L646.9 967.9L654 903.6L787.5 924.7L829.2 799.5C836.7 777.1 853.6 759.3 875.6 750.8L917.5 735L917.7 735.2C931.8 750 945.2 756.4 957.6 754.1C977.4 750.5 988 725.7 988.1 725.5L988.3 725.1L988.7 725.2L1061 741.1C1081.3 745.6 1098.8 759.5 1107.7 778.3L1127.6 820.3L1172.1 736.4L1225.1 792L1166.3 941.5C1145.9 978.5 1107.4 963.6 1107 963.5C1090.9 958.9 1071.1 908.3 1066.8 896.6L1058 1066.8H1057.5H811ZM648 967.2L806.2 1019.8L822.9 1025.6L822.4 1028.6L812.2 1065.8L1057.1 1065.6L1066.1 891.4L1066.9 893.7C1067.1 894.3 1090 957.3 1107.4 962.2C1107.8 962.4 1145.5 976.9 1165.5 940.8L1224 792L1172.4 737.9L1127.6 822.3L1106.9 778.5C1098.1 760 1080.9 746.3 1060.9 741.9L989 726.1C987.6 729.3 976.9 751.5 957.9 754.9C945.2 757.2 931.5 750.8 917.3 735.9L876 751.5C854.3 759.9 837.6 777.4 830.2 799.6L788.2 925.6L654.9 904.5L648 967.2Z" fill="#261134"/>
<path d="M822 1028.5L822.4 1026L806.1 1020.3L856.1 876.8L822 1028.5Z" fill="#261134"/>
<path d="M892.2 898.6C883.8 898.6 868.9 897.2 860.9 887.8C854.9 880.8 853.8 870.6 857.5 857.6C867 824.5 880.4 809.1 880.6 809L881.3 809.7C881.2 809.9 867.9 825.1 858.5 858C854.8 870.7 855.9 880.6 861.6 887.3C872.7 900.4 897.8 897.5 898.1 897.5L898.2 898.5C898.2 898.3 895.8 898.6 892.2 898.6Z" fill="#261134"/>
<path d="M1002.8 920.6C986 920.6 973.3 909.8 973.2 909.7L973.9 908.9C974 909 988.9 921.6 1007.6 919.3C1020.4 917.7 1032 909.5 1042.1 895L1042.9 895.6C1032.7 910.3 1020.8 918.6 1007.7 920.3C1005.9 920.5 1004.3 920.6 1002.8 920.6Z" fill="#261134"/>
<path d="M1337 906.5C1337 887.4 1321.5 872 1302.5 872C1283.4 872 1268 887.5 1268 906.5C1268 911.3 1269 915.8 1270.7 919.9C1271.2 921.2 1271.8 922.4 1272.5 923.6L1302.2 983.3L1332.2 924.2C1333 922.8 1333.7 921.4 1334.4 920C1336 915.8 1337 911.3 1337 906.5ZM1302.8 921.1C1295.2 921.1 1289.1 914.9 1289.1 907.4C1289.1 899.9 1295.3 893.7 1302.8 893.7C1310.3 893.7 1316.5 899.9 1316.5 907.4C1316.5 914.9 1310.4 921.1 1302.8 921.1Z" fill="#F27B79"/>
<path d="M1302.1 984.4L1272 923.9C1271.3 922.7 1270.7 921.4 1270.2 920.2C1268.4 915.9 1267.5 911.3 1267.5 906.6C1267.5 887.3 1283.2 871.6 1302.5 871.6C1321.8 871.6 1337.5 887.3 1337.5 906.6C1337.5 911.3 1336.6 915.9 1334.8 920.2C1334.2 921.7 1333.4 923.1 1332.6 924.5L1302.1 984.4ZM1302.5 872.5C1283.7 872.5 1268.5 887.8 1268.5 906.5C1268.5 911.1 1269.4 915.5 1271.2 919.7C1271.7 920.9 1272.3 922.1 1273 923.3L1302.2 982.1L1331.7 923.9C1332.5 922.5 1333.2 921.1 1333.8 919.7C1335.6 915.5 1336.5 911.1 1336.5 906.5C1336.5 887.8 1321.2 872.5 1302.5 872.5ZM1302.8 921.6C1294.9 921.6 1288.6 915.2 1288.6 907.4C1288.6 899.5 1295 893.2 1302.8 893.2C1310.6 893.2 1317 899.6 1317 907.4C1317.1 915.2 1310.7 921.6 1302.8 921.6ZM1302.8 894.1C1295.5 894.1 1289.6 900 1289.6 907.3C1289.6 914.6 1295.5 920.5 1302.8 920.5C1310.1 920.5 1316 914.6 1316 907.3C1316 900 1310.1 894.1 1302.8 894.1Z" fill="black"/>
<path d="M1255.9 418.1L1266 565.9H1164.5V418.1H1255.9Z" fill="#F27B79"/>
<path d="M1266.6 566.4H1164V417.6H1256.3V418.1L1266.6 566.4ZM1165 565.4H1265.5L1255.4 418.6H1165V565.4Z" fill="#261134"/>
<path d="M1168.5 418.1L1175.9 565.9H1135.5L1143.4 418.1H1168.5Z" fill="#261134"/>
<path d="M1176.4 566.4H1134.9V565.9L1142.9 417.6H1168.9V418.1L1176.4 566.4ZM1136 565.4H1175.4L1168.1 418.5H1144L1136 565.4Z" fill="#261134"/>
<path d="M1225.5 460.1C1225.1 460.1 1224.8 460.1 1224.5 460.1C1204.4 459 1200.9 442 1200.4 438.6C1200.2 437 1199.9 435.4 1199.7 433.9C1197.6 418.9 1196.8 413.3 1191.2 413.9C1186.8 414.4 1185.1 418.3 1185.1 418.4L1184.2 418C1184.3 417.8 1186.1 413.4 1191.1 412.9C1197.6 412.2 1198.5 418.5 1200.7 433.8C1200.9 435.3 1201.1 436.8 1201.4 438.5C1201.9 441.8 1205.2 458.1 1224.6 459.2C1227 459.3 1231.5 459.1 1235 456C1237.9 453.4 1239.5 449.3 1239.8 443.8C1240.2 436.8 1238.2 418.8 1232.6 415.8C1231 414.9 1229.6 414.7 1228.5 415.2C1226.6 416 1225.9 418.5 1225.8 418.5L1224.8 418.2C1224.8 418.1 1225.7 415.3 1228 414.3C1229.5 413.7 1231.1 413.9 1233 414.9C1239.2 418.3 1241 437.2 1240.7 443.8C1240.4 449.6 1238.7 453.9 1235.5 456.7C1232.4 459.5 1228.2 460.1 1225.5 460.1Z" fill="#261134"/>
<path d="M1275.9 479.3H1199.5L1205.3 565.9H1298L1275.9 479.3Z" fill="#31B8ED"/>
<path d="M1298.6 566.4H1204.8L1199 478.8H1276.3L1276.4 479.2L1298.6 566.4ZM1205.7 565.4H1297.3L1275.4 479.8H1200L1205.7 565.4Z" fill="#261134"/>
<path d="M1191.2 479.1H1202.2L1223.6 565.9H1193.5L1191.2 479.1Z" fill="#261134"/>
<path d="M1224.2 566.4H1193V565.9L1190.7 478.5H1202.6L1224.2 566.4ZM1194 565.4H1223L1201.8 479.5H1191.7L1194 565.4Z" fill="#261134"/>
<path d="M1250.5 508.7C1250.4 508.7 1250.4 508.7 1250.3 508.7C1243.6 508.7 1238.6 504.8 1235.2 497L1227.8 479.5C1227.8 479.5 1225.5 474.8 1221.8 475.6C1218.5 476.3 1217.8 479.4 1217.8 479.4L1216.8 479.2C1216.8 479 1217.7 475.5 1221.6 474.6C1226.1 473.6 1228.6 478.8 1228.7 479.1L1236.1 496.6C1240.4 506.5 1246.3 507.6 1250.3 507.6C1262.7 507.7 1263 498.2 1263.2 492.6C1263.2 492.1 1263.2 491.7 1263.3 491.3C1264 478.6 1260 476.6 1258.7 476.3C1253.9 475.1 1252.5 479.4 1252.4 479.6L1251.5 479.3C1251.5 479.2 1253.3 474 1259 475.4C1260.8 475.9 1265 478.3 1264.3 491.4C1264.3 491.8 1264.3 492.2 1264.2 492.7C1264.1 498.3 1263.7 508.7 1250.5 508.7Z" fill="#261134"/>
<path d="M1135.4 566.8L1134.6 566.2L1155.2 541.4V418.1H1156.2V541.8L1156.1 541.9L1135.4 566.8Z" fill="white"/>
<path d="M1155.87 541.363L1155.11 542.014L1175.48 565.78L1176.24 565.129L1155.87 541.363Z" fill="white"/>
<path d="M1194.2 565.6L1193.4 565.1L1204.6 547.2L1196.7 479.1L1197.7 479L1205.6 547.4L1205.5 547.5L1194.2 565.6Z" fill="white"/>
<path d="M1205.37 546.974L1204.66 547.681L1222.77 565.783L1223.47 565.076L1205.37 546.974Z" fill="white"/>
<path d="M916 239.8V374.1C916 379.5 911.6 383.9 906.2 383.9H703.9C698.5 383.9 694.1 379.5 694.1 374.1V239.8C694.1 234.4 698.5 230 703.9 230H906.2C911.6 230 916 234.4 916 239.8Z" fill="#FAD338"/>
<path d="M906.2 384.5H703.9C698.2 384.5 693.6 379.9 693.6 374.2V239.9C693.6 234.2 698.2 229.6 703.9 229.6H906.2C911.9 229.6 916.5 234.2 916.5 239.9V374.2C916.5 379.9 911.9 384.5 906.2 384.5ZM703.8 230.5C698.6 230.5 694.5 234.7 694.5 239.8V374.1C694.5 379.3 698.7 383.4 703.8 383.4H906.1C911.3 383.4 915.4 379.2 915.4 374.1V239.8C915.4 234.6 911.2 230.5 906.1 230.5H703.8Z" fill="#261134"/>
<path d="M916 256.6H694V282.6H916V256.6Z" fill="#CDCBCC"/>
<path d="M916.5 283H693.5V256H916.5V283ZM694.5 282H915.5V257H694.5V282Z" fill="#261134"/>
<path d="M916 277.5H694V307.3H916V277.5Z" fill="#261134"/>
<path d="M706.2 292.1C706.2 294.6 708.2 296.6 710.7 296.6H755.5C758 296.6 760 294.6 760 292.1C760 289.6 758 287.6 755.5 287.6H710.7C708.2 287.6 706.2 289.6 706.2 292.1Z" fill="#FEFEFE"/>
<path d="M755.4 297.1H710.6C707.9 297.1 705.6 294.9 705.6 292.1C705.6 289.3 707.8 287.1 710.6 287.1H755.4C758.1 287.1 760.4 289.3 760.4 292.1C760.4 294.9 758.2 297.1 755.4 297.1ZM710.7 288.1C708.5 288.1 706.7 289.9 706.7 292.1C706.7 294.3 708.5 296.1 710.7 296.1H755.5C757.7 296.1 759.5 294.3 759.5 292.1C759.5 289.9 757.7 288.1 755.5 288.1H710.7Z" fill="#261134"/>
<path d="M778.4 292.1C778.4 294.6 780.4 296.6 782.9 296.6H827.7C830.2 296.6 832.2 294.6 832.2 292.1C832.2 289.6 830.2 287.6 827.7 287.6H782.9C780.4 287.6 778.4 289.6 778.4 292.1Z" fill="#FEFEFE"/>
<path d="M827.7 297.1H782.9C780.2 297.1 777.9 294.9 777.9 292.1C777.9 289.3 780.1 287.1 782.9 287.1H827.7C830.4 287.1 832.7 289.3 832.7 292.1C832.7 294.9 830.4 297.1 827.7 297.1ZM782.9 288.1C780.7 288.1 778.9 289.9 778.9 292.1C778.9 294.3 780.7 296.1 782.9 296.1H827.7C829.9 296.1 831.7 294.3 831.7 292.1C831.7 289.9 829.9 288.1 827.7 288.1H782.9Z" fill="#261134"/>
<path d="M855.1 298.4C857.585 298.4 859.6 296.385 859.6 293.9C859.6 291.415 857.585 289.4 855.1 289.4C852.615 289.4 850.6 291.415 850.6 293.9C850.6 296.385 852.615 298.4 855.1 298.4Z" fill="#FEFEFE"/>
<path d="M855.1 298.8C852.4 298.8 850.1 296.6 850.1 293.8C850.1 291 852.3 288.8 855.1 288.8C857.9 288.8 860.1 291 860.1 293.8C860.1 296.6 857.9 298.8 855.1 298.8ZM855.1 289.9C852.9 289.9 851.1 291.7 851.1 293.9C851.1 296.1 852.9 297.9 855.1 297.9C857.3 297.9 859.1 296.1 859.1 293.9C859.1 291.7 857.3 289.9 855.1 289.9Z" fill="#261134"/>
<path d="M869.4 298.4C871.885 298.4 873.9 296.385 873.9 293.9C873.9 291.415 871.885 289.4 869.4 289.4C866.915 289.4 864.9 291.415 864.9 293.9C864.9 296.385 866.915 298.4 869.4 298.4Z" fill="#FEFEFE"/>
<path d="M869.4 298.8C866.7 298.8 864.4 296.6 864.4 293.8C864.4 291 866.6 288.8 869.4 288.8C872.2 288.8 874.4 291 874.4 293.8C874.4 296.6 872.2 298.8 869.4 298.8ZM869.4 289.9C867.2 289.9 865.4 291.7 865.4 293.9C865.4 296.1 867.2 297.9 869.4 297.9C871.6 297.9 873.4 296.1 873.4 293.9C873.4 291.7 871.6 289.9 869.4 289.9Z" fill="#261134"/>
<path d="M883.8 298.4C886.285 298.4 888.3 296.385 888.3 293.9C888.3 291.415 886.285 289.4 883.8 289.4C881.315 289.4 879.3 291.415 879.3 293.9C879.3 296.385 881.315 298.4 883.8 298.4Z" fill="#FEFEFE"/>
<path d="M883.8 298.8C881.1 298.8 878.8 296.6 878.8 293.8C878.8 291 881 288.8 883.8 288.8C886.6 288.8 888.8 291 888.8 293.8C888.8 296.6 886.5 298.8 883.8 298.8ZM883.8 289.9C881.6 289.9 879.8 291.7 879.8 293.9C879.8 296.1 881.6 297.9 883.8 297.9C886 297.9 887.8 296.1 887.8 293.9C887.8 291.7 886 289.9 883.8 289.9Z" fill="#261134"/>
<path d="M898.1 298.4C900.585 298.4 902.6 296.385 902.6 293.9C902.6 291.415 900.585 289.4 898.1 289.4C895.615 289.4 893.6 291.415 893.6 293.9C893.6 296.385 895.615 298.4 898.1 298.4Z" fill="#FEFEFE"/>
<path d="M898.1 298.8C895.4 298.8 893.1 296.6 893.1 293.8C893.1 291 895.3 288.8 898.1 288.8C900.9 288.8 903.1 291 903.1 293.8C903.1 296.6 900.8 298.8 898.1 298.8ZM898.1 289.9C895.9 289.9 894.1 291.7 894.1 293.9C894.1 296.1 895.9 297.9 898.1 297.9C900.3 297.9 902.1 296.1 902.1 293.9C902.1 291.7 900.3 289.9 898.1 289.9Z" fill="#261134"/>
<path d="M849.7 361.6C860.083 361.6 868.5 353.183 868.5 342.8C868.5 332.417 860.083 324 849.7 324C839.317 324 830.9 332.417 830.9 342.8C830.9 353.183 839.317 361.6 849.7 361.6Z" fill="#FEFEFE"/>
<path d="M849.7 362.1C839.1 362.1 830.4 353.4 830.4 342.8C830.4 332.2 839.1 323.5 849.7 323.5C860.3 323.5 869 332.2 869 342.8C869 353.5 860.4 362.1 849.7 362.1ZM849.7 324.5C839.6 324.5 831.4 332.7 831.4 342.8C831.4 352.9 839.6 361.1 849.7 361.1C859.8 361.1 868 352.9 868 342.8C868 332.7 859.8 324.5 849.7 324.5Z" fill="#261134"/>
<path d="M871.2 361.6C881.583 361.6 890 353.183 890 342.8C890 332.417 881.583 324 871.2 324C860.817 324 852.4 332.417 852.4 342.8C852.4 353.183 860.817 361.6 871.2 361.6Z" fill="#CDCBCC"/>
<path d="M871.2 362.1C860.6 362.1 851.9 353.4 851.9 342.8C851.9 332.2 860.6 323.5 871.2 323.5C881.8 323.5 890.5 332.2 890.5 342.8C890.5 353.5 881.9 362.1 871.2 362.1ZM871.2 324.5C861.1 324.5 852.9 332.7 852.9 342.8C852.9 352.9 861.1 361.1 871.2 361.1C881.3 361.1 889.5 352.9 889.5 342.8C889.5 332.7 881.3 324.5 871.2 324.5Z" fill="#261134"/>
<path d="M726.5 328.5C726.5 331 728.5 333 731 333H802.6C805.1 333 807.1 331 807.1 328.5C807.1 326 805.1 324 802.6 324H731C728.5 324 726.5 326 726.5 328.5Z" fill="#FEFEFE"/>
<path d="M802.6 333.5H731C728.3 333.5 726 331.3 726 328.5C726 325.7 728.2 323.5 731 323.5H802.6C805.3 323.5 807.6 325.7 807.6 328.5C807.6 331.3 805.3 333.5 802.6 333.5ZM731 324.5C728.8 324.5 727 326.3 727 328.5C727 330.7 728.8 332.5 731 332.5H802.6C804.8 332.5 806.6 330.7 806.6 328.5C806.6 326.3 804.8 324.5 802.6 324.5H731Z" fill="#261134"/>
<path d="M726.5 342.8C726.5 345.3 728.5 347.3 731 347.3H802.6C805.1 347.3 807.1 345.3 807.1 342.8C807.1 340.3 805.1 338.3 802.6 338.3H731C728.5 338.3 726.5 340.3 726.5 342.8Z" fill="#FEFEFE"/>
<path d="M802.6 347.8H731C728.3 347.8 726 345.6 726 342.8C726 340 728.2 337.8 731 337.8H802.6C805.3 337.8 807.6 340 807.6 342.8C807.6 345.6 805.3 347.8 802.6 347.8ZM731 338.8C728.8 338.8 727 340.6 727 342.8C727 345 728.8 346.8 731 346.8H802.6C804.8 346.8 806.6 345 806.6 342.8C806.6 340.6 804.8 338.8 802.6 338.8H731Z" fill="#261134"/>
<path d="M726.5 357.1C726.5 359.6 728.5 361.6 731 361.6H802.6C805.1 361.6 807.1 359.6 807.1 357.1C807.1 354.6 805.1 352.6 802.6 352.6H731C728.5 352.7 726.5 354.7 726.5 357.1Z" fill="#FEFEFE"/>
<path d="M802.6 362.1H731C728.3 362.1 726 359.9 726 357.1C726 354.3 728.2 352.1 731 352.1H802.6C805.3 352.1 807.6 354.3 807.6 357.1C807.6 359.9 805.3 362.1 802.6 362.1ZM731 353.2C728.8 353.2 727 355 727 357.2C727 359.4 728.8 361.2 731 361.2H802.6C804.8 361.2 806.6 359.4 806.6 357.2C806.6 355 804.8 353.2 802.6 353.2H731Z" fill="#261134"/>
<path d="M551.5 495.5H297.5V740.5H399.2L423 783.5L449.5 740.5H551.5V495.5Z" fill="white"/>
<path d="M422.9 784.5L398.8 741H297V495H552V741H449.8L422.9 784.5ZM298 740H399.5L423 782.5L449.2 740H551V496H298V740Z" fill="#261134"/>
<path d="M376.7 523.2H471.4V688.1H445.3L424 565.7L402.8 688.1H376.7V523.2Z" fill="#F27B79"/>
<path d="M471.9 688.6H444.9L424.1 568.6L403.3 688.6H376.3V522.7H472V688.6H471.9ZM445.7 687.6H470.9V523.7H377.2V687.6H402.4L424 562.7L445.7 687.6Z" fill="#261134"/>
<path d="M391 722.4C395.032 722.4 398.3 719.132 398.3 715.1C398.3 711.068 395.032 707.8 391 707.8C386.968 707.8 383.7 711.068 383.7 715.1C383.7 719.132 386.968 722.4 391 722.4Z" fill="white"/>
<path d="M391 722.9C386.7 722.9 383.2 719.4 383.2 715.1C383.2 710.8 386.7 707.3 391 707.3C395.3 707.3 398.8 710.8 398.8 715.1C398.8 719.4 395.3 722.9 391 722.9ZM391 708.2C387.2 708.2 384.2 711.3 384.2 715C384.2 718.7 387.3 721.8 391 721.8C394.8 721.8 397.8 718.7 397.8 715C397.8 711.3 394.8 708.2 391 708.2Z" fill="#261134"/>
<path d="M426.9 722.4C430.932 722.4 434.2 719.132 434.2 715.1C434.2 711.068 430.932 707.8 426.9 707.8C422.868 707.8 419.6 711.068 419.6 715.1C419.6 719.132 422.868 722.4 426.9 722.4Z" fill="#261134"/>
<path d="M457.9 722.4C461.932 722.4 465.2 719.132 465.2 715.1C465.2 711.068 461.932 707.8 457.9 707.8C453.868 707.8 450.6 711.068 450.6 715.1C450.6 719.132 453.868 722.4 457.9 722.4Z" fill="white"/>
<path d="M457.9 722.9C453.6 722.9 450.1 719.4 450.1 715.1C450.1 710.8 453.6 707.3 457.9 707.3C462.2 707.3 465.7 710.8 465.7 715.1C465.7 719.4 462.3 722.9 457.9 722.9ZM457.9 708.2C454.1 708.2 451.1 711.3 451.1 715C451.1 718.7 454.2 721.8 457.9 721.8C461.7 721.8 464.7 718.7 464.7 715C464.7 711.3 461.7 708.2 457.9 708.2Z" fill="#261134"/>
<path d="M299.9 530.9C318.954 530.9 334.4 515.454 334.4 496.4C334.4 477.346 318.954 461.9 299.9 461.9C280.846 461.9 265.4 477.346 265.4 496.4C265.4 515.454 280.846 530.9 299.9 530.9Z" fill="white"/>
<path d="M299.9 531.4C280.6 531.4 264.9 515.7 264.9 496.4C264.9 477.1 280.6 461.4 299.9 461.4C319.2 461.4 334.9 477.1 334.9 496.4C334.9 515.7 319.2 531.4 299.9 531.4ZM299.9 462.4C281.2 462.4 265.9 477.7 265.9 496.4C265.9 515.1 281.2 530.4 299.9 530.4C318.6 530.4 333.9 515.1 333.9 496.4C333.9 477.7 318.6 462.4 299.9 462.4Z" fill="#261134"/>
<path d="M309.8 479.1C305.1 479.1 301.2 482.2 299.9 486.4C298.6 482.2 294.7 479.1 290 479.1C284.3 479.1 279.7 483.7 279.7 489.4C279.7 491.3 280.2 493 281.1 494.5C281.5 495.2 282 495.8 282.5 496.4L299.5 519.5L317.1 496.7C317.8 496 318.4 495.3 318.8 494.4C319.7 492.9 320.2 491.1 320.2 489.3C320.1 483.8 315.5 479.1 309.8 479.1Z" fill="#F27B79"/>
<path d="M299.4 520.5L282 496.8C281.5 496.2 281 495.6 280.6 494.9C279.7 493.3 279.2 491.4 279.2 489.5C279.2 483.5 284.1 478.7 290.1 478.7C294.4 478.7 298.3 481.2 300 485.1C301.7 481.2 305.6 478.7 309.9 478.7C315.9 478.7 320.8 483.6 320.8 489.5C320.8 491.4 320.3 493.2 319.4 494.9C318.9 495.8 318.3 496.6 317.6 497.3L299.4 520.5ZM290 479.6C284.6 479.6 280.1 484 280.1 489.4C280.1 491.1 280.6 492.8 281.4 494.3C281.8 494.9 282.2 495.5 282.7 496.1L299.4 518.7L316.6 496.5C317.3 495.8 317.8 495.1 318.3 494.3C319.2 492.8 319.6 491.1 319.6 489.4C319.6 484 315.2 479.6 309.7 479.6C305.3 479.6 301.5 482.4 300.3 486.6L299.8 488.2L299.3 486.6C298.1 482.4 294.3 479.6 290 479.6Z" fill="#261134"/>
<path d="M1469 1065.5H150.5V1067.5H1469V1065.5Z" fill="#261134"/>
</svg>
