<svg width="1600" height="1200" viewBox="0 0 1600 1200" fill="none" xmlns="http://www.w3.org/2000/svg">
<path d="M372.3 1064.8H678.4C701.2 1064.8 719.7 1046.3 719.7 1023.5V320.6C719.7 297.8 701.2 279.3 678.4 279.3H372.3C349.5 279.3 331 297.8 331 320.6V1023.5C331 1046.3 349.5 1064.8 372.3 1064.8Z" fill="#FEFEFE"/>
<path d="M678.4 1065.3H372.3C349.2 1065.3 330.5 1046.5 330.5 1023.5V320.6C330.5 297.5 349.3 278.8 372.3 278.8H678.4C701.5 278.8 720.2 297.6 720.2 320.6V1023.5C720.3 1046.5 701.5 1065.3 678.4 1065.3ZM372.3 279.8C349.8 279.8 331.5 298.1 331.5 320.6V1023.5C331.5 1046 349.8 1064.3 372.3 1064.3H678.4C700.9 1064.3 719.2 1046 719.2 1023.5V320.6C719.2 298.1 700.9 279.8 678.4 279.8H372.3Z" fill="#261134"/>
<path d="M378.8 1052.6H672C692 1052.6 708.3 1036.4 708.3 1016.3V327.7C708.3 307.7 692.1 291.4 672 291.4H378.8C358.8 291.4 342.5 307.6 342.5 327.7V1016.3C342.5 1036.3 358.7 1052.6 378.8 1052.6Z" fill="#261134"/>
<path d="M663.9 305.6H620.3C619.6 319.4 608.2 330.3 594.3 330.3H454.7C440.8 330.3 429.4 319.4 428.7 305.6H385C368.7 305.6 355.6 318.8 355.6 335V1010.7C355.6 1027 368.8 1040.1 385 1040.1H663.9C680.2 1040.1 693.3 1026.9 693.3 1010.7V335C693.4 318.8 680.2 305.6 663.9 305.6Z" fill="white"/>
<path d="M541.3 308.5H489.3V315.5H541.3V308.5Z" fill="white"/>
<path d="M554.8 317.5C557.838 317.5 560.3 315.038 560.3 312C560.3 308.962 557.838 306.5 554.8 306.5C551.762 306.5 549.3 308.962 549.3 312C549.3 315.038 551.762 317.5 554.8 317.5Z" fill="white"/>
<path d="M430.4 519L440.7 553.2L638.2 562.7L617.5 668.1H475V676.9H595.7V679.4H475.2C455.1 685.9 457.5 705.1 458.3 709.7H614V712.2H456.3L456.1 711.2C456 710.9 450.2 686.2 472.5 677.6V667L428.6 521.5H387.2V519H430.4ZM625.5 614.4L602.9 614.2L600.3 637H621.1L625.5 614.4ZM517.4 637H543V613.6L516.1 613.4L517.4 637ZM513.6 613.4L488 613.2L490.4 637.1H514.9L513.6 613.4ZM545.6 613.7V637.1H571.1L572.3 614L545.6 613.7ZM572.4 611.4L573.7 585.3L545.5 585V611.1L572.4 611.4ZM543 611.1V585L514.6 584.7L516 610.8L543 611.1ZM543 582.5V560.6L513.3 559.2L514.5 582.2L543 582.5ZM545.6 582.5L573.9 582.8L575 562.2L545.6 560.8V582.5ZM576.4 582.8L603.9 583L606.1 563.6L577.5 562.2L576.4 582.8ZM576.3 585.3L575 611.4L600.7 611.6L603.7 585.5L576.3 585.3ZM603.2 611.6L626 611.8L631.1 585.8L606.1 585.6L603.2 611.6ZM600.4 614.2L574.8 614L573.6 637.1H597.8L600.4 614.2ZM573.5 639.5L572.2 665.5H594.6L597.6 639.5H573.5ZM571 639.5H545.6V665.5H569.7L571 639.5ZM543 639.5H517.5L518.9 665.5H543V639.5ZM515 639.5H490.6L493.2 665.5H516.4L515 639.5ZM488.1 639.5H466.8L474.7 665.5H490.7L488.1 639.5ZM487.8 637L485.4 613.1L458.7 612.9L466 637H487.8ZM458 610.4L485.2 610.6L482.6 584.5L450.1 584.2L458 610.4ZM487.7 610.6L513.5 610.8L512.1 584.7L485.1 584.5L487.7 610.6ZM512 582.2L510.8 559.1L482.5 557.7L484.9 582L512 582.2ZM608.6 563.8L606.4 583.1L631.6 583.3L635.2 565.1L608.6 563.8ZM620.6 639.5H600L597 665.5H615.4L620.6 639.5ZM449.3 581.6L482.3 581.9L479.9 557.5L441.5 555.7L449.3 581.6Z" fill="#261134"/>
<path d="M590.6 712.6C597.7 712.6 603.6 718.4 603.6 725.6C603.6 732.8 597.8 738.6 590.6 738.6C583.5 738.6 577.6 732.8 577.6 725.6C577.6 718.4 583.5 712.6 590.6 712.6ZM590.6 734.1C595.3 734.1 599.1 730.3 599.1 725.6C599.1 720.9 595.3 717.1 590.6 717.1C585.9 717.1 582.1 720.9 582.1 725.6C582.1 730.3 585.9 734.1 590.6 734.1Z" fill="#261134"/>
<path d="M475.3 713C482.4 713 488.3 718.8 488.3 726C488.3 733.1 482.5 739 475.3 739C468.2 739 462.3 733.2 462.3 726C462.4 718.8 468.2 713 475.3 713ZM475.3 734.4C480 734.4 483.8 730.6 483.8 725.9C483.8 721.2 480 717.4 475.3 717.4C470.6 717.4 466.8 721.2 466.8 725.9C466.8 730.6 470.6 734.4 475.3 734.4Z" fill="#261134"/>
<path d="M523.3 501.6C559.917 501.6 589.6 471.917 589.6 435.3C589.6 398.684 559.917 369 523.3 369C486.684 369 457 398.684 457 435.3C457 471.917 486.684 501.6 523.3 501.6Z" fill="#1BA096"/>
<path d="M523.3 502C486.5 502 456.5 472.1 456.5 435.2C456.5 398.3 486.4 368.4 523.3 368.4C560.2 368.4 590.1 398.3 590.1 435.2C590.1 472.1 560.1 502 523.3 502ZM523.3 369.5C487 369.5 457.5 399 457.5 435.3C457.5 471.6 487 501.1 523.3 501.1C559.6 501.1 589.1 471.6 589.1 435.3C589.1 399 559.5 369.5 523.3 369.5Z" fill="#261134"/>
<path d="M511.9 467.4L478.9 435.4C476.6 433.1 476.5 429.4 478.8 427.1C481.1 424.8 484.8 424.7 487.1 427L512 451.1L559.6 405.3C561.9 403.1 565.6 403.1 567.9 405.5C570.1 407.8 570.1 411.5 567.7 413.8L511.9 467.4Z" fill="white"/>
<path d="M631.3 949.2H417.1V995.5H631.3V949.2Z" fill="#FEFEFE"/>
<path d="M631.8 996H416.6V948.7H631.8V996ZM417.6 995H630.8V949.7H417.6V995Z" fill="black"/>
<path d="M250.8 778.6C277.752 778.6 299.6 756.752 299.6 729.8C299.6 702.849 277.752 681 250.8 681C223.849 681 202 702.849 202 729.8C202 756.752 223.849 778.6 250.8 778.6Z" fill="#FEFEFE"/>
<path d="M250.8 779C223.6 779 201.5 756.9 201.5 729.7C201.5 702.5 223.6 680.4 250.8 680.4C278 680.4 300.1 702.5 300.1 729.7C300.1 756.9 277.9 779 250.8 779ZM250.8 681.5C224.2 681.5 202.5 703.1 202.5 729.8C202.5 756.5 224.1 778.1 250.8 778.1C277.5 778.1 299.1 756.5 299.1 729.8C299.1 703.1 277.4 681.5 250.8 681.5Z" fill="black"/>
<path d="M242.4 753.4L218.1 729.9C216.4 728.2 216.3 725.5 218 723.8C219.7 722.1 222.4 722 224.1 723.7L242.4 741.4L277.4 707.7C279.1 706 281.8 706.1 283.5 707.8C285.2 709.5 285.1 712.2 283.4 713.9L242.4 753.4Z" fill="#1BA096"/>
<path d="M242.4 754.1L217.8 730.3C216.9 729.4 216.4 728.2 216.3 726.9C216.3 725.6 216.8 724.4 217.7 723.5C218.6 722.6 219.8 722.1 221.1 722C222.4 722 223.6 722.5 224.5 723.4L242.4 740.8L277.1 707.4C279 705.6 282.1 705.6 283.9 707.5C285.7 709.4 285.7 712.5 283.8 714.3L242.4 754.1ZM221.1 723C220 723 219.1 723.4 218.4 724.2C216.9 725.7 217 728.1 218.5 729.6L242.4 752.8L283.1 713.6C284.6 712.1 284.7 709.7 283.2 708.2C282.5 707.5 281.5 707.1 280.5 707C279.5 707 278.5 707.4 277.8 708.1L242.4 742.2L223.8 724.1C223 723.4 222.1 723 221.1 723Z" fill="#261134"/>
<path d="M257.4 412.4H147.2C141.9 412.4 137.6 416.7 137.6 422V502.4C137.6 507.7 141.9 512 147.2 512H181.1L202.3 542.1L223.5 512H257.4C262.7 512 267 507.7 267 502.4V422C267 416.7 262.7 412.4 257.4 412.4Z" fill="white"/>
<path d="M202.3 542.9L180.8 512.4H147.2C141.7 512.4 137.1 507.9 137.1 502.3V422C137.1 416.5 141.6 411.9 147.2 411.9H257.4C262.9 411.9 267.5 416.4 267.5 422V502.4C267.5 507.9 263 512.5 257.4 512.5H223.8L202.3 542.9ZM147.2 412.9C142.2 412.9 138.1 417 138.1 422V502.4C138.1 507.4 142.2 511.5 147.2 511.5H181.3L202.3 541.2L223.3 511.5H257.4C262.4 511.5 266.5 507.4 266.5 502.4V422C266.5 417 262.4 412.9 257.4 412.9H147.2Z" fill="black"/>
<path d="M202.3 426.8V441.3L184.2 468.5V490.3L188.7 493.9C191.1 495.8 194.1 496.8 197.2 496.8H227.7C230.4 496.8 232.8 495.3 234 492.9C234.8 491.3 235 489.2 233.9 486.6C233.9 486.6 242.3 485.9 238.9 476.1C238.9 476.1 246 471.5 239.6 464C239.6 464 244.7 458.9 241 454.4C239.6 452.7 237.5 451.7 235.3 451.7H214.9C214.8 451.8 221.5 424 202.3 426.8Z" fill="#FAD338"/>
<path d="M227.7 497.4H197.2C194 497.4 190.9 496.3 188.4 494.4L183.7 490.7V468.5L201.8 441.3V426.5L202.2 426.4C206.8 425.7 210.4 426.7 212.8 429.4C218.4 435.5 216.1 448.4 215.4 451.4H235.1C237.5 451.4 239.7 452.4 241.2 454.3C244.5 458.4 241.2 463 240.1 464.2C242.1 466.6 242.9 468.9 242.6 471.2C242.2 474 240.2 475.8 239.4 476.4C240.4 479.6 240.3 482.2 239.1 484.2C237.8 486.2 235.6 486.9 234.5 487.1C235.3 489.3 235.3 491.4 234.4 493.3C233.2 495.8 230.5 497.4 227.7 497.4ZM184.7 490.2L189 493.6C191.3 495.4 194.2 496.4 197.2 496.4H227.7C230.2 496.4 232.5 495 233.5 492.8C234.3 491 234.3 489 233.3 486.9L233 486.3L233.7 486.2C233.7 486.2 236.7 485.9 238.2 483.6C239.3 481.9 239.4 479.4 238.3 476.4L238.2 476L238.5 475.8C238.5 475.8 241.2 474 241.6 471C241.9 468.9 241 466.7 239.1 464.4L238.8 464L239.1 463.7C239.3 463.5 243.8 458.9 240.5 454.8C239.2 453.2 237.3 452.3 235.2 452.3H214.2L214.3 451.7C214.3 451.5 217.9 436.4 212 430C209.9 427.7 206.8 426.8 202.7 427.3V441.5L184.6 468.7V490.2H184.7Z" fill="#261134"/>
<path d="M165.7 459.6H184.1C185.9 459.6 187.4 461.1 187.4 462.9V493.7C187.4 495.5 185.9 497 184.1 497H165.7C163.9 497 162.4 495.5 162.4 493.7V462.9C162.5 461 163.9 459.6 165.7 459.6Z" fill="#31B8ED"/>
<path d="M184.1 497.4H165.7C163.6 497.4 161.9 495.7 161.9 493.6V462.8C161.9 460.7 163.6 459 165.7 459H184.1C186.2 459 187.9 460.7 187.9 462.8V493.6C187.9 495.7 186.2 497.4 184.1 497.4ZM165.7 460.1C164.2 460.1 162.9 461.3 162.9 462.9V493.7C162.9 495.2 164.1 496.5 165.7 496.5H184.1C185.6 496.5 186.9 495.3 186.9 493.7V462.9C186.9 461.4 185.7 460.1 184.1 460.1H165.7Z" fill="#261134"/>
<path d="M1034 282H806.8V372H1034V282Z" fill="#FEFEFE"/>
<path d="M1034.5 372.5H806.3V281.5H1034.5V372.5ZM807.3 371.5H1033.5V282.5H807.3V371.5Z" fill="black"/>
<path d="M837.5 327C846.337 327 853.5 319.837 853.5 311C853.5 302.163 846.337 295 837.5 295C828.663 295 821.5 302.163 821.5 311C821.5 319.837 828.663 327 837.5 327Z" fill="#FAD338"/>
<path d="M837.5 327.5C828.4 327.5 821 320.1 821 311C821 301.9 828.4 294.5 837.5 294.5C846.6 294.5 854 301.9 854 311C854 320.1 846.6 327.5 837.5 327.5ZM837.5 295.4C828.9 295.4 822 302.4 822 310.9C822 319.4 829 326.4 837.5 326.4C846 326.4 853 319.4 853 310.9C853 302.4 846.1 295.4 837.5 295.4Z" fill="#261134"/>
<path d="M874 302.4L876.8 308L883.1 308.9L878.6 313.3L879.6 319.5L874 316.6L868.5 319.5L869.5 313.3L865 308.9L871.3 308L874 302.4Z" fill="#FAD338"/>
<path d="M880.3 320.4L874.1 317.1L867.9 320.4L869.1 313.5L864.1 308.6L871.1 307.6L874.2 301.3L877.3 307.6L884.3 308.6L879.3 313.5L880.3 320.4ZM866.1 309.3L870.1 313.2L869.2 318.7L874.1 316.1L879 318.7L878.1 313.2L882.1 309.3L876.6 308.5L874.1 303.5L871.6 308.5L866.1 309.3Z" fill="#261134"/>
<path d="M901.7 302.4L904.5 308L910.7 308.9L906.2 313.3L907.2 319.5L901.7 316.6L896.1 319.5L897.2 313.3L892.7 308.9L898.9 308L901.7 302.4Z" fill="#FAD338"/>
<path d="M895.4 320.4L896.6 313.5L891.6 308.6L898.6 307.6L901.7 301.3L904.8 307.6L911.8 308.6L906.8 313.5L908 320.4L901.8 317.1L895.4 320.4ZM901.7 316L906.6 318.6L905.7 313.1L909.7 309.2L904.2 308.4L901.7 303.4L899.2 308.4L893.7 309.2L897.7 313.1L896.8 318.6L901.7 316Z" fill="#261134"/>
<path d="M929.3 302.4L932.1 308L938.3 308.9L933.8 313.3L934.9 319.5L929.3 316.6L923.7 319.5L924.8 313.3L920.3 308.9L926.5 308L929.3 302.4Z" fill="#FAD338"/>
<path d="M923.1 320.4L924.3 313.5L919.3 308.6L926.3 307.6L929.4 301.3L932.5 307.6L939.5 308.6L934.5 313.5L935.7 320.4L929.5 317.1L923.1 320.4ZM929.3 316L934.2 318.6L933.3 313.1L937.3 309.2L931.8 308.4L929.3 303.4L926.8 308.4L921.3 309.2L925.3 313.1L924.4 318.6L929.3 316Z" fill="#261134"/>
<path d="M956 302.4L958.8 308L965 308.9L960.5 313.3L961.6 319.5L956 316.6L950.5 319.5L951.5 313.3L947 308.9L953.2 308L956 302.4Z" fill="#FAD338"/>
<path d="M949.8 320.4L951 313.5L946 308.6L953 307.6L956.1 301.3L959.2 307.6L966.2 308.6L961.2 313.5L962.4 320.4L956.2 317.1L949.8 320.4ZM956 316L960.9 318.6L960 313.1L964 309.2L958.5 308.4L956 303.4L953.5 308.4L948 309.2L952 313.1L951.1 318.6L956 316Z" fill="#261134"/>
<path d="M982.8 302.4L985.5 308L991.8 308.9L987.3 313.3L988.3 319.5L982.8 316.6L977.2 319.5L978.3 313.3L973.8 308.9L980 308L982.8 302.4Z" fill="#FAD338"/>
<path d="M989 320.4L982.8 317.1L976.6 320.4L977.8 313.5L972.8 308.6L979.8 307.6L982.9 301.3L986 307.6L993 308.6L988 313.5L989 320.4ZM974.8 309.3L978.8 313.2L977.9 318.7L982.8 316.1L987.7 318.7L986.8 313.2L990.8 309.3L985.3 308.5L982.8 303.5L980.3 308.5L974.8 309.3Z" fill="#261134"/>
<path d="M1018.8 353.3H821V360.4H1018.8V353.3Z" fill="#31B8ED"/>
<path d="M1019.4 360.9H820.6V352.8H1019.4V360.9ZM821.5 359.9H1018.3V353.8H821.5V359.9Z" fill="#261134"/>
<path d="M919.5 336.8H821.5V343.9H919.5V336.8Z" fill="#31B8ED"/>
<path d="M920 344.4H821V336.3H920V344.4ZM822 343.4H919V337.3H822V343.4Z" fill="#261134"/>
<path d="M1374.1 641.2L1471 709.6C1474.9 712.4 1475.9 717.8 1473.1 721.7L1370.1 867.6C1367.3 871.5 1361.9 872.5 1358 869.7L1261.1 801.3C1257.2 798.5 1256.2 793.1 1259 789.2L1362 643.3C1364.7 639.4 1370.2 638.4 1374.1 641.2Z" fill="#FEFEFE"/>
<path d="M1362.9 871.8C1361 871.8 1359.2 871.2 1357.6 870.1L1260.7 801.7C1258.7 800.3 1257.4 798.2 1256.9 795.8C1256.5 793.4 1257 790.9 1258.4 788.9L1361.4 643C1362.8 641 1364.9 639.7 1367.3 639.2C1369.7 638.8 1372.2 639.3 1374.2 640.7L1471.1 709.1C1473.1 710.5 1474.4 712.6 1474.9 715C1475.3 717.4 1474.8 719.9 1473.4 721.9L1370.4 867.8C1369 869.8 1366.9 871.1 1364.5 871.6C1364 871.7 1363.4 871.8 1362.9 871.8ZM1369.1 640.1C1368.6 640.1 1368.2 640.1 1367.7 640.2C1365.5 640.6 1363.7 641.8 1362.4 643.5L1259.4 789.4C1258.1 791.2 1257.6 793.4 1258 795.5C1258.4 797.7 1259.6 799.5 1261.3 800.8L1358.2 869.2C1361.9 871.8 1367 870.9 1369.6 867.2L1472.6 721.3C1473.9 719.5 1474.4 717.3 1474 715.2C1473.6 713 1472.4 711.2 1470.7 709.9L1373.8 641.5C1372.4 640.6 1370.8 640.1 1369.1 640.1Z" fill="#261134"/>
<path d="M1386.03 649.753L1273.01 809.885L1291.72 823.089L1404.74 662.957L1386.03 649.753Z" fill="#FAD338"/>
<path d="M1292 823.8L1272.5 810L1272.8 809.6L1386 649L1405.5 662.8L1405.2 663.2L1292 823.8ZM1273.8 809.7L1291.7 822.3L1404.1 663L1386.2 650.4L1273.8 809.7Z" fill="#261134"/>
<path d="M1401.11 660.353L1288.09 820.485L1309.58 835.65L1422.59 675.518L1401.11 660.353Z" fill="#261134"/>
<path d="M1305 819.1C1306.8 820.4 1309.2 819.9 1310.5 818.2L1333.3 785.9C1334.6 784.1 1334.1 781.7 1332.3 780.4C1330.5 779.1 1328.1 779.6 1326.8 781.4L1304 813.7C1302.8 815.4 1303.2 817.8 1305 819.1Z" fill="#FEFEFE"/>
<path d="M1307.2 820.3C1306.3 820.3 1305.4 820 1304.6 819.5C1302.6 818.1 1302.1 815.3 1303.5 813.3L1326.3 781C1327 780 1328 779.4 1329.2 779.2C1330.4 779 1331.6 779.3 1332.5 780C1334.5 781.4 1335 784.2 1333.6 786.2L1310.8 818.5C1310.1 819.5 1309.1 820.1 1307.9 820.3C1307.7 820.3 1307.5 820.3 1307.2 820.3ZM1330 780.1C1329.8 780.1 1329.6 780.1 1329.4 780.2C1328.5 780.4 1327.7 780.9 1327.2 781.6L1304.4 813.9C1303.3 815.5 1303.7 817.6 1305.2 818.7C1306.8 819.8 1308.9 819.4 1310 817.9L1332.8 785.6C1333.9 784 1333.5 781.9 1332 780.8C1331.4 780.4 1330.7 780.1 1330 780.1Z" fill="#261134"/>
<path d="M1341.7 767C1343.5 768.3 1345.9 767.8 1347.2 766.1L1370 733.8C1371.3 732 1370.8 729.6 1369.1 728.3C1367.3 727 1364.9 727.5 1363.6 729.2L1340.8 761.5C1339.5 763.3 1339.9 765.8 1341.7 767Z" fill="#FEFEFE"/>
<path d="M1344 768.2C1343.1 768.2 1342.2 767.9 1341.4 767.4C1339.4 766 1338.9 763.2 1340.3 761.2L1363.1 728.9C1363.8 727.9 1364.8 727.3 1366 727.1C1367.2 726.9 1368.4 727.2 1369.3 727.9C1371.3 729.3 1371.8 732.1 1370.4 734.1L1347.6 766.4C1346.8 767.6 1345.4 768.2 1344 768.2ZM1342 766.6C1343.6 767.7 1345.7 767.3 1346.8 765.8L1369.6 733.5C1370.7 731.9 1370.3 729.8 1368.8 728.7C1367.2 727.6 1365.1 728 1364 729.5L1341.2 761.8C1340.1 763.3 1340.5 765.5 1342 766.6Z" fill="#261134"/>
<path d="M1385.19 715.016C1386.47 713.211 1386.04 710.715 1384.23 709.441C1382.43 708.168 1379.93 708.598 1378.66 710.403C1377.38 712.208 1377.81 714.704 1379.62 715.977C1381.42 717.251 1383.92 716.821 1385.19 715.016Z" fill="#FEFEFE"/>
<path d="M1382 717.1C1381.1 717.1 1380.2 716.8 1379.4 716.3C1377.4 714.9 1376.9 712.1 1378.3 710.1C1379 709.1 1380 708.5 1381.2 708.3C1382.4 708.1 1383.6 708.4 1384.5 709.1C1386.5 710.5 1387 713.3 1385.6 715.3C1384.8 716.4 1383.4 717.1 1382 717.1ZM1382.1 709.2C1381 709.2 1379.9 709.7 1379.3 710.7C1378.2 712.3 1378.6 714.4 1380.1 715.5C1381.7 716.6 1383.8 716.2 1384.9 714.7C1385.4 713.9 1385.6 713 1385.5 712.1C1385.3 711.2 1384.8 710.4 1384.1 709.9C1383.4 709.4 1382.7 709.2 1382.1 709.2Z" fill="#261134"/>
<path d="M1392.51 704.696C1393.79 702.891 1393.36 700.395 1391.55 699.122C1389.75 697.848 1387.25 698.278 1385.98 700.083C1384.7 701.888 1385.14 704.384 1386.94 705.658C1388.75 706.931 1391.24 706.501 1392.51 704.696Z" fill="#FEFEFE"/>
<path d="M1389.3 706.7C1388.4 706.7 1387.5 706.4 1386.7 705.9C1385.7 705.2 1385.1 704.2 1384.9 703C1384.7 701.8 1385 700.6 1385.7 699.7C1386.4 698.7 1387.4 698.1 1388.6 697.9C1389.8 697.7 1391 698 1391.9 698.7C1393.9 700.1 1394.4 702.9 1393 704.9C1392.1 706.1 1390.7 706.7 1389.3 706.7ZM1389.3 698.8C1389.1 698.8 1388.9 698.8 1388.7 698.9C1387.8 699.1 1387 699.6 1386.5 700.3C1385.4 701.9 1385.8 704 1387.3 705.1C1388.9 706.2 1391 705.8 1392.1 704.3C1393.2 702.7 1392.8 700.6 1391.3 699.5C1390.7 699 1390.1 698.8 1389.3 698.8Z" fill="#261134"/>
<path d="M1399.75 694.318C1401.03 692.513 1400.6 690.017 1398.79 688.744C1396.99 687.47 1394.49 687.9 1393.22 689.705C1391.95 691.51 1392.38 694.006 1394.18 695.28C1395.99 696.553 1398.48 696.123 1399.75 694.318Z" fill="#FEFEFE"/>
<path d="M1396.6 696.4C1395.7 696.4 1394.8 696.1 1394 695.6C1392 694.2 1391.5 691.4 1392.9 689.4C1394.3 687.4 1397.1 686.9 1399.1 688.3C1400.1 689 1400.7 690 1400.9 691.2C1401.1 692.4 1400.8 693.6 1400.1 694.5C1399.4 695.5 1398.4 696.1 1397.2 696.3C1397.1 696.4 1396.9 696.4 1396.6 696.4ZM1396.6 688.5C1395.5 688.5 1394.4 689 1393.8 690C1392.7 691.6 1393.1 693.7 1394.6 694.8C1395.4 695.3 1396.3 695.5 1397.2 695.4C1398.1 695.2 1398.9 694.7 1399.4 694C1399.9 693.2 1400.1 692.3 1400 691.4C1399.8 690.5 1399.3 689.7 1398.6 689.2C1398 688.7 1397.3 688.5 1396.6 688.5Z" fill="#261134"/>
<path d="M1407.08 683.998C1408.35 682.193 1407.92 679.697 1406.12 678.424C1404.31 677.15 1401.82 677.58 1400.54 679.385C1399.27 681.19 1399.7 683.686 1401.5 684.96C1403.31 686.233 1405.8 685.803 1407.08 683.998Z" fill="#FEFEFE"/>
<path d="M1403.9 686.1C1403 686.1 1402.1 685.8 1401.3 685.3C1399.3 683.9 1398.8 681.1 1400.2 679.1C1401.6 677.1 1404.4 676.6 1406.4 678C1408.4 679.4 1408.9 682.2 1407.5 684.2C1406.7 685.4 1405.3 686.1 1403.9 686.1ZM1403.9 678.2C1402.8 678.2 1401.7 678.7 1401.1 679.7C1400 681.3 1400.4 683.4 1401.9 684.5C1403.5 685.6 1405.6 685.2 1406.7 683.7C1407.8 682.1 1407.4 680 1405.9 678.9C1405.3 678.4 1404.6 678.2 1403.9 678.2Z" fill="#261134"/>
<path d="M1428.08 751.046C1433.37 743.556 1431.58 733.199 1424.09 727.913C1416.6 722.626 1406.24 724.413 1400.96 731.903C1395.67 739.393 1397.46 749.751 1404.95 755.037C1412.44 760.323 1422.8 758.537 1428.08 751.046Z" fill="#FAD338"/>
<path d="M1414.6 758.5C1411.2 758.5 1407.8 757.5 1404.8 755.4C1397.1 750 1395.3 739.3 1400.7 731.6C1406.1 723.9 1416.8 722.1 1424.5 727.5C1432.2 732.9 1434 743.6 1428.6 751.3C1425.3 756 1420 758.5 1414.6 758.5ZM1414.6 725.3C1409.5 725.3 1404.6 727.7 1401.4 732.1C1396.3 739.4 1398 749.4 1405.3 754.5C1412.6 759.6 1422.6 757.9 1427.7 750.6C1432.8 743.3 1431.1 733.3 1423.8 728.2C1421.1 726.3 1417.8 725.3 1414.6 725.3Z" fill="#261134"/>
<path d="M1439.05 735.497C1444.34 728.006 1442.55 717.649 1435.06 712.363C1427.57 707.076 1417.22 708.863 1411.93 716.353C1406.64 723.844 1408.43 734.201 1415.92 739.487C1423.41 744.773 1433.77 742.987 1439.05 735.497Z" fill="#CDCBCC"/>
<path d="M1425.5 743C1422 743 1418.6 741.9 1415.7 739.9C1408 734.5 1406.2 723.8 1411.6 716.1C1417 708.4 1427.7 706.6 1435.4 712C1443.1 717.4 1444.9 728.1 1439.5 735.8C1436.9 739.5 1432.9 742 1428.4 742.8C1427.5 742.9 1426.5 743 1425.5 743ZM1425.6 709.8C1420.5 709.8 1415.6 712.2 1412.4 716.6C1407.3 723.9 1409 733.9 1416.3 739C1419.8 741.5 1424.1 742.4 1428.3 741.7C1432.5 741 1436.2 738.6 1438.7 735.1C1443.8 727.8 1442.1 717.8 1434.8 712.7C1432 710.8 1428.8 709.8 1425.6 709.8Z" fill="#261134"/>
<path d="M1341.5 823C1343.3 824.3 1345.7 823.8 1347 822.1L1383.5 770.4C1384.8 768.6 1384.3 766.2 1382.6 764.9C1380.8 763.6 1378.4 764.1 1377.1 765.8L1340.6 817.5C1339.3 819.3 1339.8 821.7 1341.5 823Z" fill="#FEFEFE"/>
<path d="M1343.8 824.2C1342.9 824.2 1342 823.9 1341.2 823.4C1340.2 822.7 1339.6 821.7 1339.4 820.5C1339.2 819.3 1339.5 818.1 1340.2 817.2L1376.7 765.5C1378.1 763.5 1380.9 763 1382.9 764.4C1384.9 765.8 1385.4 768.6 1384 770.6L1347.5 822.3C1346.6 823.6 1345.2 824.2 1343.8 824.2ZM1341.8 822.6C1343.4 823.7 1345.5 823.3 1346.6 821.8L1383.1 770.1C1384.2 768.5 1383.8 766.4 1382.3 765.3C1381.5 764.8 1380.6 764.6 1379.7 764.7C1378.8 764.9 1378 765.4 1377.5 766.1L1341 817.8C1339.9 819.3 1340.3 821.5 1341.8 822.6Z" fill="#261134"/>
<path d="M1351.9 830.3C1353.7 831.6 1356.1 831.1 1357.4 829.4L1393.9 777.7C1395.2 775.9 1394.7 773.5 1392.9 772.2C1391.1 770.9 1388.7 771.4 1387.4 773.1L1350.9 824.8C1349.7 826.6 1350.1 829 1351.9 830.3Z" fill="#FEFEFE"/>
<path d="M1354.1 831.5C1353.2 831.5 1352.3 831.2 1351.5 830.7C1349.5 829.3 1349 826.5 1350.4 824.5L1386.9 772.8C1388.3 770.8 1391.1 770.3 1393.1 771.7C1395.1 773.1 1395.6 775.9 1394.2 777.9L1357.7 829.6C1357 830.6 1356 831.2 1354.8 831.4C1354.7 831.5 1354.4 831.5 1354.1 831.5ZM1390.6 771.9C1390.4 771.9 1390.2 771.9 1390 772C1389.1 772.2 1388.3 772.7 1387.8 773.4L1351.3 825.1C1350.2 826.7 1350.6 828.8 1352.1 829.9C1352.9 830.4 1353.8 830.6 1354.7 830.5C1355.6 830.4 1356.4 829.8 1356.9 829.1L1393.4 777.4C1394.5 775.8 1394.1 773.7 1392.6 772.6C1392 772.2 1391.3 771.9 1390.6 771.9Z" fill="#261134"/>
<path d="M1362.2 837.6C1364 838.9 1366.4 838.4 1367.7 836.7L1404.2 785C1405.5 783.2 1405 780.8 1403.3 779.5C1401.5 778.2 1399.1 778.7 1397.8 780.5L1361.3 832.2C1360 833.9 1360.4 836.3 1362.2 837.6Z" fill="#FEFEFE"/>
<path d="M1364.5 838.8C1363.6 838.8 1362.7 838.5 1361.9 838C1360.9 837.3 1360.3 836.3 1360.1 835.1C1359.9 833.9 1360.2 832.7 1360.9 831.8L1397.4 780.1C1398.1 779.1 1399.1 778.5 1400.3 778.3C1401.5 778.1 1402.7 778.4 1403.6 779.1C1404.6 779.8 1405.2 780.8 1405.4 782C1405.6 783.2 1405.3 784.4 1404.6 785.3L1368.1 837C1367.4 838 1366.4 838.6 1365.2 838.8C1365 838.8 1364.7 838.8 1364.5 838.8ZM1401 779.2C1400.8 779.2 1400.6 779.2 1400.4 779.3C1399.5 779.5 1398.7 780 1398.2 780.7L1361.7 832.4C1361.2 833.2 1361 834.1 1361.1 835C1361.3 835.9 1361.8 836.7 1362.5 837.2C1363.3 837.7 1364.2 837.9 1365.1 837.8C1366 837.6 1366.8 837.1 1367.3 836.4L1403.8 784.7C1404.3 783.9 1404.5 783 1404.4 782.1C1404.2 781.2 1403.7 780.4 1403 779.9C1402.3 779.5 1401.7 779.2 1401 779.2Z" fill="#261134"/>
<path d="M1290.5 718.3L1297.8 824.5H1224.9V718.3H1290.5Z" fill="#F27B79"/>
<path d="M1298.4 825H1224.4V717.8H1291L1298.4 825ZM1225.4 824H1297.3L1290.1 718.8H1225.4V824Z" fill="#261134"/>
<path d="M1227.8 718.2L1233.1 824.5H1204L1209.7 718.2H1227.8Z" fill="#261134"/>
<path d="M1233.6 825H1203.5L1209.3 717.7H1228.3V718.2L1233.6 825ZM1204.5 824H1232.5L1227.3 718.7H1210.2L1204.5 824Z" fill="#261134"/>
<path d="M1268.7 748.6C1268.4 748.6 1268.2 748.6 1268 748.6C1253.4 747.8 1250.9 735.5 1250.5 733C1250.3 731.8 1250.2 730.7 1250 729.7C1248.4 718.3 1247.8 715.1 1244.1 715.4C1241 715.7 1239.8 718.5 1239.8 718.5L1238.9 718.1C1239 718 1240.3 714.7 1244 714.4C1248.8 713.9 1249.5 718.5 1251 729.5C1251.1 730.6 1251.3 731.7 1251.5 732.8C1251.8 735.1 1254.2 746.8 1268 747.5C1269.7 747.6 1272.9 747.4 1275.4 745.2C1277.5 743.3 1278.6 740.4 1278.8 736.5C1279.1 731.5 1277.6 718.7 1273.7 716.5C1272.6 715.9 1271.6 715.8 1270.8 716.1C1269.5 716.7 1269 718.3 1269 718.4L1268 718.1C1268 718 1268.6 715.9 1270.4 715.2C1271.5 714.7 1272.7 714.9 1274.1 715.7C1278.7 718.2 1280 731.7 1279.7 736.6C1279.5 740.8 1278.2 743.9 1276 746C1273.7 748.2 1270.7 748.6 1268.7 748.6Z" fill="#261134"/>
<path d="M1304.9 762.2H1250L1254.2 824.5H1320.8L1304.9 762.2Z" fill="#31B8ED"/>
<path d="M1321.5 825H1253.7L1249.5 761.7H1305.3L1321.5 825ZM1254.6 824H1320.1L1304.5 762.7H1250.5L1254.6 824Z" fill="#261134"/>
<path d="M1244.1 762.1H1252L1267.3 824.5H1245.7L1244.1 762.1Z" fill="#261134"/>
<path d="M1268 825H1245.3L1243.6 761.6H1252.4L1268 825ZM1246.2 824H1266.7L1251.6 762.6H1244.6L1246.2 824Z" fill="#261134"/>
<path d="M1286.7 783.5H1286.6C1281.7 783.5 1278.1 780.7 1275.6 775L1270.3 762.4C1270.3 762.4 1268.7 759.1 1266.1 759.7C1263.8 760.2 1263.3 762.3 1263.3 762.3L1262.3 762.1C1262.3 762 1262.9 759.3 1265.8 758.7C1269.1 758 1271 761.8 1271.1 762L1276.4 774.6C1279.5 781.6 1283.6 782.4 1286.5 782.5H1286.6C1295.3 782.5 1295.5 775.8 1295.7 771.9C1295.7 771.6 1295.7 771.3 1295.7 771C1296.2 762 1293.4 760.6 1292.5 760.4C1289.2 759.6 1288.2 762.5 1288.1 762.6L1287.2 762.3C1287.2 762.3 1288.6 758.3 1292.8 759.4C1294.2 759.7 1297.2 761.6 1296.7 771.1C1296.7 771.4 1296.7 771.7 1296.7 772C1296.6 775.9 1296.3 783.5 1286.7 783.5Z" fill="#261134"/>
<path d="M1204 825.2L1203.3 824.6L1218 806.8V718.3H1219V807.2L1204 825.2Z" fill="white"/>
<path d="M1218.46 806.685L1217.7 807.336L1232.34 824.418L1233.1 823.767L1218.46 806.685Z" fill="white"/>
<path d="M1246.3 824.4L1245.5 823.8L1253.5 811L1247.9 762.1L1248.8 762L1254.6 811.2L1246.3 824.4Z" fill="white"/>
<path d="M1254.39 810.958L1253.68 811.665L1266.69 824.675L1267.4 823.968L1254.39 810.958Z" fill="white"/>
<path d="M1352.8 824.2H1177V961H1352.8V824.2Z" fill="#261134"/>
<path d="M1383 824.2H1222.3V961H1383V824.2Z" fill="#FAD338"/>
<path d="M1383.5 961.5H1221.8V823.7H1383.5V961.5ZM1222.8 960.5H1382.5V824.7H1222.8V960.5Z" fill="#261134"/>
<path d="M1328 824.2V858.3L1318 852.7L1310.2 857.9L1300.9 852.7L1292.4 858.3V824.2H1328Z" fill="#261134"/>
<path d="M1292.4 891.4H1255.3V893.4H1292.4V891.4Z" fill="#261134"/>
<path d="M1292.4 905.9H1255.3V907.9H1292.4V905.9Z" fill="#261134"/>
<path d="M1292.4 920.3H1255.3V922.3H1292.4V920.3Z" fill="#261134"/>
<path d="M1363.2 888.3H1303.1V925.8H1363.2V888.3Z" fill="#FEFEFE"/>
<path d="M1363.7 926.3H1302.6V887.8H1363.7V926.3ZM1303.6 925.3H1362.7V888.8H1303.6V925.3Z" fill="#261134"/>
<path d="M1111.5 743.8L1126.6 793.9L1416 807.8L1385.7 962.3H1176.8V975.3H1353.6V979H1177.1C1147.7 988.5 1151.1 1016.7 1152.4 1023.4H1380.5V1027.1H1149.5L1149.1 1025.7C1149 1025.3 1140.4 989.1 1173.1 976.5V960.8L1108.8 747.6H1048.2V743.9H1111.5V743.8ZM1397.4 883.6L1364.3 883.3L1360.5 916.8H1390.9L1397.4 883.6ZM1239 916.8H1276.5V882.6L1237.1 882.2L1239 916.8ZM1233.4 882.1L1195.8 881.8L1199.3 916.8H1235.2L1233.4 882.1ZM1280.2 882.5V916.7H1317.6L1319.4 882.8L1280.2 882.5ZM1319.5 879.2L1321.5 841L1280.2 840.6V878.8L1319.5 879.2ZM1276.5 878.8V840.6L1234.9 840.2L1236.9 878.5L1276.5 878.8ZM1276.5 836.9V804.9L1232.9 802.8L1234.7 836.6L1276.5 836.9ZM1280.2 836.9L1321.7 837.3L1323.3 807.1L1280.2 805V836.9ZM1325.4 837.3L1365.7 837.7L1368.9 809.3L1326.9 807.3L1325.4 837.3ZM1325.2 841L1323.2 879.2L1360.9 879.5L1365.2 841.3L1325.2 841ZM1364.6 879.6L1398 879.9L1405.5 841.7L1368.9 841.4L1364.6 879.6ZM1360.5 883.3L1323 883L1321.3 916.8H1356.7L1360.5 883.3ZM1321.1 920.5L1319.1 958.6H1351.9L1356.2 920.5H1321.1ZM1317.4 920.5H1280.2V958.6H1315.5L1317.4 920.5ZM1276.5 920.5H1239.2L1241.2 958.6H1276.5V920.5ZM1235.4 920.5H1199.6L1203.4 958.6H1237.4L1235.4 920.5ZM1195.9 920.5H1164.7L1176.2 958.6H1199.6L1195.9 920.5ZM1195.6 916.8L1192.1 881.8L1153 881.5L1163.7 916.9H1195.6V916.8ZM1151.9 877.7L1191.8 878.1L1188 839.8L1140.4 839.4L1151.9 877.7ZM1195.5 878.1L1233.2 878.4L1231.2 840.1L1191.7 839.7L1195.5 878.1ZM1231 836.5L1229.2 802.6L1187.8 800.6L1191.3 836.1L1231 836.5ZM1372.6 809.4L1369.4 837.7L1406.3 838L1411.5 811.3L1372.6 809.4ZM1390.1 920.5H1360L1355.7 958.6H1382.7L1390.1 920.5ZM1139.2 835.6L1187.6 836L1184.1 800.3L1127.8 797.6L1139.2 835.6Z" fill="#261134"/>
<path d="M1346.2 1027.6C1356.7 1027.6 1365.2 1036.1 1365.2 1046.6C1365.2 1057.1 1356.7 1065.6 1346.2 1065.6C1335.7 1065.6 1327.2 1057.1 1327.2 1046.6C1327.2 1036.1 1335.7 1027.6 1346.2 1027.6ZM1346.2 1059.1C1353.1 1059.1 1358.7 1053.5 1358.7 1046.6C1358.7 1039.7 1353.1 1034.1 1346.2 1034.1C1339.3 1034.1 1333.7 1039.7 1333.7 1046.6C1333.7 1053.5 1339.3 1059.1 1346.2 1059.1Z" fill="#261134"/>
<path d="M1177.2 1028C1187.7 1028 1196.2 1036.5 1196.2 1047C1196.2 1057.5 1187.7 1066 1177.2 1066C1166.7 1066 1158.2 1057.5 1158.2 1047C1158.2 1036.5 1166.8 1028 1177.2 1028ZM1177.2 1059.5C1184.1 1059.5 1189.7 1053.9 1189.7 1047C1189.7 1040.1 1184.1 1034.5 1177.2 1034.5C1170.3 1034.5 1164.7 1040.1 1164.7 1047C1164.7 1053.9 1170.4 1059.5 1177.2 1059.5Z" fill="#261134"/>
<path d="M1066.1 739H1013.1V752H1066.1V739Z" fill="#261134"/>
<path d="M1033.5 698.5L1046.5 706.5L1063.1 709.5C1065.8 709.5 1068.2 711 1069.3 713.5L1078 732.4C1078.8 734.1 1078 736.2 1076.3 736.9L1063.5 742.5H1044.5C1044.5 742.5 1043.5 737.5 1049.5 733.5L1037.5 731.1L1009 722.4L1033.5 698.5Z" fill="#FAD338"/>
<path d="M1063.6 743H1044.1L1044 742.6C1044 742.4 1043.1 737.8 1048.3 733.8L1037.4 731.6L1008 722.6L1033.4 697.9L1046.7 706.1L1063.2 709.1C1065.9 709.1 1068.5 710.8 1069.7 713.3L1078.4 732.2C1078.8 733.2 1078.9 734.2 1078.5 735.2C1078.1 736.2 1077.4 737 1076.4 737.4L1063.6 743ZM1044.9 742H1063.3L1076 736.4C1076.7 736.1 1077.3 735.5 1077.5 734.8C1077.8 734.1 1077.7 733.3 1077.4 732.6L1068.7 713.7C1067.7 711.5 1065.4 710 1063 710L1046.1 706.9L1033.4 699.1L1009.8 722.1L1037.5 730.6L1050.6 733.3L1049.6 734C1045.1 737 1044.9 740.8 1044.9 742Z" fill="#261134"/>
<path d="M920.5 580.5L964.5 634.5L1046.5 698.5L1034.5 720.5L932.5 658.5L900.5 606.5L920.5 580.5Z" fill="#261134"/>
<path d="M919.3 591.1L949.2 563.5C949.2 563.5 976.1 579.9 986 534.7C986 534.7 993.7 511.3 970.2 503.6C956.4 498.4 940.9 503.9 933.6 516.7L884.3 570.6L919.3 591.1Z" fill="#FAD338"/>
<path d="M919.4 591.7L883.6 570.6L884 570.1L933.3 516.2C940.8 503.2 956.4 497.6 970.5 503C994.1 510.7 986.6 534.5 986.6 534.7C983 551.2 976.7 561.4 967.9 565.2C959.3 568.9 951.1 564.9 949.4 564L919.4 591.7ZM885.1 570.4L919.2 590.5L949.1 562.9L949.4 563.1C949.5 563.2 958.3 568.4 967.4 564.5C975.9 560.9 981.9 550.8 985.5 534.7C985.8 533.7 992.8 511.6 970.1 504.2C956.5 499 941.3 504.4 934.1 517L934 517.1L885.1 570.4Z" fill="#261134"/>
<path d="M935 458.3C942.2 462.1 949.2 472.6 946.3 487.3C946.3 487.3 945.7 488.6 944.8 490.7C948.5 489.4 952.1 489.2 955.2 489.6C992.7 494.4 989.2 526.3 989.2 526.3L954.4 520.7C952.2 516.1 947.6 515.3 945.6 516.7C938.2 522 941 533.2 941 533.2L919.7 532.2C919.9 513.2 930.1 502.8 931.9 500.4C924.9 501.4 911.4 501.7 903.4 490.1C900.9 486.4 900 479.2 902.4 472.4C906.1 462.2 918 449.3 935 458.3Z" fill="#261134"/>
<path d="M997.3 1039.1L924.7 1064.7L912.9 1033.7L905.6 1014.4L940.1 1001.3L945.5 1015.5L949.4 1025.7C949.4 1025.8 987.5 1027.5 997.3 1039.1Z" fill="#F27B79"/>
<path d="M924.4 1065.4L905 1014.1L940.5 1000.7L949.8 1025.3C953.8 1025.5 988.3 1027.6 997.7 1038.8L998.2 1039.4L924.4 1065.4ZM906.2 1014.7L924.9 1064.1L996.4 1038.9C986.2 1028.1 949.7 1026.3 949.3 1026.3H949L939.8 1002L906.2 1014.7Z" fill="#261134"/>
<path d="M945.5 1015.5L912.9 1033.7L905.6 1014.4L940.1 1001.3L945.5 1015.5Z" fill="#261134"/>
<path d="M581.5 851.5L561.8 858.8L546.5 864.5L550.5 830.5L570 822.8L577.9 819.7L581.5 851.5Z" fill="#FAD338"/>
<path d="M545.9 865.3L550 830.2L578.3 819L582 851.9L545.9 865.3ZM551 830.9L547.1 863.8L581 851.2L577.6 820.4L551 830.9Z" fill="#261134"/>
<path d="M581.5 851.5L561.8 858.8C564.1 844.4 567.7 830.7 569.9 822.8L577.9 819.6L581.5 851.5Z" fill="#261134"/>
<path d="M1089.3 753.9L1076.5 759.5H1057.5C1057.5 759.5 1056.5 754.5 1062.5 750.5L1050.5 748.1L1043.8 746L1022 739.3L1044.5 718.5L1055.6 725.3L1057.5 726.5H1076.1C1078.8 726.5 1081.2 728 1082.3 730.5L1091 749.4C1091.9 751.1 1091.1 753.1 1089.3 753.9Z" fill="#FAD338"/>
<path d="M1076.6 760H1057.1L1057 759.6C1057 759.4 1056.1 754.8 1061.3 750.8L1050.4 748.6L1021 739.6L1044.4 717.9L1057.6 726H1076.1C1078.9 726 1081.5 727.7 1082.7 730.3L1091.4 749.2C1091.8 750.2 1091.9 751.2 1091.5 752.2C1091.1 753.2 1090.4 754 1089.4 754.4L1076.6 760ZM1057.9 759H1076.3L1089 753.4C1089.7 753.1 1090.3 752.5 1090.5 751.8C1090.7 751.1 1090.8 750.3 1090.4 749.6L1081.7 730.7C1080.7 728.5 1078.4 727 1076 727H1057.2L1044.4 719.1L1022.8 739.1L1050.5 747.6L1063.6 750.3L1062.6 751C1058.1 754 1057.9 757.8 1057.9 759Z" fill="#261134"/>
<path d="M946.3 1008.7L896.3 1028L824.7 850.8L748.4 747.9L727 719L758.3 692.3L788.1 666.7L813.4 645.1L839.5 707.2L889.5 825.8L946.3 1008.7Z" fill="#CDCBCC"/>
<path d="M896 1028.6L895.8 1028.1L824.3 850.9L726.3 718.8L813.5 644.2L889.9 825.5L946.9 1008.9L946.5 1009.1L896 1028.6ZM727.7 719.1L825.2 850.6L896.6 1027.4L945.7 1008.4L889 825.9L813.2 645.9L727.7 719.1Z" fill="#261134"/>
<path d="M1055.6 725.3L1043.8 746L1022 739.3L1044.5 718.5L1055.6 725.3Z" fill="#261134"/>
<path d="M813.4 681.5L790.7 704.7L748.4 747.9L657.7 840.6L567.9 876.9C567.4 854.5 573.6 820.1 573.6 820.1L628.1 789.4L715.1 662.1L733.7 634.9L788 666.7L813.4 681.5Z" fill="#CDCBCC"/>
<path d="M567.5 877.6V876.9C567 854.7 573.1 820.3 573.2 820V819.8L573.4 819.7L627.8 789.1L733.6 634.3L814.1 681.4L657.9 841L567.5 877.6ZM574.1 820.4C573.6 823.4 568.2 855 568.5 876.1L657.5 840.1L812.6 681.6L734 635.6L715.6 662.5L628.5 789.9L628.4 790L574.1 820.4Z" fill="#261134"/>
<path d="M839.5 707.2C822.2 709.9 805.7 708.5 790.7 704.6C779 701.6 768.1 697.2 758.3 692.2C739.6 682.6 724.7 670.7 715.2 662.1L733.8 634.9L788.1 666.7L813.3 645.1L839.5 707.2Z" fill="#261134"/>
<path d="M958.2 652.5L929.7 599.8C928.5 586.5 927.5 586.7 927.5 586.7C899.6 571.5 901.4 546.9 901.4 546.9L873.5 542.1C850.6 542.4 842.8 551 830.8 559.1L720.7 643.9C720.7 643.9 756.5 676.5 778.5 687.5C815.3 705.9 838.6 700.4 838.6 700.4L884 650.1L908.9 688.8L1028.5 756.4L1054.5 720.4L958.2 652.5Z" fill="#1BA096"/>
<path d="M1028.6 757.2L1028.2 757L908.5 689.3L908.4 689.2L883.8 651L838.8 700.9H838.6C838.4 701 814.7 706.2 778.1 687.9C756.3 677 720.5 644.6 720.1 644.2L719.7 643.8L720.2 643.4L830.3 558.6C832.2 557.3 833.9 556.1 835.6 554.8C844.9 548.1 853.7 541.8 873.2 541.5L901.7 546.4V546.9C901.7 547.1 900.3 571.2 927.4 586.1L927.6 586.3C928.4 586.9 929.2 591.4 929.9 599.6L958.3 652.2L1054.9 720.4L1028.6 757.2ZM909.3 688.5L1028.4 755.8L1053.8 720.6L957.8 652.9L957.7 652.8L929.1 600V599.9C928.2 589.3 927.3 587.5 927.1 587.2C901.3 573.1 900.6 550.9 900.7 547.4L873.2 542.7C854.1 543 845.4 549.2 836.3 555.8C834.6 557 832.8 558.3 831 559.6L721.4 644C725.6 647.8 758.3 676.9 778.7 687.1C813.4 704.5 836.3 700.4 838.3 700L884 649.4L909.3 688.5Z" fill="#261134"/>
<path d="M536.8 870.9C521 835.7 549.8 817.1 550.1 816.9L550.6 817.7C550.3 817.9 522.3 836.1 537.7 870.5L536.8 870.9Z" fill="#261134"/>
<path d="M561.5 886.7C549.4 886.7 543.5 881 543.2 880.7L543.9 880C544 880.1 553 888.8 571.8 884.4L572 885.4C568.1 886.3 564.6 886.7 561.5 886.7Z" fill="#261134"/>
<path d="M512.4 870.2C509.6 847.4 513.5 829.5 523.8 817.1C536.5 801.8 554.7 800.4 554.9 800.4L555 801.4C554.8 801.4 537 802.8 524.6 817.8C514.5 830 510.7 847.6 513.5 870.1L512.4 870.2Z" fill="#261134"/>
<path d="M554.6 913.9C527.9 913.9 518.2 891 518.1 890.7L519 890.3C519.1 890.5 529.5 914.9 558.3 912.7L558.4 913.7C557.1 913.9 555.8 913.9 554.6 913.9Z" fill="#261134"/>
<path d="M858.018 607.108L857.171 607.64L884.186 650.662L885.033 650.131L858.018 607.108Z" fill="black"/>
<path d="M1471 1065.5H138V1067.5H1471V1065.5Z" fill="#261134"/>
</svg>
