<svg width="1601" height="1200" viewBox="0 0 1601 1200" fill="none" xmlns="http://www.w3.org/2000/svg">
<path d="M1211.2 204.1C1134.3 204.1 1071.8 266.6 1071.8 343.5V624.8H1350.6V343.5C1350.6 266.6 1288 204.1 1211.2 204.1ZM1332.3 343.4V344.6H1220.3V222.7C1282.9 227.3 1332.3 279.7 1332.3 343.4ZM1220.3 362.8H1332.3V473.7H1220.3V362.8ZM1202.1 473.7H1090.1V362.8H1202.1V473.7ZM1202.1 222.6V344.5H1090.1V343.3C1090.1 279.7 1139.5 227.3 1202.1 222.6ZM1090.1 491.9H1202.1V606.4H1090.1V491.9ZM1220.3 606.5V492H1332.3V606.5H1220.3Z" fill="#F0F1F6"/>
<path d="M1351.1 625.2H1071.3V343.4C1071.3 266.3 1134 203.5 1211.2 203.5C1288.3 203.5 1351.1 266.2 1351.1 343.4V625.2ZM1072.3 624.2H1350.1V343.4C1350.1 266.8 1287.8 204.5 1211.2 204.5C1134.6 204.5 1072.3 266.8 1072.3 343.4V624.2ZM1332.8 607H1219.8V491.5H1332.8V607ZM1220.8 606H1331.8V492.5H1220.8V606ZM1202.6 607H1089.6V491.5H1202.6V607ZM1090.6 606H1201.6V492.5H1090.6V606ZM1332.8 474.2H1219.8V362.3H1332.8V474.2ZM1220.8 473.2H1331.8V363.3H1220.8V473.2ZM1202.6 474.2H1089.6V362.3H1202.6V474.2ZM1090.6 473.2H1201.6V363.3H1090.6V473.2ZM1332.8 345.1H1219.8V222.1H1220.3C1250.8 224.4 1279.1 238 1300.1 260.5C1321.2 283.1 1332.8 312.5 1332.8 343.4V345.1ZM1220.8 344.1H1331.8V343.4C1331.8 280.8 1283.1 228.1 1220.8 223.2V344.1ZM1202.6 345.1H1089.6V343.4C1089.6 312.6 1101.2 283.1 1122.3 260.5C1143.3 238 1171.6 224.4 1202.1 222.1H1202.6V345.1ZM1090.6 344.1H1201.6V223.2C1139.3 228.1 1090.6 280.9 1090.6 343.4V344.1Z" fill="#261134"/>
<path d="M332.8 937.5L339.1 1065.7H367.1L373.4 937.5H332.8Z" fill="#261134"/>
<path d="M1156 937.5L1162.4 1065.7H1190.3L1196.7 937.5H1156Z" fill="#261134"/>
<path d="M1250.5 751.1H1209.8L1215.2 653.1C1217.7 607.8 1181.6 569.7 1136.2 569.7H679.9V570.2H394.1C348.7 570.2 312.6 608.3 315.1 653.6L320.5 751.6H279.8C267.3 751.6 257.6 762.4 259 774.8L276 931.1C277.7 947.1 291.3 959.2 307.3 959.2H850.4V958.7H1223C1239.1 958.7 1252.6 946.6 1254.3 930.6L1271.3 774.3C1272.7 761.9 1263 751.1 1250.5 751.1Z" fill="#F0F1F6"/>
<path d="M850.8 959.7H307.2C290.8 959.7 277.1 947.4 275.4 931.1L258.4 774.8C257.7 768.8 259.7 762.7 263.8 758.2C267.9 753.7 273.7 751.1 279.8 751.1H320L314.7 653.6C313.5 631.5 321.2 610.6 336.4 594.5C351.6 578.5 372.1 569.6 394.2 569.6H679.5V569.1H1136.3C1158.4 569.1 1178.9 577.9 1194.1 594C1209.3 610 1217 631 1215.8 653.1L1210.5 750.6H1250.7C1256.8 750.6 1262.6 753.2 1266.7 757.7C1270.8 762.2 1272.7 768.3 1272.1 774.3L1255.1 930.6C1253.3 946.9 1239.6 959.2 1223.3 959.2H851.1V959.7H850.8ZM279.7 752.1C273.9 752.1 268.3 754.6 264.5 758.9C260.6 763.2 258.8 769 259.4 774.8L276.4 931.1C278.1 946.9 291.4 958.8 307.3 958.8H849.9V958.3H1223C1238.9 958.3 1252.1 946.4 1253.9 930.6L1270.9 774.3C1271.5 768.5 1269.7 762.7 1265.8 758.4C1261.9 754.1 1256.4 751.6 1250.6 751.6H1209.3V751.1L1214.7 653.1C1215.9 631.3 1208.3 610.6 1193.3 594.8C1178.3 579 1158 570.2 1136.2 570.2H680.4V570.7H394.1C372.3 570.7 352 579.4 337 595.3C322 611.1 314.4 631.9 315.6 653.6L321 752.1H279.7Z" fill="#261134"/>
<path d="M349.9 837.7L338.2 687.4C338.2 687.4 312.9 593.5 597.3 624.2C881.7 654.9 1177.7 825.5 1177.7 825.5L1163.3 864.3L349.9 837.7Z" fill="#E9EAEE"/>
<path d="M349 825.6H1177.7L1175.1 870.3C1174 889.3 1158.3 904.1 1139.3 904.1H387.4C368.4 904.1 352.6 889.3 351.6 870.3L349 825.6Z" fill="#D8DAE6"/>
<path d="M275.6 403.9C275.6 389 263.6 377 248.7 377C233.8 377 221.8 389 221.8 403.9C221.8 407.6 222.5 411.1 223.9 414.3C224.3 415.3 224.8 416.2 225.3 417.2L248.4 463.7L271.8 417.7C272.4 416.6 273 415.5 273.5 414.4C274.8 411.1 275.6 407.6 275.6 403.9ZM248.9 415.3C243 415.3 238.2 410.5 238.2 404.6C238.2 398.7 243 393.9 248.9 393.9C254.8 393.9 259.6 398.7 259.6 404.6C259.6 410.5 254.9 415.3 248.9 415.3Z" fill="#F27B79"/>
<path d="M248.4 464.8L224.8 417.4C224.3 416.4 223.8 415.5 223.4 414.5C222 411.1 221.3 407.5 221.3 403.9C221.3 388.8 233.6 376.5 248.7 376.5C263.8 376.5 276.1 388.8 276.1 403.9C276.1 407.6 275.4 411.2 274 414.5C273.5 415.6 272.9 416.8 272.3 417.9L248.4 464.8ZM248.7 377.5C234.1 377.5 222.3 389.3 222.3 403.9C222.3 407.5 223 410.9 224.4 414.2C224.8 415.1 225.3 416.1 225.8 417L248.5 462.6L271.4 417.4C272 416.3 272.6 415.2 273.1 414.1C274.5 410.8 275.2 407.4 275.2 403.8C275.1 389.4 263.2 377.5 248.7 377.5ZM248.9 415.8C242.7 415.8 237.7 410.8 237.7 404.6C237.7 398.4 242.7 393.4 248.9 393.4C255.1 393.4 260.1 398.4 260.1 404.6C260.1 410.8 255.1 415.8 248.9 415.8ZM248.9 394.4C243.3 394.4 238.7 399 238.7 404.6C238.7 410.2 243.3 414.8 248.9 414.8C254.5 414.8 259.1 410.2 259.1 404.6C259.1 399 254.6 394.4 248.9 394.4Z" fill="#261134"/>
<path d="M1035.9 588.9L1044 706.9H963V588.9H1035.9Z" fill="#F27B79"/>
<path d="M1044.6 707.4H962.5V588.4H1036.4V588.9L1044.6 707.4ZM963.5 706.4H1043.5L1035.5 589.4H963.5V706.4Z" fill="#261134"/>
<path d="M966.2 588.8L972.1 706.9H939.8L946.1 588.8H966.2Z" fill="#261134"/>
<path d="M972.6 707.4H939.3L945.7 588.3H966.7V588.8L972.6 707.4ZM940.3 706.4H971.5L965.7 589.3H946.6L940.3 706.4Z" fill="#261134"/>
<path d="M1011.7 622.5C1011.4 622.5 1011.1 622.5 1010.9 622.5C994.7 621.6 992 607.9 991.6 605.2C991.4 603.9 991.2 602.7 991.1 601.5C989.3 588.8 988.6 585.2 984.4 585.6C980.9 586 979.6 589.1 979.6 589.1L978.7 588.7C978.8 588.5 980.2 585 984.3 584.6C989.6 584.1 990.3 589.1 992.1 601.4C992.3 602.6 992.4 603.8 992.6 605.1C993 607.7 995.6 620.7 1011 621.5C1012.9 621.6 1016.5 621.4 1019.2 618.9C1021.5 616.8 1022.8 613.6 1023 609.2C1023.3 603.6 1021.7 589.3 1017.3 586.9C1016.1 586.2 1015 586.1 1014.1 586.4C1012.6 587 1012 588.9 1012 589L1011 588.7C1011 588.6 1011.7 586.3 1013.6 585.5C1014.8 585 1016.2 585.2 1017.7 586C1022.7 588.8 1024.2 603.9 1023.9 609.2C1023.7 613.8 1022.3 617.3 1019.8 619.6C1017.2 622 1013.8 622.5 1011.7 622.5Z" fill="#261134"/>
<path d="M1051.9 637.7H990.9L995.5 706.9H1069.5L1051.9 637.7Z" fill="#31B8ED"/>
<path d="M1070.2 707.4H995L990.3 637.2H1052.2L1070.2 707.4ZM996 706.4H1068.9L1051.5 638.2H991.4L996 706.4Z" fill="#261134"/>
<path d="M984.3 637.5H993L1010.1 706.9H986.1L984.3 637.5Z" fill="#261134"/>
<path d="M1010.8 707.4H985.7L983.8 637H993.5L1010.8 707.4ZM986.6 706.4H1009.5L992.6 638H984.8L986.6 706.4Z" fill="#261134"/>
<path d="M1031.6 661.2H1031.5C1026.1 661.2 1022.1 658.1 1019.3 651.8L1013.4 637.8C1013.4 637.8 1011.6 634.1 1008.7 634.8C1006.2 635.4 1005.6 637.7 1005.6 637.8L1004.6 637.6C1004.6 637.5 1005.3 634.6 1008.5 633.9C1012.2 633.1 1014.2 637.3 1014.3 637.5L1020.2 651.5C1023.6 659.3 1028.3 660.2 1031.5 660.3H1031.6C1041.3 660.3 1041.6 652.9 1041.7 648.4C1041.7 648 1041.7 647.7 1041.7 647.4C1042.2 637.3 1039.1 635.8 1038.1 635.5C1034.4 634.6 1033.2 637.9 1033.2 638L1032.3 637.7C1032.3 637.7 1033.8 633.4 1038.4 634.5C1039.9 634.9 1043.3 636.9 1042.7 647.4C1042.7 647.7 1042.7 648 1042.7 648.4C1042.5 652.9 1042.2 661.2 1031.6 661.2Z" fill="#261134"/>
<path d="M939.8 707.6L939 707L955.4 687.3V588.9H956.4V687.6L939.8 707.6Z" fill="white"/>
<path d="M956.29 687.029L955.53 687.679L971.8 706.662L972.56 706.011L956.29 687.029Z" fill="white"/>
<path d="M986.8 706.7L985.9 706.2L994.8 691.9L988.5 637.6L989.5 637.5L995.9 692.1L986.8 706.7Z" fill="white"/>
<path d="M995.684 691.643L994.977 692.35L1009.4 706.775L1010.11 706.068L995.684 691.643Z" fill="white"/>
<path d="M1072.9 706.5H877.6V858.5H1072.9V706.5Z" fill="#261134"/>
<path d="M1106.4 706.5H927.8V858.5H1106.4V706.5Z" fill="#FAD338"/>
<path d="M1106.9 859H927.3V706H1106.9V859ZM928.3 858H1105.9V707H928.3V858Z" fill="#261134"/>
<path d="M1045.3 706.5V744.4L1034.1 738.2L1025.5 744L1015.2 738.2L1005.7 744.4V706.5H1045.3Z" fill="#261134"/>
<path d="M1005.7 781.3H964.5V783.3H1005.7V781.3Z" fill="#261134"/>
<path d="M1005.7 797.4H964.5V799.4H1005.7V797.4Z" fill="#261134"/>
<path d="M1005.7 813.4H964.5V815.4H1005.7V813.4Z" fill="#261134"/>
<path d="M1084.4 777.8H1017.7V819.4H1084.4V777.8Z" fill="#F0F1F6"/>
<path d="M1084.9 819.9H1017.2V777.3H1084.9V819.9ZM1018.2 818.9H1083.9V778.3H1018.2V818.9Z" fill="#261134"/>
<path d="M1155.6 858H823.4V859H1155.6V858Z" fill="#261134"/>
<path d="M1042.91 146.707L937.366 215.348L937.911 216.186L1043.45 147.545L1042.91 146.707Z" fill="#261134"/>
<path d="M1222.84 126.702L1030.63 254.085L1031.18 254.919L1223.39 127.535L1222.84 126.702Z" fill="#261134"/>
<path d="M757.87 74.7252L634.846 156.259L635.399 157.093L758.423 75.5587L757.87 74.7252Z" fill="#261134"/>
<path d="M1191.09 394.723L1063.86 476.973L1064.4 477.812L1191.63 395.563L1191.09 394.723Z" fill="#261134"/>
<path d="M845.131 336.552L812.261 419.472L918.793 461.702L951.663 378.782L845.131 336.552Z" fill="#261134"/>
<path d="M872.602 347.413L839.731 430.333L937.154 468.952L970.024 386.032L872.602 347.413Z" fill="#FAD338"/>
<path d="M937.3 469.3L936.8 469.1L838.9 430.3L839.1 429.8L872.2 346.4L872.7 346.6L970.6 385.4L970.4 385.9L937.3 469.3ZM840.2 429.7L936.7 467.9L969.2 385.9L872.7 347.7L840.2 429.7Z" fill="#261134"/>
<path d="M936.5 372.5L928.3 393.1L923.6 387.4L917.6 388.6L913.2 383.3L906.7 384.6L914.9 363.9L936.5 372.5Z" fill="#261134"/>
<path d="M876.544 395.732L875.807 397.591L898.303 406.509L899.04 404.649L876.544 395.732Z" fill="#261134"/>
<path d="M873.091 404.534L872.354 406.393L894.85 415.311L895.587 413.451L873.091 404.534Z" fill="#261134"/>
<path d="M869.676 413.244L868.939 415.103L891.436 424.021L892.173 422.161L869.676 413.244Z" fill="#261134"/>
<path d="M906.17 405.739L897.179 428.421L933.619 442.866L942.61 420.184L906.17 405.739Z" fill="#F0F1F6"/>
<path d="M933.7 443.2L896.4 428.4L905.8 404.8L943.1 419.6L933.7 443.2ZM897.7 427.8L933.2 441.9L941.8 420.1L906.3 406L897.7 427.8Z" fill="#261134"/>
<path d="M865.3 272.5L782.4 239.7L778.1 250.6L859.6 286.9L865.3 272.5Z" fill="#261134"/>
<path d="M973.91 312.8C981.46 293.752 969.352 271.085 946.865 262.171C924.378 253.257 900.028 261.472 892.477 280.519C884.927 299.566 897.035 322.234 919.522 331.148C942.009 340.062 966.36 331.847 973.91 312.8Z" fill="#261134"/>
<path d="M998.8 325.4L1081.7 358.3L1077.4 369.2L993.1 339.8L998.8 325.4Z" fill="#261134"/>
<path d="M872.6 273.6L862.5 299.2C858.2 310.1 863.5 322.5 874.5 326.8L955 358.7C965.9 363 978.3 357.7 982.6 346.7L992.7 321.1L872.6 273.6Z" fill="#261134"/>
<path d="M797.5 215.6L874.4 239.8L861.5 249.3L795.4 220.7L797.5 215.6Z" fill="#261134"/>
<path d="M790.8 218.3L715.2 190.4L728.5 181.5L793.1 213.3L790.8 218.3Z" fill="#261134"/>
<path d="M862.3 267.9L852.7 292.2C851.4 295.4 853 299 856.2 300.2L903.4 318.9C903.4 316 904.1 313.1 905.4 310.3C909.9 300.8 921 296.1 930.9 299.6C942.1 303.5 947.7 315.9 943.4 326.8C942.4 329.2 941.1 331.3 939.4 333.1L986.6 351.8C989.8 353.1 993.4 351.5 994.6 348.3L1004.2 324C1005.5 320.8 1003.9 317.2 1000.7 316L870.3 264.3C867.1 263.2 863.5 264.7 862.3 267.9Z" fill="#31B8ED"/>
<path d="M988.8 352.9C988 352.9 987.1 352.7 986.3 352.4L938.5 333.4L939 332.9C940.7 331.1 941.9 329 942.9 326.7C944.9 321.5 944.8 315.9 942.5 310.8C940.2 305.7 936 301.9 930.7 300.1C921.1 296.7 910.1 301.3 905.8 310.5C904.6 313.1 903.9 316 903.9 318.8V319.5L856.1 300.5C852.7 299.1 851 295.2 852.3 291.8L861.9 267.5C862.6 265.8 863.8 264.5 865.5 263.8C867.1 263.1 869 263.1 870.6 263.7L1001 315.4C1004.4 316.8 1006.1 320.7 1004.8 324.1L995.2 348.4C994.5 350.1 993.3 351.4 991.6 352.1C990.6 352.7 989.7 352.9 988.8 352.9ZM940.2 333L986.7 351.4C988.1 352 989.7 351.9 991.1 351.3C992.5 350.7 993.6 349.6 994.1 348.2L1003.7 323.9C1004.9 321 1003.4 317.7 1000.5 316.5L870.1 264.8C868.7 264.2 867.1 264.3 865.7 264.9C864.3 265.5 863.2 266.6 862.7 268L853.1 292.3C851.9 295.2 853.4 298.5 856.3 299.7L902.8 318.1C902.9 315.3 903.6 312.6 904.8 310.1C909.4 300.4 920.9 295.6 931 299.1C936.5 301 940.9 305 943.3 310.3C945.7 315.6 945.9 321.5 943.7 327C942.9 329.3 941.7 331.3 940.2 333Z" fill="#261134"/>
<path d="M1087.2 330.5L1014.6 295.4L1017.5 311.1L1085.2 335.6L1087.2 330.5Z" fill="#261134"/>
<path d="M780.6 217.6L766.4 253.4C763.9 259.8 767 267.1 773.4 269.6C779.8 272.1 787.1 269 789.6 262.6L803.8 226.8C806.3 220.4 803.2 213.1 796.8 210.6C790.4 208.1 783.2 211.2 780.6 217.6Z" fill="#F0F1F6"/>
<path d="M778 271C776.4 271 774.8 270.7 773.2 270.1C766.5 267.5 763.3 259.9 765.9 253.3L780.1 217.5C781.4 214.3 783.8 211.7 787 210.4C790.2 209 793.7 209 796.9 210.2C800.1 211.5 802.7 213.9 804 217.1C805.4 220.3 805.4 223.8 804.2 227L790 262.8C788.7 266 786.3 268.6 783.1 269.9C781.5 270.7 779.8 271 778 271ZM792.2 210.3C790.6 210.3 789 210.6 787.4 211.3C784.5 212.6 782.2 214.9 781 217.9L766.8 253.7C764.4 259.8 767.4 266.8 773.5 269.2C776.5 270.4 779.7 270.3 782.7 269.1C785.6 267.8 787.9 265.5 789.1 262.5L803.3 226.7C804.5 223.7 804.4 220.5 803.2 217.5C802 214.5 799.6 212.3 796.6 211.1C795.2 210.5 793.7 210.3 792.2 210.3Z" fill="#261134"/>
<path d="M1090.2 337L1164.4 368.4L1160.8 352.8L1092 331.7L1090.2 337Z" fill="#261134"/>
<path d="M777.6 216L807.2 227.7C809.4 228.6 810.5 231.1 809.6 233.3L798.5 261.4C797.6 263.6 795.1 264.7 792.9 263.8L763.3 252.1C761.1 251.2 760 248.7 760.9 246.5L772 218.4C772.8 216.2 775.3 215.1 777.6 216Z" fill="#31B8ED"/>
<path d="M794.5 264.7C793.9 264.7 793.3 264.6 792.7 264.4L763.1 252.7C761.9 252.2 761 251.3 760.4 250.1C759.8 248.9 759.9 247.6 760.3 246.4L771.4 218.3C771.9 217.1 772.8 216.2 774 215.6C775.2 215.1 776.5 215.1 777.7 215.5L807.3 227.2C808.5 227.7 809.4 228.6 810 229.8C810.5 231 810.5 232.3 810.1 233.5L799 261.6C798.5 262.8 797.6 263.7 796.4 264.3C795.8 264.6 795.1 264.7 794.5 264.7ZM776 216.2C775.5 216.2 775 216.3 774.5 216.5C773.6 216.9 772.8 217.7 772.5 218.6L761.4 246.7C761 247.7 761 248.7 761.4 249.6C761.8 250.5 762.6 251.3 763.5 251.6L793.1 263.3C794.1 263.7 795.1 263.7 796 263.3C796.9 262.9 797.7 262.1 798 261.2L809.1 233.1C809.5 232.1 809.5 231.1 809.1 230.2C808.7 229.3 807.9 228.5 807 228.2L777.4 216.5C776.9 216.3 776.4 216.2 776 216.2Z" fill="#261134"/>
<path d="M1098.1 343.5L1083.9 379.3C1081.4 385.7 1074.1 388.8 1067.7 386.3C1061.3 383.8 1058.2 376.5 1060.7 370.1L1074.9 334.3C1077.4 327.9 1084.7 324.8 1091.1 327.3C1097.5 329.8 1100.6 337.1 1098.1 343.5Z" fill="#F0F1F6"/>
<path d="M1072.3 387.7C1070.7 387.7 1069.1 387.4 1067.5 386.8C1064.3 385.5 1061.7 383.1 1060.4 379.9C1059 376.7 1059 373.2 1060.2 370L1074.4 334.2C1075.7 331 1078.1 328.4 1081.3 327.1C1084.5 325.7 1088 325.7 1091.2 326.9C1094.4 328.2 1097 330.6 1098.3 333.8C1099.7 337 1099.7 340.5 1098.5 343.7L1084.3 379.5C1082.3 384.5 1077.4 387.7 1072.3 387.7ZM1086.5 326.9C1084.9 326.9 1083.3 327.2 1081.7 327.9C1078.8 329.2 1076.5 331.5 1075.3 334.5L1061.1 370.3C1058.7 376.4 1061.7 383.4 1067.8 385.8C1073.9 388.2 1080.9 385.2 1083.3 379.1L1097.5 343.3C1098.7 340.3 1098.6 337.1 1097.4 334.1C1096.2 331.1 1093.8 328.9 1090.8 327.7C1089.5 327.2 1088 326.9 1086.5 326.9Z" fill="#261134"/>
<path d="M1101.4 344.4L1071.8 332.7C1069.6 331.8 1067.1 332.9 1066.2 335.1L1055.1 363.2C1054.2 365.4 1055.3 367.9 1057.5 368.8L1087.1 380.5C1089.3 381.4 1091.8 380.3 1092.7 378.1L1103.8 350C1104.7 347.8 1103.7 345.3 1101.4 344.4Z" fill="#31B8ED"/>
<path d="M1088.7 381.4C1088.1 381.4 1087.5 381.3 1086.9 381.1L1057.3 369.4C1054.8 368.4 1053.6 365.6 1054.6 363.1L1065.7 335C1066.2 333.8 1067.1 332.9 1068.3 332.3C1069.5 331.8 1070.8 331.8 1072 332.2L1101.6 343.9C1102.8 344.4 1103.7 345.3 1104.3 346.5C1104.9 347.7 1104.8 349 1104.4 350.2L1093.3 378.3C1092.8 379.5 1091.9 380.4 1090.7 381C1090 381.2 1089.3 381.4 1088.7 381.4ZM1070.2 332.8C1069.7 332.8 1069.2 332.9 1068.7 333.1C1067.8 333.5 1067 334.3 1066.7 335.2L1055.6 363.3C1054.8 365.3 1055.8 367.5 1057.8 368.3L1087.4 380C1088.4 380.4 1089.4 380.4 1090.3 380C1091.2 379.6 1092 378.8 1092.3 377.9L1103.4 349.8C1103.8 348.8 1103.8 347.8 1103.4 346.9C1103 346 1102.2 345.2 1101.3 344.9L1071.7 333.2C1071.1 332.9 1070.7 332.8 1070.2 332.8Z" fill="#261134"/>
<path d="M935.651 324.296C938.154 317.981 935.064 310.833 928.749 308.329C922.434 305.826 915.286 308.916 912.783 315.231C910.279 321.546 913.369 328.694 919.684 331.198C925.999 333.701 933.148 330.611 935.651 324.296Z" fill="#F0F1F6"/>
<path d="M987.9 397.9C987.8 374.8 977.7 359.8 973.7 354.8C972.9 353.8 971.4 353.7 970.5 354.6C969.7 355.4 969.6 356.7 970.3 357.6C973.8 362.1 983.4 376.3 983.5 398C983.6 407.5 981.7 417.1 978 426.4L958 476.7L874.8 443.7L791.6 410.7L811.6 360.4C815.3 351.1 820.5 342.9 827.1 336C842.1 320.2 859 316.5 864.5 315.6C865.6 315.4 866.3 314.5 866.3 313.4V313.2C866.2 312 865.1 311.1 863.9 311.3C857.7 312.2 840 316.1 823.9 333C816.9 340.3 811.4 349 807.5 358.8L785.9 413.2L873.2 447.8L960.5 482.4L982.1 428C986 418.1 988 408 987.9 397.9Z" fill="#261134"/>
<path d="M928.1 339.8L907.2 331.6L905.6 335.7L913.8 338.9L905.7 359.4L909.8 361L917.9 340.5L926.4 343.9L928.1 339.8Z" fill="#261134"/>
<path d="M681 422.7H586.6C582.1 422.7 578.4 426.4 578.4 430.9V499.8C578.4 504.3 582.1 508 586.6 508H615.6L633.8 533.8L652 508H681C685.5 508 689.2 504.3 689.2 499.8V430.9C689.2 426.3 685.6 422.7 681 422.7Z" fill="white"/>
<path d="M633.8 534.6L615.3 508.5H586.5C581.7 508.5 577.8 504.6 577.8 499.8V430.9C577.8 426.1 581.7 422.2 586.5 422.2H680.9C685.7 422.2 689.6 426.1 689.6 430.9V499.8C689.6 504.6 685.7 508.5 680.9 508.5H652.1L633.8 534.6ZM586.6 423.2C582.4 423.2 578.9 426.6 578.9 430.9V499.8C578.9 504 582.3 507.5 586.6 507.5H615.9L633.8 532.9L651.7 507.5H681C685.2 507.5 688.7 504.1 688.7 499.8V430.9C688.7 426.7 685.3 423.2 681 423.2H586.6Z" fill="#261134"/>
<path d="M660 454.4L611 449.1L609 440L598.8 436.7C598 436.4 597.1 436.9 596.8 437.7C596.5 438.5 597 439.4 597.8 439.7L606.3 442.5L615.6 484.7H652.7C653.6 484.7 654.3 484 654.3 483.1C654.3 482.2 653.6 481.5 652.7 481.5H618.2L616.7 474.7H656.3L660 454.4Z" fill="#31B8ED"/>
<path d="M652.7 485.2H615.2L605.8 442.9L597.6 440.2C596.5 439.8 595.9 438.6 596.3 437.5C596.5 437 596.8 436.5 597.3 436.3C597.8 436 598.4 436 598.9 436.2L609.4 439.6L611.4 448.7L660.6 454L656.7 475.2H617.3L618.6 481H652.7C653.9 481 654.8 481.9 654.8 483.1C654.8 484.3 653.9 485.2 652.7 485.2ZM616 484.2H652.7C653.3 484.2 653.8 483.7 653.8 483.1C653.8 482.5 653.3 482 652.7 482H617.8L616.1 474.2H655.9L659.5 454.8L610.7 449.5L608.7 440.3L598.8 437C598.5 436.9 598.2 436.9 598 437.1C597.8 437.3 597.5 437.5 597.5 437.7C597.3 438.3 597.6 438.9 598.2 439.1L606.9 442L616 484.2Z" fill="#261134"/>
<path d="M622.3 498.4C624.951 498.4 627.1 496.251 627.1 493.6C627.1 490.949 624.951 488.8 622.3 488.8C619.649 488.8 617.5 490.949 617.5 493.6C617.5 496.251 619.649 498.4 622.3 498.4Z" fill="#31B8ED"/>
<path d="M622.3 498.9C619.4 498.9 617 496.5 617 493.6C617 490.7 619.4 488.3 622.3 488.3C625.2 488.3 627.6 490.7 627.6 493.6C627.6 496.5 625.2 498.9 622.3 498.9ZM622.3 489.3C619.9 489.3 618 491.2 618 493.6C618 496 619.9 497.9 622.3 497.9C624.7 497.9 626.6 496 626.6 493.6C626.6 491.2 624.6 489.3 622.3 489.3Z" fill="#261134"/>
<path d="M647.2 498.4C649.851 498.4 652 496.251 652 493.6C652 490.949 649.851 488.8 647.2 488.8C644.549 488.8 642.4 490.949 642.4 493.6C642.4 496.251 644.549 498.4 647.2 498.4Z" fill="#31B8ED"/>
<path d="M647.2 498.9C644.3 498.9 641.9 496.5 641.9 493.6C641.9 490.7 644.3 488.3 647.2 488.3C650.1 488.3 652.5 490.7 652.5 493.6C652.5 496.5 650.1 498.9 647.2 498.9ZM647.2 489.3C644.8 489.3 642.9 491.2 642.9 493.6C642.9 496 644.8 497.9 647.2 497.9C649.6 497.9 651.5 496 651.5 493.6C651.5 491.2 649.6 489.3 647.2 489.3Z" fill="#261134"/>
<path d="M618.1 1064.5H541.5L505 1042.9L516.8 1005.8L529.9 964.8L581.4 983.1L563.8 1021.1L561.4 1026.3C561.6 1026.3 598.2 1041.2 618.1 1064.5Z" fill="#F27B79"/>
<path d="M619.2 1065H541.4L541.3 1064.9L504.5 1043.1L529.7 964.1L530.2 964.3L582.3 982.8L562.3 1026C566.7 1027.9 600 1042.5 618.5 1064.2L619.2 1065ZM541.7 1064H617C597.2 1041.6 561.7 1026.9 561.4 1026.7L560.9 1026.5L580.8 983.3L530.3 965.4L505.6 1042.7L541.7 1064Z" fill="#261134"/>
<path d="M495.8 540.4C495.8 540.4 478.3 505.8 477.1 488.8L485.7 451.5C485.7 451.5 487.5 415.7 440.1 423.3C440.1 423.3 440.8 406.4 429.6 402.2C429.6 402.2 434.9 411.8 432.6 421.2C432.6 421.2 424 400.1 406.6 410.8C406.6 410.8 393.1 417.8 396.4 431.1C396.4 431.1 395.8 446.2 416.5 447C416.5 447 415.8 465.8 369.6 490.4C369.6 490.4 331.2 507.8 333.5 547.4C335.8 587 370.5 612.9 370.5 612.9L500.4 616L495.8 540.4Z" fill="#261134"/>
<path d="M423.3 553.4L430.3 488.1C430.3 488.1 420.7 482.2 423.4 471C423.4 471 426 462.1 434.8 469.2L435.4 453.4C435.4 453.4 466.6 465.9 485.3 448.6C485.3 448.6 497.2 510.7 469.2 509.9L474 562.1L423.3 553.4Z" fill="#FAD338"/>
<path d="M474.5 562.7L422.7 553.8L429.8 488.4C428.2 487.3 420.4 481.3 422.9 470.9C423 470.7 424 467.1 427.1 466.2C429.2 465.6 431.6 466.2 434.3 468.2L434.9 452.7L435.6 453C435.9 453.1 466.7 465.2 485 448.2L485.7 447.6L485.9 448.5C486.2 450.2 493.8 490.6 481.3 505.3C478.4 508.7 474.5 510.5 469.9 510.5L474.5 562.7ZM423.8 553L473.4 561.5L468.6 509.4H469.2C473.7 509.5 477.5 507.9 480.4 504.6C491.6 491.5 486 455.6 484.9 449.6C467.6 464.7 440.4 455.8 435.8 454.2L435.2 470.3L434.4 469.7C431.7 467.5 429.3 466.6 427.4 467.2C424.8 468 423.9 471.2 423.8 471.2C421.2 481.9 430.4 487.7 430.5 487.7L430.8 487.9L423.8 553Z" fill="#261134"/>
<path d="M472.2 522.7C472.2 522.7 456.6 541 424.2 521.4L385.9 537.6C375.2 542.1 367.3 551.6 364.9 563L338.8 683.4C336.1 695.9 345.3 707.7 358.1 708.2L384.2 709.1L383.3 741.6L544 711.8L529.1 565.9C527.1 553.9 519.2 543.6 508.1 538.6L472.2 522.7Z" fill="#1BA096"/>
<path d="M382.8 742.2L383.7 709.6L358.1 708.7C351.9 708.5 346.1 705.5 342.3 700.6C338.5 695.7 337 689.4 338.4 683.3L364.5 562.9C367 551.4 375 541.8 385.8 537.2L424.3 520.9L424.5 521C456.1 540 471.7 522.5 471.8 522.4L472 522.1L508.2 538.2C519.5 543.3 527.5 553.6 529.5 565.8L544.4 712.2L382.8 742.2ZM424.2 522L386.1 538.1C375.5 542.6 367.8 551.9 365.4 563.1L339.3 683.5C338 689.3 339.4 695.3 343.1 700C346.7 704.7 352.2 707.5 358.2 707.7L384.8 708.6L383.9 741L543.5 711.4L528.7 566C526.7 554.1 519 544.1 508 539.1L472.5 523.3C470.2 525.5 454.2 540 424.2 522Z" fill="#261134"/>
<path d="M476.3 680.2L500.7 678.4L508.1 675.8C513.2 674 518.8 674.1 523.9 676.1L556.7 689.2L566.6 701.8H474.4L476.3 680.2Z" fill="#FAD338"/>
<path d="M567.6 702.4H473.8L475.8 679.8H476.2L500.5 678L507.8 675.4C513 673.6 518.8 673.7 523.9 675.7L556.8 688.9L567.6 702.4ZM474.9 701.4H565.5L556.3 689.7L523.6 676.6C518.7 674.6 513.2 674.5 508.2 676.3L500.7 678.9L476.7 680.7L474.9 701.4Z" fill="#261134"/>
<path d="M581.5 983L564 1021.1L516.9 1005.8L530 964.8L581.5 983Z" fill="#261134"/>
<path d="M684.3 606.2H552.4C549.1 606.2 546.2 608.6 545.5 611.8L525 711.8H671.2L691.1 614.6C692.1 610.3 688.8 606.2 684.3 606.2Z" fill="#261134"/>
<path d="M796 1023.2L695.7 1060.7L679.7 1016.1L667.6 982.5L717 964L729.7 1000.6L732.2 1007.8C732.3 1007.8 770.2 1009 796 1023.2Z" fill="#F27B79"/>
<path d="M695.5 1061.3L667.1 982.2L717.4 963.4L732.6 1007.3C736.5 1007.5 771.9 1009.3 796.2 1022.7L797.2 1023.2L695.5 1061.3ZM668.4 982.8L696.1 1060L794.9 1023.1C769.5 1009.6 732.7 1008.3 732.3 1008.3H732L729.4 1000.8L716.9 964.7L668.4 982.8Z" fill="#261134"/>
<path d="M729.8 1000.6L679.8 1016.1L667.7 982.5L717.1 964L729.8 1000.6Z" fill="#261134"/>
<path d="M612 711.8H468.6V700.5H612.2L612 711.8Z" fill="#261134"/>
<path d="M546.6 814.7C549.7 792.7 582.8 755.8 622.1 781.2C639 792.1 635.2 831.9 625.2 870L583 1015.4L516.9 1003C516.9 1003 540.4 859 546.6 814.7Z" fill="#CDCBCC"/>
<path d="M583.3 1016L516.3 1003.4L516.4 1002.9C516.6 1001.5 540 858.4 546.1 814.7L546.6 814.8L546.1 814.7C547.9 802.1 559.2 784.4 576.9 776.3C587.1 771.6 603.4 768.6 622.4 780.8C643.1 794.1 631.6 847.7 625.7 870.1L583.3 1016ZM517.4 1002.6L582.5 1014.9L624.6 869.9C630.5 847.7 641.9 794.7 621.8 781.7C603.1 769.7 587.3 772.6 577.3 777.2C560.6 784.9 548.8 802.4 547.1 814.8C541.1 857.3 518.9 993.3 517.4 1002.6Z" fill="#261134"/>
<path d="M739 982.6L670.4 1012.4L586.9 805.2L560.7 814.2C560.7 814.2 555.4 816.1 546.6 818.8C510.7 830 417.3 856 393.7 829.5C364 796.1 384.2 726.1 384.2 726.1L649.1 702.2C683 781.3 739 982.6 739 982.6Z" fill="#CDCBCC"/>
<path d="M670.1 1013.1L669.9 1012.6L586.6 805.9L560.9 814.8C560.8 814.8 555.5 816.7 546.8 819.4C520.8 827.5 470.4 841.7 433.2 841.7C415.6 841.7 401 838.5 393.4 830C363.8 796.8 383.6 726.9 383.8 726.2L383.9 725.9H384.2L649.5 701.9L649.6 702.2C683.1 780.3 738.9 980.5 739.4 982.6L739.5 983L739.1 983.2L670.1 1013.1ZM587.2 804.6L587.4 805L670.7 1011.7L738.4 982.3C735.5 972 681.6 779.4 648.9 702.8L384.7 726.7C383.3 731.9 366 797.6 394.2 829.3C417.4 855.3 508.5 830.4 546.6 818.4C555.3 815.7 560.7 813.8 560.7 813.8L587.2 804.6Z" fill="#261134"/>
<path d="M689.7 606.2H557.8C554.5 606.2 551.6 608.6 550.9 611.8L530.4 711.8H676.6L696.5 614.6C697.5 610.3 694.2 606.2 689.7 606.2Z" fill="white"/>
<path d="M677.1 712.3H529.8L550.4 611.7C551.1 608.2 554.2 605.7 557.8 605.7H689.7C692 605.7 694.1 606.7 695.5 608.5C696.9 610.3 697.5 612.6 697 614.8L677.1 712.3ZM531.1 711.3H676.3L696.1 614.5C696.5 612.6 696 610.6 694.8 609C693.6 607.5 691.7 606.6 689.7 606.6H557.8C554.7 606.6 552 608.8 551.4 611.8L531.1 711.3Z" fill="#261134"/>
<path d="M474.5 712.8L382.4 709.6V708.6L473.6 711.8L475.8 678.9L396.2 668L408.1 624.1L409.1 624.4L397.5 667.2L476.8 678L474.5 712.8Z" fill="#261134"/>
<path d="M525 841.3H358.5V842.3H525V841.3Z" fill="#261134"/>
<path d="M632 658.8C632 664.2 626.7 668.5 621.3 668.5C615.9 668.5 612.6 664.2 612.6 658.8C612.6 653.4 616.9 649.1 622.3 649.1C627.7 649.1 632 653.4 632 658.8Z" fill="#261134"/>
<path d="M1426 1064.5H176V1066.5H1426V1064.5Z" fill="#261134"/>
</svg>
