<?xml version="1.0" encoding="UTF-8" standalone="no"?>
<!-- Created with Inkscape (http://www.inkscape.org/) -->

<svg
   version="1.1"
   id="svg2"
   width="3333.3333"
   height="3333.3333"
   viewBox="0 0 3333.3333 3333.3333"
   sodipodi:docname="13450346_OrgUVC-L_Bus-05_Single-04.eps"
   xmlns:inkscape="http://www.inkscape.org/namespaces/inkscape"
   xmlns:sodipodi="http://sodipodi.sourceforge.net/DTD/sodipodi-0.dtd"
   xmlns="http://www.w3.org/2000/svg"
   xmlns:svg="http://www.w3.org/2000/svg">
  <defs
     id="defs6">
    <clipPath
       clipPathUnits="userSpaceOnUse"
       id="clipPath62">
      <path
         d="m 8004.62,11369.8 c 3.13,1.2 1688.27,2952.2 1915.98,3230 38.32,46.7 97.6,70.5 157.6,63.3 l 470.3,-56 552.6,-1195.4 -920.5,536.1 c 91,-630 -1091.53,-1566.2 -1497.1,-1907.8 -41.17,-34.7 -44.54,-96.8 -7.37,-135.7 l 161.92,-169.5 c -265.83,-269.5 -572.57,-442.5 -918.77,-522.5 z"
         id="path60" />
    </clipPath>
    <linearGradient
       x1="0"
       y1="0"
       x2="1"
       y2="0"
       gradientUnits="userSpaceOnUse"
       gradientTransform="matrix(2656.73,-1516.42,1516.42,2656.73,7600.7,13841.9)"
       spreadMethod="pad"
       id="linearGradient68">
      <stop
         style="stop-opacity:1;stop-color:#ffffff"
         offset="0"
         id="stop64" />
      <stop
         style="stop-opacity:1;stop-color:#efeff4"
         offset="1"
         id="stop66" />
    </linearGradient>
    <clipPath
       clipPathUnits="userSpaceOnUse"
       id="clipPath80">
      <path
         d="m 8661,10645.5 c 2.82,1.8 255.65,610.9 258.47,612.7 231.81,1411.4 797.39,2620.1 964.18,2938.2 28.06,53.5 81.31,88.8 141.55,93.9 l 471.9,40.3 783.1,-1058.8 -1010,338.7 c 216.7,-598.5 -751.97,-1754.7 -1080.01,-2171.3 -33.3,-42.3 -24.04,-103.8 20.24,-134.4 l 192.87,-133.2 c -205.79,-317.7 -471.18,-549.2 -794.02,-697.6 z"
         id="path78" />
    </clipPath>
    <linearGradient
       x1="0"
       y1="0"
       x2="1"
       y2="0"
       gradientUnits="userSpaceOnUse"
       gradientTransform="matrix(-9090.01,5690.48,-5690.48,-9090.01,7857.71,13463.7)"
       spreadMethod="pad"
       id="linearGradient86">
      <stop
         style="stop-opacity:1;stop-color:#ffffff"
         offset="0"
         id="stop82" />
      <stop
         style="stop-opacity:1;stop-color:#efeff4"
         offset="1"
         id="stop84" />
    </linearGradient>
    <clipPath
       clipPathUnits="userSpaceOnUse"
       id="clipPath104">
      <path
         d="m 10604.4,14450.8 373.5,406.5 431.5,-116.2 c 0,0 503,-77.9 790.9,0 287.9,78 287.9,78 287.9,78 l 650.5,202.5 102.2,-288.8 c 26,-73.3 -0.1,-154.7 -63.5,-199.7 -56.3,-40 -122.3,-84 -164.3,-102.4 -85.7,-37.4 -1973.6,-11.8 -1973.6,-11.8 z"
         id="path102" />
    </clipPath>
    <linearGradient
       x1="0"
       y1="0"
       x2="1"
       y2="0"
       gradientUnits="userSpaceOnUse"
       gradientTransform="matrix(2644.42,1539.13,1539.13,-2644.42,13155,15317.6)"
       spreadMethod="pad"
       id="linearGradient110">
      <stop
         style="stop-opacity:1;stop-color:#ffffff"
         offset="0"
         id="stop106" />
      <stop
         style="stop-opacity:1;stop-color:#efeff4"
         offset="1"
         id="stop108" />
    </linearGradient>
    <clipPath
       clipPathUnits="userSpaceOnUse"
       id="clipPath120">
      <path
         d="m 11227.6,17609.9 374.7,-696.8 c -24.8,-152.1 -407.8,-156.4 -467,-65.5 -6,9.2 -9.5,19.9 -11.8,30.7 l -224.1,465.5 c -9.6,45.4 114.8,198.4 155.8,220.2 l 148.9,79.3 c 57.4,30.5 -181.9,32.9 23.5,-33.4 z"
         id="path118" />
    </clipPath>
    <linearGradient
       x1="0"
       y1="0"
       x2="1"
       y2="0"
       gradientUnits="userSpaceOnUse"
       gradientTransform="matrix(-413.19,619.784,619.784,413.19,11367.5,16960.7)"
       spreadMethod="pad"
       id="linearGradient126">
      <stop
         style="stop-opacity:1;stop-color:#ffffff"
         offset="0"
         id="stop122" />
      <stop
         style="stop-opacity:1;stop-color:#efeff4"
         offset="1"
         id="stop124" />
    </linearGradient>
    <clipPath
       clipPathUnits="userSpaceOnUse"
       id="clipPath136">
      <path
         d="m 10469.3,17773.4 c 0,0 -42.3,-235.4 142.7,-534.7 185,-299.3 369.3,-285.8 462.9,-179.1 93.6,106.8 205.7,284.6 154.7,583.1 -51,298.5 -696.4,430.8 -760.3,130.7 z"
         id="path134" />
    </clipPath>
    <linearGradient
       x1="0"
       y1="0"
       x2="1"
       y2="0"
       gradientUnits="userSpaceOnUse"
       gradientTransform="matrix(175.606,2096.94,2096.94,-175.606,10910.4,18276.9)"
       spreadMethod="pad"
       id="linearGradient142">
      <stop
         style="stop-opacity:1;stop-color:#ffffff"
         offset="0"
         id="stop138" />
      <stop
         style="stop-opacity:1;stop-color:#efeff4"
         offset="1"
         id="stop140" />
    </linearGradient>
    <clipPath
       clipPathUnits="userSpaceOnUse"
       id="clipPath154">
      <path
         d="m 11074.4,17620.7 c 0,0 -155.2,201.4 -14,243.2 141.3,41.8 136,-197.3 126.8,-286.3 z"
         id="path152" />
    </clipPath>
    <linearGradient
       x1="0"
       y1="0"
       x2="1"
       y2="0"
       gradientUnits="userSpaceOnUse"
       gradientTransform="matrix(175.605,2096.93,2096.93,-175.605,11142.1,18257.5)"
       spreadMethod="pad"
       id="linearGradient160">
      <stop
         style="stop-opacity:1;stop-color:#ffffff"
         offset="0"
         id="stop156" />
      <stop
         style="stop-opacity:1;stop-color:#efeff4"
         offset="1"
         id="stop158" />
    </linearGradient>
  </defs>
  <sodipodi:namedview
     id="namedview4"
     pagecolor="#ffffff"
     bordercolor="#000000"
     borderopacity="0.25"
     inkscape:showpageshadow="2"
     inkscape:pageopacity="0.0"
     inkscape:pagecheckerboard="0"
     inkscape:deskcolor="#d1d1d1" />
  <g
     id="g8"
     inkscape:groupmode="layer"
     inkscape:label="ink_ext_XXXXXX"
     transform="matrix(1.3333333,0,0,-1.3333333,0,3333.3333)">
    <g
       id="g10"
       transform="scale(0.1)">
      <path
         d="M 0,0 H 25000 V 25000 H 0 Z"
         style="fill:#ffffff;fill-opacity:1;fill-rule:nonzero;stroke:none"
         id="path12" />
      <path
         d="m 19343.6,6049.1 c -470.2,-484.7 -568.8,-554.5 -890.9,-769.6 C 15311.3,3182 10765.9,3689 9655.62,3895.6 7864.39,4229 6984.7,4346.7 5685.59,5520.4 c -2952,2667 -2808.42,8230.6 -552.73,11677 267.45,408.6 2480.36,3579.3 6079.14,4049.8 88,11.5 4257.1,562 7070.2,-1794.7 402.6,-337.4 1050.6,-945.9 1651.6,-1874 C 22131,14185.1 22138,8929.4 19343.6,6049.1"
         style="fill:#efeff4;fill-opacity:1;fill-rule:nonzero;stroke:none"
         id="path14" />
      <path
         d="m 5339.43,20038.5 c -33.63,76.2 51.67,150.5 123.19,107.7 726.26,-434 2544.48,-1811.7 2831.33,-4851.6 359.89,-3814 1430.25,-5000.3 2574.35,-5616.5 0,0 -1407.92,99.5 -2541.07,1293 -2782.15,2930.2 -2389.88,7712 -2987.8,9067.4"
         style="fill:#c6c9d3;fill-opacity:1;fill-rule:nonzero;stroke:none"
         id="path16" />
      <path
         d="m 7707.6,13761.7 -172.78,4.5 c -16.96,91 -33.55,182.1 -50.22,272.9 -75.38,424.1 -151.94,846.2 -246.57,1264.7 -92.76,419 -203.31,833.8 -321.61,1246.5 -119.9,412.3 -252.74,821.1 -397.9,1225.6 -143.05,405.3 -300.96,805.5 -466.79,1202.6 -4.55,10.9 0.26,23.6 11.08,28.7 3.07,1.5 6.31,2.2 9.5,2.2 8.37,0 16.39,-4.8 20.2,-12.8 183.75,-390.2 352.48,-787.5 510.6,-1189.1 156.19,-402.4 299.71,-809.8 430.74,-1221.5 32.56,-103 64.29,-206.3 95.46,-309.7 30.16,-103.7 60.52,-207.4 88.86,-311.7 57.89,-208.2 112.07,-417.5 162.46,-627.7 101.94,-420.1 186.56,-844.5 267.87,-1267.3 19.62,-102.7 39.11,-205.4 59.1,-307.9"
         style="fill:#e1e2e8;fill-opacity:1;fill-rule:nonzero;stroke:none"
         id="path18" />
      <path
         d="m 8824.9,9635.5 c -1.73,-140.4 -146.28,-233.4 -275.5,-178.4 -712.99,303.1 -2651.36,1342.4 -3391.6,3912.5 -625.1,2170.3 -1170.3,3287.7 -1452.95,3777.8 -59.77,103.7 47.51,223.4 157.15,175.5 1209.62,-528.3 5025.6,-2599.9 4962.9,-7687.4"
         style="fill:#d7d9e0;fill-opacity:1;fill-rule:nonzero;stroke:none"
         id="path20" />
      <path
         d="m 8645.73,9571.9 c -2.11,-2.7 -4.5,-5.3 -7.2,-7.7 -22.6,-20.2 -57.25,-18.2 -77.4,4.4 -22.84,25.6 -2295.5,2595.9 -3300.98,5574.3 -9.67,28.7 5.72,59.8 34.41,69.5 28.69,9.7 59.79,-5.7 69.48,-34.4 998.15,-2956.8 3256.24,-5511 3278.92,-5536.4 17.75,-19.9 18.33,-49.2 2.77,-69.7"
         style="fill:#efeff4;fill-opacity:1;fill-rule:nonzero;stroke:none"
         id="path22" />
      <path
         d="M 8711.12,10937.3 H 20768.6 c 486.8,0 881.4,361 881.4,806.3 v 7182.7 c 0,427.9 -365.4,781.3 -832.4,805.1 l -12522.69,638.5 c -524.3,26.8 -957.71,-369.2 -929.17,-848.9 L 7831,11699.8 c 25.44,-427.7 411.94,-762.5 880.12,-762.5"
         style="fill:#f3d33f;fill-opacity:1;fill-rule:nonzero;stroke:none"
         id="path24" />
      <path
         d="m 14458.3,15271.4 -6590.98,5021.7 c 128.58,56.1 274.13,84.7 427.59,76.8 l 12522.69,-638.5 c 215.4,-11 409,-92.1 555.2,-218.3 l -4932.7,-4196.8 c -535.5,-455.7 -1416.5,-475.6 -1981.8,-44.9"
         style="fill:#f7e057;fill-opacity:1;fill-rule:nonzero;stroke:none"
         id="path26" />
      <path
         d="m 15374.6,15520.2 c 327.7,0 653.9,107.3 916,319 l 1858.6,1501.1 c 54.5,44 59.7,120.1 11.5,170.1 -48.1,49.9 -131.4,54.6 -185.9,10.5 l -1858.6,-1501 c -394.8,-318.9 -969.2,-345.2 -1397,-64 l -963,633.3 c -59.3,38.8 -141.4,26.4 -183.9,-27.5 -42.5,-54.1 -29,-129.4 30.1,-168.3 l 963.1,-633.2 c 244.2,-160.6 527.2,-240 809.1,-240"
         style="fill:#f7eba6;fill-opacity:1;fill-rule:nonzero;stroke:none"
         id="path28" />
      <path
         d="m 18753.4,17868.5 c 31.1,0 62.1,10 87.2,30.2 l 250.2,202.1 c 54.5,44 59.7,120.2 11.6,170.1 -48.2,49.9 -131.4,54.6 -186,10.5 l -250.2,-202 c -54.5,-44.1 -59.7,-120.2 -11.5,-170.1 26,-27 62.3,-40.8 98.7,-40.8"
         style="fill:#f7eba6;fill-opacity:1;fill-rule:nonzero;stroke:none"
         id="path30" />
      <path
         d="m 4354.9,6052.6 c 0,-125.9 103.08,-228.8 229.07,-228.8 H 16971.1 c 126,0 229.1,102.9 229.1,228.8 l 103.1,7118.6 c 0,125.8 -148.3,371.6 -420.1,353.1 l -12106.09,313.2 c -158.08,4.1 -310.92,-56.7 -422.87,-168.3 -111.94,-111.6 -173.19,-264.1 -169.46,-422.1 L 4354.9,6052.6"
         style="fill:#333435;fill-opacity:1;fill-rule:nonzero;stroke:none"
         id="path32" />
      <path
         d="m 4581.05,6272.2 c 0,-119.2 97.53,-216.8 216.71,-216.8 H 16672.4 c 119.2,0 216.7,97.6 216.7,216.8 l 97.3,6462.3 c -11.5,388.8 -352.4,528.6 -559.1,520.4 l -11602.58,311.2 c -111.06,3 -218.43,-39.8 -297.09,-118.2 -78.66,-78.5 -121.92,-185.9 -119.13,-296.9 l 172.55,-6878.8"
         style="fill:#a8abb2;fill-opacity:1;fill-rule:nonzero;stroke:none"
         id="path34" />
      <path
         d="m 16760.8,9342.2 h -0.5 c -17.5,0.3 -31.5,14.7 -31.3,32.2 l 7.7,524.1 c 0.3,17.4 14.4,31.3 31.7,31.3 h 0.5 c 17.6,-0.2 31.6,-14.7 31.3,-32.2 l -7.7,-524.1 c -0.2,-17.4 -14.4,-31.3 -31.7,-31.3"
         style="fill:#c6c9d3;fill-opacity:1;fill-rule:nonzero;stroke:none"
         id="path36" />
      <path
         d="m 16779.7,10626.5 h -0.5 c -17.6,0.2 -31.6,14.7 -31.3,32.2 l 29.5,2007.3 c -0.6,119.2 -36.8,214.4 -107.6,282.2 -132.2,126.7 -342.2,120.3 -351,119.8 l -3708.4,99.5 c -17.6,0.4 -31.4,15 -30.9,32.6 0.4,17.5 13.9,32.4 32.6,30.9 l 3706.2,-99.5 c 23.1,1.4 246.6,5.2 395.4,-137.4 83.8,-80.2 126.5,-190.8 127.2,-328.5 l -29.5,-2007.8 c -0.3,-17.4 -14.4,-31.3 -31.7,-31.3"
         style="fill:#c6c9d3;fill-opacity:1;fill-rule:nonzero;stroke:none"
         id="path38" />
      <path
         d="M 3406.54,5232.8 H 17897.4 c 31.1,0 56.6,25.5 56.6,56.6 v 512.4 c 0,31.1 -25.5,56.5 -56.6,56.5 H 3406.54 c -31.1,0 -56.54,-25.4 -56.54,-56.5 v -512.4 c 0,-31.1 25.44,-56.6 56.54,-56.6"
         style="fill:#333435;fill-opacity:1;fill-rule:nonzero;stroke:none"
         id="path40" />
      <path
         d="m 5524.8,6042.8 c -19.11,0 -38.19,4.2 -55.74,12.6 h 111.42 c -17.58,-8.4 -36.64,-12.6 -55.68,-12.6"
         style="fill:#b4b4b5;fill-opacity:1;fill-rule:nonzero;stroke:none"
         id="path42" />
      <path
         d="m 17282.6,11741.9 4.9,341.7 1951.1,1651.9 c 24,20.4 53.6,30.5 83.2,30.5 32,0 63.9,-11.9 88.7,-35.4 l 103,-97.9 v -355.2 l -196.7,186.8 -2034.2,-1722.4"
         style="fill:#fbefb8;fill-opacity:1;fill-rule:nonzero;stroke:none"
         id="path44" />
      <path
         d="m 16967.4,11475.1 5.2,341.8 314.9,266.7 -4.9,-341.7 -315.2,-266.8"
         style="fill:#b4b4b5;fill-opacity:1;fill-rule:nonzero;stroke:none"
         id="path46" />
      <path
         d="m 5580.48,6055.4 h -111.42 c -13.74,6.6 -26.53,15.8 -37.66,27.5 -48.97,51.6 -46.88,133.1 4.69,182.1 l 5669.81,5384.9 c 24.8,23.6 56.7,35.4 88.6,35.4 31.9,0 63.9,-11.8 88.7,-35.4 l 2588.5,-2458.4 2890.6,2447.4 -5,-341.8 L 13950,8920.3 c -24.1,-20.4 -53.7,-30.5 -83.2,-30.5 -32,0 -63.9,11.8 -88.7,35.4 L 11194.5,11378.9 5613.46,6078.2 c -10.01,-9.5 -21.16,-17.1 -32.98,-22.8 m 11241.12,5296.2 5,341.7 146,123.6 -5.2,-341.8 -145.8,-123.5"
         style="fill:#dfe0e3;fill-opacity:1;fill-rule:nonzero;stroke:none"
         id="path48" />
      <path
         d="m 16757.3,11297.1 5,341.8 64.3,54.4 -5,-341.7 -64.3,-54.5"
         style="fill:#eaebef;fill-opacity:1;fill-rule:nonzero;stroke:none"
         id="path50" />
      <path
         d="m 11756.1,11299.4 c 0,-333.8 -284.8,-604.3 -636.2,-604.3 -351.4,0 -636.2,270.5 -636.2,604.3 0,333.7 284.8,604.3 636.2,604.3 351.4,0 636.2,-270.6 636.2,-604.3"
         style="fill:#ffffff;fill-opacity:1;fill-rule:nonzero;stroke:none"
         id="path52" />
      <path
         d="m 19954.2,13637.2 c 0,-333.7 -284.9,-604.3 -636.3,-604.3 -351.3,0 -636.2,270.6 -636.2,604.3 0,333.7 284.9,604.3 636.2,604.3 351.4,0 636.3,-270.6 636.3,-604.3"
         style="fill:#ffffff;fill-opacity:1;fill-rule:nonzero;stroke:none"
         id="path54" />
      <g
         id="g56">
        <g
           id="g58"
           clip-path="url(#clipPath62)">
          <path
             d="m 8004.62,11369.8 c 3.13,1.2 1688.27,2952.2 1915.98,3230 38.32,46.7 97.6,70.5 157.6,63.3 l 470.3,-56 552.6,-1195.4 -920.5,536.1 c 91,-630 -1091.53,-1566.2 -1497.1,-1907.8 -41.17,-34.7 -44.54,-96.8 -7.37,-135.7 l 161.92,-169.5 c -265.83,-269.5 -572.57,-442.5 -918.77,-522.5 l 85.34,157.5"
             style="fill:url(#linearGradient68);fill-opacity:1;fill-rule:nonzero;stroke:none"
             id="path70" />
        </g>
      </g>
      <path
         d="m 8744.38,11826.3 c 0,0 103.34,-33.4 138.33,-125.5 16.74,-44 -1.3,-93.9 -39.59,-121.3 -170.17,-121.9 -731.45,-515.5 -990.47,-592.6 -21.23,-6.3 -41.43,12.9 -36.65,34.5 13.29,60.2 56.29,180.4 194.8,356.3 l -12.43,-25.2 c -15.72,-31.8 18.92,-64.9 49.82,-47.5 173.24,97.8 526.11,311.9 696.19,521.3"
         style="fill:#333435;fill-opacity:1;fill-rule:nonzero;stroke:none"
         id="path72" />
      <g
         id="g74">
        <g
           id="g76"
           clip-path="url(#clipPath80)">
          <path
             d="m 8661,10645.5 c 2.82,1.8 255.65,610.9 258.47,612.7 231.81,1411.4 797.39,2620.1 964.18,2938.2 28.06,53.5 81.31,88.8 141.55,93.9 l 471.9,40.3 783.1,-1058.8 -1010,338.7 c 216.7,-598.5 -751.97,-1754.7 -1080.01,-2171.3 -33.3,-42.3 -24.04,-103.8 20.24,-134.4 l 192.87,-133.2 c -205.79,-317.7 -471.18,-549.2 -794.02,-697.6 l 51.72,171.5"
             style="fill:url(#linearGradient86);fill-opacity:1;fill-rule:nonzero;stroke:none"
             id="path88" />
        </g>
      </g>
      <path
         d="m 9293.06,11242.2 c 0,0 107.96,-11.7 160.85,-94.8 25.3,-39.7 17.73,-92.2 -14.22,-126.8 -141.97,-153.9 -611.99,-652.9 -850.04,-780.8 -19.52,-10.5 -43.19,4.2 -42.89,26.4 0.84,61.6 18.63,188 118.68,388.3 l -7.08,-27.2 c -8.96,-34.3 31.66,-59.7 58.4,-36.4 149.86,130.8 452.11,411.9 576.3,651.3"
         style="fill:#333435;fill-opacity:1;fill-rule:nonzero;stroke:none"
         id="path90" />
      <path
         d="m 12706.3,14553.6 c 0,0 427,-635 462,-924.7 35,-289.7 -118.1,-389.9 -565,-426.8 -1329.8,-109.9 -1985.3,288.6 -1985.3,288.6 -91,580 -155.7,727.6 -915.46,1043 0,0 960.96,-76.3 1154.36,-1.3 193.4,75.1 1849.4,21.2 1849.4,21.2"
         style="fill:#5c5e61;fill-opacity:1;fill-rule:nonzero;stroke:none"
         id="path92" />
      <path
         d="m 11003.8,18111.5 c 0,0 297.3,351.8 613.5,-79.9 57.2,-78.2 277.2,-13.7 357.8,-177.3 41.6,-84.5 131.5,-132.5 224.1,-115.4 230.7,42.5 607.8,46.1 794,-315.4 142.1,-275.9 32.4,-437.4 -109.7,-529.5 -104.3,-67.6 -141.6,-204.9 -78.5,-312 60.5,-102.8 71.9,-241.9 -84.3,-409.4 -350.2,-375.3 -1043.3,238.2 -1043.3,238.2 l -550.4,1300.4 -123.2,400.3"
         style="fill:#333435;fill-opacity:1;fill-rule:nonzero;stroke:none"
         id="path94" />
      <path
         d="m 11551.7,14637.7 c 0,0 -497.2,473.4 -742,787 -132.3,169.5 -173.8,392.6 -112.6,598.7 111.7,376.5 310.3,766.4 328.4,827 27.8,93 585.2,89.2 585.2,89.2 0,0 1097,-712 1528,-1918 l -484,-150.7 c 0,0 -286.4,480.5 -569.4,786 0,0 489.7,-646.9 506.9,-911.7 l -1040.5,-107.5"
         style="fill:#74767b;fill-opacity:1;fill-rule:nonzero;stroke:none"
         id="path96" />
      <g
         id="g98">
        <g
           id="g100"
           clip-path="url(#clipPath104)">
          <path
             d="m 10604.4,14450.8 373.5,406.5 431.5,-116.2 c 0,0 503,-77.9 790.9,0 287.9,78 287.9,78 287.9,78 l 650.5,202.5 102.2,-288.8 c 26,-73.3 -0.1,-154.7 -63.5,-199.7 -56.3,-40 -122.3,-84 -164.3,-102.4 -85.7,-37.4 -1973.6,-11.8 -1973.6,-11.8 l -435.1,31.9"
             style="fill:url(#linearGradient110);fill-opacity:1;fill-rule:nonzero;stroke:none"
             id="path112" />
        </g>
      </g>
      <g
         id="g114">
        <g
           id="g116"
           clip-path="url(#clipPath120)">
          <path
             d="m 11227.6,17609.9 374.7,-696.8 c -24.8,-152.1 -407.8,-156.4 -467,-65.5 -6,9.2 -9.5,19.9 -11.8,30.7 l -224.1,465.5 c -9.6,45.4 114.8,198.4 155.8,220.2 l 148.9,79.3 c 57.4,30.5 -181.9,32.9 23.5,-33.4"
             style="fill:url(#linearGradient126);fill-opacity:1;fill-rule:nonzero;stroke:none"
             id="path128" />
        </g>
      </g>
      <g
         id="g130">
        <g
           id="g132"
           clip-path="url(#clipPath136)">
          <path
             d="m 10469.3,17773.4 c 0,0 -42.3,-235.4 142.7,-534.7 185,-299.3 369.3,-285.8 462.9,-179.1 93.6,106.8 205.7,284.6 154.7,583.1 -51,298.5 -696.4,430.8 -760.3,130.7"
             style="fill:url(#linearGradient142);fill-opacity:1;fill-rule:nonzero;stroke:none"
             id="path144" />
        </g>
      </g>
      <path
         d="m 11005.6,17610.2 c 0,0 -299.6,393.5 -529.6,50.5 l 3.9,-118.5 c 0,0 -299.1,14 -266.7,289.6 32.5,275.7 276.7,464 615.2,369.9 338.5,-94.2 536.3,-201.5 574.5,-436.5 38.3,-235.1 -153.7,-196.7 -153.7,-196.7 0,0 -73.3,162.2 -161.8,173.3 -88.5,11.1 -56.5,-117.2 -56.5,-117.2 l -25.3,-14.4"
         style="fill:#333435;fill-opacity:1;fill-rule:nonzero;stroke:none"
         id="path146" />
      <g
         id="g148">
        <g
           id="g150"
           clip-path="url(#clipPath154)">
          <path
             d="m 11074.4,17620.7 c 0,0 -155.2,201.4 -14,243.2 141.3,41.8 136,-197.3 126.8,-286.3 l -112.8,43.1"
             style="fill:url(#linearGradient160);fill-opacity:1;fill-rule:nonzero;stroke:none"
             id="path162" />
        </g>
      </g>
      <path
         d="m 11841,14290 c -1.3,-0.1 -2.7,-0.1 -4,-0.1 l -1718.3,1.9 c -42.5,0 -76.9,34.5 -76.8,76.9 0,42.5 34.6,77.6 77,76.9 l 1718.3,-1.9 c 42.5,0 76.9,-34.5 76.8,-77 0,-41.1 -32.4,-74.7 -73,-76.7"
         style="fill:#333435;fill-opacity:1;fill-rule:nonzero;stroke:none"
         id="path164" />
      <path
         d="m 8574,15850.1 h 1431 c 105.6,0 201.7,-60.9 246.7,-156.4 l 661.6,-1402.8 H 9134.89 c -68.02,0 -129.15,41.6 -154.16,104.8 l -513.01,1298.1 c -29.64,75 25.63,156.3 106.28,156.3"
         style="fill:#333435;fill-opacity:1;fill-rule:nonzero;stroke:none"
         id="path166" />
      <path
         d="m 9582.18,15130.9 c 31.01,-96.4 8.1,-190 -51.17,-209 -59.27,-19.1 -132.46,43.5 -163.47,139.9 -31.01,96.3 -8.1,189.9 51.17,209 59.27,19 132.46,-43.6 163.47,-139.9"
         style="fill:#74767b;fill-opacity:1;fill-rule:nonzero;stroke:none"
         id="path168" />
      <path
         d="m 16433.5,4961.7 c 1791.3,889.2 3173.1,2287.9 3327.2,5214.7 0,0 -4662,-1556.4 -3327.2,-5214.7"
         style="fill:#d7d9e0;fill-opacity:1;fill-rule:nonzero;stroke:none"
         id="path170" />
      <path
         d="m 16614.5,5034 c 1259,-116.2 2466.8,177.7 3521.4,1701.4 0,0 -3025.2,710.1 -3521.4,-1701.4"
         style="fill:#c6c9d3;fill-opacity:1;fill-rule:nonzero;stroke:none"
         id="path172" />
      <path
         d="m 16723.3,5618.3 c 9.8,0 18.9,6.1 22.4,15.9 814.1,2320.9 2392.7,3663.8 2408.5,3677.1 10.1,8.4 11.4,23.4 3,33.4 -8.4,10.1 -23.4,11.5 -33.5,3 -15.9,-13.4 -1604.2,-1364.1 -2422.9,-3697.8 -4.3,-12.4 2.2,-25.9 14.6,-30.2 2.6,-1 5.2,-1.4 7.9,-1.4"
         style="fill:#efeff4;fill-opacity:1;fill-rule:nonzero;stroke:none"
         id="path174" />
      <path
         d="m 17328.8,5436.4 c 6.8,0 13.5,2.8 18.2,8.4 710.5,837.5 2300.1,1107.8 2316.1,1110.5 12.9,2.1 21.7,14.3 19.6,27.2 -2.2,13 -14.2,22.1 -27.3,19.6 -16.2,-2.6 -1623,-275.9 -2344.7,-1126.6 -8.4,-10 -7.2,-25 2.8,-33.5 4.4,-3.7 9.9,-5.6 15.3,-5.6"
         style="fill:#e8e8ef;fill-opacity:1;fill-rule:nonzero;stroke:none"
         id="path176" />
    </g>
  </g>
</svg>
